%TF.GenerationSoftware,KiCad,Pcbnew,9.0.2*%
%TF.CreationDate,2025-08-29T11:08:53+00:00*%
%TF.ProjectId,AERIS-Nano Breakout Board,41455249-532d-44e6-916e-6f2042726561,rev?*%
%TF.SameCoordinates,Original*%
%TF.FileFunction,Legend,Bot*%
%TF.FilePolarity,Positive*%
%FSLAX46Y46*%
G04 Gerber Fmt 4.6, Leading zero omitted, Abs format (unit mm)*
G04 Created by KiCad (PCBNEW 9.0.2) date 2025-08-29 11:08:53*
%MOMM*%
%LPD*%
G01*
G04 APERTURE LIST*
G04 Aperture macros list*
%AMRoundRect*
0 Rectangle with rounded corners*
0 $1 Rounding radius*
0 $2 $3 $4 $5 $6 $7 $8 $9 X,Y pos of 4 corners*
0 Add a 4 corners polygon primitive as box body*
4,1,4,$2,$3,$4,$5,$6,$7,$8,$9,$2,$3,0*
0 Add four circle primitives for the rounded corners*
1,1,$1+$1,$2,$3*
1,1,$1+$1,$4,$5*
1,1,$1+$1,$6,$7*
1,1,$1+$1,$8,$9*
0 Add four rect primitives between the rounded corners*
20,1,$1+$1,$2,$3,$4,$5,0*
20,1,$1+$1,$4,$5,$6,$7,0*
20,1,$1+$1,$6,$7,$8,$9,0*
20,1,$1+$1,$8,$9,$2,$3,0*%
G04 Aperture macros list end*
%ADD10C,0.100000*%
%ADD11C,0.150000*%
%ADD12C,0.200000*%
%ADD13C,0.300000*%
%ADD14C,0.120000*%
%ADD15C,0.010000*%
%ADD16R,1.700000X1.700000*%
%ADD17C,1.700000*%
%ADD18C,1.600000*%
%ADD19RoundRect,0.250000X0.750000X-0.600000X0.750000X0.600000X-0.750000X0.600000X-0.750000X-0.600000X0*%
%ADD20O,2.000000X1.700000*%
%ADD21RoundRect,0.500000X-1.000000X-0.500000X1.000000X-0.500000X1.000000X0.500000X-1.000000X0.500000X0*%
%ADD22R,1.500000X1.050000*%
%ADD23O,1.500000X1.050000*%
G04 APERTURE END LIST*
D10*
X157000000Y-91540000D02*
X148000000Y-91500000D01*
X157000000Y-101920000D02*
X148000000Y-102000000D01*
D11*
X183714285Y-102454819D02*
X184285713Y-102454819D01*
X183999999Y-102454819D02*
X183999999Y-101454819D01*
X183999999Y-101454819D02*
X184095237Y-101597676D01*
X184095237Y-101597676D02*
X184190475Y-101692914D01*
X184190475Y-101692914D02*
X184285713Y-101740533D01*
X183285713Y-102454819D02*
X183285713Y-101454819D01*
X182714285Y-102454819D02*
X183142856Y-101883390D01*
X182714285Y-101454819D02*
X183285713Y-102026247D01*
D12*
X179071266Y-97119048D02*
X179071266Y-97880953D01*
X179071266Y-99619048D02*
X179071266Y-100380953D01*
X179452219Y-100000000D02*
X178690314Y-100000000D01*
D13*
X187928571Y-92749757D02*
X187214286Y-92749757D01*
X188071428Y-93178328D02*
X187571428Y-91678328D01*
X187571428Y-91678328D02*
X187071428Y-93178328D01*
X186571429Y-92392614D02*
X186071429Y-92392614D01*
X185857143Y-93178328D02*
X186571429Y-93178328D01*
X186571429Y-93178328D02*
X186571429Y-91678328D01*
X186571429Y-91678328D02*
X185857143Y-91678328D01*
X184357143Y-93178328D02*
X184857143Y-92464042D01*
X185214286Y-93178328D02*
X185214286Y-91678328D01*
X185214286Y-91678328D02*
X184642857Y-91678328D01*
X184642857Y-91678328D02*
X184500000Y-91749757D01*
X184500000Y-91749757D02*
X184428571Y-91821185D01*
X184428571Y-91821185D02*
X184357143Y-91964042D01*
X184357143Y-91964042D02*
X184357143Y-92178328D01*
X184357143Y-92178328D02*
X184428571Y-92321185D01*
X184428571Y-92321185D02*
X184500000Y-92392614D01*
X184500000Y-92392614D02*
X184642857Y-92464042D01*
X184642857Y-92464042D02*
X185214286Y-92464042D01*
X183714286Y-93178328D02*
X183714286Y-91678328D01*
X183071428Y-93106900D02*
X182857143Y-93178328D01*
X182857143Y-93178328D02*
X182500000Y-93178328D01*
X182500000Y-93178328D02*
X182357143Y-93106900D01*
X182357143Y-93106900D02*
X182285714Y-93035471D01*
X182285714Y-93035471D02*
X182214285Y-92892614D01*
X182214285Y-92892614D02*
X182214285Y-92749757D01*
X182214285Y-92749757D02*
X182285714Y-92606900D01*
X182285714Y-92606900D02*
X182357143Y-92535471D01*
X182357143Y-92535471D02*
X182500000Y-92464042D01*
X182500000Y-92464042D02*
X182785714Y-92392614D01*
X182785714Y-92392614D02*
X182928571Y-92321185D01*
X182928571Y-92321185D02*
X183000000Y-92249757D01*
X183000000Y-92249757D02*
X183071428Y-92106900D01*
X183071428Y-92106900D02*
X183071428Y-91964042D01*
X183071428Y-91964042D02*
X183000000Y-91821185D01*
X183000000Y-91821185D02*
X182928571Y-91749757D01*
X182928571Y-91749757D02*
X182785714Y-91678328D01*
X182785714Y-91678328D02*
X182428571Y-91678328D01*
X182428571Y-91678328D02*
X182214285Y-91749757D01*
X180428572Y-93178328D02*
X180428572Y-91678328D01*
X180428572Y-91678328D02*
X179571429Y-93178328D01*
X179571429Y-93178328D02*
X179571429Y-91678328D01*
X178928571Y-92749757D02*
X178214286Y-92749757D01*
X179071428Y-93178328D02*
X178571428Y-91678328D01*
X178571428Y-91678328D02*
X178071428Y-93178328D01*
X177571429Y-93178328D02*
X177571429Y-91678328D01*
X177571429Y-91678328D02*
X176714286Y-93178328D01*
X176714286Y-93178328D02*
X176714286Y-91678328D01*
X175714285Y-91678328D02*
X175428571Y-91678328D01*
X175428571Y-91678328D02*
X175285714Y-91749757D01*
X175285714Y-91749757D02*
X175142857Y-91892614D01*
X175142857Y-91892614D02*
X175071428Y-92178328D01*
X175071428Y-92178328D02*
X175071428Y-92678328D01*
X175071428Y-92678328D02*
X175142857Y-92964042D01*
X175142857Y-92964042D02*
X175285714Y-93106900D01*
X175285714Y-93106900D02*
X175428571Y-93178328D01*
X175428571Y-93178328D02*
X175714285Y-93178328D01*
X175714285Y-93178328D02*
X175857143Y-93106900D01*
X175857143Y-93106900D02*
X176000000Y-92964042D01*
X176000000Y-92964042D02*
X176071428Y-92678328D01*
X176071428Y-92678328D02*
X176071428Y-92178328D01*
X176071428Y-92178328D02*
X176000000Y-91892614D01*
X176000000Y-91892614D02*
X175857143Y-91749757D01*
X175857143Y-91749757D02*
X175714285Y-91678328D01*
D10*
X153066390Y-99130952D02*
X153018771Y-98988095D01*
X153018771Y-98988095D02*
X152971152Y-98940476D01*
X152971152Y-98940476D02*
X152875914Y-98892857D01*
X152875914Y-98892857D02*
X152733057Y-98892857D01*
X152733057Y-98892857D02*
X152637819Y-98940476D01*
X152637819Y-98940476D02*
X152590200Y-98988095D01*
X152590200Y-98988095D02*
X152542580Y-99083333D01*
X152542580Y-99083333D02*
X152542580Y-99464285D01*
X152542580Y-99464285D02*
X153542580Y-99464285D01*
X153542580Y-99464285D02*
X153542580Y-99130952D01*
X153542580Y-99130952D02*
X153494961Y-99035714D01*
X153494961Y-99035714D02*
X153447342Y-98988095D01*
X153447342Y-98988095D02*
X153352104Y-98940476D01*
X153352104Y-98940476D02*
X153256866Y-98940476D01*
X153256866Y-98940476D02*
X153161628Y-98988095D01*
X153161628Y-98988095D02*
X153114009Y-99035714D01*
X153114009Y-99035714D02*
X153066390Y-99130952D01*
X153066390Y-99130952D02*
X153066390Y-99464285D01*
X152542580Y-98464285D02*
X153542580Y-98464285D01*
X153542580Y-98464285D02*
X152828295Y-98130952D01*
X152828295Y-98130952D02*
X153542580Y-97797619D01*
X153542580Y-97797619D02*
X152542580Y-97797619D01*
X153066390Y-97321428D02*
X153066390Y-96988095D01*
X152542580Y-96845238D02*
X152542580Y-97321428D01*
X152542580Y-97321428D02*
X153542580Y-97321428D01*
X153542580Y-97321428D02*
X153542580Y-96845238D01*
X153447342Y-96464285D02*
X153494961Y-96416666D01*
X153494961Y-96416666D02*
X153542580Y-96321428D01*
X153542580Y-96321428D02*
X153542580Y-96083333D01*
X153542580Y-96083333D02*
X153494961Y-95988095D01*
X153494961Y-95988095D02*
X153447342Y-95940476D01*
X153447342Y-95940476D02*
X153352104Y-95892857D01*
X153352104Y-95892857D02*
X153256866Y-95892857D01*
X153256866Y-95892857D02*
X153114009Y-95940476D01*
X153114009Y-95940476D02*
X152542580Y-96511904D01*
X152542580Y-96511904D02*
X152542580Y-95892857D01*
X153114009Y-95321428D02*
X153161628Y-95416666D01*
X153161628Y-95416666D02*
X153209247Y-95464285D01*
X153209247Y-95464285D02*
X153304485Y-95511904D01*
X153304485Y-95511904D02*
X153352104Y-95511904D01*
X153352104Y-95511904D02*
X153447342Y-95464285D01*
X153447342Y-95464285D02*
X153494961Y-95416666D01*
X153494961Y-95416666D02*
X153542580Y-95321428D01*
X153542580Y-95321428D02*
X153542580Y-95130952D01*
X153542580Y-95130952D02*
X153494961Y-95035714D01*
X153494961Y-95035714D02*
X153447342Y-94988095D01*
X153447342Y-94988095D02*
X153352104Y-94940476D01*
X153352104Y-94940476D02*
X153304485Y-94940476D01*
X153304485Y-94940476D02*
X153209247Y-94988095D01*
X153209247Y-94988095D02*
X153161628Y-95035714D01*
X153161628Y-95035714D02*
X153114009Y-95130952D01*
X153114009Y-95130952D02*
X153114009Y-95321428D01*
X153114009Y-95321428D02*
X153066390Y-95416666D01*
X153066390Y-95416666D02*
X153018771Y-95464285D01*
X153018771Y-95464285D02*
X152923533Y-95511904D01*
X152923533Y-95511904D02*
X152733057Y-95511904D01*
X152733057Y-95511904D02*
X152637819Y-95464285D01*
X152637819Y-95464285D02*
X152590200Y-95416666D01*
X152590200Y-95416666D02*
X152542580Y-95321428D01*
X152542580Y-95321428D02*
X152542580Y-95130952D01*
X152542580Y-95130952D02*
X152590200Y-95035714D01*
X152590200Y-95035714D02*
X152637819Y-94988095D01*
X152637819Y-94988095D02*
X152733057Y-94940476D01*
X152733057Y-94940476D02*
X152923533Y-94940476D01*
X152923533Y-94940476D02*
X153018771Y-94988095D01*
X153018771Y-94988095D02*
X153066390Y-95035714D01*
X153066390Y-95035714D02*
X153114009Y-95130952D01*
X153542580Y-94321428D02*
X153542580Y-94226190D01*
X153542580Y-94226190D02*
X153494961Y-94130952D01*
X153494961Y-94130952D02*
X153447342Y-94083333D01*
X153447342Y-94083333D02*
X153352104Y-94035714D01*
X153352104Y-94035714D02*
X153161628Y-93988095D01*
X153161628Y-93988095D02*
X152923533Y-93988095D01*
X152923533Y-93988095D02*
X152733057Y-94035714D01*
X152733057Y-94035714D02*
X152637819Y-94083333D01*
X152637819Y-94083333D02*
X152590200Y-94130952D01*
X152590200Y-94130952D02*
X152542580Y-94226190D01*
X152542580Y-94226190D02*
X152542580Y-94321428D01*
X152542580Y-94321428D02*
X152590200Y-94416666D01*
X152590200Y-94416666D02*
X152637819Y-94464285D01*
X152637819Y-94464285D02*
X152733057Y-94511904D01*
X152733057Y-94511904D02*
X152923533Y-94559523D01*
X152923533Y-94559523D02*
X153161628Y-94559523D01*
X153161628Y-94559523D02*
X153352104Y-94511904D01*
X153352104Y-94511904D02*
X153447342Y-94464285D01*
X153447342Y-94464285D02*
X153494961Y-94416666D01*
X153494961Y-94416666D02*
X153542580Y-94321428D01*
X187785713Y-96017685D02*
X187738094Y-95970066D01*
X187738094Y-95970066D02*
X187642856Y-95922447D01*
X187642856Y-95922447D02*
X187404761Y-95922447D01*
X187404761Y-95922447D02*
X187309523Y-95970066D01*
X187309523Y-95970066D02*
X187261904Y-96017685D01*
X187261904Y-96017685D02*
X187214285Y-96112923D01*
X187214285Y-96112923D02*
X187214285Y-96208161D01*
X187214285Y-96208161D02*
X187261904Y-96351018D01*
X187261904Y-96351018D02*
X187833332Y-96922447D01*
X187833332Y-96922447D02*
X187214285Y-96922447D01*
X186785713Y-96922447D02*
X186785713Y-95922447D01*
X186785713Y-95922447D02*
X186214285Y-96922447D01*
X186214285Y-96922447D02*
X186214285Y-95922447D01*
X185785713Y-96017685D02*
X185738094Y-95970066D01*
X185738094Y-95970066D02*
X185642856Y-95922447D01*
X185642856Y-95922447D02*
X185404761Y-95922447D01*
X185404761Y-95922447D02*
X185309523Y-95970066D01*
X185309523Y-95970066D02*
X185261904Y-96017685D01*
X185261904Y-96017685D02*
X185214285Y-96112923D01*
X185214285Y-96112923D02*
X185214285Y-96208161D01*
X185214285Y-96208161D02*
X185261904Y-96351018D01*
X185261904Y-96351018D02*
X185833332Y-96922447D01*
X185833332Y-96922447D02*
X185214285Y-96922447D01*
X187738094Y-97627629D02*
X187690475Y-97580010D01*
X187690475Y-97580010D02*
X187595237Y-97532391D01*
X187595237Y-97532391D02*
X187357142Y-97532391D01*
X187357142Y-97532391D02*
X187261904Y-97580010D01*
X187261904Y-97580010D02*
X187214285Y-97627629D01*
X187214285Y-97627629D02*
X187166666Y-97722867D01*
X187166666Y-97722867D02*
X187166666Y-97818105D01*
X187166666Y-97818105D02*
X187214285Y-97960962D01*
X187214285Y-97960962D02*
X187785713Y-98532391D01*
X187785713Y-98532391D02*
X187166666Y-98532391D01*
X186785713Y-97627629D02*
X186738094Y-97580010D01*
X186738094Y-97580010D02*
X186642856Y-97532391D01*
X186642856Y-97532391D02*
X186404761Y-97532391D01*
X186404761Y-97532391D02*
X186309523Y-97580010D01*
X186309523Y-97580010D02*
X186261904Y-97627629D01*
X186261904Y-97627629D02*
X186214285Y-97722867D01*
X186214285Y-97722867D02*
X186214285Y-97818105D01*
X186214285Y-97818105D02*
X186261904Y-97960962D01*
X186261904Y-97960962D02*
X186833332Y-98532391D01*
X186833332Y-98532391D02*
X186214285Y-98532391D01*
X185833332Y-97627629D02*
X185785713Y-97580010D01*
X185785713Y-97580010D02*
X185690475Y-97532391D01*
X185690475Y-97532391D02*
X185452380Y-97532391D01*
X185452380Y-97532391D02*
X185357142Y-97580010D01*
X185357142Y-97580010D02*
X185309523Y-97627629D01*
X185309523Y-97627629D02*
X185261904Y-97722867D01*
X185261904Y-97722867D02*
X185261904Y-97818105D01*
X185261904Y-97818105D02*
X185309523Y-97960962D01*
X185309523Y-97960962D02*
X185880951Y-98532391D01*
X185880951Y-98532391D02*
X185261904Y-98532391D01*
D11*
X177738095Y-124165180D02*
X177738095Y-123355657D01*
X177738095Y-123355657D02*
X177785714Y-123260419D01*
X177785714Y-123260419D02*
X177833333Y-123212800D01*
X177833333Y-123212800D02*
X177928571Y-123165180D01*
X177928571Y-123165180D02*
X178119047Y-123165180D01*
X178119047Y-123165180D02*
X178214285Y-123212800D01*
X178214285Y-123212800D02*
X178261904Y-123260419D01*
X178261904Y-123260419D02*
X178309523Y-123355657D01*
X178309523Y-123355657D02*
X178309523Y-124165180D01*
X178738095Y-123212800D02*
X178880952Y-123165180D01*
X178880952Y-123165180D02*
X179119047Y-123165180D01*
X179119047Y-123165180D02*
X179214285Y-123212800D01*
X179214285Y-123212800D02*
X179261904Y-123260419D01*
X179261904Y-123260419D02*
X179309523Y-123355657D01*
X179309523Y-123355657D02*
X179309523Y-123450895D01*
X179309523Y-123450895D02*
X179261904Y-123546133D01*
X179261904Y-123546133D02*
X179214285Y-123593752D01*
X179214285Y-123593752D02*
X179119047Y-123641371D01*
X179119047Y-123641371D02*
X178928571Y-123688990D01*
X178928571Y-123688990D02*
X178833333Y-123736609D01*
X178833333Y-123736609D02*
X178785714Y-123784228D01*
X178785714Y-123784228D02*
X178738095Y-123879466D01*
X178738095Y-123879466D02*
X178738095Y-123974704D01*
X178738095Y-123974704D02*
X178785714Y-124069942D01*
X178785714Y-124069942D02*
X178833333Y-124117561D01*
X178833333Y-124117561D02*
X178928571Y-124165180D01*
X178928571Y-124165180D02*
X179166666Y-124165180D01*
X179166666Y-124165180D02*
X179309523Y-124117561D01*
X180071428Y-123688990D02*
X180214285Y-123641371D01*
X180214285Y-123641371D02*
X180261904Y-123593752D01*
X180261904Y-123593752D02*
X180309523Y-123498514D01*
X180309523Y-123498514D02*
X180309523Y-123355657D01*
X180309523Y-123355657D02*
X180261904Y-123260419D01*
X180261904Y-123260419D02*
X180214285Y-123212800D01*
X180214285Y-123212800D02*
X180119047Y-123165180D01*
X180119047Y-123165180D02*
X179738095Y-123165180D01*
X179738095Y-123165180D02*
X179738095Y-124165180D01*
X179738095Y-124165180D02*
X180071428Y-124165180D01*
X180071428Y-124165180D02*
X180166666Y-124117561D01*
X180166666Y-124117561D02*
X180214285Y-124069942D01*
X180214285Y-124069942D02*
X180261904Y-123974704D01*
X180261904Y-123974704D02*
X180261904Y-123879466D01*
X180261904Y-123879466D02*
X180214285Y-123784228D01*
X180214285Y-123784228D02*
X180166666Y-123736609D01*
X180166666Y-123736609D02*
X180071428Y-123688990D01*
X180071428Y-123688990D02*
X179738095Y-123688990D01*
X173761905Y-113688990D02*
X174095238Y-113688990D01*
X174238095Y-113165180D02*
X173761905Y-113165180D01*
X173761905Y-113165180D02*
X173761905Y-114165180D01*
X173761905Y-114165180D02*
X174238095Y-114165180D01*
X174619048Y-113212800D02*
X174761905Y-113165180D01*
X174761905Y-113165180D02*
X175000000Y-113165180D01*
X175000000Y-113165180D02*
X175095238Y-113212800D01*
X175095238Y-113212800D02*
X175142857Y-113260419D01*
X175142857Y-113260419D02*
X175190476Y-113355657D01*
X175190476Y-113355657D02*
X175190476Y-113450895D01*
X175190476Y-113450895D02*
X175142857Y-113546133D01*
X175142857Y-113546133D02*
X175095238Y-113593752D01*
X175095238Y-113593752D02*
X175000000Y-113641371D01*
X175000000Y-113641371D02*
X174809524Y-113688990D01*
X174809524Y-113688990D02*
X174714286Y-113736609D01*
X174714286Y-113736609D02*
X174666667Y-113784228D01*
X174666667Y-113784228D02*
X174619048Y-113879466D01*
X174619048Y-113879466D02*
X174619048Y-113974704D01*
X174619048Y-113974704D02*
X174666667Y-114069942D01*
X174666667Y-114069942D02*
X174714286Y-114117561D01*
X174714286Y-114117561D02*
X174809524Y-114165180D01*
X174809524Y-114165180D02*
X175047619Y-114165180D01*
X175047619Y-114165180D02*
X175190476Y-114117561D01*
X175619048Y-113165180D02*
X175619048Y-114165180D01*
X175619048Y-114165180D02*
X176000000Y-114165180D01*
X176000000Y-114165180D02*
X176095238Y-114117561D01*
X176095238Y-114117561D02*
X176142857Y-114069942D01*
X176142857Y-114069942D02*
X176190476Y-113974704D01*
X176190476Y-113974704D02*
X176190476Y-113831847D01*
X176190476Y-113831847D02*
X176142857Y-113736609D01*
X176142857Y-113736609D02*
X176095238Y-113688990D01*
X176095238Y-113688990D02*
X176000000Y-113641371D01*
X176000000Y-113641371D02*
X175619048Y-113641371D01*
X176523810Y-114165180D02*
X177142857Y-114165180D01*
X177142857Y-114165180D02*
X176809524Y-113784228D01*
X176809524Y-113784228D02*
X176952381Y-113784228D01*
X176952381Y-113784228D02*
X177047619Y-113736609D01*
X177047619Y-113736609D02*
X177095238Y-113688990D01*
X177095238Y-113688990D02*
X177142857Y-113593752D01*
X177142857Y-113593752D02*
X177142857Y-113355657D01*
X177142857Y-113355657D02*
X177095238Y-113260419D01*
X177095238Y-113260419D02*
X177047619Y-113212800D01*
X177047619Y-113212800D02*
X176952381Y-113165180D01*
X176952381Y-113165180D02*
X176666667Y-113165180D01*
X176666667Y-113165180D02*
X176571429Y-113212800D01*
X176571429Y-113212800D02*
X176523810Y-113260419D01*
X177523810Y-114069942D02*
X177571429Y-114117561D01*
X177571429Y-114117561D02*
X177666667Y-114165180D01*
X177666667Y-114165180D02*
X177904762Y-114165180D01*
X177904762Y-114165180D02*
X178000000Y-114117561D01*
X178000000Y-114117561D02*
X178047619Y-114069942D01*
X178047619Y-114069942D02*
X178095238Y-113974704D01*
X178095238Y-113974704D02*
X178095238Y-113879466D01*
X178095238Y-113879466D02*
X178047619Y-113736609D01*
X178047619Y-113736609D02*
X177476191Y-113165180D01*
X177476191Y-113165180D02*
X178095238Y-113165180D01*
X178523810Y-113546133D02*
X179285715Y-113546133D01*
X180333333Y-113260419D02*
X180285714Y-113212800D01*
X180285714Y-113212800D02*
X180142857Y-113165180D01*
X180142857Y-113165180D02*
X180047619Y-113165180D01*
X180047619Y-113165180D02*
X179904762Y-113212800D01*
X179904762Y-113212800D02*
X179809524Y-113308038D01*
X179809524Y-113308038D02*
X179761905Y-113403276D01*
X179761905Y-113403276D02*
X179714286Y-113593752D01*
X179714286Y-113593752D02*
X179714286Y-113736609D01*
X179714286Y-113736609D02*
X179761905Y-113927085D01*
X179761905Y-113927085D02*
X179809524Y-114022323D01*
X179809524Y-114022323D02*
X179904762Y-114117561D01*
X179904762Y-114117561D02*
X180047619Y-114165180D01*
X180047619Y-114165180D02*
X180142857Y-114165180D01*
X180142857Y-114165180D02*
X180285714Y-114117561D01*
X180285714Y-114117561D02*
X180333333Y-114069942D01*
X180666667Y-114165180D02*
X181285714Y-114165180D01*
X181285714Y-114165180D02*
X180952381Y-113784228D01*
X180952381Y-113784228D02*
X181095238Y-113784228D01*
X181095238Y-113784228D02*
X181190476Y-113736609D01*
X181190476Y-113736609D02*
X181238095Y-113688990D01*
X181238095Y-113688990D02*
X181285714Y-113593752D01*
X181285714Y-113593752D02*
X181285714Y-113355657D01*
X181285714Y-113355657D02*
X181238095Y-113260419D01*
X181238095Y-113260419D02*
X181190476Y-113212800D01*
X181190476Y-113212800D02*
X181095238Y-113165180D01*
X181095238Y-113165180D02*
X180809524Y-113165180D01*
X180809524Y-113165180D02*
X180714286Y-113212800D01*
X180714286Y-113212800D02*
X180666667Y-113260419D01*
X182428571Y-114212800D02*
X181571429Y-112927085D01*
X183333333Y-113260419D02*
X183285714Y-113212800D01*
X183285714Y-113212800D02*
X183142857Y-113165180D01*
X183142857Y-113165180D02*
X183047619Y-113165180D01*
X183047619Y-113165180D02*
X182904762Y-113212800D01*
X182904762Y-113212800D02*
X182809524Y-113308038D01*
X182809524Y-113308038D02*
X182761905Y-113403276D01*
X182761905Y-113403276D02*
X182714286Y-113593752D01*
X182714286Y-113593752D02*
X182714286Y-113736609D01*
X182714286Y-113736609D02*
X182761905Y-113927085D01*
X182761905Y-113927085D02*
X182809524Y-114022323D01*
X182809524Y-114022323D02*
X182904762Y-114117561D01*
X182904762Y-114117561D02*
X183047619Y-114165180D01*
X183047619Y-114165180D02*
X183142857Y-114165180D01*
X183142857Y-114165180D02*
X183285714Y-114117561D01*
X183285714Y-114117561D02*
X183333333Y-114069942D01*
X184190476Y-114165180D02*
X184000000Y-114165180D01*
X184000000Y-114165180D02*
X183904762Y-114117561D01*
X183904762Y-114117561D02*
X183857143Y-114069942D01*
X183857143Y-114069942D02*
X183761905Y-113927085D01*
X183761905Y-113927085D02*
X183714286Y-113736609D01*
X183714286Y-113736609D02*
X183714286Y-113355657D01*
X183714286Y-113355657D02*
X183761905Y-113260419D01*
X183761905Y-113260419D02*
X183809524Y-113212800D01*
X183809524Y-113212800D02*
X183904762Y-113165180D01*
X183904762Y-113165180D02*
X184095238Y-113165180D01*
X184095238Y-113165180D02*
X184190476Y-113212800D01*
X184190476Y-113212800D02*
X184238095Y-113260419D01*
X184238095Y-113260419D02*
X184285714Y-113355657D01*
X184285714Y-113355657D02*
X184285714Y-113593752D01*
X184285714Y-113593752D02*
X184238095Y-113688990D01*
X184238095Y-113688990D02*
X184190476Y-113736609D01*
X184190476Y-113736609D02*
X184095238Y-113784228D01*
X184095238Y-113784228D02*
X183904762Y-113784228D01*
X183904762Y-113784228D02*
X183809524Y-113736609D01*
X183809524Y-113736609D02*
X183761905Y-113688990D01*
X183761905Y-113688990D02*
X183714286Y-113593752D01*
X174809524Y-115212800D02*
X174952381Y-115165180D01*
X174952381Y-115165180D02*
X175190476Y-115165180D01*
X175190476Y-115165180D02*
X175285714Y-115212800D01*
X175285714Y-115212800D02*
X175333333Y-115260419D01*
X175333333Y-115260419D02*
X175380952Y-115355657D01*
X175380952Y-115355657D02*
X175380952Y-115450895D01*
X175380952Y-115450895D02*
X175333333Y-115546133D01*
X175333333Y-115546133D02*
X175285714Y-115593752D01*
X175285714Y-115593752D02*
X175190476Y-115641371D01*
X175190476Y-115641371D02*
X175000000Y-115688990D01*
X175000000Y-115688990D02*
X174904762Y-115736609D01*
X174904762Y-115736609D02*
X174857143Y-115784228D01*
X174857143Y-115784228D02*
X174809524Y-115879466D01*
X174809524Y-115879466D02*
X174809524Y-115974704D01*
X174809524Y-115974704D02*
X174857143Y-116069942D01*
X174857143Y-116069942D02*
X174904762Y-116117561D01*
X174904762Y-116117561D02*
X175000000Y-116165180D01*
X175000000Y-116165180D02*
X175238095Y-116165180D01*
X175238095Y-116165180D02*
X175380952Y-116117561D01*
X175809524Y-115688990D02*
X176142857Y-115688990D01*
X176285714Y-115165180D02*
X175809524Y-115165180D01*
X175809524Y-115165180D02*
X175809524Y-116165180D01*
X175809524Y-116165180D02*
X176285714Y-116165180D01*
X176714286Y-115688990D02*
X177047619Y-115688990D01*
X177190476Y-115165180D02*
X176714286Y-115165180D01*
X176714286Y-115165180D02*
X176714286Y-116165180D01*
X176714286Y-116165180D02*
X177190476Y-116165180D01*
X177619048Y-115688990D02*
X177952381Y-115688990D01*
X178095238Y-115165180D02*
X177619048Y-115165180D01*
X177619048Y-115165180D02*
X177619048Y-116165180D01*
X177619048Y-116165180D02*
X178095238Y-116165180D01*
X178523810Y-115165180D02*
X178523810Y-116165180D01*
X178523810Y-116165180D02*
X178761905Y-116165180D01*
X178761905Y-116165180D02*
X178904762Y-116117561D01*
X178904762Y-116117561D02*
X179000000Y-116022323D01*
X179000000Y-116022323D02*
X179047619Y-115927085D01*
X179047619Y-115927085D02*
X179095238Y-115736609D01*
X179095238Y-115736609D02*
X179095238Y-115593752D01*
X179095238Y-115593752D02*
X179047619Y-115403276D01*
X179047619Y-115403276D02*
X179000000Y-115308038D01*
X179000000Y-115308038D02*
X178904762Y-115212800D01*
X178904762Y-115212800D02*
X178761905Y-115165180D01*
X178761905Y-115165180D02*
X178523810Y-115165180D01*
X180190477Y-116165180D02*
X180857143Y-115165180D01*
X180857143Y-116165180D02*
X180190477Y-115165180D01*
X181238096Y-115165180D02*
X181238096Y-116165180D01*
X181666667Y-115450895D02*
X182142857Y-115450895D01*
X181571429Y-115165180D02*
X181904762Y-116165180D01*
X181904762Y-116165180D02*
X182238095Y-115165180D01*
X182761905Y-116165180D02*
X182952381Y-116165180D01*
X182952381Y-116165180D02*
X183047619Y-116117561D01*
X183047619Y-116117561D02*
X183142857Y-116022323D01*
X183142857Y-116022323D02*
X183190476Y-115831847D01*
X183190476Y-115831847D02*
X183190476Y-115498514D01*
X183190476Y-115498514D02*
X183142857Y-115308038D01*
X183142857Y-115308038D02*
X183047619Y-115212800D01*
X183047619Y-115212800D02*
X182952381Y-115165180D01*
X182952381Y-115165180D02*
X182761905Y-115165180D01*
X182761905Y-115165180D02*
X182666667Y-115212800D01*
X182666667Y-115212800D02*
X182571429Y-115308038D01*
X182571429Y-115308038D02*
X182523810Y-115498514D01*
X182523810Y-115498514D02*
X182523810Y-115831847D01*
X182523810Y-115831847D02*
X182571429Y-116022323D01*
X182571429Y-116022323D02*
X182666667Y-116117561D01*
X182666667Y-116117561D02*
X182761905Y-116165180D01*
D14*
%TO.C,J2*%
X158120000Y-91540000D02*
X160880000Y-91540000D01*
X158120000Y-99270000D02*
X158120000Y-91540000D01*
X158120000Y-99270000D02*
X160880000Y-99270000D01*
X158120000Y-100540000D02*
X158120000Y-101920000D01*
X158120000Y-101920000D02*
X159500000Y-101920000D01*
X160880000Y-99270000D02*
X160880000Y-91540000D01*
%TO.C,R1*%
X180230000Y-100630000D02*
X186770000Y-100630000D01*
X180230000Y-100960000D02*
X180230000Y-100630000D01*
X180230000Y-103040000D02*
X180230000Y-103370000D01*
X180230000Y-103370000D02*
X186770000Y-103370000D01*
X186770000Y-100630000D02*
X186770000Y-100960000D01*
X186770000Y-103370000D02*
X186770000Y-103040000D01*
%TO.C,J3*%
X170250000Y-94750000D02*
X177500000Y-94750000D01*
X170250000Y-102750000D02*
X170250000Y-94750000D01*
X170250000Y-102750000D02*
X177500000Y-102750000D01*
X171000000Y-97250000D02*
X175900000Y-97250000D01*
X171000000Y-97750000D02*
X171000000Y-97250000D01*
X171000000Y-99750000D02*
X175900000Y-99750000D01*
X171000000Y-100250000D02*
X171000000Y-99750000D01*
X175900000Y-97250000D02*
X175900000Y-97750000D01*
X175900000Y-97750000D02*
X171000000Y-97750000D01*
X175900000Y-99750000D02*
X175900000Y-100250000D01*
X175900000Y-100250000D02*
X171000000Y-100250000D01*
X177500000Y-94750000D02*
X177500000Y-96360000D01*
X177500000Y-102750000D02*
X177500000Y-101140000D01*
D15*
%TO.C,REF\u002A\u002A*%
X162982829Y-100451097D02*
X163042753Y-100473355D01*
X163067673Y-100490080D01*
X163092910Y-100514043D01*
X163110912Y-100544526D01*
X163122858Y-100586023D01*
X163129930Y-100643032D01*
X163133308Y-100720047D01*
X163134171Y-100821565D01*
X163134002Y-100874027D01*
X163133153Y-100945715D01*
X163131711Y-101002925D01*
X163129814Y-101040809D01*
X163127597Y-101054514D01*
X163113172Y-101049981D01*
X163084054Y-101037670D01*
X163083181Y-101037272D01*
X163068060Y-101029356D01*
X163057891Y-101018495D01*
X163051691Y-100999471D01*
X163048478Y-100967069D01*
X163047270Y-100916071D01*
X163047086Y-100841261D01*
X163046714Y-100793804D01*
X163042750Y-100704615D01*
X163033673Y-100639287D01*
X163018524Y-100594393D01*
X162996345Y-100566507D01*
X162966175Y-100552203D01*
X162961990Y-100551206D01*
X162905480Y-100550427D01*
X162861410Y-100575744D01*
X162830972Y-100626502D01*
X162825544Y-100641175D01*
X162813171Y-100673649D01*
X162806905Y-100688572D01*
X162794036Y-100686516D01*
X162765933Y-100675357D01*
X162739721Y-100656927D01*
X162727771Y-100622098D01*
X162731336Y-100597151D01*
X162753235Y-100546547D01*
X162788644Y-100499128D01*
X162830052Y-100466334D01*
X162847400Y-100458752D01*
X162913089Y-100446076D01*
X162982829Y-100451097D01*
G36*
X162982829Y-100451097D02*
G01*
X163042753Y-100473355D01*
X163067673Y-100490080D01*
X163092910Y-100514043D01*
X163110912Y-100544526D01*
X163122858Y-100586023D01*
X163129930Y-100643032D01*
X163133308Y-100720047D01*
X163134171Y-100821565D01*
X163134002Y-100874027D01*
X163133153Y-100945715D01*
X163131711Y-101002925D01*
X163129814Y-101040809D01*
X163127597Y-101054514D01*
X163113172Y-101049981D01*
X163084054Y-101037670D01*
X163083181Y-101037272D01*
X163068060Y-101029356D01*
X163057891Y-101018495D01*
X163051691Y-100999471D01*
X163048478Y-100967069D01*
X163047270Y-100916071D01*
X163047086Y-100841261D01*
X163046714Y-100793804D01*
X163042750Y-100704615D01*
X163033673Y-100639287D01*
X163018524Y-100594393D01*
X162996345Y-100566507D01*
X162966175Y-100552203D01*
X162961990Y-100551206D01*
X162905480Y-100550427D01*
X162861410Y-100575744D01*
X162830972Y-100626502D01*
X162825544Y-100641175D01*
X162813171Y-100673649D01*
X162806905Y-100688572D01*
X162794036Y-100686516D01*
X162765933Y-100675357D01*
X162739721Y-100656927D01*
X162727771Y-100622098D01*
X162731336Y-100597151D01*
X162753235Y-100546547D01*
X162788644Y-100499128D01*
X162830052Y-100466334D01*
X162847400Y-100458752D01*
X162913089Y-100446076D01*
X162982829Y-100451097D01*
G37*
X166931020Y-100417822D02*
X166998810Y-100449680D01*
X167054366Y-100504770D01*
X167065881Y-100522016D01*
X167075432Y-100541562D01*
X167082206Y-100566198D01*
X167086819Y-100600711D01*
X167089888Y-100649889D01*
X167092029Y-100718519D01*
X167093859Y-100811389D01*
X167098404Y-101069007D01*
X167060225Y-101054491D01*
X167025268Y-101041156D01*
X166999097Y-101028323D01*
X166982013Y-101011780D01*
X166972086Y-100986465D01*
X166967386Y-100947316D01*
X166965982Y-100889268D01*
X166965943Y-100807261D01*
X166965744Y-100741895D01*
X166964559Y-100679173D01*
X166961729Y-100636334D01*
X166956609Y-100608220D01*
X166948553Y-100589675D01*
X166936914Y-100575543D01*
X166908303Y-100555600D01*
X166860239Y-100548083D01*
X166812688Y-100567079D01*
X166809550Y-100569511D01*
X166799769Y-100580748D01*
X166792553Y-100598770D01*
X166787299Y-100628026D01*
X166783402Y-100672962D01*
X166780256Y-100738028D01*
X166777257Y-100827670D01*
X166770000Y-101067697D01*
X166708314Y-101040044D01*
X166646629Y-101012391D01*
X166646629Y-100793246D01*
X166646884Y-100733711D01*
X166649086Y-100650892D01*
X166654661Y-100589227D01*
X166664941Y-100543748D01*
X166681258Y-100509484D01*
X166704943Y-100481466D01*
X166737328Y-100454723D01*
X166783907Y-100427780D01*
X166857287Y-100410191D01*
X166931020Y-100417822D01*
G36*
X166931020Y-100417822D02*
G01*
X166998810Y-100449680D01*
X167054366Y-100504770D01*
X167065881Y-100522016D01*
X167075432Y-100541562D01*
X167082206Y-100566198D01*
X167086819Y-100600711D01*
X167089888Y-100649889D01*
X167092029Y-100718519D01*
X167093859Y-100811389D01*
X167098404Y-101069007D01*
X167060225Y-101054491D01*
X167025268Y-101041156D01*
X166999097Y-101028323D01*
X166982013Y-101011780D01*
X166972086Y-100986465D01*
X166967386Y-100947316D01*
X166965982Y-100889268D01*
X166965943Y-100807261D01*
X166965744Y-100741895D01*
X166964559Y-100679173D01*
X166961729Y-100636334D01*
X166956609Y-100608220D01*
X166948553Y-100589675D01*
X166936914Y-100575543D01*
X166908303Y-100555600D01*
X166860239Y-100548083D01*
X166812688Y-100567079D01*
X166809550Y-100569511D01*
X166799769Y-100580748D01*
X166792553Y-100598770D01*
X166787299Y-100628026D01*
X166783402Y-100672962D01*
X166780256Y-100738028D01*
X166777257Y-100827670D01*
X166770000Y-101067697D01*
X166708314Y-101040044D01*
X166646629Y-101012391D01*
X166646629Y-100793246D01*
X166646884Y-100733711D01*
X166649086Y-100650892D01*
X166654661Y-100589227D01*
X166664941Y-100543748D01*
X166681258Y-100509484D01*
X166704943Y-100481466D01*
X166737328Y-100454723D01*
X166783907Y-100427780D01*
X166857287Y-100410191D01*
X166931020Y-100417822D01*
G37*
X165107691Y-100466467D02*
X165112273Y-100469003D01*
X165149704Y-100498057D01*
X165183170Y-100535410D01*
X165189007Y-100543852D01*
X165200165Y-100563553D01*
X165208136Y-100586935D01*
X165213618Y-100619067D01*
X165217307Y-100665019D01*
X165219899Y-100729859D01*
X165222092Y-100818657D01*
X165222402Y-100833669D01*
X165223400Y-100930999D01*
X165221994Y-100999934D01*
X165218164Y-101040948D01*
X165211889Y-101054514D01*
X165192898Y-101050452D01*
X165160638Y-101038144D01*
X165153041Y-101034545D01*
X165141176Y-101026398D01*
X165132994Y-101013004D01*
X165127643Y-100989608D01*
X165124269Y-100951455D01*
X165122019Y-100893790D01*
X165120040Y-100811857D01*
X165119498Y-100787907D01*
X165117403Y-100712266D01*
X165114683Y-100659328D01*
X165110515Y-100624075D01*
X165104079Y-100601487D01*
X165094550Y-100586544D01*
X165081106Y-100574227D01*
X165041305Y-100552634D01*
X164992341Y-100548476D01*
X164948529Y-100564999D01*
X164917008Y-100599210D01*
X164904914Y-100648114D01*
X164904578Y-100661407D01*
X164897972Y-100685472D01*
X164878470Y-100689144D01*
X164840283Y-100674813D01*
X164831438Y-100670217D01*
X164807534Y-100643186D01*
X164807061Y-100602994D01*
X164829836Y-100547409D01*
X164850727Y-100517117D01*
X164904142Y-100474084D01*
X164970074Y-100449755D01*
X165040574Y-100446443D01*
X165107691Y-100466467D01*
G36*
X165107691Y-100466467D02*
G01*
X165112273Y-100469003D01*
X165149704Y-100498057D01*
X165183170Y-100535410D01*
X165189007Y-100543852D01*
X165200165Y-100563553D01*
X165208136Y-100586935D01*
X165213618Y-100619067D01*
X165217307Y-100665019D01*
X165219899Y-100729859D01*
X165222092Y-100818657D01*
X165222402Y-100833669D01*
X165223400Y-100930999D01*
X165221994Y-100999934D01*
X165218164Y-101040948D01*
X165211889Y-101054514D01*
X165192898Y-101050452D01*
X165160638Y-101038144D01*
X165153041Y-101034545D01*
X165141176Y-101026398D01*
X165132994Y-101013004D01*
X165127643Y-100989608D01*
X165124269Y-100951455D01*
X165122019Y-100893790D01*
X165120040Y-100811857D01*
X165119498Y-100787907D01*
X165117403Y-100712266D01*
X165114683Y-100659328D01*
X165110515Y-100624075D01*
X165104079Y-100601487D01*
X165094550Y-100586544D01*
X165081106Y-100574227D01*
X165041305Y-100552634D01*
X164992341Y-100548476D01*
X164948529Y-100564999D01*
X164917008Y-100599210D01*
X164904914Y-100648114D01*
X164904578Y-100661407D01*
X164897972Y-100685472D01*
X164878470Y-100689144D01*
X164840283Y-100674813D01*
X164831438Y-100670217D01*
X164807534Y-100643186D01*
X164807061Y-100602994D01*
X164829836Y-100547409D01*
X164850727Y-100517117D01*
X164904142Y-100474084D01*
X164970074Y-100449755D01*
X165040574Y-100446443D01*
X165107691Y-100466467D01*
G37*
X164153941Y-100449282D02*
X164185774Y-100461758D01*
X164222743Y-100478602D01*
X164222743Y-100965196D01*
X164176812Y-101011127D01*
X164166320Y-101021427D01*
X164137255Y-101044320D01*
X164107943Y-101051735D01*
X164064326Y-101048321D01*
X164046568Y-101046114D01*
X164000767Y-101041445D01*
X163968743Y-101039585D01*
X163959244Y-101039869D01*
X163920274Y-101042948D01*
X163873160Y-101048321D01*
X163858085Y-101050168D01*
X163820110Y-101050893D01*
X163792325Y-101039429D01*
X163760674Y-101011127D01*
X163714743Y-100965196D01*
X163714743Y-100705055D01*
X163715101Y-100628180D01*
X163716216Y-100554886D01*
X163717952Y-100496850D01*
X163720167Y-100458663D01*
X163722721Y-100444914D01*
X163723256Y-100444951D01*
X163741808Y-100451793D01*
X163773153Y-100466868D01*
X163815608Y-100488822D01*
X163819604Y-100717240D01*
X163823600Y-100945657D01*
X163910686Y-100945657D01*
X163914657Y-100695286D01*
X163915916Y-100627227D01*
X163917718Y-100554482D01*
X163919671Y-100496730D01*
X163921612Y-100458648D01*
X163923377Y-100444914D01*
X163923885Y-100444962D01*
X163941482Y-100450015D01*
X163973834Y-100460849D01*
X164019543Y-100476783D01*
X164019765Y-100696706D01*
X164019988Y-100734909D01*
X164021531Y-100809146D01*
X164024292Y-100871145D01*
X164027977Y-100915308D01*
X164032292Y-100936041D01*
X164047732Y-100947131D01*
X164079241Y-100950556D01*
X164113886Y-100945657D01*
X164117857Y-100695286D01*
X164119278Y-100631663D01*
X164122225Y-100556356D01*
X164126079Y-100497286D01*
X164130542Y-100458718D01*
X164135317Y-100444914D01*
X164153941Y-100449282D01*
G36*
X164153941Y-100449282D02*
G01*
X164185774Y-100461758D01*
X164222743Y-100478602D01*
X164222743Y-100965196D01*
X164176812Y-101011127D01*
X164166320Y-101021427D01*
X164137255Y-101044320D01*
X164107943Y-101051735D01*
X164064326Y-101048321D01*
X164046568Y-101046114D01*
X164000767Y-101041445D01*
X163968743Y-101039585D01*
X163959244Y-101039869D01*
X163920274Y-101042948D01*
X163873160Y-101048321D01*
X163858085Y-101050168D01*
X163820110Y-101050893D01*
X163792325Y-101039429D01*
X163760674Y-101011127D01*
X163714743Y-100965196D01*
X163714743Y-100705055D01*
X163715101Y-100628180D01*
X163716216Y-100554886D01*
X163717952Y-100496850D01*
X163720167Y-100458663D01*
X163722721Y-100444914D01*
X163723256Y-100444951D01*
X163741808Y-100451793D01*
X163773153Y-100466868D01*
X163815608Y-100488822D01*
X163819604Y-100717240D01*
X163823600Y-100945657D01*
X163910686Y-100945657D01*
X163914657Y-100695286D01*
X163915916Y-100627227D01*
X163917718Y-100554482D01*
X163919671Y-100496730D01*
X163921612Y-100458648D01*
X163923377Y-100444914D01*
X163923885Y-100444962D01*
X163941482Y-100450015D01*
X163973834Y-100460849D01*
X164019543Y-100476783D01*
X164019765Y-100696706D01*
X164019988Y-100734909D01*
X164021531Y-100809146D01*
X164024292Y-100871145D01*
X164027977Y-100915308D01*
X164032292Y-100936041D01*
X164047732Y-100947131D01*
X164079241Y-100950556D01*
X164113886Y-100945657D01*
X164117857Y-100695286D01*
X164119278Y-100631663D01*
X164122225Y-100556356D01*
X164126079Y-100497286D01*
X164130542Y-100458718D01*
X164135317Y-100444914D01*
X164153941Y-100449282D01*
G37*
X166178543Y-100249444D02*
X166225714Y-100269342D01*
X166225714Y-100666509D01*
X166225519Y-100769498D01*
X166224998Y-100862141D01*
X166224199Y-100940700D01*
X166223172Y-101001439D01*
X166221963Y-101040623D01*
X166220623Y-101054514D01*
X166220099Y-101054468D01*
X166202287Y-101049420D01*
X166169823Y-101038580D01*
X166124114Y-101022646D01*
X166124114Y-100818173D01*
X166123824Y-100737832D01*
X166122474Y-100679562D01*
X166119369Y-100639909D01*
X166113812Y-100613618D01*
X166105107Y-100595436D01*
X166092556Y-100580107D01*
X166083999Y-100571955D01*
X166037728Y-100549375D01*
X165986728Y-100551375D01*
X165939993Y-100578073D01*
X165933189Y-100584698D01*
X165922293Y-100598456D01*
X165914836Y-100616642D01*
X165910169Y-100644177D01*
X165907642Y-100685981D01*
X165906602Y-100746973D01*
X165906400Y-100832073D01*
X165906303Y-100875234D01*
X165905674Y-100946224D01*
X165904556Y-101003076D01*
X165903063Y-101040828D01*
X165901309Y-101054514D01*
X165900785Y-101054468D01*
X165882973Y-101049420D01*
X165850509Y-101038580D01*
X165804800Y-101022646D01*
X165804823Y-100817237D01*
X165804857Y-100798951D01*
X165806778Y-100703626D01*
X165812678Y-100631543D01*
X165824001Y-100577813D01*
X165842187Y-100537549D01*
X165868679Y-100505861D01*
X165904918Y-100477861D01*
X165940263Y-100460333D01*
X165996773Y-100446785D01*
X166052356Y-100446015D01*
X166095086Y-100459195D01*
X166098298Y-100461015D01*
X166108205Y-100460820D01*
X166114975Y-100445572D01*
X166119861Y-100410613D01*
X166124114Y-100351289D01*
X166131371Y-100229547D01*
X166178543Y-100249444D01*
G36*
X166178543Y-100249444D02*
G01*
X166225714Y-100269342D01*
X166225714Y-100666509D01*
X166225519Y-100769498D01*
X166224998Y-100862141D01*
X166224199Y-100940700D01*
X166223172Y-101001439D01*
X166221963Y-101040623D01*
X166220623Y-101054514D01*
X166220099Y-101054468D01*
X166202287Y-101049420D01*
X166169823Y-101038580D01*
X166124114Y-101022646D01*
X166124114Y-100818173D01*
X166123824Y-100737832D01*
X166122474Y-100679562D01*
X166119369Y-100639909D01*
X166113812Y-100613618D01*
X166105107Y-100595436D01*
X166092556Y-100580107D01*
X166083999Y-100571955D01*
X166037728Y-100549375D01*
X165986728Y-100551375D01*
X165939993Y-100578073D01*
X165933189Y-100584698D01*
X165922293Y-100598456D01*
X165914836Y-100616642D01*
X165910169Y-100644177D01*
X165907642Y-100685981D01*
X165906602Y-100746973D01*
X165906400Y-100832073D01*
X165906303Y-100875234D01*
X165905674Y-100946224D01*
X165904556Y-101003076D01*
X165903063Y-101040828D01*
X165901309Y-101054514D01*
X165900785Y-101054468D01*
X165882973Y-101049420D01*
X165850509Y-101038580D01*
X165804800Y-101022646D01*
X165804823Y-100817237D01*
X165804857Y-100798951D01*
X165806778Y-100703626D01*
X165812678Y-100631543D01*
X165824001Y-100577813D01*
X165842187Y-100537549D01*
X165868679Y-100505861D01*
X165904918Y-100477861D01*
X165940263Y-100460333D01*
X165996773Y-100446785D01*
X166052356Y-100446015D01*
X166095086Y-100459195D01*
X166098298Y-100461015D01*
X166108205Y-100460820D01*
X166114975Y-100445572D01*
X166119861Y-100410613D01*
X166124114Y-100351289D01*
X166131371Y-100229547D01*
X166178543Y-100249444D01*
G37*
X168765714Y-100735200D02*
X168765701Y-100750935D01*
X168764914Y-100821119D01*
X168762210Y-100870022D01*
X168756606Y-100904178D01*
X168747119Y-100930124D01*
X168732768Y-100954397D01*
X168729237Y-100959433D01*
X168691878Y-100999143D01*
X168649311Y-101029092D01*
X168627452Y-101038810D01*
X168548908Y-101055020D01*
X168471231Y-101044535D01*
X168399645Y-101008707D01*
X168339374Y-100948887D01*
X168334286Y-100940873D01*
X168317730Y-100894342D01*
X168306573Y-100829552D01*
X168301160Y-100754727D01*
X168301768Y-100685513D01*
X168448248Y-100685513D01*
X168449402Y-100781399D01*
X168449866Y-100787569D01*
X168456629Y-100840478D01*
X168468671Y-100874029D01*
X168489005Y-100897016D01*
X168523097Y-100918548D01*
X168556814Y-100919680D01*
X168591543Y-100894857D01*
X168597584Y-100888325D01*
X168609417Y-100868779D01*
X168616404Y-100840386D01*
X168619727Y-100796430D01*
X168620571Y-100730192D01*
X168619125Y-100668150D01*
X168611907Y-100609042D01*
X168597006Y-100571686D01*
X168572636Y-100552152D01*
X168537008Y-100546514D01*
X168523440Y-100547635D01*
X168485430Y-100568194D01*
X168460312Y-100614299D01*
X168448248Y-100685513D01*
X168301768Y-100685513D01*
X168301833Y-100678096D01*
X168308937Y-100607882D01*
X168322815Y-100552312D01*
X168340649Y-100515301D01*
X168390855Y-100457733D01*
X168458885Y-100421962D01*
X168542158Y-100409665D01*
X168564398Y-100410331D01*
X168629891Y-100423947D01*
X168683687Y-100458249D01*
X168733057Y-100517338D01*
X168735995Y-100521722D01*
X168749287Y-100545299D01*
X168757932Y-100571949D01*
X168762904Y-100608159D01*
X168765174Y-100660413D01*
X168765678Y-100730192D01*
X168765714Y-100735200D01*
G36*
X168765714Y-100735200D02*
G01*
X168765701Y-100750935D01*
X168764914Y-100821119D01*
X168762210Y-100870022D01*
X168756606Y-100904178D01*
X168747119Y-100930124D01*
X168732768Y-100954397D01*
X168729237Y-100959433D01*
X168691878Y-100999143D01*
X168649311Y-101029092D01*
X168627452Y-101038810D01*
X168548908Y-101055020D01*
X168471231Y-101044535D01*
X168399645Y-101008707D01*
X168339374Y-100948887D01*
X168334286Y-100940873D01*
X168317730Y-100894342D01*
X168306573Y-100829552D01*
X168301160Y-100754727D01*
X168301768Y-100685513D01*
X168448248Y-100685513D01*
X168449402Y-100781399D01*
X168449866Y-100787569D01*
X168456629Y-100840478D01*
X168468671Y-100874029D01*
X168489005Y-100897016D01*
X168523097Y-100918548D01*
X168556814Y-100919680D01*
X168591543Y-100894857D01*
X168597584Y-100888325D01*
X168609417Y-100868779D01*
X168616404Y-100840386D01*
X168619727Y-100796430D01*
X168620571Y-100730192D01*
X168619125Y-100668150D01*
X168611907Y-100609042D01*
X168597006Y-100571686D01*
X168572636Y-100552152D01*
X168537008Y-100546514D01*
X168523440Y-100547635D01*
X168485430Y-100568194D01*
X168460312Y-100614299D01*
X168448248Y-100685513D01*
X168301768Y-100685513D01*
X168301833Y-100678096D01*
X168308937Y-100607882D01*
X168322815Y-100552312D01*
X168340649Y-100515301D01*
X168390855Y-100457733D01*
X168458885Y-100421962D01*
X168542158Y-100409665D01*
X168564398Y-100410331D01*
X168629891Y-100423947D01*
X168683687Y-100458249D01*
X168733057Y-100517338D01*
X168735995Y-100521722D01*
X168749287Y-100545299D01*
X168757932Y-100571949D01*
X168762904Y-100608159D01*
X168765174Y-100660413D01*
X168765678Y-100730192D01*
X168765714Y-100735200D01*
G37*
X162640590Y-100752622D02*
X162640307Y-100791305D01*
X162636762Y-100867521D01*
X162627483Y-100923294D01*
X162610375Y-100964613D01*
X162583344Y-100997467D01*
X162544292Y-101027846D01*
X162519445Y-101041660D01*
X162479615Y-101050965D01*
X162423665Y-101050230D01*
X162392385Y-101047283D01*
X162354653Y-101038283D01*
X162324494Y-101018720D01*
X162289408Y-100982267D01*
X162284720Y-100976943D01*
X162253177Y-100935969D01*
X162238128Y-100900283D01*
X162234286Y-100857966D01*
X162234286Y-100795779D01*
X162277742Y-100812182D01*
X162309424Y-100831356D01*
X162336962Y-100876347D01*
X162342711Y-100890752D01*
X162374855Y-100931546D01*
X162418611Y-100952081D01*
X162466254Y-100950235D01*
X162510057Y-100923886D01*
X162525111Y-100907455D01*
X162538763Y-100882667D01*
X162534493Y-100860144D01*
X162509916Y-100836964D01*
X162462651Y-100810202D01*
X162390314Y-100776934D01*
X162241543Y-100711816D01*
X162237595Y-100647308D01*
X162239079Y-100606220D01*
X162336010Y-100606220D01*
X162343368Y-100631657D01*
X162376848Y-100658814D01*
X162437614Y-100689714D01*
X162447669Y-100694190D01*
X162495751Y-100715017D01*
X162531726Y-100729665D01*
X162548444Y-100735200D01*
X162550977Y-100731126D01*
X162551993Y-100706247D01*
X162548369Y-100666257D01*
X162539242Y-100627152D01*
X162510773Y-100577884D01*
X162469678Y-100550122D01*
X162420590Y-100546364D01*
X162368144Y-100569109D01*
X162353609Y-100580481D01*
X162336010Y-100606220D01*
X162239079Y-100606220D01*
X162239338Y-100599064D01*
X162261281Y-100538096D01*
X162288979Y-100504497D01*
X162346405Y-100466966D01*
X162414527Y-100448006D01*
X162484947Y-100449507D01*
X162549267Y-100473355D01*
X162563426Y-100482513D01*
X162595904Y-100510849D01*
X162618116Y-100546695D01*
X162631804Y-100595384D01*
X162638715Y-100662249D01*
X162639628Y-100706247D01*
X162640590Y-100752622D01*
G36*
X162640590Y-100752622D02*
G01*
X162640307Y-100791305D01*
X162636762Y-100867521D01*
X162627483Y-100923294D01*
X162610375Y-100964613D01*
X162583344Y-100997467D01*
X162544292Y-101027846D01*
X162519445Y-101041660D01*
X162479615Y-101050965D01*
X162423665Y-101050230D01*
X162392385Y-101047283D01*
X162354653Y-101038283D01*
X162324494Y-101018720D01*
X162289408Y-100982267D01*
X162284720Y-100976943D01*
X162253177Y-100935969D01*
X162238128Y-100900283D01*
X162234286Y-100857966D01*
X162234286Y-100795779D01*
X162277742Y-100812182D01*
X162309424Y-100831356D01*
X162336962Y-100876347D01*
X162342711Y-100890752D01*
X162374855Y-100931546D01*
X162418611Y-100952081D01*
X162466254Y-100950235D01*
X162510057Y-100923886D01*
X162525111Y-100907455D01*
X162538763Y-100882667D01*
X162534493Y-100860144D01*
X162509916Y-100836964D01*
X162462651Y-100810202D01*
X162390314Y-100776934D01*
X162241543Y-100711816D01*
X162237595Y-100647308D01*
X162239079Y-100606220D01*
X162336010Y-100606220D01*
X162343368Y-100631657D01*
X162376848Y-100658814D01*
X162437614Y-100689714D01*
X162447669Y-100694190D01*
X162495751Y-100715017D01*
X162531726Y-100729665D01*
X162548444Y-100735200D01*
X162550977Y-100731126D01*
X162551993Y-100706247D01*
X162548369Y-100666257D01*
X162539242Y-100627152D01*
X162510773Y-100577884D01*
X162469678Y-100550122D01*
X162420590Y-100546364D01*
X162368144Y-100569109D01*
X162353609Y-100580481D01*
X162336010Y-100606220D01*
X162239079Y-100606220D01*
X162239338Y-100599064D01*
X162261281Y-100538096D01*
X162288979Y-100504497D01*
X162346405Y-100466966D01*
X162414527Y-100448006D01*
X162484947Y-100449507D01*
X162549267Y-100473355D01*
X162563426Y-100482513D01*
X162595904Y-100510849D01*
X162618116Y-100546695D01*
X162631804Y-100595384D01*
X162638715Y-100662249D01*
X162639628Y-100706247D01*
X162640590Y-100752622D01*
G37*
X164730698Y-100749714D02*
X164729537Y-100806313D01*
X164721345Y-100883462D01*
X164703519Y-100941276D01*
X164673975Y-100985422D01*
X164630625Y-101021568D01*
X164589332Y-101042463D01*
X164519987Y-101054090D01*
X164450736Y-101041377D01*
X164388145Y-101005945D01*
X164338779Y-100949418D01*
X164332818Y-100938995D01*
X164324945Y-100920733D01*
X164319106Y-100897429D01*
X164314999Y-100865085D01*
X164312325Y-100819704D01*
X164310781Y-100757287D01*
X164310734Y-100751748D01*
X164411429Y-100751748D01*
X164411772Y-100804577D01*
X164413942Y-100852362D01*
X164419307Y-100883209D01*
X164429217Y-100903935D01*
X164445021Y-100921356D01*
X164448724Y-100924705D01*
X164496299Y-100949419D01*
X164546635Y-100946890D01*
X164593517Y-100917288D01*
X164607477Y-100901953D01*
X164619160Y-100881622D01*
X164625686Y-100853514D01*
X164628524Y-100810550D01*
X164629143Y-100745647D01*
X164628837Y-100696122D01*
X164626722Y-100647782D01*
X164621390Y-100616587D01*
X164611460Y-100595647D01*
X164595550Y-100578073D01*
X164586204Y-100570159D01*
X164537776Y-100548843D01*
X164487040Y-100552198D01*
X164442987Y-100580107D01*
X164433504Y-100591173D01*
X164421939Y-100612009D01*
X164415252Y-100641106D01*
X164412173Y-100685381D01*
X164411429Y-100751748D01*
X164310734Y-100751748D01*
X164310067Y-100673837D01*
X164309883Y-100565358D01*
X164309829Y-100228601D01*
X164357000Y-100248362D01*
X164369472Y-100253770D01*
X164389324Y-100265985D01*
X164400687Y-100284482D01*
X164406933Y-100316829D01*
X164411429Y-100370593D01*
X164415535Y-100418866D01*
X164420963Y-100450557D01*
X164428739Y-100462383D01*
X164440457Y-100459212D01*
X164470318Y-100448067D01*
X164523684Y-100445304D01*
X164581093Y-100455625D01*
X164630625Y-100477861D01*
X164657876Y-100498443D01*
X164692865Y-100538600D01*
X164715274Y-100590086D01*
X164727190Y-100658568D01*
X164730542Y-100745647D01*
X164730698Y-100749714D01*
G36*
X164730698Y-100749714D02*
G01*
X164729537Y-100806313D01*
X164721345Y-100883462D01*
X164703519Y-100941276D01*
X164673975Y-100985422D01*
X164630625Y-101021568D01*
X164589332Y-101042463D01*
X164519987Y-101054090D01*
X164450736Y-101041377D01*
X164388145Y-101005945D01*
X164338779Y-100949418D01*
X164332818Y-100938995D01*
X164324945Y-100920733D01*
X164319106Y-100897429D01*
X164314999Y-100865085D01*
X164312325Y-100819704D01*
X164310781Y-100757287D01*
X164310734Y-100751748D01*
X164411429Y-100751748D01*
X164411772Y-100804577D01*
X164413942Y-100852362D01*
X164419307Y-100883209D01*
X164429217Y-100903935D01*
X164445021Y-100921356D01*
X164448724Y-100924705D01*
X164496299Y-100949419D01*
X164546635Y-100946890D01*
X164593517Y-100917288D01*
X164607477Y-100901953D01*
X164619160Y-100881622D01*
X164625686Y-100853514D01*
X164628524Y-100810550D01*
X164629143Y-100745647D01*
X164628837Y-100696122D01*
X164626722Y-100647782D01*
X164621390Y-100616587D01*
X164611460Y-100595647D01*
X164595550Y-100578073D01*
X164586204Y-100570159D01*
X164537776Y-100548843D01*
X164487040Y-100552198D01*
X164442987Y-100580107D01*
X164433504Y-100591173D01*
X164421939Y-100612009D01*
X164415252Y-100641106D01*
X164412173Y-100685381D01*
X164411429Y-100751748D01*
X164310734Y-100751748D01*
X164310067Y-100673837D01*
X164309883Y-100565358D01*
X164309829Y-100228601D01*
X164357000Y-100248362D01*
X164369472Y-100253770D01*
X164389324Y-100265985D01*
X164400687Y-100284482D01*
X164406933Y-100316829D01*
X164411429Y-100370593D01*
X164415535Y-100418866D01*
X164420963Y-100450557D01*
X164428739Y-100462383D01*
X164440457Y-100459212D01*
X164470318Y-100448067D01*
X164523684Y-100445304D01*
X164581093Y-100455625D01*
X164630625Y-100477861D01*
X164657876Y-100498443D01*
X164692865Y-100538600D01*
X164715274Y-100590086D01*
X164727190Y-100658568D01*
X164730542Y-100745647D01*
X164730698Y-100749714D01*
G37*
X167662299Y-100694055D02*
X167657684Y-100804078D01*
X167655078Y-100827387D01*
X167635660Y-100910352D01*
X167600573Y-100973448D01*
X167547212Y-101021808D01*
X167544196Y-101023804D01*
X167476362Y-101052185D01*
X167405535Y-101054711D01*
X167337289Y-101033097D01*
X167277196Y-100989062D01*
X167230829Y-100924322D01*
X167230050Y-100922761D01*
X167214643Y-100882558D01*
X167203357Y-100836866D01*
X167197370Y-100793972D01*
X167197861Y-100762160D01*
X167206007Y-100749714D01*
X167213244Y-100750471D01*
X167247851Y-100764235D01*
X167287078Y-100789546D01*
X167320448Y-100818845D01*
X167337483Y-100844572D01*
X167355192Y-100879471D01*
X167391485Y-100911212D01*
X167433630Y-100923886D01*
X167449077Y-100920221D01*
X167479569Y-100901774D01*
X167506128Y-100876166D01*
X167517486Y-100852934D01*
X167517482Y-100852848D01*
X167504596Y-100842179D01*
X167470241Y-100822933D01*
X167419593Y-100797813D01*
X167357829Y-100769524D01*
X167357489Y-100769374D01*
X167290388Y-100739498D01*
X167245411Y-100717973D01*
X167218145Y-100701437D01*
X167204178Y-100686531D01*
X167199097Y-100669893D01*
X167198490Y-100648162D01*
X167202712Y-100607013D01*
X167346000Y-100607013D01*
X167360791Y-100619949D01*
X167397644Y-100639333D01*
X167398725Y-100639881D01*
X167442205Y-100660587D01*
X167481102Y-100677105D01*
X167505778Y-100684093D01*
X167515676Y-100674753D01*
X167517486Y-100642748D01*
X167509966Y-100602915D01*
X167483897Y-100566717D01*
X167446154Y-100547950D01*
X167404077Y-100549845D01*
X167365005Y-100575632D01*
X167349647Y-100593451D01*
X167346000Y-100607013D01*
X167202712Y-100607013D01*
X167203833Y-100596086D01*
X167230251Y-100525335D01*
X167274473Y-100469735D01*
X167331697Y-100431239D01*
X167397120Y-100411797D01*
X167465937Y-100413359D01*
X167533347Y-100437878D01*
X167594544Y-100487302D01*
X167628450Y-100536212D01*
X167652806Y-100606027D01*
X167656767Y-100642748D01*
X167662299Y-100694055D01*
G36*
X167662299Y-100694055D02*
G01*
X167657684Y-100804078D01*
X167655078Y-100827387D01*
X167635660Y-100910352D01*
X167600573Y-100973448D01*
X167547212Y-101021808D01*
X167544196Y-101023804D01*
X167476362Y-101052185D01*
X167405535Y-101054711D01*
X167337289Y-101033097D01*
X167277196Y-100989062D01*
X167230829Y-100924322D01*
X167230050Y-100922761D01*
X167214643Y-100882558D01*
X167203357Y-100836866D01*
X167197370Y-100793972D01*
X167197861Y-100762160D01*
X167206007Y-100749714D01*
X167213244Y-100750471D01*
X167247851Y-100764235D01*
X167287078Y-100789546D01*
X167320448Y-100818845D01*
X167337483Y-100844572D01*
X167355192Y-100879471D01*
X167391485Y-100911212D01*
X167433630Y-100923886D01*
X167449077Y-100920221D01*
X167479569Y-100901774D01*
X167506128Y-100876166D01*
X167517486Y-100852934D01*
X167517482Y-100852848D01*
X167504596Y-100842179D01*
X167470241Y-100822933D01*
X167419593Y-100797813D01*
X167357829Y-100769524D01*
X167357489Y-100769374D01*
X167290388Y-100739498D01*
X167245411Y-100717973D01*
X167218145Y-100701437D01*
X167204178Y-100686531D01*
X167199097Y-100669893D01*
X167198490Y-100648162D01*
X167202712Y-100607013D01*
X167346000Y-100607013D01*
X167360791Y-100619949D01*
X167397644Y-100639333D01*
X167398725Y-100639881D01*
X167442205Y-100660587D01*
X167481102Y-100677105D01*
X167505778Y-100684093D01*
X167515676Y-100674753D01*
X167517486Y-100642748D01*
X167509966Y-100602915D01*
X167483897Y-100566717D01*
X167446154Y-100547950D01*
X167404077Y-100549845D01*
X167365005Y-100575632D01*
X167349647Y-100593451D01*
X167346000Y-100607013D01*
X167202712Y-100607013D01*
X167203833Y-100596086D01*
X167230251Y-100525335D01*
X167274473Y-100469735D01*
X167331697Y-100431239D01*
X167397120Y-100411797D01*
X167465937Y-100413359D01*
X167533347Y-100437878D01*
X167594544Y-100487302D01*
X167628450Y-100536212D01*
X167652806Y-100606027D01*
X167656767Y-100642748D01*
X167662299Y-100694055D01*
G37*
X165589483Y-100460569D02*
X165639376Y-100489661D01*
X165661325Y-100512327D01*
X165703504Y-100580082D01*
X165717714Y-100653950D01*
X165717714Y-100704770D01*
X165670999Y-100685128D01*
X165638692Y-100665308D01*
X165613231Y-100624160D01*
X165610616Y-100615675D01*
X165582478Y-100572451D01*
X165540067Y-100549103D01*
X165491370Y-100548100D01*
X165444373Y-100571914D01*
X165437357Y-100578056D01*
X165413893Y-100604745D01*
X165410019Y-100628014D01*
X165427768Y-100650862D01*
X165469179Y-100676287D01*
X165536286Y-100707288D01*
X165540824Y-100709252D01*
X165615322Y-100743990D01*
X165666203Y-100774763D01*
X165697525Y-100805488D01*
X165713343Y-100840082D01*
X165717714Y-100882462D01*
X165711986Y-100929446D01*
X165683062Y-100989585D01*
X165632178Y-101032788D01*
X165595374Y-101045759D01*
X165543434Y-101052856D01*
X165492999Y-101051340D01*
X165456983Y-101040632D01*
X165453158Y-101037966D01*
X165442998Y-101019337D01*
X165450048Y-100986505D01*
X165462297Y-100960735D01*
X165481939Y-100950006D01*
X165519191Y-100950539D01*
X165570908Y-100947462D01*
X165604701Y-100926212D01*
X165616114Y-100886877D01*
X165616104Y-100885747D01*
X165609187Y-100862913D01*
X165585659Y-100841963D01*
X165539914Y-100817815D01*
X165477704Y-100788741D01*
X165436499Y-100772925D01*
X165412712Y-100773944D01*
X165401597Y-100794837D01*
X165398408Y-100838641D01*
X165398400Y-100908393D01*
X165398044Y-100951452D01*
X165396413Y-101004626D01*
X165393761Y-101041022D01*
X165390422Y-101054514D01*
X165389530Y-101054423D01*
X165370237Y-101047110D01*
X165338284Y-101031678D01*
X165294124Y-101008842D01*
X165299371Y-100803078D01*
X165299736Y-100789432D01*
X165303904Y-100693651D01*
X165311268Y-100621462D01*
X165323330Y-100568058D01*
X165341593Y-100528633D01*
X165367560Y-100498380D01*
X165402733Y-100472493D01*
X165403384Y-100472087D01*
X165460256Y-100450968D01*
X165526033Y-100447400D01*
X165589483Y-100460569D01*
G36*
X165589483Y-100460569D02*
G01*
X165639376Y-100489661D01*
X165661325Y-100512327D01*
X165703504Y-100580082D01*
X165717714Y-100653950D01*
X165717714Y-100704770D01*
X165670999Y-100685128D01*
X165638692Y-100665308D01*
X165613231Y-100624160D01*
X165610616Y-100615675D01*
X165582478Y-100572451D01*
X165540067Y-100549103D01*
X165491370Y-100548100D01*
X165444373Y-100571914D01*
X165437357Y-100578056D01*
X165413893Y-100604745D01*
X165410019Y-100628014D01*
X165427768Y-100650862D01*
X165469179Y-100676287D01*
X165536286Y-100707288D01*
X165540824Y-100709252D01*
X165615322Y-100743990D01*
X165666203Y-100774763D01*
X165697525Y-100805488D01*
X165713343Y-100840082D01*
X165717714Y-100882462D01*
X165711986Y-100929446D01*
X165683062Y-100989585D01*
X165632178Y-101032788D01*
X165595374Y-101045759D01*
X165543434Y-101052856D01*
X165492999Y-101051340D01*
X165456983Y-101040632D01*
X165453158Y-101037966D01*
X165442998Y-101019337D01*
X165450048Y-100986505D01*
X165462297Y-100960735D01*
X165481939Y-100950006D01*
X165519191Y-100950539D01*
X165570908Y-100947462D01*
X165604701Y-100926212D01*
X165616114Y-100886877D01*
X165616104Y-100885747D01*
X165609187Y-100862913D01*
X165585659Y-100841963D01*
X165539914Y-100817815D01*
X165477704Y-100788741D01*
X165436499Y-100772925D01*
X165412712Y-100773944D01*
X165401597Y-100794837D01*
X165398408Y-100838641D01*
X165398400Y-100908393D01*
X165398044Y-100951452D01*
X165396413Y-101004626D01*
X165393761Y-101041022D01*
X165390422Y-101054514D01*
X165389530Y-101054423D01*
X165370237Y-101047110D01*
X165338284Y-101031678D01*
X165294124Y-101008842D01*
X165299371Y-100803078D01*
X165299736Y-100789432D01*
X165303904Y-100693651D01*
X165311268Y-100621462D01*
X165323330Y-100568058D01*
X165341593Y-100528633D01*
X165367560Y-100498380D01*
X165402733Y-100472493D01*
X165403384Y-100472087D01*
X165460256Y-100450968D01*
X165526033Y-100447400D01*
X165589483Y-100460569D01*
G37*
X163467495Y-100446220D02*
X163498599Y-100454121D01*
X163527559Y-100473817D01*
X163564831Y-100510484D01*
X163588801Y-100536378D01*
X163613770Y-100569997D01*
X163625031Y-100601506D01*
X163627657Y-100641485D01*
X163627657Y-100706917D01*
X163583035Y-100683842D01*
X163547673Y-100655724D01*
X163523451Y-100617848D01*
X163519291Y-100607551D01*
X163487594Y-100567637D01*
X163443554Y-100547624D01*
X163395531Y-100549572D01*
X163351886Y-100575543D01*
X163333420Y-100596635D01*
X163322663Y-100623619D01*
X163334178Y-100647634D01*
X163369981Y-100671791D01*
X163432090Y-100699199D01*
X163441515Y-100702985D01*
X163498058Y-100727759D01*
X163546580Y-100752189D01*
X163577451Y-100771486D01*
X163608371Y-100805953D01*
X163628927Y-100860957D01*
X163626744Y-100919983D01*
X163602424Y-100975845D01*
X163556568Y-101021355D01*
X163519438Y-101040727D01*
X163447711Y-101054292D01*
X163407852Y-101052462D01*
X163370953Y-101042568D01*
X163356797Y-101021806D01*
X163362091Y-100987613D01*
X163363631Y-100983092D01*
X163375842Y-100959116D01*
X163396174Y-100950042D01*
X163434908Y-100950649D01*
X163462257Y-100951474D01*
X163494257Y-100944392D01*
X163516182Y-100923219D01*
X163528670Y-100897152D01*
X163530062Y-100869845D01*
X163529998Y-100869685D01*
X163513807Y-100854930D01*
X163479155Y-100833457D01*
X163434321Y-100809458D01*
X163387582Y-100787125D01*
X163347217Y-100770652D01*
X163321504Y-100764229D01*
X163317679Y-100770518D01*
X163312864Y-100800115D01*
X163309566Y-100848447D01*
X163308343Y-100909372D01*
X163308058Y-100951542D01*
X163306718Y-101004653D01*
X163304528Y-101041025D01*
X163301769Y-101054514D01*
X163287344Y-101049981D01*
X163258226Y-101037670D01*
X163221257Y-101020826D01*
X163221257Y-100804721D01*
X163221493Y-100749327D01*
X163223729Y-100665207D01*
X163229423Y-100602800D01*
X163239903Y-100557358D01*
X163256497Y-100524133D01*
X163280531Y-100498378D01*
X163313333Y-100475344D01*
X163355124Y-100456335D01*
X163432287Y-100444914D01*
X163467495Y-100446220D01*
G36*
X163467495Y-100446220D02*
G01*
X163498599Y-100454121D01*
X163527559Y-100473817D01*
X163564831Y-100510484D01*
X163588801Y-100536378D01*
X163613770Y-100569997D01*
X163625031Y-100601506D01*
X163627657Y-100641485D01*
X163627657Y-100706917D01*
X163583035Y-100683842D01*
X163547673Y-100655724D01*
X163523451Y-100617848D01*
X163519291Y-100607551D01*
X163487594Y-100567637D01*
X163443554Y-100547624D01*
X163395531Y-100549572D01*
X163351886Y-100575543D01*
X163333420Y-100596635D01*
X163322663Y-100623619D01*
X163334178Y-100647634D01*
X163369981Y-100671791D01*
X163432090Y-100699199D01*
X163441515Y-100702985D01*
X163498058Y-100727759D01*
X163546580Y-100752189D01*
X163577451Y-100771486D01*
X163608371Y-100805953D01*
X163628927Y-100860957D01*
X163626744Y-100919983D01*
X163602424Y-100975845D01*
X163556568Y-101021355D01*
X163519438Y-101040727D01*
X163447711Y-101054292D01*
X163407852Y-101052462D01*
X163370953Y-101042568D01*
X163356797Y-101021806D01*
X163362091Y-100987613D01*
X163363631Y-100983092D01*
X163375842Y-100959116D01*
X163396174Y-100950042D01*
X163434908Y-100950649D01*
X163462257Y-100951474D01*
X163494257Y-100944392D01*
X163516182Y-100923219D01*
X163528670Y-100897152D01*
X163530062Y-100869845D01*
X163529998Y-100869685D01*
X163513807Y-100854930D01*
X163479155Y-100833457D01*
X163434321Y-100809458D01*
X163387582Y-100787125D01*
X163347217Y-100770652D01*
X163321504Y-100764229D01*
X163317679Y-100770518D01*
X163312864Y-100800115D01*
X163309566Y-100848447D01*
X163308343Y-100909372D01*
X163308058Y-100951542D01*
X163306718Y-101004653D01*
X163304528Y-101041025D01*
X163301769Y-101054514D01*
X163287344Y-101049981D01*
X163258226Y-101037670D01*
X163221257Y-101020826D01*
X163221257Y-100804721D01*
X163221493Y-100749327D01*
X163223729Y-100665207D01*
X163229423Y-100602800D01*
X163239903Y-100557358D01*
X163256497Y-100524133D01*
X163280531Y-100498378D01*
X163313333Y-100475344D01*
X163355124Y-100456335D01*
X163432287Y-100444914D01*
X163467495Y-100446220D01*
G37*
X168209815Y-100801524D02*
X168211252Y-100913000D01*
X168211651Y-100945339D01*
X168212929Y-101053455D01*
X168213185Y-101136186D01*
X168211634Y-101196426D01*
X168207490Y-101237073D01*
X168199964Y-101261023D01*
X168188271Y-101271171D01*
X168171624Y-101270414D01*
X168149236Y-101261648D01*
X168120321Y-101247769D01*
X168114142Y-101244808D01*
X168088413Y-101230311D01*
X168074976Y-101213065D01*
X168069834Y-101184308D01*
X168068990Y-101135283D01*
X168068952Y-101047257D01*
X167978276Y-101047257D01*
X167922498Y-101044815D01*
X167878640Y-101034908D01*
X167842218Y-101014886D01*
X167839503Y-101012929D01*
X167802546Y-100979869D01*
X167776826Y-100939931D01*
X167760606Y-100887657D01*
X167752148Y-100817588D01*
X167750083Y-100738430D01*
X167894857Y-100738430D01*
X167894882Y-100751697D01*
X167896261Y-100811584D01*
X167900687Y-100850732D01*
X167909461Y-100876153D01*
X167923886Y-100894857D01*
X167924784Y-100895750D01*
X167960237Y-100919952D01*
X167994596Y-100917567D01*
X168033403Y-100888260D01*
X168042895Y-100878244D01*
X168056876Y-100857708D01*
X168064760Y-100830997D01*
X168068245Y-100790499D01*
X168069029Y-100728603D01*
X168068350Y-100691130D01*
X168060983Y-100622980D01*
X168044168Y-100578330D01*
X168016234Y-100553926D01*
X167975509Y-100546514D01*
X167958350Y-100548094D01*
X167928660Y-100563766D01*
X167909031Y-100598691D01*
X167898188Y-100655901D01*
X167894857Y-100738430D01*
X167750083Y-100738430D01*
X167749714Y-100724267D01*
X167750253Y-100656169D01*
X167752707Y-100604587D01*
X167758158Y-100568816D01*
X167767686Y-100542015D01*
X167782371Y-100517338D01*
X167795852Y-100498480D01*
X167844799Y-100447568D01*
X167900256Y-100419918D01*
X167969928Y-100411165D01*
X168049664Y-100419890D01*
X168118595Y-100451185D01*
X168173113Y-100506381D01*
X168177223Y-100512224D01*
X168186808Y-100527753D01*
X168194151Y-100545498D01*
X168199612Y-100569290D01*
X168203550Y-100602958D01*
X168206323Y-100650333D01*
X168208292Y-100715245D01*
X168208528Y-100728603D01*
X168209815Y-100801524D01*
G36*
X168209815Y-100801524D02*
G01*
X168211252Y-100913000D01*
X168211651Y-100945339D01*
X168212929Y-101053455D01*
X168213185Y-101136186D01*
X168211634Y-101196426D01*
X168207490Y-101237073D01*
X168199964Y-101261023D01*
X168188271Y-101271171D01*
X168171624Y-101270414D01*
X168149236Y-101261648D01*
X168120321Y-101247769D01*
X168114142Y-101244808D01*
X168088413Y-101230311D01*
X168074976Y-101213065D01*
X168069834Y-101184308D01*
X168068990Y-101135283D01*
X168068952Y-101047257D01*
X167978276Y-101047257D01*
X167922498Y-101044815D01*
X167878640Y-101034908D01*
X167842218Y-101014886D01*
X167839503Y-101012929D01*
X167802546Y-100979869D01*
X167776826Y-100939931D01*
X167760606Y-100887657D01*
X167752148Y-100817588D01*
X167750083Y-100738430D01*
X167894857Y-100738430D01*
X167894882Y-100751697D01*
X167896261Y-100811584D01*
X167900687Y-100850732D01*
X167909461Y-100876153D01*
X167923886Y-100894857D01*
X167924784Y-100895750D01*
X167960237Y-100919952D01*
X167994596Y-100917567D01*
X168033403Y-100888260D01*
X168042895Y-100878244D01*
X168056876Y-100857708D01*
X168064760Y-100830997D01*
X168068245Y-100790499D01*
X168069029Y-100728603D01*
X168068350Y-100691130D01*
X168060983Y-100622980D01*
X168044168Y-100578330D01*
X168016234Y-100553926D01*
X167975509Y-100546514D01*
X167958350Y-100548094D01*
X167928660Y-100563766D01*
X167909031Y-100598691D01*
X167898188Y-100655901D01*
X167894857Y-100738430D01*
X167750083Y-100738430D01*
X167749714Y-100724267D01*
X167750253Y-100656169D01*
X167752707Y-100604587D01*
X167758158Y-100568816D01*
X167767686Y-100542015D01*
X167782371Y-100517338D01*
X167795852Y-100498480D01*
X167844799Y-100447568D01*
X167900256Y-100419918D01*
X167969928Y-100411165D01*
X168049664Y-100419890D01*
X168118595Y-100451185D01*
X168173113Y-100506381D01*
X168177223Y-100512224D01*
X168186808Y-100527753D01*
X168194151Y-100545498D01*
X168199612Y-100569290D01*
X168203550Y-100602958D01*
X168206323Y-100650333D01*
X168208292Y-100715245D01*
X168208528Y-100728603D01*
X168209815Y-100801524D01*
G37*
X165613933Y-95742371D02*
X165689856Y-95742865D01*
X165744491Y-95744135D01*
X165781500Y-95746547D01*
X165804547Y-95750467D01*
X165817296Y-95756262D01*
X165823411Y-95764299D01*
X165826556Y-95774943D01*
X165826646Y-95775325D01*
X165831814Y-95800347D01*
X165841209Y-95848681D01*
X165853867Y-95915260D01*
X165868825Y-95995014D01*
X165885119Y-96082875D01*
X165886448Y-96090064D01*
X165902691Y-96175340D01*
X165917805Y-96250242D01*
X165930808Y-96310219D01*
X165940715Y-96350717D01*
X165946544Y-96367184D01*
X165946575Y-96367210D01*
X165964943Y-96376320D01*
X166002640Y-96391457D01*
X166051543Y-96409358D01*
X166054297Y-96410330D01*
X166116817Y-96433959D01*
X166189543Y-96463595D01*
X166257294Y-96493062D01*
X166368703Y-96543626D01*
X166615399Y-96375160D01*
X166632775Y-96363311D01*
X166707202Y-96312947D01*
X166773614Y-96268612D01*
X166828039Y-96232916D01*
X166866506Y-96208471D01*
X166885042Y-96197889D01*
X166897743Y-96200315D01*
X166926579Y-96219110D01*
X166971143Y-96256330D01*
X167032670Y-96313020D01*
X167112398Y-96390227D01*
X167119532Y-96397255D01*
X167182796Y-96460222D01*
X167238990Y-96517268D01*
X167284677Y-96564817D01*
X167316414Y-96599297D01*
X167330764Y-96617131D01*
X167330810Y-96617217D01*
X167332633Y-96630795D01*
X167325910Y-96652820D01*
X167308946Y-96686304D01*
X167280044Y-96734261D01*
X167237508Y-96799704D01*
X167179644Y-96885645D01*
X167169783Y-96900151D01*
X167119913Y-96973635D01*
X167075905Y-97038687D01*
X167040380Y-97091417D01*
X167015959Y-97127936D01*
X167005264Y-97144356D01*
X167004458Y-97147834D01*
X167009518Y-97173785D01*
X167024677Y-97216159D01*
X167047463Y-97267728D01*
X167078429Y-97335170D01*
X167113004Y-97415195D01*
X167142366Y-97487629D01*
X167149645Y-97506377D01*
X167168710Y-97554246D01*
X167182715Y-97587596D01*
X167189041Y-97600114D01*
X167196025Y-97601050D01*
X167227413Y-97606461D01*
X167278787Y-97615806D01*
X167344802Y-97628069D01*
X167420113Y-97642232D01*
X167499375Y-97657280D01*
X167577243Y-97672195D01*
X167648370Y-97685961D01*
X167707412Y-97697562D01*
X167749022Y-97705980D01*
X167767857Y-97710199D01*
X167770980Y-97711389D01*
X167778591Y-97717805D01*
X167784254Y-97731465D01*
X167788251Y-97755999D01*
X167790866Y-97795038D01*
X167792384Y-97852213D01*
X167793086Y-97931154D01*
X167793257Y-98035492D01*
X167793257Y-98352799D01*
X167717057Y-98367839D01*
X167707840Y-98369642D01*
X167658891Y-98378980D01*
X167591205Y-98391669D01*
X167512478Y-98406273D01*
X167430400Y-98421355D01*
X167398078Y-98427422D01*
X167325855Y-98442181D01*
X167265666Y-98456137D01*
X167223040Y-98467952D01*
X167203510Y-98476287D01*
X167194660Y-98489905D01*
X167178548Y-98525938D01*
X167162065Y-98572572D01*
X167156263Y-98590034D01*
X167134906Y-98647358D01*
X167107359Y-98715201D01*
X167078107Y-98782355D01*
X167062463Y-98817430D01*
X167040174Y-98869822D01*
X167024857Y-98909058D01*
X167019162Y-98928563D01*
X167019478Y-98930036D01*
X167030281Y-98950729D01*
X167054638Y-98990665D01*
X167090081Y-99045972D01*
X167134136Y-99112781D01*
X167184332Y-99187220D01*
X167349501Y-99429623D01*
X167132503Y-99646983D01*
X167111516Y-99667899D01*
X167047342Y-99730505D01*
X166989990Y-99784495D01*
X166942820Y-99826826D01*
X166909192Y-99854457D01*
X166892467Y-99864343D01*
X166874303Y-99856821D01*
X166836265Y-99835227D01*
X166782726Y-99802151D01*
X166717884Y-99760191D01*
X166645940Y-99711943D01*
X166575275Y-99664291D01*
X166511526Y-99622328D01*
X166459513Y-99589165D01*
X166423279Y-99567378D01*
X166406867Y-99559543D01*
X166405905Y-99559614D01*
X166384103Y-99567338D01*
X166345440Y-99585323D01*
X166297612Y-99610013D01*
X166297110Y-99610284D01*
X166233587Y-99642099D01*
X166190060Y-99657642D01*
X166163052Y-99657685D01*
X166149090Y-99643000D01*
X166143180Y-99628544D01*
X166127229Y-99589831D01*
X166102660Y-99530316D01*
X166070779Y-99453165D01*
X166032893Y-99361541D01*
X165990310Y-99258607D01*
X165944337Y-99147526D01*
X165902667Y-99046472D01*
X165860268Y-98942780D01*
X165822756Y-98850119D01*
X165791388Y-98771642D01*
X165767425Y-98710500D01*
X165752123Y-98669843D01*
X165746743Y-98652825D01*
X165757018Y-98637219D01*
X165785563Y-98611162D01*
X165825971Y-98580887D01*
X165922979Y-98501684D01*
X166009793Y-98400475D01*
X166073322Y-98289116D01*
X166113177Y-98170893D01*
X166128965Y-98049095D01*
X166120296Y-97927010D01*
X166086778Y-97807925D01*
X166028021Y-97695129D01*
X165943632Y-97591911D01*
X165899631Y-97551713D01*
X165794211Y-97480638D01*
X165681410Y-97434301D01*
X165564525Y-97411599D01*
X165446853Y-97411428D01*
X165331690Y-97432687D01*
X165222335Y-97474270D01*
X165122083Y-97535076D01*
X165034233Y-97614001D01*
X164962080Y-97709941D01*
X164908922Y-97821795D01*
X164878057Y-97948457D01*
X164872392Y-98009507D01*
X164880185Y-98141776D01*
X164915284Y-98267266D01*
X164976649Y-98383759D01*
X165063243Y-98489039D01*
X165174029Y-98580887D01*
X165212931Y-98609930D01*
X165242104Y-98636272D01*
X165253257Y-98652800D01*
X165248810Y-98667209D01*
X165234378Y-98705815D01*
X165211173Y-98765201D01*
X165180452Y-98842215D01*
X165143474Y-98933703D01*
X165101496Y-99036516D01*
X165055778Y-99147502D01*
X165014178Y-99248072D01*
X164971222Y-99351947D01*
X164932829Y-99444819D01*
X164900305Y-99523525D01*
X164874958Y-99584899D01*
X164858095Y-99625779D01*
X164851025Y-99643000D01*
X164850943Y-99643204D01*
X164836798Y-99657745D01*
X164809659Y-99657579D01*
X164766023Y-99641927D01*
X164702388Y-99610013D01*
X164697379Y-99607326D01*
X164650125Y-99583150D01*
X164612811Y-99566037D01*
X164593133Y-99559543D01*
X164577005Y-99567218D01*
X164540959Y-99588871D01*
X164489092Y-99621928D01*
X164425445Y-99663810D01*
X164354060Y-99711943D01*
X164283724Y-99759131D01*
X164218670Y-99801267D01*
X164164820Y-99834578D01*
X164126374Y-99856469D01*
X164107534Y-99864343D01*
X164104325Y-99863343D01*
X164081954Y-99847584D01*
X164043733Y-99815033D01*
X163993021Y-99768733D01*
X163933181Y-99711726D01*
X163867571Y-99647058D01*
X163650648Y-99429772D01*
X163819601Y-99181253D01*
X163988553Y-98932733D01*
X163937183Y-98821595D01*
X163937031Y-98821266D01*
X163906183Y-98750418D01*
X163874661Y-98671523D01*
X163849266Y-98601600D01*
X163845423Y-98590322D01*
X163826047Y-98537967D01*
X163808574Y-98497283D01*
X163796388Y-98476287D01*
X163791426Y-98473322D01*
X163761634Y-98463375D01*
X163711047Y-98450505D01*
X163645194Y-98436053D01*
X163569600Y-98421355D01*
X163546957Y-98417210D01*
X163465038Y-98402116D01*
X163388600Y-98387899D01*
X163325337Y-98375995D01*
X163282943Y-98367839D01*
X163206743Y-98352799D01*
X163206743Y-98035492D01*
X163206760Y-97996476D01*
X163207082Y-97901292D01*
X163208033Y-97830255D01*
X163209896Y-97779734D01*
X163212955Y-97746098D01*
X163217494Y-97725718D01*
X163223795Y-97714962D01*
X163232143Y-97710199D01*
X163240224Y-97708270D01*
X163273172Y-97701445D01*
X163325736Y-97691022D01*
X163392569Y-97678018D01*
X163468328Y-97663449D01*
X163547665Y-97648333D01*
X163625237Y-97633685D01*
X163695698Y-97620523D01*
X163753702Y-97609863D01*
X163793904Y-97602721D01*
X163810959Y-97600114D01*
X163812112Y-97598541D01*
X163821385Y-97578119D01*
X163837432Y-97539045D01*
X163857635Y-97487629D01*
X163885672Y-97418353D01*
X163920186Y-97338290D01*
X163952538Y-97267728D01*
X163959952Y-97251889D01*
X163980755Y-97202293D01*
X163993219Y-97164038D01*
X163994863Y-97144356D01*
X163994015Y-97142962D01*
X163980548Y-97122420D01*
X163953850Y-97082516D01*
X163916539Y-97027140D01*
X163871234Y-96960177D01*
X163820552Y-96885517D01*
X163763445Y-96800692D01*
X163720607Y-96734800D01*
X163691460Y-96686478D01*
X163674317Y-96652733D01*
X163667495Y-96630572D01*
X163669306Y-96617002D01*
X163669915Y-96615984D01*
X163686297Y-96596210D01*
X163719695Y-96560175D01*
X163766671Y-96511451D01*
X163823786Y-96453612D01*
X163887603Y-96390227D01*
X163953802Y-96325905D01*
X164018648Y-96265447D01*
X164066299Y-96224655D01*
X164097990Y-96202484D01*
X164114958Y-96197889D01*
X164117175Y-96198921D01*
X164140524Y-96212837D01*
X164182912Y-96240030D01*
X164240369Y-96277889D01*
X164308923Y-96323803D01*
X164384601Y-96375160D01*
X164631298Y-96543626D01*
X164742706Y-96493062D01*
X164745943Y-96491597D01*
X164814343Y-96461965D01*
X164886907Y-96432493D01*
X164948457Y-96409358D01*
X164948729Y-96409262D01*
X164997595Y-96391367D01*
X165035212Y-96376253D01*
X165053457Y-96367184D01*
X165053752Y-96366855D01*
X165059946Y-96348282D01*
X165070139Y-96306045D01*
X165083348Y-96244696D01*
X165098590Y-96168789D01*
X165114881Y-96082875D01*
X165115449Y-96079796D01*
X165131713Y-95992128D01*
X165146608Y-95912741D01*
X165159171Y-95846701D01*
X165168438Y-95799079D01*
X165173444Y-95774943D01*
X165173764Y-95773605D01*
X165177060Y-95763273D01*
X165183738Y-95755506D01*
X165197462Y-95749940D01*
X165221895Y-95746207D01*
X165260702Y-95743942D01*
X165317546Y-95742778D01*
X165396090Y-95742348D01*
X165500000Y-95742286D01*
X165513056Y-95742286D01*
X165613933Y-95742371D01*
G36*
X165613933Y-95742371D02*
G01*
X165689856Y-95742865D01*
X165744491Y-95744135D01*
X165781500Y-95746547D01*
X165804547Y-95750467D01*
X165817296Y-95756262D01*
X165823411Y-95764299D01*
X165826556Y-95774943D01*
X165826646Y-95775325D01*
X165831814Y-95800347D01*
X165841209Y-95848681D01*
X165853867Y-95915260D01*
X165868825Y-95995014D01*
X165885119Y-96082875D01*
X165886448Y-96090064D01*
X165902691Y-96175340D01*
X165917805Y-96250242D01*
X165930808Y-96310219D01*
X165940715Y-96350717D01*
X165946544Y-96367184D01*
X165946575Y-96367210D01*
X165964943Y-96376320D01*
X166002640Y-96391457D01*
X166051543Y-96409358D01*
X166054297Y-96410330D01*
X166116817Y-96433959D01*
X166189543Y-96463595D01*
X166257294Y-96493062D01*
X166368703Y-96543626D01*
X166615399Y-96375160D01*
X166632775Y-96363311D01*
X166707202Y-96312947D01*
X166773614Y-96268612D01*
X166828039Y-96232916D01*
X166866506Y-96208471D01*
X166885042Y-96197889D01*
X166897743Y-96200315D01*
X166926579Y-96219110D01*
X166971143Y-96256330D01*
X167032670Y-96313020D01*
X167112398Y-96390227D01*
X167119532Y-96397255D01*
X167182796Y-96460222D01*
X167238990Y-96517268D01*
X167284677Y-96564817D01*
X167316414Y-96599297D01*
X167330764Y-96617131D01*
X167330810Y-96617217D01*
X167332633Y-96630795D01*
X167325910Y-96652820D01*
X167308946Y-96686304D01*
X167280044Y-96734261D01*
X167237508Y-96799704D01*
X167179644Y-96885645D01*
X167169783Y-96900151D01*
X167119913Y-96973635D01*
X167075905Y-97038687D01*
X167040380Y-97091417D01*
X167015959Y-97127936D01*
X167005264Y-97144356D01*
X167004458Y-97147834D01*
X167009518Y-97173785D01*
X167024677Y-97216159D01*
X167047463Y-97267728D01*
X167078429Y-97335170D01*
X167113004Y-97415195D01*
X167142366Y-97487629D01*
X167149645Y-97506377D01*
X167168710Y-97554246D01*
X167182715Y-97587596D01*
X167189041Y-97600114D01*
X167196025Y-97601050D01*
X167227413Y-97606461D01*
X167278787Y-97615806D01*
X167344802Y-97628069D01*
X167420113Y-97642232D01*
X167499375Y-97657280D01*
X167577243Y-97672195D01*
X167648370Y-97685961D01*
X167707412Y-97697562D01*
X167749022Y-97705980D01*
X167767857Y-97710199D01*
X167770980Y-97711389D01*
X167778591Y-97717805D01*
X167784254Y-97731465D01*
X167788251Y-97755999D01*
X167790866Y-97795038D01*
X167792384Y-97852213D01*
X167793086Y-97931154D01*
X167793257Y-98035492D01*
X167793257Y-98352799D01*
X167717057Y-98367839D01*
X167707840Y-98369642D01*
X167658891Y-98378980D01*
X167591205Y-98391669D01*
X167512478Y-98406273D01*
X167430400Y-98421355D01*
X167398078Y-98427422D01*
X167325855Y-98442181D01*
X167265666Y-98456137D01*
X167223040Y-98467952D01*
X167203510Y-98476287D01*
X167194660Y-98489905D01*
X167178548Y-98525938D01*
X167162065Y-98572572D01*
X167156263Y-98590034D01*
X167134906Y-98647358D01*
X167107359Y-98715201D01*
X167078107Y-98782355D01*
X167062463Y-98817430D01*
X167040174Y-98869822D01*
X167024857Y-98909058D01*
X167019162Y-98928563D01*
X167019478Y-98930036D01*
X167030281Y-98950729D01*
X167054638Y-98990665D01*
X167090081Y-99045972D01*
X167134136Y-99112781D01*
X167184332Y-99187220D01*
X167349501Y-99429623D01*
X167132503Y-99646983D01*
X167111516Y-99667899D01*
X167047342Y-99730505D01*
X166989990Y-99784495D01*
X166942820Y-99826826D01*
X166909192Y-99854457D01*
X166892467Y-99864343D01*
X166874303Y-99856821D01*
X166836265Y-99835227D01*
X166782726Y-99802151D01*
X166717884Y-99760191D01*
X166645940Y-99711943D01*
X166575275Y-99664291D01*
X166511526Y-99622328D01*
X166459513Y-99589165D01*
X166423279Y-99567378D01*
X166406867Y-99559543D01*
X166405905Y-99559614D01*
X166384103Y-99567338D01*
X166345440Y-99585323D01*
X166297612Y-99610013D01*
X166297110Y-99610284D01*
X166233587Y-99642099D01*
X166190060Y-99657642D01*
X166163052Y-99657685D01*
X166149090Y-99643000D01*
X166143180Y-99628544D01*
X166127229Y-99589831D01*
X166102660Y-99530316D01*
X166070779Y-99453165D01*
X166032893Y-99361541D01*
X165990310Y-99258607D01*
X165944337Y-99147526D01*
X165902667Y-99046472D01*
X165860268Y-98942780D01*
X165822756Y-98850119D01*
X165791388Y-98771642D01*
X165767425Y-98710500D01*
X165752123Y-98669843D01*
X165746743Y-98652825D01*
X165757018Y-98637219D01*
X165785563Y-98611162D01*
X165825971Y-98580887D01*
X165922979Y-98501684D01*
X166009793Y-98400475D01*
X166073322Y-98289116D01*
X166113177Y-98170893D01*
X166128965Y-98049095D01*
X166120296Y-97927010D01*
X166086778Y-97807925D01*
X166028021Y-97695129D01*
X165943632Y-97591911D01*
X165899631Y-97551713D01*
X165794211Y-97480638D01*
X165681410Y-97434301D01*
X165564525Y-97411599D01*
X165446853Y-97411428D01*
X165331690Y-97432687D01*
X165222335Y-97474270D01*
X165122083Y-97535076D01*
X165034233Y-97614001D01*
X164962080Y-97709941D01*
X164908922Y-97821795D01*
X164878057Y-97948457D01*
X164872392Y-98009507D01*
X164880185Y-98141776D01*
X164915284Y-98267266D01*
X164976649Y-98383759D01*
X165063243Y-98489039D01*
X165174029Y-98580887D01*
X165212931Y-98609930D01*
X165242104Y-98636272D01*
X165253257Y-98652800D01*
X165248810Y-98667209D01*
X165234378Y-98705815D01*
X165211173Y-98765201D01*
X165180452Y-98842215D01*
X165143474Y-98933703D01*
X165101496Y-99036516D01*
X165055778Y-99147502D01*
X165014178Y-99248072D01*
X164971222Y-99351947D01*
X164932829Y-99444819D01*
X164900305Y-99523525D01*
X164874958Y-99584899D01*
X164858095Y-99625779D01*
X164851025Y-99643000D01*
X164850943Y-99643204D01*
X164836798Y-99657745D01*
X164809659Y-99657579D01*
X164766023Y-99641927D01*
X164702388Y-99610013D01*
X164697379Y-99607326D01*
X164650125Y-99583150D01*
X164612811Y-99566037D01*
X164593133Y-99559543D01*
X164577005Y-99567218D01*
X164540959Y-99588871D01*
X164489092Y-99621928D01*
X164425445Y-99663810D01*
X164354060Y-99711943D01*
X164283724Y-99759131D01*
X164218670Y-99801267D01*
X164164820Y-99834578D01*
X164126374Y-99856469D01*
X164107534Y-99864343D01*
X164104325Y-99863343D01*
X164081954Y-99847584D01*
X164043733Y-99815033D01*
X163993021Y-99768733D01*
X163933181Y-99711726D01*
X163867571Y-99647058D01*
X163650648Y-99429772D01*
X163819601Y-99181253D01*
X163988553Y-98932733D01*
X163937183Y-98821595D01*
X163937031Y-98821266D01*
X163906183Y-98750418D01*
X163874661Y-98671523D01*
X163849266Y-98601600D01*
X163845423Y-98590322D01*
X163826047Y-98537967D01*
X163808574Y-98497283D01*
X163796388Y-98476287D01*
X163791426Y-98473322D01*
X163761634Y-98463375D01*
X163711047Y-98450505D01*
X163645194Y-98436053D01*
X163569600Y-98421355D01*
X163546957Y-98417210D01*
X163465038Y-98402116D01*
X163388600Y-98387899D01*
X163325337Y-98375995D01*
X163282943Y-98367839D01*
X163206743Y-98352799D01*
X163206743Y-98035492D01*
X163206760Y-97996476D01*
X163207082Y-97901292D01*
X163208033Y-97830255D01*
X163209896Y-97779734D01*
X163212955Y-97746098D01*
X163217494Y-97725718D01*
X163223795Y-97714962D01*
X163232143Y-97710199D01*
X163240224Y-97708270D01*
X163273172Y-97701445D01*
X163325736Y-97691022D01*
X163392569Y-97678018D01*
X163468328Y-97663449D01*
X163547665Y-97648333D01*
X163625237Y-97633685D01*
X163695698Y-97620523D01*
X163753702Y-97609863D01*
X163793904Y-97602721D01*
X163810959Y-97600114D01*
X163812112Y-97598541D01*
X163821385Y-97578119D01*
X163837432Y-97539045D01*
X163857635Y-97487629D01*
X163885672Y-97418353D01*
X163920186Y-97338290D01*
X163952538Y-97267728D01*
X163959952Y-97251889D01*
X163980755Y-97202293D01*
X163993219Y-97164038D01*
X163994863Y-97144356D01*
X163994015Y-97142962D01*
X163980548Y-97122420D01*
X163953850Y-97082516D01*
X163916539Y-97027140D01*
X163871234Y-96960177D01*
X163820552Y-96885517D01*
X163763445Y-96800692D01*
X163720607Y-96734800D01*
X163691460Y-96686478D01*
X163674317Y-96652733D01*
X163667495Y-96630572D01*
X163669306Y-96617002D01*
X163669915Y-96615984D01*
X163686297Y-96596210D01*
X163719695Y-96560175D01*
X163766671Y-96511451D01*
X163823786Y-96453612D01*
X163887603Y-96390227D01*
X163953802Y-96325905D01*
X164018648Y-96265447D01*
X164066299Y-96224655D01*
X164097990Y-96202484D01*
X164114958Y-96197889D01*
X164117175Y-96198921D01*
X164140524Y-96212837D01*
X164182912Y-96240030D01*
X164240369Y-96277889D01*
X164308923Y-96323803D01*
X164384601Y-96375160D01*
X164631298Y-96543626D01*
X164742706Y-96493062D01*
X164745943Y-96491597D01*
X164814343Y-96461965D01*
X164886907Y-96432493D01*
X164948457Y-96409358D01*
X164948729Y-96409262D01*
X164997595Y-96391367D01*
X165035212Y-96376253D01*
X165053457Y-96367184D01*
X165053752Y-96366855D01*
X165059946Y-96348282D01*
X165070139Y-96306045D01*
X165083348Y-96244696D01*
X165098590Y-96168789D01*
X165114881Y-96082875D01*
X165115449Y-96079796D01*
X165131713Y-95992128D01*
X165146608Y-95912741D01*
X165159171Y-95846701D01*
X165168438Y-95799079D01*
X165173444Y-95774943D01*
X165173764Y-95773605D01*
X165177060Y-95763273D01*
X165183738Y-95755506D01*
X165197462Y-95749940D01*
X165221895Y-95746207D01*
X165260702Y-95743942D01*
X165317546Y-95742778D01*
X165396090Y-95742348D01*
X165500000Y-95742286D01*
X165513056Y-95742286D01*
X165613933Y-95742371D01*
G37*
D14*
%TO.C,U1*%
X172300000Y-104120000D02*
X185700000Y-104120000D01*
X185729424Y-125119999D02*
X172400000Y-125120000D01*
X170200000Y-105620000D02*
G75*
G02*
X172300000Y-104120000I2174105J-823747D01*
G01*
X172399532Y-125119999D02*
G75*
G02*
X170187108Y-123624680I-77145J2270232D01*
G01*
X185700000Y-104120000D02*
G75*
G02*
X187800004Y-105619999I-74110J-2323760D01*
G01*
X187804034Y-123621464D02*
G75*
G02*
X185600000Y-125120001I-2139304J776364D01*
G01*
%TO.C,Q1*%
X184350000Y-95470000D02*
X184350000Y-99070000D01*
X179900000Y-97270000D02*
G75*
G02*
X184338478Y-95431522I2600000J0D01*
G01*
X184338478Y-99108478D02*
G75*
G02*
X179899999Y-97270000I-1838478J1838478D01*
G01*
%TD*%
%LPC*%
D16*
%TO.C,J1*%
X164500000Y-93000000D03*
D17*
X167040000Y-93000000D03*
X169580000Y-93000000D03*
X172120000Y-93000000D03*
%TD*%
D16*
%TO.C,J2*%
X159500000Y-100540000D03*
D17*
X159500000Y-98000000D03*
X159500000Y-95460000D03*
X159500000Y-92920000D03*
%TD*%
D18*
%TO.C,R1*%
X179690000Y-102000000D03*
X187310000Y-102000000D03*
%TD*%
D19*
%TO.C,J3*%
X177500000Y-100000000D03*
D20*
X177500000Y-97500000D03*
%TD*%
D21*
%TO.C,U1*%
X170500000Y-122240000D03*
X170500000Y-119700000D03*
X170500000Y-117160000D03*
X170500000Y-114620000D03*
X170500000Y-112080000D03*
X170500000Y-109540000D03*
X170500000Y-107000000D03*
X187500000Y-107000000D03*
X187500000Y-109540000D03*
X187500000Y-112080000D03*
X187500000Y-114620000D03*
X187500000Y-117160000D03*
X187500000Y-119700000D03*
X187500000Y-122240000D03*
%TD*%
D22*
%TO.C,Q1*%
X182500000Y-96000000D03*
D23*
X182500000Y-97270000D03*
X182500000Y-98540000D03*
%TD*%
%LPD*%
M02*
