%TF.GenerationSoftware,KiCad,Pcbnew,9.0.2*%
%TF.CreationDate,2025-08-29T11:08:50+00:00*%
%TF.ProjectId,AERIS-Nano Breakout Board,41455249-532d-44e6-916e-6f2042726561,rev?*%
%TF.SameCoordinates,Original*%
%TF.FileFunction,Drillmap*%
%TF.FilePolarity,Positive*%
%FSLAX45Y45*%
G04 Gerber Fmt 4.5, Leading zero omitted, Abs format (unit mm)*
G04 Created by KiCad (PCBNEW 9.0.2) date 2025-08-29 11:08:50*
%MOMM*%
%LPD*%
G01*
G04 APERTURE LIST*
%ADD10C,0.050000*%
%ADD11C,0.200000*%
G04 APERTURE END LIST*
D10*
X14700000Y-9150000D02*
G75*
G02*
X14800000Y-9050000I100000J0D01*
G01*
X18950000Y-12450000D02*
X18950000Y-9150000D01*
X16950000Y-12550000D02*
G75*
G02*
X16850000Y-12450000I0J100000D01*
G01*
X16750000Y-10300000D02*
X14800000Y-10300000D01*
X16950000Y-12550000D02*
X18850000Y-12550000D01*
X16750000Y-10300000D02*
G75*
G02*
X16850000Y-10400000I0J-100000D01*
G01*
X16850000Y-12450000D02*
X16850000Y-10400000D01*
X14800000Y-10300000D02*
G75*
G02*
X14700000Y-10200000I0J100000D01*
G01*
X18850000Y-9050000D02*
X14800000Y-9050000D01*
X18950000Y-12450000D02*
G75*
G02*
X18850000Y-12550000I-100000J0D01*
G01*
X14700000Y-9150000D02*
X14700000Y-10200000D01*
X18850000Y-9050000D02*
G75*
G02*
X18950000Y-9150000I0J-100000D01*
G01*
D11*
X14958277Y-12863984D02*
X14958277Y-12663984D01*
X14958277Y-12663984D02*
X15005896Y-12663984D01*
X15005896Y-12663984D02*
X15034467Y-12673508D01*
X15034467Y-12673508D02*
X15053515Y-12692555D01*
X15053515Y-12692555D02*
X15063039Y-12711603D01*
X15063039Y-12711603D02*
X15072562Y-12749698D01*
X15072562Y-12749698D02*
X15072562Y-12778269D01*
X15072562Y-12778269D02*
X15063039Y-12816365D01*
X15063039Y-12816365D02*
X15053515Y-12835412D01*
X15053515Y-12835412D02*
X15034467Y-12854460D01*
X15034467Y-12854460D02*
X15005896Y-12863984D01*
X15005896Y-12863984D02*
X14958277Y-12863984D01*
X15158277Y-12863984D02*
X15158277Y-12730650D01*
X15158277Y-12768746D02*
X15167801Y-12749698D01*
X15167801Y-12749698D02*
X15177324Y-12740174D01*
X15177324Y-12740174D02*
X15196372Y-12730650D01*
X15196372Y-12730650D02*
X15215420Y-12730650D01*
X15282086Y-12863984D02*
X15282086Y-12730650D01*
X15282086Y-12663984D02*
X15272562Y-12673508D01*
X15272562Y-12673508D02*
X15282086Y-12683031D01*
X15282086Y-12683031D02*
X15291610Y-12673508D01*
X15291610Y-12673508D02*
X15282086Y-12663984D01*
X15282086Y-12663984D02*
X15282086Y-12683031D01*
X15405896Y-12863984D02*
X15386848Y-12854460D01*
X15386848Y-12854460D02*
X15377324Y-12835412D01*
X15377324Y-12835412D02*
X15377324Y-12663984D01*
X15510658Y-12863984D02*
X15491610Y-12854460D01*
X15491610Y-12854460D02*
X15482086Y-12835412D01*
X15482086Y-12835412D02*
X15482086Y-12663984D01*
X15739229Y-12863984D02*
X15739229Y-12663984D01*
X15739229Y-12663984D02*
X15805896Y-12806841D01*
X15805896Y-12806841D02*
X15872562Y-12663984D01*
X15872562Y-12663984D02*
X15872562Y-12863984D01*
X16053515Y-12863984D02*
X16053515Y-12759222D01*
X16053515Y-12759222D02*
X16043991Y-12740174D01*
X16043991Y-12740174D02*
X16024943Y-12730650D01*
X16024943Y-12730650D02*
X15986848Y-12730650D01*
X15986848Y-12730650D02*
X15967801Y-12740174D01*
X16053515Y-12854460D02*
X16034467Y-12863984D01*
X16034467Y-12863984D02*
X15986848Y-12863984D01*
X15986848Y-12863984D02*
X15967801Y-12854460D01*
X15967801Y-12854460D02*
X15958277Y-12835412D01*
X15958277Y-12835412D02*
X15958277Y-12816365D01*
X15958277Y-12816365D02*
X15967801Y-12797317D01*
X15967801Y-12797317D02*
X15986848Y-12787793D01*
X15986848Y-12787793D02*
X16034467Y-12787793D01*
X16034467Y-12787793D02*
X16053515Y-12778269D01*
X16148753Y-12730650D02*
X16148753Y-12930650D01*
X16148753Y-12740174D02*
X16167801Y-12730650D01*
X16167801Y-12730650D02*
X16205896Y-12730650D01*
X16205896Y-12730650D02*
X16224943Y-12740174D01*
X16224943Y-12740174D02*
X16234467Y-12749698D01*
X16234467Y-12749698D02*
X16243991Y-12768746D01*
X16243991Y-12768746D02*
X16243991Y-12825888D01*
X16243991Y-12825888D02*
X16234467Y-12844936D01*
X16234467Y-12844936D02*
X16224943Y-12854460D01*
X16224943Y-12854460D02*
X16205896Y-12863984D01*
X16205896Y-12863984D02*
X16167801Y-12863984D01*
X16167801Y-12863984D02*
X16148753Y-12854460D01*
X16329705Y-12844936D02*
X16339229Y-12854460D01*
X16339229Y-12854460D02*
X16329705Y-12863984D01*
X16329705Y-12863984D02*
X16320182Y-12854460D01*
X16320182Y-12854460D02*
X16329705Y-12844936D01*
X16329705Y-12844936D02*
X16329705Y-12863984D01*
X16329705Y-12740174D02*
X16339229Y-12749698D01*
X16339229Y-12749698D02*
X16329705Y-12759222D01*
X16329705Y-12759222D02*
X16320182Y-12749698D01*
X16320182Y-12749698D02*
X16329705Y-12740174D01*
X16329705Y-12740174D02*
X16329705Y-12759222D01*
M02*
