%TF.GenerationSoftware,KiCad,Pcbnew,9.0.2*%
%TF.CreationDate,2025-08-29T11:08:50+00:00*%
%TF.ProjectId,AERIS-Nano Breakout Board,41455249-532d-44e6-916e-6f2042726561,rev?*%
%TF.SameCoordinates,Original*%
%TF.FileFunction,Drillmap*%
%TF.FilePolarity,Positive*%
%FSLAX45Y45*%
G04 Gerber Fmt 4.5, Leading zero omitted, Abs format (unit mm)*
G04 Created by KiCad (PCBNEW 9.0.2) date 2025-08-29 11:08:50*
%MOMM*%
%LPD*%
G01*
G04 APERTURE LIST*
%ADD10C,0.050000*%
%ADD11C,0.200000*%
%ADD12C,0.100000*%
G04 APERTURE END LIST*
D10*
X14700000Y-9150000D02*
G75*
G02*
X14800000Y-9050000I100000J0D01*
G01*
X18950000Y-12450000D02*
X18950000Y-9150000D01*
X16950000Y-12550000D02*
G75*
G02*
X16850000Y-12450000I0J100000D01*
G01*
X16750000Y-10300000D02*
X14800000Y-10300000D01*
X16950000Y-12550000D02*
X18850000Y-12550000D01*
X16750000Y-10300000D02*
G75*
G02*
X16850000Y-10400000I0J-100000D01*
G01*
X16850000Y-12450000D02*
X16850000Y-10400000D01*
X14800000Y-10300000D02*
G75*
G02*
X14700000Y-10200000I0J100000D01*
G01*
X18850000Y-9050000D02*
X14800000Y-9050000D01*
X18950000Y-12450000D02*
G75*
G02*
X18850000Y-12550000I-100000J0D01*
G01*
X14700000Y-9150000D02*
X14700000Y-10200000D01*
X18850000Y-9050000D02*
G75*
G02*
X18950000Y-9150000I0J-100000D01*
G01*
D11*
D12*
X16835000Y-9435000D02*
X16865000Y-9465000D01*
X16865000Y-9435000D02*
X16835000Y-9465000D01*
X17035000Y-9435000D02*
X17065000Y-9465000D01*
X17065000Y-9435000D02*
X17035000Y-9465000D01*
X18225000Y-12050000D02*
G75*
G02*
X18175000Y-12050000I-25000J0D01*
G01*
X18175000Y-12050000D02*
G75*
G02*
X18225000Y-12050000I25000J0D01*
G01*
X18250000Y-9562500D02*
X18250000Y-9637500D01*
X18212500Y-9600000D02*
X18287500Y-9600000D01*
X18250000Y-9689500D02*
X18250000Y-9764500D01*
X18212500Y-9727000D02*
X18287500Y-9727000D01*
X18250000Y-9816500D02*
X18250000Y-9891500D01*
X18212500Y-9854000D02*
X18287500Y-9854000D01*
X17997285Y-10228285D02*
X17997285Y-10171716D01*
X17940716Y-10171716D01*
X17940716Y-10228285D01*
X17997285Y-10228285D01*
X18759285Y-10228285D02*
X18759285Y-10171716D01*
X18702716Y-10171716D01*
X18702716Y-10228285D01*
X18759285Y-10228285D01*
X15950000Y-9342000D02*
X16000000Y-9292000D01*
X15950000Y-9242000D01*
X15900000Y-9292000D01*
X15950000Y-9342000D01*
X15950000Y-9596000D02*
X16000000Y-9546000D01*
X15950000Y-9496000D01*
X15900000Y-9546000D01*
X15950000Y-9596000D01*
X15950000Y-9850000D02*
X16000000Y-9800000D01*
X15950000Y-9750000D01*
X15900000Y-9800000D01*
X15950000Y-9850000D01*
X15950000Y-10104000D02*
X16000000Y-10054000D01*
X15950000Y-10004000D01*
X15900000Y-10054000D01*
X15950000Y-10104000D01*
X16450000Y-9350000D02*
X16500000Y-9300000D01*
X16450000Y-9250000D01*
X16400000Y-9300000D01*
X16450000Y-9350000D01*
X16704000Y-9350000D02*
X16754000Y-9300000D01*
X16704000Y-9250000D01*
X16654000Y-9300000D01*
X16704000Y-9350000D01*
X16958000Y-9350000D02*
X17008000Y-9300000D01*
X16958000Y-9250000D01*
X16908000Y-9300000D01*
X16958000Y-9350000D01*
X17212000Y-9350000D02*
X17262000Y-9300000D01*
X17212000Y-9250000D01*
X17162000Y-9300000D01*
X17212000Y-9350000D01*
X17750000Y-9800000D02*
X17800000Y-9750000D01*
X17750000Y-9700000D01*
X17700000Y-9750000D01*
X17750000Y-9800000D01*
X17750000Y-10050000D02*
X17800000Y-10000000D01*
X17750000Y-9950000D01*
X17700000Y-10000000D01*
X17750000Y-10050000D01*
D11*
X14958277Y-12863984D02*
X14958277Y-12663984D01*
X14958277Y-12663984D02*
X15005896Y-12663984D01*
X15005896Y-12663984D02*
X15034467Y-12673508D01*
X15034467Y-12673508D02*
X15053515Y-12692555D01*
X15053515Y-12692555D02*
X15063039Y-12711603D01*
X15063039Y-12711603D02*
X15072562Y-12749698D01*
X15072562Y-12749698D02*
X15072562Y-12778269D01*
X15072562Y-12778269D02*
X15063039Y-12816365D01*
X15063039Y-12816365D02*
X15053515Y-12835412D01*
X15053515Y-12835412D02*
X15034467Y-12854460D01*
X15034467Y-12854460D02*
X15005896Y-12863984D01*
X15005896Y-12863984D02*
X14958277Y-12863984D01*
X15158277Y-12863984D02*
X15158277Y-12730650D01*
X15158277Y-12768746D02*
X15167801Y-12749698D01*
X15167801Y-12749698D02*
X15177324Y-12740174D01*
X15177324Y-12740174D02*
X15196372Y-12730650D01*
X15196372Y-12730650D02*
X15215420Y-12730650D01*
X15282086Y-12863984D02*
X15282086Y-12730650D01*
X15282086Y-12663984D02*
X15272562Y-12673508D01*
X15272562Y-12673508D02*
X15282086Y-12683031D01*
X15282086Y-12683031D02*
X15291610Y-12673508D01*
X15291610Y-12673508D02*
X15282086Y-12663984D01*
X15282086Y-12663984D02*
X15282086Y-12683031D01*
X15405896Y-12863984D02*
X15386848Y-12854460D01*
X15386848Y-12854460D02*
X15377324Y-12835412D01*
X15377324Y-12835412D02*
X15377324Y-12663984D01*
X15510658Y-12863984D02*
X15491610Y-12854460D01*
X15491610Y-12854460D02*
X15482086Y-12835412D01*
X15482086Y-12835412D02*
X15482086Y-12663984D01*
X15739229Y-12863984D02*
X15739229Y-12663984D01*
X15739229Y-12663984D02*
X15805896Y-12806841D01*
X15805896Y-12806841D02*
X15872562Y-12663984D01*
X15872562Y-12663984D02*
X15872562Y-12863984D01*
X16053515Y-12863984D02*
X16053515Y-12759222D01*
X16053515Y-12759222D02*
X16043991Y-12740174D01*
X16043991Y-12740174D02*
X16024943Y-12730650D01*
X16024943Y-12730650D02*
X15986848Y-12730650D01*
X15986848Y-12730650D02*
X15967801Y-12740174D01*
X16053515Y-12854460D02*
X16034467Y-12863984D01*
X16034467Y-12863984D02*
X15986848Y-12863984D01*
X15986848Y-12863984D02*
X15967801Y-12854460D01*
X15967801Y-12854460D02*
X15958277Y-12835412D01*
X15958277Y-12835412D02*
X15958277Y-12816365D01*
X15958277Y-12816365D02*
X15967801Y-12797317D01*
X15967801Y-12797317D02*
X15986848Y-12787793D01*
X15986848Y-12787793D02*
X16034467Y-12787793D01*
X16034467Y-12787793D02*
X16053515Y-12778269D01*
X16148753Y-12730650D02*
X16148753Y-12930650D01*
X16148753Y-12740174D02*
X16167801Y-12730650D01*
X16167801Y-12730650D02*
X16205896Y-12730650D01*
X16205896Y-12730650D02*
X16224943Y-12740174D01*
X16224943Y-12740174D02*
X16234467Y-12749698D01*
X16234467Y-12749698D02*
X16243991Y-12768746D01*
X16243991Y-12768746D02*
X16243991Y-12825888D01*
X16243991Y-12825888D02*
X16234467Y-12844936D01*
X16234467Y-12844936D02*
X16224943Y-12854460D01*
X16224943Y-12854460D02*
X16205896Y-12863984D01*
X16205896Y-12863984D02*
X16167801Y-12863984D01*
X16167801Y-12863984D02*
X16148753Y-12854460D01*
X16329705Y-12844936D02*
X16339229Y-12854460D01*
X16339229Y-12854460D02*
X16329705Y-12863984D01*
X16329705Y-12863984D02*
X16320182Y-12854460D01*
X16320182Y-12854460D02*
X16329705Y-12844936D01*
X16329705Y-12844936D02*
X16329705Y-12863984D01*
X16329705Y-12740174D02*
X16339229Y-12749698D01*
X16339229Y-12749698D02*
X16329705Y-12759222D01*
X16329705Y-12759222D02*
X16320182Y-12749698D01*
X16320182Y-12749698D02*
X16329705Y-12740174D01*
X16329705Y-12740174D02*
X16329705Y-12759222D01*
D12*
X14667500Y-13177500D02*
X14697500Y-13207500D01*
X14697500Y-13177500D02*
X14667500Y-13207500D01*
D11*
X14996372Y-13083984D02*
X15015420Y-13083984D01*
X15015420Y-13083984D02*
X15034467Y-13093508D01*
X15034467Y-13093508D02*
X15043991Y-13103031D01*
X15043991Y-13103031D02*
X15053515Y-13122079D01*
X15053515Y-13122079D02*
X15063039Y-13160174D01*
X15063039Y-13160174D02*
X15063039Y-13207793D01*
X15063039Y-13207793D02*
X15053515Y-13245888D01*
X15053515Y-13245888D02*
X15043991Y-13264936D01*
X15043991Y-13264936D02*
X15034467Y-13274460D01*
X15034467Y-13274460D02*
X15015420Y-13283984D01*
X15015420Y-13283984D02*
X14996372Y-13283984D01*
X14996372Y-13283984D02*
X14977324Y-13274460D01*
X14977324Y-13274460D02*
X14967801Y-13264936D01*
X14967801Y-13264936D02*
X14958277Y-13245888D01*
X14958277Y-13245888D02*
X14948753Y-13207793D01*
X14948753Y-13207793D02*
X14948753Y-13160174D01*
X14948753Y-13160174D02*
X14958277Y-13122079D01*
X14958277Y-13122079D02*
X14967801Y-13103031D01*
X14967801Y-13103031D02*
X14977324Y-13093508D01*
X14977324Y-13093508D02*
X14996372Y-13083984D01*
X15148753Y-13264936D02*
X15158277Y-13274460D01*
X15158277Y-13274460D02*
X15148753Y-13283984D01*
X15148753Y-13283984D02*
X15139229Y-13274460D01*
X15139229Y-13274460D02*
X15148753Y-13264936D01*
X15148753Y-13264936D02*
X15148753Y-13283984D01*
X15224943Y-13083984D02*
X15348753Y-13083984D01*
X15348753Y-13083984D02*
X15282086Y-13160174D01*
X15282086Y-13160174D02*
X15310658Y-13160174D01*
X15310658Y-13160174D02*
X15329705Y-13169698D01*
X15329705Y-13169698D02*
X15339229Y-13179222D01*
X15339229Y-13179222D02*
X15348753Y-13198269D01*
X15348753Y-13198269D02*
X15348753Y-13245888D01*
X15348753Y-13245888D02*
X15339229Y-13264936D01*
X15339229Y-13264936D02*
X15329705Y-13274460D01*
X15329705Y-13274460D02*
X15310658Y-13283984D01*
X15310658Y-13283984D02*
X15253515Y-13283984D01*
X15253515Y-13283984D02*
X15234467Y-13274460D01*
X15234467Y-13274460D02*
X15224943Y-13264936D01*
X15472562Y-13083984D02*
X15491610Y-13083984D01*
X15491610Y-13083984D02*
X15510658Y-13093508D01*
X15510658Y-13093508D02*
X15520182Y-13103031D01*
X15520182Y-13103031D02*
X15529705Y-13122079D01*
X15529705Y-13122079D02*
X15539229Y-13160174D01*
X15539229Y-13160174D02*
X15539229Y-13207793D01*
X15539229Y-13207793D02*
X15529705Y-13245888D01*
X15529705Y-13245888D02*
X15520182Y-13264936D01*
X15520182Y-13264936D02*
X15510658Y-13274460D01*
X15510658Y-13274460D02*
X15491610Y-13283984D01*
X15491610Y-13283984D02*
X15472562Y-13283984D01*
X15472562Y-13283984D02*
X15453515Y-13274460D01*
X15453515Y-13274460D02*
X15443991Y-13264936D01*
X15443991Y-13264936D02*
X15434467Y-13245888D01*
X15434467Y-13245888D02*
X15424943Y-13207793D01*
X15424943Y-13207793D02*
X15424943Y-13160174D01*
X15424943Y-13160174D02*
X15434467Y-13122079D01*
X15434467Y-13122079D02*
X15443991Y-13103031D01*
X15443991Y-13103031D02*
X15453515Y-13093508D01*
X15453515Y-13093508D02*
X15472562Y-13083984D01*
X15663039Y-13083984D02*
X15682086Y-13083984D01*
X15682086Y-13083984D02*
X15701134Y-13093508D01*
X15701134Y-13093508D02*
X15710658Y-13103031D01*
X15710658Y-13103031D02*
X15720182Y-13122079D01*
X15720182Y-13122079D02*
X15729705Y-13160174D01*
X15729705Y-13160174D02*
X15729705Y-13207793D01*
X15729705Y-13207793D02*
X15720182Y-13245888D01*
X15720182Y-13245888D02*
X15710658Y-13264936D01*
X15710658Y-13264936D02*
X15701134Y-13274460D01*
X15701134Y-13274460D02*
X15682086Y-13283984D01*
X15682086Y-13283984D02*
X15663039Y-13283984D01*
X15663039Y-13283984D02*
X15643991Y-13274460D01*
X15643991Y-13274460D02*
X15634467Y-13264936D01*
X15634467Y-13264936D02*
X15624943Y-13245888D01*
X15624943Y-13245888D02*
X15615420Y-13207793D01*
X15615420Y-13207793D02*
X15615420Y-13160174D01*
X15615420Y-13160174D02*
X15624943Y-13122079D01*
X15624943Y-13122079D02*
X15634467Y-13103031D01*
X15634467Y-13103031D02*
X15643991Y-13093508D01*
X15643991Y-13093508D02*
X15663039Y-13083984D01*
X15815420Y-13283984D02*
X15815420Y-13150650D01*
X15815420Y-13169698D02*
X15824943Y-13160174D01*
X15824943Y-13160174D02*
X15843991Y-13150650D01*
X15843991Y-13150650D02*
X15872563Y-13150650D01*
X15872563Y-13150650D02*
X15891610Y-13160174D01*
X15891610Y-13160174D02*
X15901134Y-13179222D01*
X15901134Y-13179222D02*
X15901134Y-13283984D01*
X15901134Y-13179222D02*
X15910658Y-13160174D01*
X15910658Y-13160174D02*
X15929705Y-13150650D01*
X15929705Y-13150650D02*
X15958277Y-13150650D01*
X15958277Y-13150650D02*
X15977324Y-13160174D01*
X15977324Y-13160174D02*
X15986848Y-13179222D01*
X15986848Y-13179222D02*
X15986848Y-13283984D01*
X16082086Y-13283984D02*
X16082086Y-13150650D01*
X16082086Y-13169698D02*
X16091610Y-13160174D01*
X16091610Y-13160174D02*
X16110658Y-13150650D01*
X16110658Y-13150650D02*
X16139229Y-13150650D01*
X16139229Y-13150650D02*
X16158277Y-13160174D01*
X16158277Y-13160174D02*
X16167801Y-13179222D01*
X16167801Y-13179222D02*
X16167801Y-13283984D01*
X16167801Y-13179222D02*
X16177324Y-13160174D01*
X16177324Y-13160174D02*
X16196372Y-13150650D01*
X16196372Y-13150650D02*
X16224943Y-13150650D01*
X16224943Y-13150650D02*
X16243991Y-13160174D01*
X16243991Y-13160174D02*
X16253515Y-13179222D01*
X16253515Y-13179222D02*
X16253515Y-13283984D01*
X16643991Y-13074460D02*
X16472563Y-13331603D01*
X16901134Y-13083984D02*
X16920182Y-13083984D01*
X16920182Y-13083984D02*
X16939229Y-13093508D01*
X16939229Y-13093508D02*
X16948753Y-13103031D01*
X16948753Y-13103031D02*
X16958277Y-13122079D01*
X16958277Y-13122079D02*
X16967801Y-13160174D01*
X16967801Y-13160174D02*
X16967801Y-13207793D01*
X16967801Y-13207793D02*
X16958277Y-13245888D01*
X16958277Y-13245888D02*
X16948753Y-13264936D01*
X16948753Y-13264936D02*
X16939229Y-13274460D01*
X16939229Y-13274460D02*
X16920182Y-13283984D01*
X16920182Y-13283984D02*
X16901134Y-13283984D01*
X16901134Y-13283984D02*
X16882087Y-13274460D01*
X16882087Y-13274460D02*
X16872563Y-13264936D01*
X16872563Y-13264936D02*
X16863039Y-13245888D01*
X16863039Y-13245888D02*
X16853515Y-13207793D01*
X16853515Y-13207793D02*
X16853515Y-13160174D01*
X16853515Y-13160174D02*
X16863039Y-13122079D01*
X16863039Y-13122079D02*
X16872563Y-13103031D01*
X16872563Y-13103031D02*
X16882087Y-13093508D01*
X16882087Y-13093508D02*
X16901134Y-13083984D01*
X17053515Y-13264936D02*
X17063039Y-13274460D01*
X17063039Y-13274460D02*
X17053515Y-13283984D01*
X17053515Y-13283984D02*
X17043991Y-13274460D01*
X17043991Y-13274460D02*
X17053515Y-13264936D01*
X17053515Y-13264936D02*
X17053515Y-13283984D01*
X17186848Y-13083984D02*
X17205896Y-13083984D01*
X17205896Y-13083984D02*
X17224944Y-13093508D01*
X17224944Y-13093508D02*
X17234468Y-13103031D01*
X17234468Y-13103031D02*
X17243991Y-13122079D01*
X17243991Y-13122079D02*
X17253515Y-13160174D01*
X17253515Y-13160174D02*
X17253515Y-13207793D01*
X17253515Y-13207793D02*
X17243991Y-13245888D01*
X17243991Y-13245888D02*
X17234468Y-13264936D01*
X17234468Y-13264936D02*
X17224944Y-13274460D01*
X17224944Y-13274460D02*
X17205896Y-13283984D01*
X17205896Y-13283984D02*
X17186848Y-13283984D01*
X17186848Y-13283984D02*
X17167801Y-13274460D01*
X17167801Y-13274460D02*
X17158277Y-13264936D01*
X17158277Y-13264936D02*
X17148753Y-13245888D01*
X17148753Y-13245888D02*
X17139229Y-13207793D01*
X17139229Y-13207793D02*
X17139229Y-13160174D01*
X17139229Y-13160174D02*
X17148753Y-13122079D01*
X17148753Y-13122079D02*
X17158277Y-13103031D01*
X17158277Y-13103031D02*
X17167801Y-13093508D01*
X17167801Y-13093508D02*
X17186848Y-13083984D01*
X17443991Y-13283984D02*
X17329706Y-13283984D01*
X17386848Y-13283984D02*
X17386848Y-13083984D01*
X17386848Y-13083984D02*
X17367801Y-13112555D01*
X17367801Y-13112555D02*
X17348753Y-13131603D01*
X17348753Y-13131603D02*
X17329706Y-13141127D01*
X17634468Y-13283984D02*
X17520182Y-13283984D01*
X17577325Y-13283984D02*
X17577325Y-13083984D01*
X17577325Y-13083984D02*
X17558277Y-13112555D01*
X17558277Y-13112555D02*
X17539229Y-13131603D01*
X17539229Y-13131603D02*
X17520182Y-13141127D01*
X17748753Y-13169698D02*
X17729706Y-13160174D01*
X17729706Y-13160174D02*
X17720182Y-13150650D01*
X17720182Y-13150650D02*
X17710658Y-13131603D01*
X17710658Y-13131603D02*
X17710658Y-13122079D01*
X17710658Y-13122079D02*
X17720182Y-13103031D01*
X17720182Y-13103031D02*
X17729706Y-13093508D01*
X17729706Y-13093508D02*
X17748753Y-13083984D01*
X17748753Y-13083984D02*
X17786849Y-13083984D01*
X17786849Y-13083984D02*
X17805896Y-13093508D01*
X17805896Y-13093508D02*
X17815420Y-13103031D01*
X17815420Y-13103031D02*
X17824944Y-13122079D01*
X17824944Y-13122079D02*
X17824944Y-13131603D01*
X17824944Y-13131603D02*
X17815420Y-13150650D01*
X17815420Y-13150650D02*
X17805896Y-13160174D01*
X17805896Y-13160174D02*
X17786849Y-13169698D01*
X17786849Y-13169698D02*
X17748753Y-13169698D01*
X17748753Y-13169698D02*
X17729706Y-13179222D01*
X17729706Y-13179222D02*
X17720182Y-13188746D01*
X17720182Y-13188746D02*
X17710658Y-13207793D01*
X17710658Y-13207793D02*
X17710658Y-13245888D01*
X17710658Y-13245888D02*
X17720182Y-13264936D01*
X17720182Y-13264936D02*
X17729706Y-13274460D01*
X17729706Y-13274460D02*
X17748753Y-13283984D01*
X17748753Y-13283984D02*
X17786849Y-13283984D01*
X17786849Y-13283984D02*
X17805896Y-13274460D01*
X17805896Y-13274460D02*
X17815420Y-13264936D01*
X17815420Y-13264936D02*
X17824944Y-13245888D01*
X17824944Y-13245888D02*
X17824944Y-13207793D01*
X17824944Y-13207793D02*
X17815420Y-13188746D01*
X17815420Y-13188746D02*
X17805896Y-13179222D01*
X17805896Y-13179222D02*
X17786849Y-13169698D01*
X17901134Y-13083984D02*
X17901134Y-13122079D01*
X17977325Y-13083984D02*
X17977325Y-13122079D01*
X18272563Y-13360174D02*
X18263039Y-13350650D01*
X18263039Y-13350650D02*
X18243991Y-13322079D01*
X18243991Y-13322079D02*
X18234468Y-13303031D01*
X18234468Y-13303031D02*
X18224944Y-13274460D01*
X18224944Y-13274460D02*
X18215420Y-13226841D01*
X18215420Y-13226841D02*
X18215420Y-13188746D01*
X18215420Y-13188746D02*
X18224944Y-13141127D01*
X18224944Y-13141127D02*
X18234468Y-13112555D01*
X18234468Y-13112555D02*
X18243991Y-13093508D01*
X18243991Y-13093508D02*
X18263039Y-13064936D01*
X18263039Y-13064936D02*
X18272563Y-13055412D01*
X18339230Y-13103031D02*
X18348753Y-13093508D01*
X18348753Y-13093508D02*
X18367801Y-13083984D01*
X18367801Y-13083984D02*
X18415420Y-13083984D01*
X18415420Y-13083984D02*
X18434468Y-13093508D01*
X18434468Y-13093508D02*
X18443991Y-13103031D01*
X18443991Y-13103031D02*
X18453515Y-13122079D01*
X18453515Y-13122079D02*
X18453515Y-13141127D01*
X18453515Y-13141127D02*
X18443991Y-13169698D01*
X18443991Y-13169698D02*
X18329706Y-13283984D01*
X18329706Y-13283984D02*
X18453515Y-13283984D01*
X18691611Y-13283984D02*
X18691611Y-13083984D01*
X18777325Y-13283984D02*
X18777325Y-13179222D01*
X18777325Y-13179222D02*
X18767801Y-13160174D01*
X18767801Y-13160174D02*
X18748753Y-13150650D01*
X18748753Y-13150650D02*
X18720182Y-13150650D01*
X18720182Y-13150650D02*
X18701134Y-13160174D01*
X18701134Y-13160174D02*
X18691611Y-13169698D01*
X18901134Y-13283984D02*
X18882087Y-13274460D01*
X18882087Y-13274460D02*
X18872563Y-13264936D01*
X18872563Y-13264936D02*
X18863039Y-13245888D01*
X18863039Y-13245888D02*
X18863039Y-13188746D01*
X18863039Y-13188746D02*
X18872563Y-13169698D01*
X18872563Y-13169698D02*
X18882087Y-13160174D01*
X18882087Y-13160174D02*
X18901134Y-13150650D01*
X18901134Y-13150650D02*
X18929706Y-13150650D01*
X18929706Y-13150650D02*
X18948753Y-13160174D01*
X18948753Y-13160174D02*
X18958277Y-13169698D01*
X18958277Y-13169698D02*
X18967801Y-13188746D01*
X18967801Y-13188746D02*
X18967801Y-13245888D01*
X18967801Y-13245888D02*
X18958277Y-13264936D01*
X18958277Y-13264936D02*
X18948753Y-13274460D01*
X18948753Y-13274460D02*
X18929706Y-13283984D01*
X18929706Y-13283984D02*
X18901134Y-13283984D01*
X19082087Y-13283984D02*
X19063039Y-13274460D01*
X19063039Y-13274460D02*
X19053515Y-13255412D01*
X19053515Y-13255412D02*
X19053515Y-13083984D01*
X19234468Y-13274460D02*
X19215420Y-13283984D01*
X19215420Y-13283984D02*
X19177325Y-13283984D01*
X19177325Y-13283984D02*
X19158277Y-13274460D01*
X19158277Y-13274460D02*
X19148753Y-13255412D01*
X19148753Y-13255412D02*
X19148753Y-13179222D01*
X19148753Y-13179222D02*
X19158277Y-13160174D01*
X19158277Y-13160174D02*
X19177325Y-13150650D01*
X19177325Y-13150650D02*
X19215420Y-13150650D01*
X19215420Y-13150650D02*
X19234468Y-13160174D01*
X19234468Y-13160174D02*
X19243992Y-13179222D01*
X19243992Y-13179222D02*
X19243992Y-13198269D01*
X19243992Y-13198269D02*
X19148753Y-13217317D01*
X19320182Y-13274460D02*
X19339230Y-13283984D01*
X19339230Y-13283984D02*
X19377325Y-13283984D01*
X19377325Y-13283984D02*
X19396373Y-13274460D01*
X19396373Y-13274460D02*
X19405896Y-13255412D01*
X19405896Y-13255412D02*
X19405896Y-13245888D01*
X19405896Y-13245888D02*
X19396373Y-13226841D01*
X19396373Y-13226841D02*
X19377325Y-13217317D01*
X19377325Y-13217317D02*
X19348753Y-13217317D01*
X19348753Y-13217317D02*
X19329706Y-13207793D01*
X19329706Y-13207793D02*
X19320182Y-13188746D01*
X19320182Y-13188746D02*
X19320182Y-13179222D01*
X19320182Y-13179222D02*
X19329706Y-13160174D01*
X19329706Y-13160174D02*
X19348753Y-13150650D01*
X19348753Y-13150650D02*
X19377325Y-13150650D01*
X19377325Y-13150650D02*
X19396373Y-13160174D01*
X19472563Y-13360174D02*
X19482087Y-13350650D01*
X19482087Y-13350650D02*
X19501134Y-13322079D01*
X19501134Y-13322079D02*
X19510658Y-13303031D01*
X19510658Y-13303031D02*
X19520182Y-13274460D01*
X19520182Y-13274460D02*
X19529706Y-13226841D01*
X19529706Y-13226841D02*
X19529706Y-13188746D01*
X19529706Y-13188746D02*
X19520182Y-13141127D01*
X19520182Y-13141127D02*
X19510658Y-13112555D01*
X19510658Y-13112555D02*
X19501134Y-13093508D01*
X19501134Y-13093508D02*
X19482087Y-13064936D01*
X19482087Y-13064936D02*
X19472563Y-13055412D01*
D12*
X14697500Y-13456500D02*
G75*
G02*
X14647500Y-13456500I-25000J0D01*
G01*
X14647500Y-13456500D02*
G75*
G02*
X14697500Y-13456500I25000J0D01*
G01*
D11*
X14996372Y-13347984D02*
X15015420Y-13347984D01*
X15015420Y-13347984D02*
X15034467Y-13357508D01*
X15034467Y-13357508D02*
X15043991Y-13367031D01*
X15043991Y-13367031D02*
X15053515Y-13386079D01*
X15053515Y-13386079D02*
X15063039Y-13424174D01*
X15063039Y-13424174D02*
X15063039Y-13471793D01*
X15063039Y-13471793D02*
X15053515Y-13509888D01*
X15053515Y-13509888D02*
X15043991Y-13528936D01*
X15043991Y-13528936D02*
X15034467Y-13538460D01*
X15034467Y-13538460D02*
X15015420Y-13547984D01*
X15015420Y-13547984D02*
X14996372Y-13547984D01*
X14996372Y-13547984D02*
X14977324Y-13538460D01*
X14977324Y-13538460D02*
X14967801Y-13528936D01*
X14967801Y-13528936D02*
X14958277Y-13509888D01*
X14958277Y-13509888D02*
X14948753Y-13471793D01*
X14948753Y-13471793D02*
X14948753Y-13424174D01*
X14948753Y-13424174D02*
X14958277Y-13386079D01*
X14958277Y-13386079D02*
X14967801Y-13367031D01*
X14967801Y-13367031D02*
X14977324Y-13357508D01*
X14977324Y-13357508D02*
X14996372Y-13347984D01*
X15148753Y-13528936D02*
X15158277Y-13538460D01*
X15158277Y-13538460D02*
X15148753Y-13547984D01*
X15148753Y-13547984D02*
X15139229Y-13538460D01*
X15139229Y-13538460D02*
X15148753Y-13528936D01*
X15148753Y-13528936D02*
X15148753Y-13547984D01*
X15339229Y-13347984D02*
X15243991Y-13347984D01*
X15243991Y-13347984D02*
X15234467Y-13443222D01*
X15234467Y-13443222D02*
X15243991Y-13433698D01*
X15243991Y-13433698D02*
X15263039Y-13424174D01*
X15263039Y-13424174D02*
X15310658Y-13424174D01*
X15310658Y-13424174D02*
X15329705Y-13433698D01*
X15329705Y-13433698D02*
X15339229Y-13443222D01*
X15339229Y-13443222D02*
X15348753Y-13462269D01*
X15348753Y-13462269D02*
X15348753Y-13509888D01*
X15348753Y-13509888D02*
X15339229Y-13528936D01*
X15339229Y-13528936D02*
X15329705Y-13538460D01*
X15329705Y-13538460D02*
X15310658Y-13547984D01*
X15310658Y-13547984D02*
X15263039Y-13547984D01*
X15263039Y-13547984D02*
X15243991Y-13538460D01*
X15243991Y-13538460D02*
X15234467Y-13528936D01*
X15472562Y-13347984D02*
X15491610Y-13347984D01*
X15491610Y-13347984D02*
X15510658Y-13357508D01*
X15510658Y-13357508D02*
X15520182Y-13367031D01*
X15520182Y-13367031D02*
X15529705Y-13386079D01*
X15529705Y-13386079D02*
X15539229Y-13424174D01*
X15539229Y-13424174D02*
X15539229Y-13471793D01*
X15539229Y-13471793D02*
X15529705Y-13509888D01*
X15529705Y-13509888D02*
X15520182Y-13528936D01*
X15520182Y-13528936D02*
X15510658Y-13538460D01*
X15510658Y-13538460D02*
X15491610Y-13547984D01*
X15491610Y-13547984D02*
X15472562Y-13547984D01*
X15472562Y-13547984D02*
X15453515Y-13538460D01*
X15453515Y-13538460D02*
X15443991Y-13528936D01*
X15443991Y-13528936D02*
X15434467Y-13509888D01*
X15434467Y-13509888D02*
X15424943Y-13471793D01*
X15424943Y-13471793D02*
X15424943Y-13424174D01*
X15424943Y-13424174D02*
X15434467Y-13386079D01*
X15434467Y-13386079D02*
X15443991Y-13367031D01*
X15443991Y-13367031D02*
X15453515Y-13357508D01*
X15453515Y-13357508D02*
X15472562Y-13347984D01*
X15663039Y-13347984D02*
X15682086Y-13347984D01*
X15682086Y-13347984D02*
X15701134Y-13357508D01*
X15701134Y-13357508D02*
X15710658Y-13367031D01*
X15710658Y-13367031D02*
X15720182Y-13386079D01*
X15720182Y-13386079D02*
X15729705Y-13424174D01*
X15729705Y-13424174D02*
X15729705Y-13471793D01*
X15729705Y-13471793D02*
X15720182Y-13509888D01*
X15720182Y-13509888D02*
X15710658Y-13528936D01*
X15710658Y-13528936D02*
X15701134Y-13538460D01*
X15701134Y-13538460D02*
X15682086Y-13547984D01*
X15682086Y-13547984D02*
X15663039Y-13547984D01*
X15663039Y-13547984D02*
X15643991Y-13538460D01*
X15643991Y-13538460D02*
X15634467Y-13528936D01*
X15634467Y-13528936D02*
X15624943Y-13509888D01*
X15624943Y-13509888D02*
X15615420Y-13471793D01*
X15615420Y-13471793D02*
X15615420Y-13424174D01*
X15615420Y-13424174D02*
X15624943Y-13386079D01*
X15624943Y-13386079D02*
X15634467Y-13367031D01*
X15634467Y-13367031D02*
X15643991Y-13357508D01*
X15643991Y-13357508D02*
X15663039Y-13347984D01*
X15815420Y-13547984D02*
X15815420Y-13414650D01*
X15815420Y-13433698D02*
X15824943Y-13424174D01*
X15824943Y-13424174D02*
X15843991Y-13414650D01*
X15843991Y-13414650D02*
X15872563Y-13414650D01*
X15872563Y-13414650D02*
X15891610Y-13424174D01*
X15891610Y-13424174D02*
X15901134Y-13443222D01*
X15901134Y-13443222D02*
X15901134Y-13547984D01*
X15901134Y-13443222D02*
X15910658Y-13424174D01*
X15910658Y-13424174D02*
X15929705Y-13414650D01*
X15929705Y-13414650D02*
X15958277Y-13414650D01*
X15958277Y-13414650D02*
X15977324Y-13424174D01*
X15977324Y-13424174D02*
X15986848Y-13443222D01*
X15986848Y-13443222D02*
X15986848Y-13547984D01*
X16082086Y-13547984D02*
X16082086Y-13414650D01*
X16082086Y-13433698D02*
X16091610Y-13424174D01*
X16091610Y-13424174D02*
X16110658Y-13414650D01*
X16110658Y-13414650D02*
X16139229Y-13414650D01*
X16139229Y-13414650D02*
X16158277Y-13424174D01*
X16158277Y-13424174D02*
X16167801Y-13443222D01*
X16167801Y-13443222D02*
X16167801Y-13547984D01*
X16167801Y-13443222D02*
X16177324Y-13424174D01*
X16177324Y-13424174D02*
X16196372Y-13414650D01*
X16196372Y-13414650D02*
X16224943Y-13414650D01*
X16224943Y-13414650D02*
X16243991Y-13424174D01*
X16243991Y-13424174D02*
X16253515Y-13443222D01*
X16253515Y-13443222D02*
X16253515Y-13547984D01*
X16643991Y-13338460D02*
X16472563Y-13595603D01*
X16901134Y-13347984D02*
X16920182Y-13347984D01*
X16920182Y-13347984D02*
X16939229Y-13357508D01*
X16939229Y-13357508D02*
X16948753Y-13367031D01*
X16948753Y-13367031D02*
X16958277Y-13386079D01*
X16958277Y-13386079D02*
X16967801Y-13424174D01*
X16967801Y-13424174D02*
X16967801Y-13471793D01*
X16967801Y-13471793D02*
X16958277Y-13509888D01*
X16958277Y-13509888D02*
X16948753Y-13528936D01*
X16948753Y-13528936D02*
X16939229Y-13538460D01*
X16939229Y-13538460D02*
X16920182Y-13547984D01*
X16920182Y-13547984D02*
X16901134Y-13547984D01*
X16901134Y-13547984D02*
X16882087Y-13538460D01*
X16882087Y-13538460D02*
X16872563Y-13528936D01*
X16872563Y-13528936D02*
X16863039Y-13509888D01*
X16863039Y-13509888D02*
X16853515Y-13471793D01*
X16853515Y-13471793D02*
X16853515Y-13424174D01*
X16853515Y-13424174D02*
X16863039Y-13386079D01*
X16863039Y-13386079D02*
X16872563Y-13367031D01*
X16872563Y-13367031D02*
X16882087Y-13357508D01*
X16882087Y-13357508D02*
X16901134Y-13347984D01*
X17053515Y-13528936D02*
X17063039Y-13538460D01*
X17063039Y-13538460D02*
X17053515Y-13547984D01*
X17053515Y-13547984D02*
X17043991Y-13538460D01*
X17043991Y-13538460D02*
X17053515Y-13528936D01*
X17053515Y-13528936D02*
X17053515Y-13547984D01*
X17186848Y-13347984D02*
X17205896Y-13347984D01*
X17205896Y-13347984D02*
X17224944Y-13357508D01*
X17224944Y-13357508D02*
X17234468Y-13367031D01*
X17234468Y-13367031D02*
X17243991Y-13386079D01*
X17243991Y-13386079D02*
X17253515Y-13424174D01*
X17253515Y-13424174D02*
X17253515Y-13471793D01*
X17253515Y-13471793D02*
X17243991Y-13509888D01*
X17243991Y-13509888D02*
X17234468Y-13528936D01*
X17234468Y-13528936D02*
X17224944Y-13538460D01*
X17224944Y-13538460D02*
X17205896Y-13547984D01*
X17205896Y-13547984D02*
X17186848Y-13547984D01*
X17186848Y-13547984D02*
X17167801Y-13538460D01*
X17167801Y-13538460D02*
X17158277Y-13528936D01*
X17158277Y-13528936D02*
X17148753Y-13509888D01*
X17148753Y-13509888D02*
X17139229Y-13471793D01*
X17139229Y-13471793D02*
X17139229Y-13424174D01*
X17139229Y-13424174D02*
X17148753Y-13386079D01*
X17148753Y-13386079D02*
X17158277Y-13367031D01*
X17158277Y-13367031D02*
X17167801Y-13357508D01*
X17167801Y-13357508D02*
X17186848Y-13347984D01*
X17443991Y-13547984D02*
X17329706Y-13547984D01*
X17386848Y-13547984D02*
X17386848Y-13347984D01*
X17386848Y-13347984D02*
X17367801Y-13376555D01*
X17367801Y-13376555D02*
X17348753Y-13395603D01*
X17348753Y-13395603D02*
X17329706Y-13405127D01*
X17539229Y-13547984D02*
X17577325Y-13547984D01*
X17577325Y-13547984D02*
X17596372Y-13538460D01*
X17596372Y-13538460D02*
X17605896Y-13528936D01*
X17605896Y-13528936D02*
X17624944Y-13500365D01*
X17624944Y-13500365D02*
X17634468Y-13462269D01*
X17634468Y-13462269D02*
X17634468Y-13386079D01*
X17634468Y-13386079D02*
X17624944Y-13367031D01*
X17624944Y-13367031D02*
X17615420Y-13357508D01*
X17615420Y-13357508D02*
X17596372Y-13347984D01*
X17596372Y-13347984D02*
X17558277Y-13347984D01*
X17558277Y-13347984D02*
X17539229Y-13357508D01*
X17539229Y-13357508D02*
X17529706Y-13367031D01*
X17529706Y-13367031D02*
X17520182Y-13386079D01*
X17520182Y-13386079D02*
X17520182Y-13433698D01*
X17520182Y-13433698D02*
X17529706Y-13452746D01*
X17529706Y-13452746D02*
X17539229Y-13462269D01*
X17539229Y-13462269D02*
X17558277Y-13471793D01*
X17558277Y-13471793D02*
X17596372Y-13471793D01*
X17596372Y-13471793D02*
X17615420Y-13462269D01*
X17615420Y-13462269D02*
X17624944Y-13452746D01*
X17624944Y-13452746D02*
X17634468Y-13433698D01*
X17701134Y-13347984D02*
X17834468Y-13347984D01*
X17834468Y-13347984D02*
X17748753Y-13547984D01*
X17901134Y-13347984D02*
X17901134Y-13386079D01*
X17977325Y-13347984D02*
X17977325Y-13386079D01*
X18272563Y-13624174D02*
X18263039Y-13614650D01*
X18263039Y-13614650D02*
X18243991Y-13586079D01*
X18243991Y-13586079D02*
X18234468Y-13567031D01*
X18234468Y-13567031D02*
X18224944Y-13538460D01*
X18224944Y-13538460D02*
X18215420Y-13490841D01*
X18215420Y-13490841D02*
X18215420Y-13452746D01*
X18215420Y-13452746D02*
X18224944Y-13405127D01*
X18224944Y-13405127D02*
X18234468Y-13376555D01*
X18234468Y-13376555D02*
X18243991Y-13357508D01*
X18243991Y-13357508D02*
X18263039Y-13328936D01*
X18263039Y-13328936D02*
X18272563Y-13319412D01*
X18453515Y-13547984D02*
X18339230Y-13547984D01*
X18396372Y-13547984D02*
X18396372Y-13347984D01*
X18396372Y-13347984D02*
X18377325Y-13376555D01*
X18377325Y-13376555D02*
X18358277Y-13395603D01*
X18358277Y-13395603D02*
X18339230Y-13405127D01*
X18691611Y-13547984D02*
X18691611Y-13347984D01*
X18777325Y-13547984D02*
X18777325Y-13443222D01*
X18777325Y-13443222D02*
X18767801Y-13424174D01*
X18767801Y-13424174D02*
X18748753Y-13414650D01*
X18748753Y-13414650D02*
X18720182Y-13414650D01*
X18720182Y-13414650D02*
X18701134Y-13424174D01*
X18701134Y-13424174D02*
X18691611Y-13433698D01*
X18901134Y-13547984D02*
X18882087Y-13538460D01*
X18882087Y-13538460D02*
X18872563Y-13528936D01*
X18872563Y-13528936D02*
X18863039Y-13509888D01*
X18863039Y-13509888D02*
X18863039Y-13452746D01*
X18863039Y-13452746D02*
X18872563Y-13433698D01*
X18872563Y-13433698D02*
X18882087Y-13424174D01*
X18882087Y-13424174D02*
X18901134Y-13414650D01*
X18901134Y-13414650D02*
X18929706Y-13414650D01*
X18929706Y-13414650D02*
X18948753Y-13424174D01*
X18948753Y-13424174D02*
X18958277Y-13433698D01*
X18958277Y-13433698D02*
X18967801Y-13452746D01*
X18967801Y-13452746D02*
X18967801Y-13509888D01*
X18967801Y-13509888D02*
X18958277Y-13528936D01*
X18958277Y-13528936D02*
X18948753Y-13538460D01*
X18948753Y-13538460D02*
X18929706Y-13547984D01*
X18929706Y-13547984D02*
X18901134Y-13547984D01*
X19082087Y-13547984D02*
X19063039Y-13538460D01*
X19063039Y-13538460D02*
X19053515Y-13519412D01*
X19053515Y-13519412D02*
X19053515Y-13347984D01*
X19234468Y-13538460D02*
X19215420Y-13547984D01*
X19215420Y-13547984D02*
X19177325Y-13547984D01*
X19177325Y-13547984D02*
X19158277Y-13538460D01*
X19158277Y-13538460D02*
X19148753Y-13519412D01*
X19148753Y-13519412D02*
X19148753Y-13443222D01*
X19148753Y-13443222D02*
X19158277Y-13424174D01*
X19158277Y-13424174D02*
X19177325Y-13414650D01*
X19177325Y-13414650D02*
X19215420Y-13414650D01*
X19215420Y-13414650D02*
X19234468Y-13424174D01*
X19234468Y-13424174D02*
X19243992Y-13443222D01*
X19243992Y-13443222D02*
X19243992Y-13462269D01*
X19243992Y-13462269D02*
X19148753Y-13481317D01*
X19310658Y-13624174D02*
X19320182Y-13614650D01*
X19320182Y-13614650D02*
X19339230Y-13586079D01*
X19339230Y-13586079D02*
X19348753Y-13567031D01*
X19348753Y-13567031D02*
X19358277Y-13538460D01*
X19358277Y-13538460D02*
X19367801Y-13490841D01*
X19367801Y-13490841D02*
X19367801Y-13452746D01*
X19367801Y-13452746D02*
X19358277Y-13405127D01*
X19358277Y-13405127D02*
X19348753Y-13376555D01*
X19348753Y-13376555D02*
X19339230Y-13357508D01*
X19339230Y-13357508D02*
X19320182Y-13328936D01*
X19320182Y-13328936D02*
X19310658Y-13319412D01*
D12*
X14660000Y-13683000D02*
X14660000Y-13758000D01*
X14622500Y-13720500D02*
X14697500Y-13720500D01*
D11*
X14996372Y-13611984D02*
X15015420Y-13611984D01*
X15015420Y-13611984D02*
X15034467Y-13621508D01*
X15034467Y-13621508D02*
X15043991Y-13631031D01*
X15043991Y-13631031D02*
X15053515Y-13650079D01*
X15053515Y-13650079D02*
X15063039Y-13688174D01*
X15063039Y-13688174D02*
X15063039Y-13735793D01*
X15063039Y-13735793D02*
X15053515Y-13773888D01*
X15053515Y-13773888D02*
X15043991Y-13792936D01*
X15043991Y-13792936D02*
X15034467Y-13802460D01*
X15034467Y-13802460D02*
X15015420Y-13811984D01*
X15015420Y-13811984D02*
X14996372Y-13811984D01*
X14996372Y-13811984D02*
X14977324Y-13802460D01*
X14977324Y-13802460D02*
X14967801Y-13792936D01*
X14967801Y-13792936D02*
X14958277Y-13773888D01*
X14958277Y-13773888D02*
X14948753Y-13735793D01*
X14948753Y-13735793D02*
X14948753Y-13688174D01*
X14948753Y-13688174D02*
X14958277Y-13650079D01*
X14958277Y-13650079D02*
X14967801Y-13631031D01*
X14967801Y-13631031D02*
X14977324Y-13621508D01*
X14977324Y-13621508D02*
X14996372Y-13611984D01*
X15148753Y-13792936D02*
X15158277Y-13802460D01*
X15158277Y-13802460D02*
X15148753Y-13811984D01*
X15148753Y-13811984D02*
X15139229Y-13802460D01*
X15139229Y-13802460D02*
X15148753Y-13792936D01*
X15148753Y-13792936D02*
X15148753Y-13811984D01*
X15224943Y-13611984D02*
X15358277Y-13611984D01*
X15358277Y-13611984D02*
X15272562Y-13811984D01*
X15529705Y-13611984D02*
X15434467Y-13611984D01*
X15434467Y-13611984D02*
X15424943Y-13707222D01*
X15424943Y-13707222D02*
X15434467Y-13697698D01*
X15434467Y-13697698D02*
X15453515Y-13688174D01*
X15453515Y-13688174D02*
X15501134Y-13688174D01*
X15501134Y-13688174D02*
X15520182Y-13697698D01*
X15520182Y-13697698D02*
X15529705Y-13707222D01*
X15529705Y-13707222D02*
X15539229Y-13726269D01*
X15539229Y-13726269D02*
X15539229Y-13773888D01*
X15539229Y-13773888D02*
X15529705Y-13792936D01*
X15529705Y-13792936D02*
X15520182Y-13802460D01*
X15520182Y-13802460D02*
X15501134Y-13811984D01*
X15501134Y-13811984D02*
X15453515Y-13811984D01*
X15453515Y-13811984D02*
X15434467Y-13802460D01*
X15434467Y-13802460D02*
X15424943Y-13792936D01*
X15663039Y-13611984D02*
X15682086Y-13611984D01*
X15682086Y-13611984D02*
X15701134Y-13621508D01*
X15701134Y-13621508D02*
X15710658Y-13631031D01*
X15710658Y-13631031D02*
X15720182Y-13650079D01*
X15720182Y-13650079D02*
X15729705Y-13688174D01*
X15729705Y-13688174D02*
X15729705Y-13735793D01*
X15729705Y-13735793D02*
X15720182Y-13773888D01*
X15720182Y-13773888D02*
X15710658Y-13792936D01*
X15710658Y-13792936D02*
X15701134Y-13802460D01*
X15701134Y-13802460D02*
X15682086Y-13811984D01*
X15682086Y-13811984D02*
X15663039Y-13811984D01*
X15663039Y-13811984D02*
X15643991Y-13802460D01*
X15643991Y-13802460D02*
X15634467Y-13792936D01*
X15634467Y-13792936D02*
X15624943Y-13773888D01*
X15624943Y-13773888D02*
X15615420Y-13735793D01*
X15615420Y-13735793D02*
X15615420Y-13688174D01*
X15615420Y-13688174D02*
X15624943Y-13650079D01*
X15624943Y-13650079D02*
X15634467Y-13631031D01*
X15634467Y-13631031D02*
X15643991Y-13621508D01*
X15643991Y-13621508D02*
X15663039Y-13611984D01*
X15815420Y-13811984D02*
X15815420Y-13678650D01*
X15815420Y-13697698D02*
X15824943Y-13688174D01*
X15824943Y-13688174D02*
X15843991Y-13678650D01*
X15843991Y-13678650D02*
X15872563Y-13678650D01*
X15872563Y-13678650D02*
X15891610Y-13688174D01*
X15891610Y-13688174D02*
X15901134Y-13707222D01*
X15901134Y-13707222D02*
X15901134Y-13811984D01*
X15901134Y-13707222D02*
X15910658Y-13688174D01*
X15910658Y-13688174D02*
X15929705Y-13678650D01*
X15929705Y-13678650D02*
X15958277Y-13678650D01*
X15958277Y-13678650D02*
X15977324Y-13688174D01*
X15977324Y-13688174D02*
X15986848Y-13707222D01*
X15986848Y-13707222D02*
X15986848Y-13811984D01*
X16082086Y-13811984D02*
X16082086Y-13678650D01*
X16082086Y-13697698D02*
X16091610Y-13688174D01*
X16091610Y-13688174D02*
X16110658Y-13678650D01*
X16110658Y-13678650D02*
X16139229Y-13678650D01*
X16139229Y-13678650D02*
X16158277Y-13688174D01*
X16158277Y-13688174D02*
X16167801Y-13707222D01*
X16167801Y-13707222D02*
X16167801Y-13811984D01*
X16167801Y-13707222D02*
X16177324Y-13688174D01*
X16177324Y-13688174D02*
X16196372Y-13678650D01*
X16196372Y-13678650D02*
X16224943Y-13678650D01*
X16224943Y-13678650D02*
X16243991Y-13688174D01*
X16243991Y-13688174D02*
X16253515Y-13707222D01*
X16253515Y-13707222D02*
X16253515Y-13811984D01*
X16643991Y-13602460D02*
X16472563Y-13859603D01*
X16901134Y-13611984D02*
X16920182Y-13611984D01*
X16920182Y-13611984D02*
X16939229Y-13621508D01*
X16939229Y-13621508D02*
X16948753Y-13631031D01*
X16948753Y-13631031D02*
X16958277Y-13650079D01*
X16958277Y-13650079D02*
X16967801Y-13688174D01*
X16967801Y-13688174D02*
X16967801Y-13735793D01*
X16967801Y-13735793D02*
X16958277Y-13773888D01*
X16958277Y-13773888D02*
X16948753Y-13792936D01*
X16948753Y-13792936D02*
X16939229Y-13802460D01*
X16939229Y-13802460D02*
X16920182Y-13811984D01*
X16920182Y-13811984D02*
X16901134Y-13811984D01*
X16901134Y-13811984D02*
X16882087Y-13802460D01*
X16882087Y-13802460D02*
X16872563Y-13792936D01*
X16872563Y-13792936D02*
X16863039Y-13773888D01*
X16863039Y-13773888D02*
X16853515Y-13735793D01*
X16853515Y-13735793D02*
X16853515Y-13688174D01*
X16853515Y-13688174D02*
X16863039Y-13650079D01*
X16863039Y-13650079D02*
X16872563Y-13631031D01*
X16872563Y-13631031D02*
X16882087Y-13621508D01*
X16882087Y-13621508D02*
X16901134Y-13611984D01*
X17053515Y-13792936D02*
X17063039Y-13802460D01*
X17063039Y-13802460D02*
X17053515Y-13811984D01*
X17053515Y-13811984D02*
X17043991Y-13802460D01*
X17043991Y-13802460D02*
X17053515Y-13792936D01*
X17053515Y-13792936D02*
X17053515Y-13811984D01*
X17186848Y-13611984D02*
X17205896Y-13611984D01*
X17205896Y-13611984D02*
X17224944Y-13621508D01*
X17224944Y-13621508D02*
X17234468Y-13631031D01*
X17234468Y-13631031D02*
X17243991Y-13650079D01*
X17243991Y-13650079D02*
X17253515Y-13688174D01*
X17253515Y-13688174D02*
X17253515Y-13735793D01*
X17253515Y-13735793D02*
X17243991Y-13773888D01*
X17243991Y-13773888D02*
X17234468Y-13792936D01*
X17234468Y-13792936D02*
X17224944Y-13802460D01*
X17224944Y-13802460D02*
X17205896Y-13811984D01*
X17205896Y-13811984D02*
X17186848Y-13811984D01*
X17186848Y-13811984D02*
X17167801Y-13802460D01*
X17167801Y-13802460D02*
X17158277Y-13792936D01*
X17158277Y-13792936D02*
X17148753Y-13773888D01*
X17148753Y-13773888D02*
X17139229Y-13735793D01*
X17139229Y-13735793D02*
X17139229Y-13688174D01*
X17139229Y-13688174D02*
X17148753Y-13650079D01*
X17148753Y-13650079D02*
X17158277Y-13631031D01*
X17158277Y-13631031D02*
X17167801Y-13621508D01*
X17167801Y-13621508D02*
X17186848Y-13611984D01*
X17329706Y-13631031D02*
X17339229Y-13621508D01*
X17339229Y-13621508D02*
X17358277Y-13611984D01*
X17358277Y-13611984D02*
X17405896Y-13611984D01*
X17405896Y-13611984D02*
X17424944Y-13621508D01*
X17424944Y-13621508D02*
X17434468Y-13631031D01*
X17434468Y-13631031D02*
X17443991Y-13650079D01*
X17443991Y-13650079D02*
X17443991Y-13669127D01*
X17443991Y-13669127D02*
X17434468Y-13697698D01*
X17434468Y-13697698D02*
X17320182Y-13811984D01*
X17320182Y-13811984D02*
X17443991Y-13811984D01*
X17539229Y-13811984D02*
X17577325Y-13811984D01*
X17577325Y-13811984D02*
X17596372Y-13802460D01*
X17596372Y-13802460D02*
X17605896Y-13792936D01*
X17605896Y-13792936D02*
X17624944Y-13764365D01*
X17624944Y-13764365D02*
X17634468Y-13726269D01*
X17634468Y-13726269D02*
X17634468Y-13650079D01*
X17634468Y-13650079D02*
X17624944Y-13631031D01*
X17624944Y-13631031D02*
X17615420Y-13621508D01*
X17615420Y-13621508D02*
X17596372Y-13611984D01*
X17596372Y-13611984D02*
X17558277Y-13611984D01*
X17558277Y-13611984D02*
X17539229Y-13621508D01*
X17539229Y-13621508D02*
X17529706Y-13631031D01*
X17529706Y-13631031D02*
X17520182Y-13650079D01*
X17520182Y-13650079D02*
X17520182Y-13697698D01*
X17520182Y-13697698D02*
X17529706Y-13716746D01*
X17529706Y-13716746D02*
X17539229Y-13726269D01*
X17539229Y-13726269D02*
X17558277Y-13735793D01*
X17558277Y-13735793D02*
X17596372Y-13735793D01*
X17596372Y-13735793D02*
X17615420Y-13726269D01*
X17615420Y-13726269D02*
X17624944Y-13716746D01*
X17624944Y-13716746D02*
X17634468Y-13697698D01*
X17815420Y-13611984D02*
X17720182Y-13611984D01*
X17720182Y-13611984D02*
X17710658Y-13707222D01*
X17710658Y-13707222D02*
X17720182Y-13697698D01*
X17720182Y-13697698D02*
X17739229Y-13688174D01*
X17739229Y-13688174D02*
X17786849Y-13688174D01*
X17786849Y-13688174D02*
X17805896Y-13697698D01*
X17805896Y-13697698D02*
X17815420Y-13707222D01*
X17815420Y-13707222D02*
X17824944Y-13726269D01*
X17824944Y-13726269D02*
X17824944Y-13773888D01*
X17824944Y-13773888D02*
X17815420Y-13792936D01*
X17815420Y-13792936D02*
X17805896Y-13802460D01*
X17805896Y-13802460D02*
X17786849Y-13811984D01*
X17786849Y-13811984D02*
X17739229Y-13811984D01*
X17739229Y-13811984D02*
X17720182Y-13802460D01*
X17720182Y-13802460D02*
X17710658Y-13792936D01*
X17901134Y-13611984D02*
X17901134Y-13650079D01*
X17977325Y-13611984D02*
X17977325Y-13650079D01*
X18272563Y-13888174D02*
X18263039Y-13878650D01*
X18263039Y-13878650D02*
X18243991Y-13850079D01*
X18243991Y-13850079D02*
X18234468Y-13831031D01*
X18234468Y-13831031D02*
X18224944Y-13802460D01*
X18224944Y-13802460D02*
X18215420Y-13754841D01*
X18215420Y-13754841D02*
X18215420Y-13716746D01*
X18215420Y-13716746D02*
X18224944Y-13669127D01*
X18224944Y-13669127D02*
X18234468Y-13640555D01*
X18234468Y-13640555D02*
X18243991Y-13621508D01*
X18243991Y-13621508D02*
X18263039Y-13592936D01*
X18263039Y-13592936D02*
X18272563Y-13583412D01*
X18329706Y-13611984D02*
X18453515Y-13611984D01*
X18453515Y-13611984D02*
X18386849Y-13688174D01*
X18386849Y-13688174D02*
X18415420Y-13688174D01*
X18415420Y-13688174D02*
X18434468Y-13697698D01*
X18434468Y-13697698D02*
X18443991Y-13707222D01*
X18443991Y-13707222D02*
X18453515Y-13726269D01*
X18453515Y-13726269D02*
X18453515Y-13773888D01*
X18453515Y-13773888D02*
X18443991Y-13792936D01*
X18443991Y-13792936D02*
X18434468Y-13802460D01*
X18434468Y-13802460D02*
X18415420Y-13811984D01*
X18415420Y-13811984D02*
X18358277Y-13811984D01*
X18358277Y-13811984D02*
X18339230Y-13802460D01*
X18339230Y-13802460D02*
X18329706Y-13792936D01*
X18691611Y-13811984D02*
X18691611Y-13611984D01*
X18777325Y-13811984D02*
X18777325Y-13707222D01*
X18777325Y-13707222D02*
X18767801Y-13688174D01*
X18767801Y-13688174D02*
X18748753Y-13678650D01*
X18748753Y-13678650D02*
X18720182Y-13678650D01*
X18720182Y-13678650D02*
X18701134Y-13688174D01*
X18701134Y-13688174D02*
X18691611Y-13697698D01*
X18901134Y-13811984D02*
X18882087Y-13802460D01*
X18882087Y-13802460D02*
X18872563Y-13792936D01*
X18872563Y-13792936D02*
X18863039Y-13773888D01*
X18863039Y-13773888D02*
X18863039Y-13716746D01*
X18863039Y-13716746D02*
X18872563Y-13697698D01*
X18872563Y-13697698D02*
X18882087Y-13688174D01*
X18882087Y-13688174D02*
X18901134Y-13678650D01*
X18901134Y-13678650D02*
X18929706Y-13678650D01*
X18929706Y-13678650D02*
X18948753Y-13688174D01*
X18948753Y-13688174D02*
X18958277Y-13697698D01*
X18958277Y-13697698D02*
X18967801Y-13716746D01*
X18967801Y-13716746D02*
X18967801Y-13773888D01*
X18967801Y-13773888D02*
X18958277Y-13792936D01*
X18958277Y-13792936D02*
X18948753Y-13802460D01*
X18948753Y-13802460D02*
X18929706Y-13811984D01*
X18929706Y-13811984D02*
X18901134Y-13811984D01*
X19082087Y-13811984D02*
X19063039Y-13802460D01*
X19063039Y-13802460D02*
X19053515Y-13783412D01*
X19053515Y-13783412D02*
X19053515Y-13611984D01*
X19234468Y-13802460D02*
X19215420Y-13811984D01*
X19215420Y-13811984D02*
X19177325Y-13811984D01*
X19177325Y-13811984D02*
X19158277Y-13802460D01*
X19158277Y-13802460D02*
X19148753Y-13783412D01*
X19148753Y-13783412D02*
X19148753Y-13707222D01*
X19148753Y-13707222D02*
X19158277Y-13688174D01*
X19158277Y-13688174D02*
X19177325Y-13678650D01*
X19177325Y-13678650D02*
X19215420Y-13678650D01*
X19215420Y-13678650D02*
X19234468Y-13688174D01*
X19234468Y-13688174D02*
X19243992Y-13707222D01*
X19243992Y-13707222D02*
X19243992Y-13726269D01*
X19243992Y-13726269D02*
X19148753Y-13745317D01*
X19320182Y-13802460D02*
X19339230Y-13811984D01*
X19339230Y-13811984D02*
X19377325Y-13811984D01*
X19377325Y-13811984D02*
X19396373Y-13802460D01*
X19396373Y-13802460D02*
X19405896Y-13783412D01*
X19405896Y-13783412D02*
X19405896Y-13773888D01*
X19405896Y-13773888D02*
X19396373Y-13754841D01*
X19396373Y-13754841D02*
X19377325Y-13745317D01*
X19377325Y-13745317D02*
X19348753Y-13745317D01*
X19348753Y-13745317D02*
X19329706Y-13735793D01*
X19329706Y-13735793D02*
X19320182Y-13716746D01*
X19320182Y-13716746D02*
X19320182Y-13707222D01*
X19320182Y-13707222D02*
X19329706Y-13688174D01*
X19329706Y-13688174D02*
X19348753Y-13678650D01*
X19348753Y-13678650D02*
X19377325Y-13678650D01*
X19377325Y-13678650D02*
X19396373Y-13688174D01*
X19472563Y-13888174D02*
X19482087Y-13878650D01*
X19482087Y-13878650D02*
X19501134Y-13850079D01*
X19501134Y-13850079D02*
X19510658Y-13831031D01*
X19510658Y-13831031D02*
X19520182Y-13802460D01*
X19520182Y-13802460D02*
X19529706Y-13754841D01*
X19529706Y-13754841D02*
X19529706Y-13716746D01*
X19529706Y-13716746D02*
X19520182Y-13669127D01*
X19520182Y-13669127D02*
X19510658Y-13640555D01*
X19510658Y-13640555D02*
X19501134Y-13621508D01*
X19501134Y-13621508D02*
X19482087Y-13592936D01*
X19482087Y-13592936D02*
X19472563Y-13583412D01*
D12*
X14685784Y-14012784D02*
X14685784Y-13956215D01*
X14629215Y-13956215D01*
X14629215Y-14012784D01*
X14685784Y-14012784D01*
D11*
X14996372Y-13875984D02*
X15015420Y-13875984D01*
X15015420Y-13875984D02*
X15034467Y-13885508D01*
X15034467Y-13885508D02*
X15043991Y-13895031D01*
X15043991Y-13895031D02*
X15053515Y-13914079D01*
X15053515Y-13914079D02*
X15063039Y-13952174D01*
X15063039Y-13952174D02*
X15063039Y-13999793D01*
X15063039Y-13999793D02*
X15053515Y-14037888D01*
X15053515Y-14037888D02*
X15043991Y-14056936D01*
X15043991Y-14056936D02*
X15034467Y-14066460D01*
X15034467Y-14066460D02*
X15015420Y-14075984D01*
X15015420Y-14075984D02*
X14996372Y-14075984D01*
X14996372Y-14075984D02*
X14977324Y-14066460D01*
X14977324Y-14066460D02*
X14967801Y-14056936D01*
X14967801Y-14056936D02*
X14958277Y-14037888D01*
X14958277Y-14037888D02*
X14948753Y-13999793D01*
X14948753Y-13999793D02*
X14948753Y-13952174D01*
X14948753Y-13952174D02*
X14958277Y-13914079D01*
X14958277Y-13914079D02*
X14967801Y-13895031D01*
X14967801Y-13895031D02*
X14977324Y-13885508D01*
X14977324Y-13885508D02*
X14996372Y-13875984D01*
X15148753Y-14056936D02*
X15158277Y-14066460D01*
X15158277Y-14066460D02*
X15148753Y-14075984D01*
X15148753Y-14075984D02*
X15139229Y-14066460D01*
X15139229Y-14066460D02*
X15148753Y-14056936D01*
X15148753Y-14056936D02*
X15148753Y-14075984D01*
X15272562Y-13961698D02*
X15253515Y-13952174D01*
X15253515Y-13952174D02*
X15243991Y-13942650D01*
X15243991Y-13942650D02*
X15234467Y-13923603D01*
X15234467Y-13923603D02*
X15234467Y-13914079D01*
X15234467Y-13914079D02*
X15243991Y-13895031D01*
X15243991Y-13895031D02*
X15253515Y-13885508D01*
X15253515Y-13885508D02*
X15272562Y-13875984D01*
X15272562Y-13875984D02*
X15310658Y-13875984D01*
X15310658Y-13875984D02*
X15329705Y-13885508D01*
X15329705Y-13885508D02*
X15339229Y-13895031D01*
X15339229Y-13895031D02*
X15348753Y-13914079D01*
X15348753Y-13914079D02*
X15348753Y-13923603D01*
X15348753Y-13923603D02*
X15339229Y-13942650D01*
X15339229Y-13942650D02*
X15329705Y-13952174D01*
X15329705Y-13952174D02*
X15310658Y-13961698D01*
X15310658Y-13961698D02*
X15272562Y-13961698D01*
X15272562Y-13961698D02*
X15253515Y-13971222D01*
X15253515Y-13971222D02*
X15243991Y-13980746D01*
X15243991Y-13980746D02*
X15234467Y-13999793D01*
X15234467Y-13999793D02*
X15234467Y-14037888D01*
X15234467Y-14037888D02*
X15243991Y-14056936D01*
X15243991Y-14056936D02*
X15253515Y-14066460D01*
X15253515Y-14066460D02*
X15272562Y-14075984D01*
X15272562Y-14075984D02*
X15310658Y-14075984D01*
X15310658Y-14075984D02*
X15329705Y-14066460D01*
X15329705Y-14066460D02*
X15339229Y-14056936D01*
X15339229Y-14056936D02*
X15348753Y-14037888D01*
X15348753Y-14037888D02*
X15348753Y-13999793D01*
X15348753Y-13999793D02*
X15339229Y-13980746D01*
X15339229Y-13980746D02*
X15329705Y-13971222D01*
X15329705Y-13971222D02*
X15310658Y-13961698D01*
X15472562Y-13875984D02*
X15491610Y-13875984D01*
X15491610Y-13875984D02*
X15510658Y-13885508D01*
X15510658Y-13885508D02*
X15520182Y-13895031D01*
X15520182Y-13895031D02*
X15529705Y-13914079D01*
X15529705Y-13914079D02*
X15539229Y-13952174D01*
X15539229Y-13952174D02*
X15539229Y-13999793D01*
X15539229Y-13999793D02*
X15529705Y-14037888D01*
X15529705Y-14037888D02*
X15520182Y-14056936D01*
X15520182Y-14056936D02*
X15510658Y-14066460D01*
X15510658Y-14066460D02*
X15491610Y-14075984D01*
X15491610Y-14075984D02*
X15472562Y-14075984D01*
X15472562Y-14075984D02*
X15453515Y-14066460D01*
X15453515Y-14066460D02*
X15443991Y-14056936D01*
X15443991Y-14056936D02*
X15434467Y-14037888D01*
X15434467Y-14037888D02*
X15424943Y-13999793D01*
X15424943Y-13999793D02*
X15424943Y-13952174D01*
X15424943Y-13952174D02*
X15434467Y-13914079D01*
X15434467Y-13914079D02*
X15443991Y-13895031D01*
X15443991Y-13895031D02*
X15453515Y-13885508D01*
X15453515Y-13885508D02*
X15472562Y-13875984D01*
X15663039Y-13875984D02*
X15682086Y-13875984D01*
X15682086Y-13875984D02*
X15701134Y-13885508D01*
X15701134Y-13885508D02*
X15710658Y-13895031D01*
X15710658Y-13895031D02*
X15720182Y-13914079D01*
X15720182Y-13914079D02*
X15729705Y-13952174D01*
X15729705Y-13952174D02*
X15729705Y-13999793D01*
X15729705Y-13999793D02*
X15720182Y-14037888D01*
X15720182Y-14037888D02*
X15710658Y-14056936D01*
X15710658Y-14056936D02*
X15701134Y-14066460D01*
X15701134Y-14066460D02*
X15682086Y-14075984D01*
X15682086Y-14075984D02*
X15663039Y-14075984D01*
X15663039Y-14075984D02*
X15643991Y-14066460D01*
X15643991Y-14066460D02*
X15634467Y-14056936D01*
X15634467Y-14056936D02*
X15624943Y-14037888D01*
X15624943Y-14037888D02*
X15615420Y-13999793D01*
X15615420Y-13999793D02*
X15615420Y-13952174D01*
X15615420Y-13952174D02*
X15624943Y-13914079D01*
X15624943Y-13914079D02*
X15634467Y-13895031D01*
X15634467Y-13895031D02*
X15643991Y-13885508D01*
X15643991Y-13885508D02*
X15663039Y-13875984D01*
X15815420Y-14075984D02*
X15815420Y-13942650D01*
X15815420Y-13961698D02*
X15824943Y-13952174D01*
X15824943Y-13952174D02*
X15843991Y-13942650D01*
X15843991Y-13942650D02*
X15872563Y-13942650D01*
X15872563Y-13942650D02*
X15891610Y-13952174D01*
X15891610Y-13952174D02*
X15901134Y-13971222D01*
X15901134Y-13971222D02*
X15901134Y-14075984D01*
X15901134Y-13971222D02*
X15910658Y-13952174D01*
X15910658Y-13952174D02*
X15929705Y-13942650D01*
X15929705Y-13942650D02*
X15958277Y-13942650D01*
X15958277Y-13942650D02*
X15977324Y-13952174D01*
X15977324Y-13952174D02*
X15986848Y-13971222D01*
X15986848Y-13971222D02*
X15986848Y-14075984D01*
X16082086Y-14075984D02*
X16082086Y-13942650D01*
X16082086Y-13961698D02*
X16091610Y-13952174D01*
X16091610Y-13952174D02*
X16110658Y-13942650D01*
X16110658Y-13942650D02*
X16139229Y-13942650D01*
X16139229Y-13942650D02*
X16158277Y-13952174D01*
X16158277Y-13952174D02*
X16167801Y-13971222D01*
X16167801Y-13971222D02*
X16167801Y-14075984D01*
X16167801Y-13971222D02*
X16177324Y-13952174D01*
X16177324Y-13952174D02*
X16196372Y-13942650D01*
X16196372Y-13942650D02*
X16224943Y-13942650D01*
X16224943Y-13942650D02*
X16243991Y-13952174D01*
X16243991Y-13952174D02*
X16253515Y-13971222D01*
X16253515Y-13971222D02*
X16253515Y-14075984D01*
X16643991Y-13866460D02*
X16472563Y-14123603D01*
X16901134Y-13875984D02*
X16920182Y-13875984D01*
X16920182Y-13875984D02*
X16939229Y-13885508D01*
X16939229Y-13885508D02*
X16948753Y-13895031D01*
X16948753Y-13895031D02*
X16958277Y-13914079D01*
X16958277Y-13914079D02*
X16967801Y-13952174D01*
X16967801Y-13952174D02*
X16967801Y-13999793D01*
X16967801Y-13999793D02*
X16958277Y-14037888D01*
X16958277Y-14037888D02*
X16948753Y-14056936D01*
X16948753Y-14056936D02*
X16939229Y-14066460D01*
X16939229Y-14066460D02*
X16920182Y-14075984D01*
X16920182Y-14075984D02*
X16901134Y-14075984D01*
X16901134Y-14075984D02*
X16882087Y-14066460D01*
X16882087Y-14066460D02*
X16872563Y-14056936D01*
X16872563Y-14056936D02*
X16863039Y-14037888D01*
X16863039Y-14037888D02*
X16853515Y-13999793D01*
X16853515Y-13999793D02*
X16853515Y-13952174D01*
X16853515Y-13952174D02*
X16863039Y-13914079D01*
X16863039Y-13914079D02*
X16872563Y-13895031D01*
X16872563Y-13895031D02*
X16882087Y-13885508D01*
X16882087Y-13885508D02*
X16901134Y-13875984D01*
X17053515Y-14056936D02*
X17063039Y-14066460D01*
X17063039Y-14066460D02*
X17053515Y-14075984D01*
X17053515Y-14075984D02*
X17043991Y-14066460D01*
X17043991Y-14066460D02*
X17053515Y-14056936D01*
X17053515Y-14056936D02*
X17053515Y-14075984D01*
X17186848Y-13875984D02*
X17205896Y-13875984D01*
X17205896Y-13875984D02*
X17224944Y-13885508D01*
X17224944Y-13885508D02*
X17234468Y-13895031D01*
X17234468Y-13895031D02*
X17243991Y-13914079D01*
X17243991Y-13914079D02*
X17253515Y-13952174D01*
X17253515Y-13952174D02*
X17253515Y-13999793D01*
X17253515Y-13999793D02*
X17243991Y-14037888D01*
X17243991Y-14037888D02*
X17234468Y-14056936D01*
X17234468Y-14056936D02*
X17224944Y-14066460D01*
X17224944Y-14066460D02*
X17205896Y-14075984D01*
X17205896Y-14075984D02*
X17186848Y-14075984D01*
X17186848Y-14075984D02*
X17167801Y-14066460D01*
X17167801Y-14066460D02*
X17158277Y-14056936D01*
X17158277Y-14056936D02*
X17148753Y-14037888D01*
X17148753Y-14037888D02*
X17139229Y-13999793D01*
X17139229Y-13999793D02*
X17139229Y-13952174D01*
X17139229Y-13952174D02*
X17148753Y-13914079D01*
X17148753Y-13914079D02*
X17158277Y-13895031D01*
X17158277Y-13895031D02*
X17167801Y-13885508D01*
X17167801Y-13885508D02*
X17186848Y-13875984D01*
X17320182Y-13875984D02*
X17443991Y-13875984D01*
X17443991Y-13875984D02*
X17377325Y-13952174D01*
X17377325Y-13952174D02*
X17405896Y-13952174D01*
X17405896Y-13952174D02*
X17424944Y-13961698D01*
X17424944Y-13961698D02*
X17434468Y-13971222D01*
X17434468Y-13971222D02*
X17443991Y-13990269D01*
X17443991Y-13990269D02*
X17443991Y-14037888D01*
X17443991Y-14037888D02*
X17434468Y-14056936D01*
X17434468Y-14056936D02*
X17424944Y-14066460D01*
X17424944Y-14066460D02*
X17405896Y-14075984D01*
X17405896Y-14075984D02*
X17348753Y-14075984D01*
X17348753Y-14075984D02*
X17329706Y-14066460D01*
X17329706Y-14066460D02*
X17320182Y-14056936D01*
X17634468Y-14075984D02*
X17520182Y-14075984D01*
X17577325Y-14075984D02*
X17577325Y-13875984D01*
X17577325Y-13875984D02*
X17558277Y-13904555D01*
X17558277Y-13904555D02*
X17539229Y-13923603D01*
X17539229Y-13923603D02*
X17520182Y-13933127D01*
X17815420Y-13875984D02*
X17720182Y-13875984D01*
X17720182Y-13875984D02*
X17710658Y-13971222D01*
X17710658Y-13971222D02*
X17720182Y-13961698D01*
X17720182Y-13961698D02*
X17739229Y-13952174D01*
X17739229Y-13952174D02*
X17786849Y-13952174D01*
X17786849Y-13952174D02*
X17805896Y-13961698D01*
X17805896Y-13961698D02*
X17815420Y-13971222D01*
X17815420Y-13971222D02*
X17824944Y-13990269D01*
X17824944Y-13990269D02*
X17824944Y-14037888D01*
X17824944Y-14037888D02*
X17815420Y-14056936D01*
X17815420Y-14056936D02*
X17805896Y-14066460D01*
X17805896Y-14066460D02*
X17786849Y-14075984D01*
X17786849Y-14075984D02*
X17739229Y-14075984D01*
X17739229Y-14075984D02*
X17720182Y-14066460D01*
X17720182Y-14066460D02*
X17710658Y-14056936D01*
X17901134Y-13875984D02*
X17901134Y-13914079D01*
X17977325Y-13875984D02*
X17977325Y-13914079D01*
X18272563Y-14152174D02*
X18263039Y-14142650D01*
X18263039Y-14142650D02*
X18243991Y-14114079D01*
X18243991Y-14114079D02*
X18234468Y-14095031D01*
X18234468Y-14095031D02*
X18224944Y-14066460D01*
X18224944Y-14066460D02*
X18215420Y-14018841D01*
X18215420Y-14018841D02*
X18215420Y-13980746D01*
X18215420Y-13980746D02*
X18224944Y-13933127D01*
X18224944Y-13933127D02*
X18234468Y-13904555D01*
X18234468Y-13904555D02*
X18243991Y-13885508D01*
X18243991Y-13885508D02*
X18263039Y-13856936D01*
X18263039Y-13856936D02*
X18272563Y-13847412D01*
X18339230Y-13895031D02*
X18348753Y-13885508D01*
X18348753Y-13885508D02*
X18367801Y-13875984D01*
X18367801Y-13875984D02*
X18415420Y-13875984D01*
X18415420Y-13875984D02*
X18434468Y-13885508D01*
X18434468Y-13885508D02*
X18443991Y-13895031D01*
X18443991Y-13895031D02*
X18453515Y-13914079D01*
X18453515Y-13914079D02*
X18453515Y-13933127D01*
X18453515Y-13933127D02*
X18443991Y-13961698D01*
X18443991Y-13961698D02*
X18329706Y-14075984D01*
X18329706Y-14075984D02*
X18453515Y-14075984D01*
X18691611Y-14075984D02*
X18691611Y-13875984D01*
X18777325Y-14075984D02*
X18777325Y-13971222D01*
X18777325Y-13971222D02*
X18767801Y-13952174D01*
X18767801Y-13952174D02*
X18748753Y-13942650D01*
X18748753Y-13942650D02*
X18720182Y-13942650D01*
X18720182Y-13942650D02*
X18701134Y-13952174D01*
X18701134Y-13952174D02*
X18691611Y-13961698D01*
X18901134Y-14075984D02*
X18882087Y-14066460D01*
X18882087Y-14066460D02*
X18872563Y-14056936D01*
X18872563Y-14056936D02*
X18863039Y-14037888D01*
X18863039Y-14037888D02*
X18863039Y-13980746D01*
X18863039Y-13980746D02*
X18872563Y-13961698D01*
X18872563Y-13961698D02*
X18882087Y-13952174D01*
X18882087Y-13952174D02*
X18901134Y-13942650D01*
X18901134Y-13942650D02*
X18929706Y-13942650D01*
X18929706Y-13942650D02*
X18948753Y-13952174D01*
X18948753Y-13952174D02*
X18958277Y-13961698D01*
X18958277Y-13961698D02*
X18967801Y-13980746D01*
X18967801Y-13980746D02*
X18967801Y-14037888D01*
X18967801Y-14037888D02*
X18958277Y-14056936D01*
X18958277Y-14056936D02*
X18948753Y-14066460D01*
X18948753Y-14066460D02*
X18929706Y-14075984D01*
X18929706Y-14075984D02*
X18901134Y-14075984D01*
X19082087Y-14075984D02*
X19063039Y-14066460D01*
X19063039Y-14066460D02*
X19053515Y-14047412D01*
X19053515Y-14047412D02*
X19053515Y-13875984D01*
X19234468Y-14066460D02*
X19215420Y-14075984D01*
X19215420Y-14075984D02*
X19177325Y-14075984D01*
X19177325Y-14075984D02*
X19158277Y-14066460D01*
X19158277Y-14066460D02*
X19148753Y-14047412D01*
X19148753Y-14047412D02*
X19148753Y-13971222D01*
X19148753Y-13971222D02*
X19158277Y-13952174D01*
X19158277Y-13952174D02*
X19177325Y-13942650D01*
X19177325Y-13942650D02*
X19215420Y-13942650D01*
X19215420Y-13942650D02*
X19234468Y-13952174D01*
X19234468Y-13952174D02*
X19243992Y-13971222D01*
X19243992Y-13971222D02*
X19243992Y-13990269D01*
X19243992Y-13990269D02*
X19148753Y-14009317D01*
X19320182Y-14066460D02*
X19339230Y-14075984D01*
X19339230Y-14075984D02*
X19377325Y-14075984D01*
X19377325Y-14075984D02*
X19396373Y-14066460D01*
X19396373Y-14066460D02*
X19405896Y-14047412D01*
X19405896Y-14047412D02*
X19405896Y-14037888D01*
X19405896Y-14037888D02*
X19396373Y-14018841D01*
X19396373Y-14018841D02*
X19377325Y-14009317D01*
X19377325Y-14009317D02*
X19348753Y-14009317D01*
X19348753Y-14009317D02*
X19329706Y-13999793D01*
X19329706Y-13999793D02*
X19320182Y-13980746D01*
X19320182Y-13980746D02*
X19320182Y-13971222D01*
X19320182Y-13971222D02*
X19329706Y-13952174D01*
X19329706Y-13952174D02*
X19348753Y-13942650D01*
X19348753Y-13942650D02*
X19377325Y-13942650D01*
X19377325Y-13942650D02*
X19396373Y-13952174D01*
X19472563Y-14152174D02*
X19482087Y-14142650D01*
X19482087Y-14142650D02*
X19501134Y-14114079D01*
X19501134Y-14114079D02*
X19510658Y-14095031D01*
X19510658Y-14095031D02*
X19520182Y-14066460D01*
X19520182Y-14066460D02*
X19529706Y-14018841D01*
X19529706Y-14018841D02*
X19529706Y-13980746D01*
X19529706Y-13980746D02*
X19520182Y-13933127D01*
X19520182Y-13933127D02*
X19510658Y-13904555D01*
X19510658Y-13904555D02*
X19501134Y-13885508D01*
X19501134Y-13885508D02*
X19482087Y-13856936D01*
X19482087Y-13856936D02*
X19472563Y-13847412D01*
D12*
X14647500Y-14298500D02*
X14697500Y-14248500D01*
X14647500Y-14198500D01*
X14597500Y-14248500D01*
X14647500Y-14298500D01*
D11*
X15063039Y-14339984D02*
X14948753Y-14339984D01*
X15005896Y-14339984D02*
X15005896Y-14139984D01*
X15005896Y-14139984D02*
X14986848Y-14168555D01*
X14986848Y-14168555D02*
X14967801Y-14187603D01*
X14967801Y-14187603D02*
X14948753Y-14197127D01*
X15148753Y-14320936D02*
X15158277Y-14330460D01*
X15158277Y-14330460D02*
X15148753Y-14339984D01*
X15148753Y-14339984D02*
X15139229Y-14330460D01*
X15139229Y-14330460D02*
X15148753Y-14320936D01*
X15148753Y-14320936D02*
X15148753Y-14339984D01*
X15282086Y-14139984D02*
X15301134Y-14139984D01*
X15301134Y-14139984D02*
X15320182Y-14149508D01*
X15320182Y-14149508D02*
X15329705Y-14159031D01*
X15329705Y-14159031D02*
X15339229Y-14178079D01*
X15339229Y-14178079D02*
X15348753Y-14216174D01*
X15348753Y-14216174D02*
X15348753Y-14263793D01*
X15348753Y-14263793D02*
X15339229Y-14301888D01*
X15339229Y-14301888D02*
X15329705Y-14320936D01*
X15329705Y-14320936D02*
X15320182Y-14330460D01*
X15320182Y-14330460D02*
X15301134Y-14339984D01*
X15301134Y-14339984D02*
X15282086Y-14339984D01*
X15282086Y-14339984D02*
X15263039Y-14330460D01*
X15263039Y-14330460D02*
X15253515Y-14320936D01*
X15253515Y-14320936D02*
X15243991Y-14301888D01*
X15243991Y-14301888D02*
X15234467Y-14263793D01*
X15234467Y-14263793D02*
X15234467Y-14216174D01*
X15234467Y-14216174D02*
X15243991Y-14178079D01*
X15243991Y-14178079D02*
X15253515Y-14159031D01*
X15253515Y-14159031D02*
X15263039Y-14149508D01*
X15263039Y-14149508D02*
X15282086Y-14139984D01*
X15472562Y-14139984D02*
X15491610Y-14139984D01*
X15491610Y-14139984D02*
X15510658Y-14149508D01*
X15510658Y-14149508D02*
X15520182Y-14159031D01*
X15520182Y-14159031D02*
X15529705Y-14178079D01*
X15529705Y-14178079D02*
X15539229Y-14216174D01*
X15539229Y-14216174D02*
X15539229Y-14263793D01*
X15539229Y-14263793D02*
X15529705Y-14301888D01*
X15529705Y-14301888D02*
X15520182Y-14320936D01*
X15520182Y-14320936D02*
X15510658Y-14330460D01*
X15510658Y-14330460D02*
X15491610Y-14339984D01*
X15491610Y-14339984D02*
X15472562Y-14339984D01*
X15472562Y-14339984D02*
X15453515Y-14330460D01*
X15453515Y-14330460D02*
X15443991Y-14320936D01*
X15443991Y-14320936D02*
X15434467Y-14301888D01*
X15434467Y-14301888D02*
X15424943Y-14263793D01*
X15424943Y-14263793D02*
X15424943Y-14216174D01*
X15424943Y-14216174D02*
X15434467Y-14178079D01*
X15434467Y-14178079D02*
X15443991Y-14159031D01*
X15443991Y-14159031D02*
X15453515Y-14149508D01*
X15453515Y-14149508D02*
X15472562Y-14139984D01*
X15663039Y-14139984D02*
X15682086Y-14139984D01*
X15682086Y-14139984D02*
X15701134Y-14149508D01*
X15701134Y-14149508D02*
X15710658Y-14159031D01*
X15710658Y-14159031D02*
X15720182Y-14178079D01*
X15720182Y-14178079D02*
X15729705Y-14216174D01*
X15729705Y-14216174D02*
X15729705Y-14263793D01*
X15729705Y-14263793D02*
X15720182Y-14301888D01*
X15720182Y-14301888D02*
X15710658Y-14320936D01*
X15710658Y-14320936D02*
X15701134Y-14330460D01*
X15701134Y-14330460D02*
X15682086Y-14339984D01*
X15682086Y-14339984D02*
X15663039Y-14339984D01*
X15663039Y-14339984D02*
X15643991Y-14330460D01*
X15643991Y-14330460D02*
X15634467Y-14320936D01*
X15634467Y-14320936D02*
X15624943Y-14301888D01*
X15624943Y-14301888D02*
X15615420Y-14263793D01*
X15615420Y-14263793D02*
X15615420Y-14216174D01*
X15615420Y-14216174D02*
X15624943Y-14178079D01*
X15624943Y-14178079D02*
X15634467Y-14159031D01*
X15634467Y-14159031D02*
X15643991Y-14149508D01*
X15643991Y-14149508D02*
X15663039Y-14139984D01*
X15815420Y-14339984D02*
X15815420Y-14206650D01*
X15815420Y-14225698D02*
X15824943Y-14216174D01*
X15824943Y-14216174D02*
X15843991Y-14206650D01*
X15843991Y-14206650D02*
X15872563Y-14206650D01*
X15872563Y-14206650D02*
X15891610Y-14216174D01*
X15891610Y-14216174D02*
X15901134Y-14235222D01*
X15901134Y-14235222D02*
X15901134Y-14339984D01*
X15901134Y-14235222D02*
X15910658Y-14216174D01*
X15910658Y-14216174D02*
X15929705Y-14206650D01*
X15929705Y-14206650D02*
X15958277Y-14206650D01*
X15958277Y-14206650D02*
X15977324Y-14216174D01*
X15977324Y-14216174D02*
X15986848Y-14235222D01*
X15986848Y-14235222D02*
X15986848Y-14339984D01*
X16082086Y-14339984D02*
X16082086Y-14206650D01*
X16082086Y-14225698D02*
X16091610Y-14216174D01*
X16091610Y-14216174D02*
X16110658Y-14206650D01*
X16110658Y-14206650D02*
X16139229Y-14206650D01*
X16139229Y-14206650D02*
X16158277Y-14216174D01*
X16158277Y-14216174D02*
X16167801Y-14235222D01*
X16167801Y-14235222D02*
X16167801Y-14339984D01*
X16167801Y-14235222D02*
X16177324Y-14216174D01*
X16177324Y-14216174D02*
X16196372Y-14206650D01*
X16196372Y-14206650D02*
X16224943Y-14206650D01*
X16224943Y-14206650D02*
X16243991Y-14216174D01*
X16243991Y-14216174D02*
X16253515Y-14235222D01*
X16253515Y-14235222D02*
X16253515Y-14339984D01*
X16643991Y-14130460D02*
X16472563Y-14387603D01*
X16901134Y-14139984D02*
X16920182Y-14139984D01*
X16920182Y-14139984D02*
X16939229Y-14149508D01*
X16939229Y-14149508D02*
X16948753Y-14159031D01*
X16948753Y-14159031D02*
X16958277Y-14178079D01*
X16958277Y-14178079D02*
X16967801Y-14216174D01*
X16967801Y-14216174D02*
X16967801Y-14263793D01*
X16967801Y-14263793D02*
X16958277Y-14301888D01*
X16958277Y-14301888D02*
X16948753Y-14320936D01*
X16948753Y-14320936D02*
X16939229Y-14330460D01*
X16939229Y-14330460D02*
X16920182Y-14339984D01*
X16920182Y-14339984D02*
X16901134Y-14339984D01*
X16901134Y-14339984D02*
X16882087Y-14330460D01*
X16882087Y-14330460D02*
X16872563Y-14320936D01*
X16872563Y-14320936D02*
X16863039Y-14301888D01*
X16863039Y-14301888D02*
X16853515Y-14263793D01*
X16853515Y-14263793D02*
X16853515Y-14216174D01*
X16853515Y-14216174D02*
X16863039Y-14178079D01*
X16863039Y-14178079D02*
X16872563Y-14159031D01*
X16872563Y-14159031D02*
X16882087Y-14149508D01*
X16882087Y-14149508D02*
X16901134Y-14139984D01*
X17053515Y-14320936D02*
X17063039Y-14330460D01*
X17063039Y-14330460D02*
X17053515Y-14339984D01*
X17053515Y-14339984D02*
X17043991Y-14330460D01*
X17043991Y-14330460D02*
X17053515Y-14320936D01*
X17053515Y-14320936D02*
X17053515Y-14339984D01*
X17186848Y-14139984D02*
X17205896Y-14139984D01*
X17205896Y-14139984D02*
X17224944Y-14149508D01*
X17224944Y-14149508D02*
X17234468Y-14159031D01*
X17234468Y-14159031D02*
X17243991Y-14178079D01*
X17243991Y-14178079D02*
X17253515Y-14216174D01*
X17253515Y-14216174D02*
X17253515Y-14263793D01*
X17253515Y-14263793D02*
X17243991Y-14301888D01*
X17243991Y-14301888D02*
X17234468Y-14320936D01*
X17234468Y-14320936D02*
X17224944Y-14330460D01*
X17224944Y-14330460D02*
X17205896Y-14339984D01*
X17205896Y-14339984D02*
X17186848Y-14339984D01*
X17186848Y-14339984D02*
X17167801Y-14330460D01*
X17167801Y-14330460D02*
X17158277Y-14320936D01*
X17158277Y-14320936D02*
X17148753Y-14301888D01*
X17148753Y-14301888D02*
X17139229Y-14263793D01*
X17139229Y-14263793D02*
X17139229Y-14216174D01*
X17139229Y-14216174D02*
X17148753Y-14178079D01*
X17148753Y-14178079D02*
X17158277Y-14159031D01*
X17158277Y-14159031D02*
X17167801Y-14149508D01*
X17167801Y-14149508D02*
X17186848Y-14139984D01*
X17320182Y-14139984D02*
X17443991Y-14139984D01*
X17443991Y-14139984D02*
X17377325Y-14216174D01*
X17377325Y-14216174D02*
X17405896Y-14216174D01*
X17405896Y-14216174D02*
X17424944Y-14225698D01*
X17424944Y-14225698D02*
X17434468Y-14235222D01*
X17434468Y-14235222D02*
X17443991Y-14254269D01*
X17443991Y-14254269D02*
X17443991Y-14301888D01*
X17443991Y-14301888D02*
X17434468Y-14320936D01*
X17434468Y-14320936D02*
X17424944Y-14330460D01*
X17424944Y-14330460D02*
X17405896Y-14339984D01*
X17405896Y-14339984D02*
X17348753Y-14339984D01*
X17348753Y-14339984D02*
X17329706Y-14330460D01*
X17329706Y-14330460D02*
X17320182Y-14320936D01*
X17539229Y-14339984D02*
X17577325Y-14339984D01*
X17577325Y-14339984D02*
X17596372Y-14330460D01*
X17596372Y-14330460D02*
X17605896Y-14320936D01*
X17605896Y-14320936D02*
X17624944Y-14292365D01*
X17624944Y-14292365D02*
X17634468Y-14254269D01*
X17634468Y-14254269D02*
X17634468Y-14178079D01*
X17634468Y-14178079D02*
X17624944Y-14159031D01*
X17624944Y-14159031D02*
X17615420Y-14149508D01*
X17615420Y-14149508D02*
X17596372Y-14139984D01*
X17596372Y-14139984D02*
X17558277Y-14139984D01*
X17558277Y-14139984D02*
X17539229Y-14149508D01*
X17539229Y-14149508D02*
X17529706Y-14159031D01*
X17529706Y-14159031D02*
X17520182Y-14178079D01*
X17520182Y-14178079D02*
X17520182Y-14225698D01*
X17520182Y-14225698D02*
X17529706Y-14244746D01*
X17529706Y-14244746D02*
X17539229Y-14254269D01*
X17539229Y-14254269D02*
X17558277Y-14263793D01*
X17558277Y-14263793D02*
X17596372Y-14263793D01*
X17596372Y-14263793D02*
X17615420Y-14254269D01*
X17615420Y-14254269D02*
X17624944Y-14244746D01*
X17624944Y-14244746D02*
X17634468Y-14225698D01*
X17805896Y-14206650D02*
X17805896Y-14339984D01*
X17758277Y-14130460D02*
X17710658Y-14273317D01*
X17710658Y-14273317D02*
X17834468Y-14273317D01*
X17901134Y-14139984D02*
X17901134Y-14178079D01*
X17977325Y-14139984D02*
X17977325Y-14178079D01*
X18272563Y-14416174D02*
X18263039Y-14406650D01*
X18263039Y-14406650D02*
X18243991Y-14378079D01*
X18243991Y-14378079D02*
X18234468Y-14359031D01*
X18234468Y-14359031D02*
X18224944Y-14330460D01*
X18224944Y-14330460D02*
X18215420Y-14282841D01*
X18215420Y-14282841D02*
X18215420Y-14244746D01*
X18215420Y-14244746D02*
X18224944Y-14197127D01*
X18224944Y-14197127D02*
X18234468Y-14168555D01*
X18234468Y-14168555D02*
X18243991Y-14149508D01*
X18243991Y-14149508D02*
X18263039Y-14120936D01*
X18263039Y-14120936D02*
X18272563Y-14111412D01*
X18453515Y-14339984D02*
X18339230Y-14339984D01*
X18396372Y-14339984D02*
X18396372Y-14139984D01*
X18396372Y-14139984D02*
X18377325Y-14168555D01*
X18377325Y-14168555D02*
X18358277Y-14187603D01*
X18358277Y-14187603D02*
X18339230Y-14197127D01*
X18577325Y-14139984D02*
X18596372Y-14139984D01*
X18596372Y-14139984D02*
X18615420Y-14149508D01*
X18615420Y-14149508D02*
X18624944Y-14159031D01*
X18624944Y-14159031D02*
X18634468Y-14178079D01*
X18634468Y-14178079D02*
X18643991Y-14216174D01*
X18643991Y-14216174D02*
X18643991Y-14263793D01*
X18643991Y-14263793D02*
X18634468Y-14301888D01*
X18634468Y-14301888D02*
X18624944Y-14320936D01*
X18624944Y-14320936D02*
X18615420Y-14330460D01*
X18615420Y-14330460D02*
X18596372Y-14339984D01*
X18596372Y-14339984D02*
X18577325Y-14339984D01*
X18577325Y-14339984D02*
X18558277Y-14330460D01*
X18558277Y-14330460D02*
X18548753Y-14320936D01*
X18548753Y-14320936D02*
X18539230Y-14301888D01*
X18539230Y-14301888D02*
X18529706Y-14263793D01*
X18529706Y-14263793D02*
X18529706Y-14216174D01*
X18529706Y-14216174D02*
X18539230Y-14178079D01*
X18539230Y-14178079D02*
X18548753Y-14159031D01*
X18548753Y-14159031D02*
X18558277Y-14149508D01*
X18558277Y-14149508D02*
X18577325Y-14139984D01*
X18882087Y-14339984D02*
X18882087Y-14139984D01*
X18967801Y-14339984D02*
X18967801Y-14235222D01*
X18967801Y-14235222D02*
X18958277Y-14216174D01*
X18958277Y-14216174D02*
X18939230Y-14206650D01*
X18939230Y-14206650D02*
X18910658Y-14206650D01*
X18910658Y-14206650D02*
X18891611Y-14216174D01*
X18891611Y-14216174D02*
X18882087Y-14225698D01*
X19091611Y-14339984D02*
X19072563Y-14330460D01*
X19072563Y-14330460D02*
X19063039Y-14320936D01*
X19063039Y-14320936D02*
X19053515Y-14301888D01*
X19053515Y-14301888D02*
X19053515Y-14244746D01*
X19053515Y-14244746D02*
X19063039Y-14225698D01*
X19063039Y-14225698D02*
X19072563Y-14216174D01*
X19072563Y-14216174D02*
X19091611Y-14206650D01*
X19091611Y-14206650D02*
X19120182Y-14206650D01*
X19120182Y-14206650D02*
X19139230Y-14216174D01*
X19139230Y-14216174D02*
X19148753Y-14225698D01*
X19148753Y-14225698D02*
X19158277Y-14244746D01*
X19158277Y-14244746D02*
X19158277Y-14301888D01*
X19158277Y-14301888D02*
X19148753Y-14320936D01*
X19148753Y-14320936D02*
X19139230Y-14330460D01*
X19139230Y-14330460D02*
X19120182Y-14339984D01*
X19120182Y-14339984D02*
X19091611Y-14339984D01*
X19272563Y-14339984D02*
X19253515Y-14330460D01*
X19253515Y-14330460D02*
X19243992Y-14311412D01*
X19243992Y-14311412D02*
X19243992Y-14139984D01*
X19424944Y-14330460D02*
X19405896Y-14339984D01*
X19405896Y-14339984D02*
X19367801Y-14339984D01*
X19367801Y-14339984D02*
X19348753Y-14330460D01*
X19348753Y-14330460D02*
X19339230Y-14311412D01*
X19339230Y-14311412D02*
X19339230Y-14235222D01*
X19339230Y-14235222D02*
X19348753Y-14216174D01*
X19348753Y-14216174D02*
X19367801Y-14206650D01*
X19367801Y-14206650D02*
X19405896Y-14206650D01*
X19405896Y-14206650D02*
X19424944Y-14216174D01*
X19424944Y-14216174D02*
X19434468Y-14235222D01*
X19434468Y-14235222D02*
X19434468Y-14254269D01*
X19434468Y-14254269D02*
X19339230Y-14273317D01*
X19510658Y-14330460D02*
X19529706Y-14339984D01*
X19529706Y-14339984D02*
X19567801Y-14339984D01*
X19567801Y-14339984D02*
X19586849Y-14330460D01*
X19586849Y-14330460D02*
X19596373Y-14311412D01*
X19596373Y-14311412D02*
X19596373Y-14301888D01*
X19596373Y-14301888D02*
X19586849Y-14282841D01*
X19586849Y-14282841D02*
X19567801Y-14273317D01*
X19567801Y-14273317D02*
X19539230Y-14273317D01*
X19539230Y-14273317D02*
X19520182Y-14263793D01*
X19520182Y-14263793D02*
X19510658Y-14244746D01*
X19510658Y-14244746D02*
X19510658Y-14235222D01*
X19510658Y-14235222D02*
X19520182Y-14216174D01*
X19520182Y-14216174D02*
X19539230Y-14206650D01*
X19539230Y-14206650D02*
X19567801Y-14206650D01*
X19567801Y-14206650D02*
X19586849Y-14216174D01*
X19663039Y-14416174D02*
X19672563Y-14406650D01*
X19672563Y-14406650D02*
X19691611Y-14378079D01*
X19691611Y-14378079D02*
X19701134Y-14359031D01*
X19701134Y-14359031D02*
X19710658Y-14330460D01*
X19710658Y-14330460D02*
X19720182Y-14282841D01*
X19720182Y-14282841D02*
X19720182Y-14244746D01*
X19720182Y-14244746D02*
X19710658Y-14197127D01*
X19710658Y-14197127D02*
X19701134Y-14168555D01*
X19701134Y-14168555D02*
X19691611Y-14149508D01*
X19691611Y-14149508D02*
X19672563Y-14120936D01*
X19672563Y-14120936D02*
X19663039Y-14111412D01*
M02*
