%TF.GenerationSoftware,KiCad,Pcbnew,9.0.2*%
%TF.CreationDate,2025-08-29T11:08:53+00:00*%
%TF.ProjectId,AERIS-Nano Breakout Board,41455249-532d-44e6-916e-6f2042726561,rev?*%
%TF.SameCoordinates,Original*%
%TF.FileFunction,Legend,Top*%
%TF.FilePolarity,Positive*%
%FSLAX46Y46*%
G04 Gerber Fmt 4.6, Leading zero omitted, Abs format (unit mm)*
G04 Created by KiCad (PCBNEW 9.0.2) date 2025-08-29 11:08:53*
%MOMM*%
%LPD*%
G01*
G04 APERTURE LIST*
G04 Aperture macros list*
%AMRoundRect*
0 Rectangle with rounded corners*
0 $1 Rounding radius*
0 $2 $3 $4 $5 $6 $7 $8 $9 X,Y pos of 4 corners*
0 Add a 4 corners polygon primitive as box body*
4,1,4,$2,$3,$4,$5,$6,$7,$8,$9,$2,$3,0*
0 Add four circle primitives for the rounded corners*
1,1,$1+$1,$2,$3*
1,1,$1+$1,$4,$5*
1,1,$1+$1,$6,$7*
1,1,$1+$1,$8,$9*
0 Add four rect primitives between the rounded corners*
20,1,$1+$1,$2,$3,$4,$5,0*
20,1,$1+$1,$4,$5,$6,$7,0*
20,1,$1+$1,$6,$7,$8,$9,0*
20,1,$1+$1,$8,$9,$2,$3,0*%
G04 Aperture macros list end*
%ADD10C,0.100000*%
%ADD11C,0.300000*%
%ADD12C,0.120000*%
%ADD13C,0.010000*%
%ADD14C,0.150000*%
%ADD15R,1.700000X1.700000*%
%ADD16C,1.700000*%
%ADD17C,1.600000*%
%ADD18RoundRect,0.250000X0.750000X-0.600000X0.750000X0.600000X-0.750000X0.600000X-0.750000X-0.600000X0*%
%ADD19O,2.000000X1.700000*%
%ADD20R,1.500000X1.050000*%
%ADD21O,1.500000X1.050000*%
G04 APERTURE END LIST*
D10*
X148000000Y-100500000D02*
X149100000Y-100500000D01*
X149500000Y-100500000D02*
X150600000Y-100500000D01*
X151000000Y-100500000D02*
X152100000Y-100500000D01*
X152500000Y-100500000D02*
X153000000Y-100500000D01*
X173500000Y-95000000D02*
X173500000Y-96100000D01*
X173500000Y-96500000D02*
X173500000Y-97600000D01*
X173500000Y-98000000D02*
X173500000Y-99100000D01*
X173500000Y-99500000D02*
X173500000Y-100600000D01*
X173500000Y-101000000D02*
X173500000Y-102000000D01*
X148000000Y-91500000D02*
X149100000Y-91500000D01*
X149500000Y-91500000D02*
X150600000Y-91500000D01*
X151000000Y-91500000D02*
X152100000Y-91500000D01*
X152500000Y-91500000D02*
X153000000Y-91500000D01*
X153000000Y-91500000D02*
X153000000Y-92600000D01*
X153000000Y-93000000D02*
X153000000Y-94100000D01*
X153000000Y-94500000D02*
X153000000Y-95600000D01*
X153000000Y-96000000D02*
X153000000Y-97100000D01*
X153000000Y-97500000D02*
X153000000Y-98600000D01*
X153000000Y-99000000D02*
X153000000Y-100100000D01*
X153000000Y-100500000D02*
X153000000Y-101600000D01*
X153000000Y-102000000D02*
X153000000Y-102000000D01*
X153000000Y-102000000D02*
X151900000Y-102000000D01*
X151500000Y-102000000D02*
X150400000Y-102000000D01*
X150000000Y-102000000D02*
X148900000Y-102000000D01*
X148500000Y-102000000D02*
X148000000Y-102000000D01*
X148000000Y-102000000D02*
X148000000Y-100900000D01*
X148000000Y-100500000D02*
X148000000Y-99400000D01*
X148000000Y-99000000D02*
X148000000Y-97900000D01*
X148000000Y-97500000D02*
X148000000Y-96400000D01*
X148000000Y-96000000D02*
X148000000Y-94900000D01*
X148000000Y-94500000D02*
X148000000Y-93400000D01*
X148000000Y-93000000D02*
X148000000Y-91900000D01*
X148000000Y-91500000D02*
X148000000Y-91500000D01*
X153000000Y-93000000D02*
X151900000Y-93000000D01*
X151500000Y-93000000D02*
X150400000Y-93000000D01*
X150000000Y-93000000D02*
X148900000Y-93000000D01*
X148500000Y-93000000D02*
X148000000Y-93000000D01*
X173500000Y-102000000D02*
X172400000Y-102000000D01*
X172000000Y-102000000D02*
X170900000Y-102000000D01*
X170500000Y-102000000D02*
X169400000Y-102000000D01*
X169000000Y-102000000D02*
X167900000Y-102000000D01*
X167500000Y-102000000D02*
X166400000Y-102000000D01*
X166000000Y-102000000D02*
X164900000Y-102000000D01*
X164500000Y-102000000D02*
X163400000Y-102000000D01*
X163120000Y-102000000D02*
X163120000Y-100900000D01*
X163120000Y-100500000D02*
X163120000Y-99400000D01*
X163120000Y-99000000D02*
X163120000Y-97900000D01*
X163120000Y-97500000D02*
X163120000Y-96400000D01*
X163120000Y-96000000D02*
X163120000Y-95000000D01*
X154000000Y-91500000D02*
X155100000Y-91500000D01*
X155500000Y-91500000D02*
X156600000Y-91500000D01*
X157000000Y-91500000D02*
X158100000Y-91500000D01*
X158500000Y-91500000D02*
X159600000Y-91500000D01*
X160000000Y-91500000D02*
X161000000Y-91500000D01*
X161000000Y-91500000D02*
X161000000Y-92600000D01*
X161000000Y-93000000D02*
X161000000Y-94100000D01*
X161000000Y-94500000D02*
X161000000Y-95600000D01*
X161000000Y-96000000D02*
X161000000Y-97100000D01*
X161000000Y-97500000D02*
X161000000Y-98600000D01*
X161000000Y-99000000D02*
X161000000Y-100100000D01*
X161000000Y-100500000D02*
X161000000Y-101600000D01*
X161000000Y-102000000D02*
X161000000Y-102000000D01*
X161000000Y-102000000D02*
X159900000Y-102000000D01*
X159500000Y-102000000D02*
X158400000Y-102000000D01*
X158000000Y-102000000D02*
X156900000Y-102000000D01*
X156500000Y-102000000D02*
X155400000Y-102000000D01*
X155000000Y-102000000D02*
X154000000Y-102000000D01*
X154000000Y-102000000D02*
X154000000Y-100900000D01*
X154000000Y-100500000D02*
X154000000Y-99400000D01*
X154000000Y-99000000D02*
X154000000Y-97900000D01*
X154000000Y-97500000D02*
X154000000Y-96400000D01*
X154000000Y-96000000D02*
X154000000Y-94900000D01*
X154000000Y-94500000D02*
X154000000Y-93400000D01*
X154000000Y-93000000D02*
X154000000Y-91900000D01*
X154000000Y-91500000D02*
X154000000Y-91500000D01*
X172409800Y-97714285D02*
X172457419Y-97571428D01*
X172457419Y-97571428D02*
X172457419Y-97333333D01*
X172457419Y-97333333D02*
X172409800Y-97238095D01*
X172409800Y-97238095D02*
X172362180Y-97190476D01*
X172362180Y-97190476D02*
X172266942Y-97142857D01*
X172266942Y-97142857D02*
X172171704Y-97142857D01*
X172171704Y-97142857D02*
X172076466Y-97190476D01*
X172076466Y-97190476D02*
X172028847Y-97238095D01*
X172028847Y-97238095D02*
X171981228Y-97333333D01*
X171981228Y-97333333D02*
X171933609Y-97523809D01*
X171933609Y-97523809D02*
X171885990Y-97619047D01*
X171885990Y-97619047D02*
X171838371Y-97666666D01*
X171838371Y-97666666D02*
X171743133Y-97714285D01*
X171743133Y-97714285D02*
X171647895Y-97714285D01*
X171647895Y-97714285D02*
X171552657Y-97666666D01*
X171552657Y-97666666D02*
X171505038Y-97619047D01*
X171505038Y-97619047D02*
X171457419Y-97523809D01*
X171457419Y-97523809D02*
X171457419Y-97285714D01*
X171457419Y-97285714D02*
X171505038Y-97142857D01*
X172457419Y-96714285D02*
X171457419Y-96714285D01*
X171457419Y-96714285D02*
X171457419Y-96476190D01*
X171457419Y-96476190D02*
X171505038Y-96333333D01*
X171505038Y-96333333D02*
X171600276Y-96238095D01*
X171600276Y-96238095D02*
X171695514Y-96190476D01*
X171695514Y-96190476D02*
X171885990Y-96142857D01*
X171885990Y-96142857D02*
X172028847Y-96142857D01*
X172028847Y-96142857D02*
X172219323Y-96190476D01*
X172219323Y-96190476D02*
X172314561Y-96238095D01*
X172314561Y-96238095D02*
X172409800Y-96333333D01*
X172409800Y-96333333D02*
X172457419Y-96476190D01*
X172457419Y-96476190D02*
X172457419Y-96714285D01*
X172171704Y-95761904D02*
X172171704Y-95285714D01*
X172457419Y-95857142D02*
X171457419Y-95523809D01*
X171457419Y-95523809D02*
X172457419Y-95190476D01*
X169909800Y-97690475D02*
X169957419Y-97547618D01*
X169957419Y-97547618D02*
X169957419Y-97309523D01*
X169957419Y-97309523D02*
X169909800Y-97214285D01*
X169909800Y-97214285D02*
X169862180Y-97166666D01*
X169862180Y-97166666D02*
X169766942Y-97119047D01*
X169766942Y-97119047D02*
X169671704Y-97119047D01*
X169671704Y-97119047D02*
X169576466Y-97166666D01*
X169576466Y-97166666D02*
X169528847Y-97214285D01*
X169528847Y-97214285D02*
X169481228Y-97309523D01*
X169481228Y-97309523D02*
X169433609Y-97499999D01*
X169433609Y-97499999D02*
X169385990Y-97595237D01*
X169385990Y-97595237D02*
X169338371Y-97642856D01*
X169338371Y-97642856D02*
X169243133Y-97690475D01*
X169243133Y-97690475D02*
X169147895Y-97690475D01*
X169147895Y-97690475D02*
X169052657Y-97642856D01*
X169052657Y-97642856D02*
X169005038Y-97595237D01*
X169005038Y-97595237D02*
X168957419Y-97499999D01*
X168957419Y-97499999D02*
X168957419Y-97261904D01*
X168957419Y-97261904D02*
X169005038Y-97119047D01*
X169862180Y-96119047D02*
X169909800Y-96166666D01*
X169909800Y-96166666D02*
X169957419Y-96309523D01*
X169957419Y-96309523D02*
X169957419Y-96404761D01*
X169957419Y-96404761D02*
X169909800Y-96547618D01*
X169909800Y-96547618D02*
X169814561Y-96642856D01*
X169814561Y-96642856D02*
X169719323Y-96690475D01*
X169719323Y-96690475D02*
X169528847Y-96738094D01*
X169528847Y-96738094D02*
X169385990Y-96738094D01*
X169385990Y-96738094D02*
X169195514Y-96690475D01*
X169195514Y-96690475D02*
X169100276Y-96642856D01*
X169100276Y-96642856D02*
X169005038Y-96547618D01*
X169005038Y-96547618D02*
X168957419Y-96404761D01*
X168957419Y-96404761D02*
X168957419Y-96309523D01*
X168957419Y-96309523D02*
X169005038Y-96166666D01*
X169005038Y-96166666D02*
X169052657Y-96119047D01*
X169957419Y-95214285D02*
X169957419Y-95690475D01*
X169957419Y-95690475D02*
X168957419Y-95690475D01*
X149628637Y-99130952D02*
X149676256Y-98988095D01*
X149676256Y-98988095D02*
X149723875Y-98940476D01*
X149723875Y-98940476D02*
X149819113Y-98892857D01*
X149819113Y-98892857D02*
X149961970Y-98892857D01*
X149961970Y-98892857D02*
X150057208Y-98940476D01*
X150057208Y-98940476D02*
X150104828Y-98988095D01*
X150104828Y-98988095D02*
X150152447Y-99083333D01*
X150152447Y-99083333D02*
X150152447Y-99464285D01*
X150152447Y-99464285D02*
X149152447Y-99464285D01*
X149152447Y-99464285D02*
X149152447Y-99130952D01*
X149152447Y-99130952D02*
X149200066Y-99035714D01*
X149200066Y-99035714D02*
X149247685Y-98988095D01*
X149247685Y-98988095D02*
X149342923Y-98940476D01*
X149342923Y-98940476D02*
X149438161Y-98940476D01*
X149438161Y-98940476D02*
X149533399Y-98988095D01*
X149533399Y-98988095D02*
X149581018Y-99035714D01*
X149581018Y-99035714D02*
X149628637Y-99130952D01*
X149628637Y-99130952D02*
X149628637Y-99464285D01*
X150152447Y-98464285D02*
X149152447Y-98464285D01*
X149152447Y-98464285D02*
X149866732Y-98130952D01*
X149866732Y-98130952D02*
X149152447Y-97797619D01*
X149152447Y-97797619D02*
X150152447Y-97797619D01*
X149628637Y-97321428D02*
X149628637Y-96988095D01*
X150152447Y-96845238D02*
X150152447Y-97321428D01*
X150152447Y-97321428D02*
X149152447Y-97321428D01*
X149152447Y-97321428D02*
X149152447Y-96845238D01*
X149247685Y-96464285D02*
X149200066Y-96416666D01*
X149200066Y-96416666D02*
X149152447Y-96321428D01*
X149152447Y-96321428D02*
X149152447Y-96083333D01*
X149152447Y-96083333D02*
X149200066Y-95988095D01*
X149200066Y-95988095D02*
X149247685Y-95940476D01*
X149247685Y-95940476D02*
X149342923Y-95892857D01*
X149342923Y-95892857D02*
X149438161Y-95892857D01*
X149438161Y-95892857D02*
X149581018Y-95940476D01*
X149581018Y-95940476D02*
X150152447Y-96511904D01*
X150152447Y-96511904D02*
X150152447Y-95892857D01*
X149581018Y-95321428D02*
X149533399Y-95416666D01*
X149533399Y-95416666D02*
X149485780Y-95464285D01*
X149485780Y-95464285D02*
X149390542Y-95511904D01*
X149390542Y-95511904D02*
X149342923Y-95511904D01*
X149342923Y-95511904D02*
X149247685Y-95464285D01*
X149247685Y-95464285D02*
X149200066Y-95416666D01*
X149200066Y-95416666D02*
X149152447Y-95321428D01*
X149152447Y-95321428D02*
X149152447Y-95130952D01*
X149152447Y-95130952D02*
X149200066Y-95035714D01*
X149200066Y-95035714D02*
X149247685Y-94988095D01*
X149247685Y-94988095D02*
X149342923Y-94940476D01*
X149342923Y-94940476D02*
X149390542Y-94940476D01*
X149390542Y-94940476D02*
X149485780Y-94988095D01*
X149485780Y-94988095D02*
X149533399Y-95035714D01*
X149533399Y-95035714D02*
X149581018Y-95130952D01*
X149581018Y-95130952D02*
X149581018Y-95321428D01*
X149581018Y-95321428D02*
X149628637Y-95416666D01*
X149628637Y-95416666D02*
X149676256Y-95464285D01*
X149676256Y-95464285D02*
X149771494Y-95511904D01*
X149771494Y-95511904D02*
X149961970Y-95511904D01*
X149961970Y-95511904D02*
X150057208Y-95464285D01*
X150057208Y-95464285D02*
X150104828Y-95416666D01*
X150104828Y-95416666D02*
X150152447Y-95321428D01*
X150152447Y-95321428D02*
X150152447Y-95130952D01*
X150152447Y-95130952D02*
X150104828Y-95035714D01*
X150104828Y-95035714D02*
X150057208Y-94988095D01*
X150057208Y-94988095D02*
X149961970Y-94940476D01*
X149961970Y-94940476D02*
X149771494Y-94940476D01*
X149771494Y-94940476D02*
X149676256Y-94988095D01*
X149676256Y-94988095D02*
X149628637Y-95035714D01*
X149628637Y-95035714D02*
X149581018Y-95130952D01*
X149152447Y-94321428D02*
X149152447Y-94226190D01*
X149152447Y-94226190D02*
X149200066Y-94130952D01*
X149200066Y-94130952D02*
X149247685Y-94083333D01*
X149247685Y-94083333D02*
X149342923Y-94035714D01*
X149342923Y-94035714D02*
X149533399Y-93988095D01*
X149533399Y-93988095D02*
X149771494Y-93988095D01*
X149771494Y-93988095D02*
X149961970Y-94035714D01*
X149961970Y-94035714D02*
X150057208Y-94083333D01*
X150057208Y-94083333D02*
X150104828Y-94130952D01*
X150104828Y-94130952D02*
X150152447Y-94226190D01*
X150152447Y-94226190D02*
X150152447Y-94321428D01*
X150152447Y-94321428D02*
X150104828Y-94416666D01*
X150104828Y-94416666D02*
X150057208Y-94464285D01*
X150057208Y-94464285D02*
X149961970Y-94511904D01*
X149961970Y-94511904D02*
X149771494Y-94559523D01*
X149771494Y-94559523D02*
X149533399Y-94559523D01*
X149533399Y-94559523D02*
X149342923Y-94511904D01*
X149342923Y-94511904D02*
X149247685Y-94464285D01*
X149247685Y-94464285D02*
X149200066Y-94416666D01*
X149200066Y-94416666D02*
X149152447Y-94321428D01*
X151762391Y-99202381D02*
X151286200Y-99535714D01*
X151762391Y-99773809D02*
X150762391Y-99773809D01*
X150762391Y-99773809D02*
X150762391Y-99392857D01*
X150762391Y-99392857D02*
X150810010Y-99297619D01*
X150810010Y-99297619D02*
X150857629Y-99250000D01*
X150857629Y-99250000D02*
X150952867Y-99202381D01*
X150952867Y-99202381D02*
X151095724Y-99202381D01*
X151095724Y-99202381D02*
X151190962Y-99250000D01*
X151190962Y-99250000D02*
X151238581Y-99297619D01*
X151238581Y-99297619D02*
X151286200Y-99392857D01*
X151286200Y-99392857D02*
X151286200Y-99773809D01*
X151238581Y-98773809D02*
X151238581Y-98440476D01*
X151762391Y-98297619D02*
X151762391Y-98773809D01*
X151762391Y-98773809D02*
X150762391Y-98773809D01*
X150762391Y-98773809D02*
X150762391Y-98297619D01*
X150762391Y-98011904D02*
X151762391Y-97678571D01*
X151762391Y-97678571D02*
X150762391Y-97345238D01*
X151238581Y-97011904D02*
X151238581Y-96678571D01*
X151762391Y-96535714D02*
X151762391Y-97011904D01*
X151762391Y-97011904D02*
X150762391Y-97011904D01*
X150762391Y-97011904D02*
X150762391Y-96535714D01*
X151762391Y-95535714D02*
X151286200Y-95869047D01*
X151762391Y-96107142D02*
X150762391Y-96107142D01*
X150762391Y-96107142D02*
X150762391Y-95726190D01*
X150762391Y-95726190D02*
X150810010Y-95630952D01*
X150810010Y-95630952D02*
X150857629Y-95583333D01*
X150857629Y-95583333D02*
X150952867Y-95535714D01*
X150952867Y-95535714D02*
X151095724Y-95535714D01*
X151095724Y-95535714D02*
X151190962Y-95583333D01*
X151190962Y-95583333D02*
X151238581Y-95630952D01*
X151238581Y-95630952D02*
X151286200Y-95726190D01*
X151286200Y-95726190D02*
X151286200Y-96107142D01*
X151714772Y-95154761D02*
X151762391Y-95011904D01*
X151762391Y-95011904D02*
X151762391Y-94773809D01*
X151762391Y-94773809D02*
X151714772Y-94678571D01*
X151714772Y-94678571D02*
X151667152Y-94630952D01*
X151667152Y-94630952D02*
X151571914Y-94583333D01*
X151571914Y-94583333D02*
X151476676Y-94583333D01*
X151476676Y-94583333D02*
X151381438Y-94630952D01*
X151381438Y-94630952D02*
X151333819Y-94678571D01*
X151333819Y-94678571D02*
X151286200Y-94773809D01*
X151286200Y-94773809D02*
X151238581Y-94964285D01*
X151238581Y-94964285D02*
X151190962Y-95059523D01*
X151190962Y-95059523D02*
X151143343Y-95107142D01*
X151143343Y-95107142D02*
X151048105Y-95154761D01*
X151048105Y-95154761D02*
X150952867Y-95154761D01*
X150952867Y-95154761D02*
X150857629Y-95107142D01*
X150857629Y-95107142D02*
X150810010Y-95059523D01*
X150810010Y-95059523D02*
X150762391Y-94964285D01*
X150762391Y-94964285D02*
X150762391Y-94726190D01*
X150762391Y-94726190D02*
X150810010Y-94583333D01*
X151238581Y-94154761D02*
X151238581Y-93821428D01*
X151762391Y-93678571D02*
X151762391Y-94154761D01*
X151762391Y-94154761D02*
X150762391Y-94154761D01*
X150762391Y-94154761D02*
X150762391Y-93678571D01*
X167076466Y-97785713D02*
X167076466Y-97023809D01*
X167457419Y-97404761D02*
X166695514Y-97404761D01*
X166457419Y-96071428D02*
X166457419Y-96547618D01*
X166457419Y-96547618D02*
X166933609Y-96595237D01*
X166933609Y-96595237D02*
X166885990Y-96547618D01*
X166885990Y-96547618D02*
X166838371Y-96452380D01*
X166838371Y-96452380D02*
X166838371Y-96214285D01*
X166838371Y-96214285D02*
X166885990Y-96119047D01*
X166885990Y-96119047D02*
X166933609Y-96071428D01*
X166933609Y-96071428D02*
X167028847Y-96023809D01*
X167028847Y-96023809D02*
X167266942Y-96023809D01*
X167266942Y-96023809D02*
X167362180Y-96071428D01*
X167362180Y-96071428D02*
X167409800Y-96119047D01*
X167409800Y-96119047D02*
X167457419Y-96214285D01*
X167457419Y-96214285D02*
X167457419Y-96452380D01*
X167457419Y-96452380D02*
X167409800Y-96547618D01*
X167409800Y-96547618D02*
X167362180Y-96595237D01*
X166457419Y-95738094D02*
X167457419Y-95404761D01*
X167457419Y-95404761D02*
X166457419Y-95071428D01*
D11*
X175071428Y-92749757D02*
X175785714Y-92749757D01*
X174928571Y-93178328D02*
X175428571Y-91678328D01*
X175428571Y-91678328D02*
X175928571Y-93178328D01*
X176428570Y-92392614D02*
X176928570Y-92392614D01*
X177142856Y-93178328D02*
X176428570Y-93178328D01*
X176428570Y-93178328D02*
X176428570Y-91678328D01*
X176428570Y-91678328D02*
X177142856Y-91678328D01*
X178642856Y-93178328D02*
X178142856Y-92464042D01*
X177785713Y-93178328D02*
X177785713Y-91678328D01*
X177785713Y-91678328D02*
X178357142Y-91678328D01*
X178357142Y-91678328D02*
X178499999Y-91749757D01*
X178499999Y-91749757D02*
X178571428Y-91821185D01*
X178571428Y-91821185D02*
X178642856Y-91964042D01*
X178642856Y-91964042D02*
X178642856Y-92178328D01*
X178642856Y-92178328D02*
X178571428Y-92321185D01*
X178571428Y-92321185D02*
X178499999Y-92392614D01*
X178499999Y-92392614D02*
X178357142Y-92464042D01*
X178357142Y-92464042D02*
X177785713Y-92464042D01*
X179285713Y-93178328D02*
X179285713Y-91678328D01*
X179928571Y-93106900D02*
X180142857Y-93178328D01*
X180142857Y-93178328D02*
X180499999Y-93178328D01*
X180499999Y-93178328D02*
X180642857Y-93106900D01*
X180642857Y-93106900D02*
X180714285Y-93035471D01*
X180714285Y-93035471D02*
X180785714Y-92892614D01*
X180785714Y-92892614D02*
X180785714Y-92749757D01*
X180785714Y-92749757D02*
X180714285Y-92606900D01*
X180714285Y-92606900D02*
X180642857Y-92535471D01*
X180642857Y-92535471D02*
X180499999Y-92464042D01*
X180499999Y-92464042D02*
X180214285Y-92392614D01*
X180214285Y-92392614D02*
X180071428Y-92321185D01*
X180071428Y-92321185D02*
X179999999Y-92249757D01*
X179999999Y-92249757D02*
X179928571Y-92106900D01*
X179928571Y-92106900D02*
X179928571Y-91964042D01*
X179928571Y-91964042D02*
X179999999Y-91821185D01*
X179999999Y-91821185D02*
X180071428Y-91749757D01*
X180071428Y-91749757D02*
X180214285Y-91678328D01*
X180214285Y-91678328D02*
X180571428Y-91678328D01*
X180571428Y-91678328D02*
X180785714Y-91749757D01*
X182571427Y-93178328D02*
X182571427Y-91678328D01*
X182571427Y-91678328D02*
X183428570Y-93178328D01*
X183428570Y-93178328D02*
X183428570Y-91678328D01*
X184071428Y-92749757D02*
X184785714Y-92749757D01*
X183928571Y-93178328D02*
X184428571Y-91678328D01*
X184428571Y-91678328D02*
X184928571Y-93178328D01*
X185428570Y-93178328D02*
X185428570Y-91678328D01*
X185428570Y-91678328D02*
X186285713Y-93178328D01*
X186285713Y-93178328D02*
X186285713Y-91678328D01*
X187285714Y-91678328D02*
X187571428Y-91678328D01*
X187571428Y-91678328D02*
X187714285Y-91749757D01*
X187714285Y-91749757D02*
X187857142Y-91892614D01*
X187857142Y-91892614D02*
X187928571Y-92178328D01*
X187928571Y-92178328D02*
X187928571Y-92678328D01*
X187928571Y-92678328D02*
X187857142Y-92964042D01*
X187857142Y-92964042D02*
X187714285Y-93106900D01*
X187714285Y-93106900D02*
X187571428Y-93178328D01*
X187571428Y-93178328D02*
X187285714Y-93178328D01*
X187285714Y-93178328D02*
X187142857Y-93106900D01*
X187142857Y-93106900D02*
X186999999Y-92964042D01*
X186999999Y-92964042D02*
X186928571Y-92678328D01*
X186928571Y-92678328D02*
X186928571Y-92178328D01*
X186928571Y-92178328D02*
X186999999Y-91892614D01*
X186999999Y-91892614D02*
X187142857Y-91749757D01*
X187142857Y-91749757D02*
X187285714Y-91678328D01*
D10*
X154785714Y-93409800D02*
X154928571Y-93457419D01*
X154928571Y-93457419D02*
X155166666Y-93457419D01*
X155166666Y-93457419D02*
X155261904Y-93409800D01*
X155261904Y-93409800D02*
X155309523Y-93362180D01*
X155309523Y-93362180D02*
X155357142Y-93266942D01*
X155357142Y-93266942D02*
X155357142Y-93171704D01*
X155357142Y-93171704D02*
X155309523Y-93076466D01*
X155309523Y-93076466D02*
X155261904Y-93028847D01*
X155261904Y-93028847D02*
X155166666Y-92981228D01*
X155166666Y-92981228D02*
X154976190Y-92933609D01*
X154976190Y-92933609D02*
X154880952Y-92885990D01*
X154880952Y-92885990D02*
X154833333Y-92838371D01*
X154833333Y-92838371D02*
X154785714Y-92743133D01*
X154785714Y-92743133D02*
X154785714Y-92647895D01*
X154785714Y-92647895D02*
X154833333Y-92552657D01*
X154833333Y-92552657D02*
X154880952Y-92505038D01*
X154880952Y-92505038D02*
X154976190Y-92457419D01*
X154976190Y-92457419D02*
X155214285Y-92457419D01*
X155214285Y-92457419D02*
X155357142Y-92505038D01*
X155785714Y-93457419D02*
X155785714Y-92457419D01*
X155785714Y-92457419D02*
X156023809Y-92457419D01*
X156023809Y-92457419D02*
X156166666Y-92505038D01*
X156166666Y-92505038D02*
X156261904Y-92600276D01*
X156261904Y-92600276D02*
X156309523Y-92695514D01*
X156309523Y-92695514D02*
X156357142Y-92885990D01*
X156357142Y-92885990D02*
X156357142Y-93028847D01*
X156357142Y-93028847D02*
X156309523Y-93219323D01*
X156309523Y-93219323D02*
X156261904Y-93314561D01*
X156261904Y-93314561D02*
X156166666Y-93409800D01*
X156166666Y-93409800D02*
X156023809Y-93457419D01*
X156023809Y-93457419D02*
X155785714Y-93457419D01*
X156738095Y-93171704D02*
X157214285Y-93171704D01*
X156642857Y-93457419D02*
X156976190Y-92457419D01*
X156976190Y-92457419D02*
X157309523Y-93457419D01*
X154714286Y-100576466D02*
X155476191Y-100576466D01*
X155095238Y-100957419D02*
X155095238Y-100195514D01*
X156428571Y-99957419D02*
X155952381Y-99957419D01*
X155952381Y-99957419D02*
X155904762Y-100433609D01*
X155904762Y-100433609D02*
X155952381Y-100385990D01*
X155952381Y-100385990D02*
X156047619Y-100338371D01*
X156047619Y-100338371D02*
X156285714Y-100338371D01*
X156285714Y-100338371D02*
X156380952Y-100385990D01*
X156380952Y-100385990D02*
X156428571Y-100433609D01*
X156428571Y-100433609D02*
X156476190Y-100528847D01*
X156476190Y-100528847D02*
X156476190Y-100766942D01*
X156476190Y-100766942D02*
X156428571Y-100862180D01*
X156428571Y-100862180D02*
X156380952Y-100909800D01*
X156380952Y-100909800D02*
X156285714Y-100957419D01*
X156285714Y-100957419D02*
X156047619Y-100957419D01*
X156047619Y-100957419D02*
X155952381Y-100909800D01*
X155952381Y-100909800D02*
X155904762Y-100862180D01*
X156761905Y-99957419D02*
X157095238Y-100957419D01*
X157095238Y-100957419D02*
X157428571Y-99957419D01*
X155238095Y-97505038D02*
X155142857Y-97457419D01*
X155142857Y-97457419D02*
X155000000Y-97457419D01*
X155000000Y-97457419D02*
X154857143Y-97505038D01*
X154857143Y-97505038D02*
X154761905Y-97600276D01*
X154761905Y-97600276D02*
X154714286Y-97695514D01*
X154714286Y-97695514D02*
X154666667Y-97885990D01*
X154666667Y-97885990D02*
X154666667Y-98028847D01*
X154666667Y-98028847D02*
X154714286Y-98219323D01*
X154714286Y-98219323D02*
X154761905Y-98314561D01*
X154761905Y-98314561D02*
X154857143Y-98409800D01*
X154857143Y-98409800D02*
X155000000Y-98457419D01*
X155000000Y-98457419D02*
X155095238Y-98457419D01*
X155095238Y-98457419D02*
X155238095Y-98409800D01*
X155238095Y-98409800D02*
X155285714Y-98362180D01*
X155285714Y-98362180D02*
X155285714Y-98028847D01*
X155285714Y-98028847D02*
X155095238Y-98028847D01*
X155714286Y-98457419D02*
X155714286Y-97457419D01*
X155714286Y-97457419D02*
X156285714Y-98457419D01*
X156285714Y-98457419D02*
X156285714Y-97457419D01*
X156761905Y-98457419D02*
X156761905Y-97457419D01*
X156761905Y-97457419D02*
X157000000Y-97457419D01*
X157000000Y-97457419D02*
X157142857Y-97505038D01*
X157142857Y-97505038D02*
X157238095Y-97600276D01*
X157238095Y-97600276D02*
X157285714Y-97695514D01*
X157285714Y-97695514D02*
X157333333Y-97885990D01*
X157333333Y-97885990D02*
X157333333Y-98028847D01*
X157333333Y-98028847D02*
X157285714Y-98219323D01*
X157285714Y-98219323D02*
X157238095Y-98314561D01*
X157238095Y-98314561D02*
X157142857Y-98409800D01*
X157142857Y-98409800D02*
X157000000Y-98457419D01*
X157000000Y-98457419D02*
X156761905Y-98457419D01*
X164005038Y-97261904D02*
X163957419Y-97357142D01*
X163957419Y-97357142D02*
X163957419Y-97499999D01*
X163957419Y-97499999D02*
X164005038Y-97642856D01*
X164005038Y-97642856D02*
X164100276Y-97738094D01*
X164100276Y-97738094D02*
X164195514Y-97785713D01*
X164195514Y-97785713D02*
X164385990Y-97833332D01*
X164385990Y-97833332D02*
X164528847Y-97833332D01*
X164528847Y-97833332D02*
X164719323Y-97785713D01*
X164719323Y-97785713D02*
X164814561Y-97738094D01*
X164814561Y-97738094D02*
X164909800Y-97642856D01*
X164909800Y-97642856D02*
X164957419Y-97499999D01*
X164957419Y-97499999D02*
X164957419Y-97404761D01*
X164957419Y-97404761D02*
X164909800Y-97261904D01*
X164909800Y-97261904D02*
X164862180Y-97214285D01*
X164862180Y-97214285D02*
X164528847Y-97214285D01*
X164528847Y-97214285D02*
X164528847Y-97404761D01*
X164957419Y-96785713D02*
X163957419Y-96785713D01*
X163957419Y-96785713D02*
X164957419Y-96214285D01*
X164957419Y-96214285D02*
X163957419Y-96214285D01*
X164957419Y-95738094D02*
X163957419Y-95738094D01*
X163957419Y-95738094D02*
X163957419Y-95499999D01*
X163957419Y-95499999D02*
X164005038Y-95357142D01*
X164005038Y-95357142D02*
X164100276Y-95261904D01*
X164100276Y-95261904D02*
X164195514Y-95214285D01*
X164195514Y-95214285D02*
X164385990Y-95166666D01*
X164385990Y-95166666D02*
X164528847Y-95166666D01*
X164528847Y-95166666D02*
X164719323Y-95214285D01*
X164719323Y-95214285D02*
X164814561Y-95261904D01*
X164814561Y-95261904D02*
X164909800Y-95357142D01*
X164909800Y-95357142D02*
X164957419Y-95499999D01*
X164957419Y-95499999D02*
X164957419Y-95738094D01*
X184976191Y-93957419D02*
X185309524Y-94957419D01*
X185309524Y-94957419D02*
X185642857Y-93957419D01*
X186500000Y-94957419D02*
X185928572Y-94957419D01*
X186214286Y-94957419D02*
X186214286Y-93957419D01*
X186214286Y-93957419D02*
X186119048Y-94100276D01*
X186119048Y-94100276D02*
X186023810Y-94195514D01*
X186023810Y-94195514D02*
X185928572Y-94243133D01*
X186928572Y-94862180D02*
X186976191Y-94909800D01*
X186976191Y-94909800D02*
X186928572Y-94957419D01*
X186928572Y-94957419D02*
X186880953Y-94909800D01*
X186880953Y-94909800D02*
X186928572Y-94862180D01*
X186928572Y-94862180D02*
X186928572Y-94957419D01*
X187595238Y-93957419D02*
X187690476Y-93957419D01*
X187690476Y-93957419D02*
X187785714Y-94005038D01*
X187785714Y-94005038D02*
X187833333Y-94052657D01*
X187833333Y-94052657D02*
X187880952Y-94147895D01*
X187880952Y-94147895D02*
X187928571Y-94338371D01*
X187928571Y-94338371D02*
X187928571Y-94576466D01*
X187928571Y-94576466D02*
X187880952Y-94766942D01*
X187880952Y-94766942D02*
X187833333Y-94862180D01*
X187833333Y-94862180D02*
X187785714Y-94909800D01*
X187785714Y-94909800D02*
X187690476Y-94957419D01*
X187690476Y-94957419D02*
X187595238Y-94957419D01*
X187595238Y-94957419D02*
X187500000Y-94909800D01*
X187500000Y-94909800D02*
X187452381Y-94862180D01*
X187452381Y-94862180D02*
X187404762Y-94766942D01*
X187404762Y-94766942D02*
X187357143Y-94576466D01*
X187357143Y-94576466D02*
X187357143Y-94338371D01*
X187357143Y-94338371D02*
X187404762Y-94147895D01*
X187404762Y-94147895D02*
X187452381Y-94052657D01*
X187452381Y-94052657D02*
X187500000Y-94005038D01*
X187500000Y-94005038D02*
X187595238Y-93957419D01*
X164833333Y-99604828D02*
X164976190Y-99652447D01*
X164976190Y-99652447D02*
X165214285Y-99652447D01*
X165214285Y-99652447D02*
X165309523Y-99604828D01*
X165309523Y-99604828D02*
X165357142Y-99557208D01*
X165357142Y-99557208D02*
X165404761Y-99461970D01*
X165404761Y-99461970D02*
X165404761Y-99366732D01*
X165404761Y-99366732D02*
X165357142Y-99271494D01*
X165357142Y-99271494D02*
X165309523Y-99223875D01*
X165309523Y-99223875D02*
X165214285Y-99176256D01*
X165214285Y-99176256D02*
X165023809Y-99128637D01*
X165023809Y-99128637D02*
X164928571Y-99081018D01*
X164928571Y-99081018D02*
X164880952Y-99033399D01*
X164880952Y-99033399D02*
X164833333Y-98938161D01*
X164833333Y-98938161D02*
X164833333Y-98842923D01*
X164833333Y-98842923D02*
X164880952Y-98747685D01*
X164880952Y-98747685D02*
X164928571Y-98700066D01*
X164928571Y-98700066D02*
X165023809Y-98652447D01*
X165023809Y-98652447D02*
X165261904Y-98652447D01*
X165261904Y-98652447D02*
X165404761Y-98700066D01*
X165785714Y-99604828D02*
X165928571Y-99652447D01*
X165928571Y-99652447D02*
X166166666Y-99652447D01*
X166166666Y-99652447D02*
X166261904Y-99604828D01*
X166261904Y-99604828D02*
X166309523Y-99557208D01*
X166309523Y-99557208D02*
X166357142Y-99461970D01*
X166357142Y-99461970D02*
X166357142Y-99366732D01*
X166357142Y-99366732D02*
X166309523Y-99271494D01*
X166309523Y-99271494D02*
X166261904Y-99223875D01*
X166261904Y-99223875D02*
X166166666Y-99176256D01*
X166166666Y-99176256D02*
X165976190Y-99128637D01*
X165976190Y-99128637D02*
X165880952Y-99081018D01*
X165880952Y-99081018D02*
X165833333Y-99033399D01*
X165833333Y-99033399D02*
X165785714Y-98938161D01*
X165785714Y-98938161D02*
X165785714Y-98842923D01*
X165785714Y-98842923D02*
X165833333Y-98747685D01*
X165833333Y-98747685D02*
X165880952Y-98700066D01*
X165880952Y-98700066D02*
X165976190Y-98652447D01*
X165976190Y-98652447D02*
X166214285Y-98652447D01*
X166214285Y-98652447D02*
X166357142Y-98700066D01*
X166785714Y-99652447D02*
X166785714Y-98652447D01*
X166785714Y-98652447D02*
X167023809Y-98652447D01*
X167023809Y-98652447D02*
X167166666Y-98700066D01*
X167166666Y-98700066D02*
X167261904Y-98795304D01*
X167261904Y-98795304D02*
X167309523Y-98890542D01*
X167309523Y-98890542D02*
X167357142Y-99081018D01*
X167357142Y-99081018D02*
X167357142Y-99223875D01*
X167357142Y-99223875D02*
X167309523Y-99414351D01*
X167309523Y-99414351D02*
X167261904Y-99509589D01*
X167261904Y-99509589D02*
X167166666Y-99604828D01*
X167166666Y-99604828D02*
X167023809Y-99652447D01*
X167023809Y-99652447D02*
X166785714Y-99652447D01*
X168309523Y-99652447D02*
X167738095Y-99652447D01*
X168023809Y-99652447D02*
X168023809Y-98652447D01*
X168023809Y-98652447D02*
X167928571Y-98795304D01*
X167928571Y-98795304D02*
X167833333Y-98890542D01*
X167833333Y-98890542D02*
X167738095Y-98938161D01*
X168642857Y-98652447D02*
X169261904Y-98652447D01*
X169261904Y-98652447D02*
X168928571Y-99033399D01*
X168928571Y-99033399D02*
X169071428Y-99033399D01*
X169071428Y-99033399D02*
X169166666Y-99081018D01*
X169166666Y-99081018D02*
X169214285Y-99128637D01*
X169214285Y-99128637D02*
X169261904Y-99223875D01*
X169261904Y-99223875D02*
X169261904Y-99461970D01*
X169261904Y-99461970D02*
X169214285Y-99557208D01*
X169214285Y-99557208D02*
X169166666Y-99604828D01*
X169166666Y-99604828D02*
X169071428Y-99652447D01*
X169071428Y-99652447D02*
X168785714Y-99652447D01*
X168785714Y-99652447D02*
X168690476Y-99604828D01*
X168690476Y-99604828D02*
X168642857Y-99557208D01*
X169880952Y-98652447D02*
X169976190Y-98652447D01*
X169976190Y-98652447D02*
X170071428Y-98700066D01*
X170071428Y-98700066D02*
X170119047Y-98747685D01*
X170119047Y-98747685D02*
X170166666Y-98842923D01*
X170166666Y-98842923D02*
X170214285Y-99033399D01*
X170214285Y-99033399D02*
X170214285Y-99271494D01*
X170214285Y-99271494D02*
X170166666Y-99461970D01*
X170166666Y-99461970D02*
X170119047Y-99557208D01*
X170119047Y-99557208D02*
X170071428Y-99604828D01*
X170071428Y-99604828D02*
X169976190Y-99652447D01*
X169976190Y-99652447D02*
X169880952Y-99652447D01*
X169880952Y-99652447D02*
X169785714Y-99604828D01*
X169785714Y-99604828D02*
X169738095Y-99557208D01*
X169738095Y-99557208D02*
X169690476Y-99461970D01*
X169690476Y-99461970D02*
X169642857Y-99271494D01*
X169642857Y-99271494D02*
X169642857Y-99033399D01*
X169642857Y-99033399D02*
X169690476Y-98842923D01*
X169690476Y-98842923D02*
X169738095Y-98747685D01*
X169738095Y-98747685D02*
X169785714Y-98700066D01*
X169785714Y-98700066D02*
X169880952Y-98652447D01*
X171071428Y-98652447D02*
X170880952Y-98652447D01*
X170880952Y-98652447D02*
X170785714Y-98700066D01*
X170785714Y-98700066D02*
X170738095Y-98747685D01*
X170738095Y-98747685D02*
X170642857Y-98890542D01*
X170642857Y-98890542D02*
X170595238Y-99081018D01*
X170595238Y-99081018D02*
X170595238Y-99461970D01*
X170595238Y-99461970D02*
X170642857Y-99557208D01*
X170642857Y-99557208D02*
X170690476Y-99604828D01*
X170690476Y-99604828D02*
X170785714Y-99652447D01*
X170785714Y-99652447D02*
X170976190Y-99652447D01*
X170976190Y-99652447D02*
X171071428Y-99604828D01*
X171071428Y-99604828D02*
X171119047Y-99557208D01*
X171119047Y-99557208D02*
X171166666Y-99461970D01*
X171166666Y-99461970D02*
X171166666Y-99223875D01*
X171166666Y-99223875D02*
X171119047Y-99128637D01*
X171119047Y-99128637D02*
X171071428Y-99081018D01*
X171071428Y-99081018D02*
X170976190Y-99033399D01*
X170976190Y-99033399D02*
X170785714Y-99033399D01*
X170785714Y-99033399D02*
X170690476Y-99081018D01*
X170690476Y-99081018D02*
X170642857Y-99128637D01*
X170642857Y-99128637D02*
X170595238Y-99223875D01*
X165976190Y-101262391D02*
X165404762Y-101262391D01*
X165690476Y-101262391D02*
X165690476Y-100262391D01*
X165690476Y-100262391D02*
X165595238Y-100405248D01*
X165595238Y-100405248D02*
X165500000Y-100500486D01*
X165500000Y-100500486D02*
X165404762Y-100548105D01*
X166357143Y-100357629D02*
X166404762Y-100310010D01*
X166404762Y-100310010D02*
X166500000Y-100262391D01*
X166500000Y-100262391D02*
X166738095Y-100262391D01*
X166738095Y-100262391D02*
X166833333Y-100310010D01*
X166833333Y-100310010D02*
X166880952Y-100357629D01*
X166880952Y-100357629D02*
X166928571Y-100452867D01*
X166928571Y-100452867D02*
X166928571Y-100548105D01*
X166928571Y-100548105D02*
X166880952Y-100690962D01*
X166880952Y-100690962D02*
X166309524Y-101262391D01*
X166309524Y-101262391D02*
X166928571Y-101262391D01*
X167500000Y-100690962D02*
X167404762Y-100643343D01*
X167404762Y-100643343D02*
X167357143Y-100595724D01*
X167357143Y-100595724D02*
X167309524Y-100500486D01*
X167309524Y-100500486D02*
X167309524Y-100452867D01*
X167309524Y-100452867D02*
X167357143Y-100357629D01*
X167357143Y-100357629D02*
X167404762Y-100310010D01*
X167404762Y-100310010D02*
X167500000Y-100262391D01*
X167500000Y-100262391D02*
X167690476Y-100262391D01*
X167690476Y-100262391D02*
X167785714Y-100310010D01*
X167785714Y-100310010D02*
X167833333Y-100357629D01*
X167833333Y-100357629D02*
X167880952Y-100452867D01*
X167880952Y-100452867D02*
X167880952Y-100500486D01*
X167880952Y-100500486D02*
X167833333Y-100595724D01*
X167833333Y-100595724D02*
X167785714Y-100643343D01*
X167785714Y-100643343D02*
X167690476Y-100690962D01*
X167690476Y-100690962D02*
X167500000Y-100690962D01*
X167500000Y-100690962D02*
X167404762Y-100738581D01*
X167404762Y-100738581D02*
X167357143Y-100786200D01*
X167357143Y-100786200D02*
X167309524Y-100881438D01*
X167309524Y-100881438D02*
X167309524Y-101071914D01*
X167309524Y-101071914D02*
X167357143Y-101167152D01*
X167357143Y-101167152D02*
X167404762Y-101214772D01*
X167404762Y-101214772D02*
X167500000Y-101262391D01*
X167500000Y-101262391D02*
X167690476Y-101262391D01*
X167690476Y-101262391D02*
X167785714Y-101214772D01*
X167785714Y-101214772D02*
X167833333Y-101167152D01*
X167833333Y-101167152D02*
X167880952Y-101071914D01*
X167880952Y-101071914D02*
X167880952Y-100881438D01*
X167880952Y-100881438D02*
X167833333Y-100786200D01*
X167833333Y-100786200D02*
X167785714Y-100738581D01*
X167785714Y-100738581D02*
X167690476Y-100690962D01*
X168214286Y-101262391D02*
X168738095Y-100595724D01*
X168214286Y-100595724D02*
X168738095Y-101262391D01*
X169547619Y-100262391D02*
X169357143Y-100262391D01*
X169357143Y-100262391D02*
X169261905Y-100310010D01*
X169261905Y-100310010D02*
X169214286Y-100357629D01*
X169214286Y-100357629D02*
X169119048Y-100500486D01*
X169119048Y-100500486D02*
X169071429Y-100690962D01*
X169071429Y-100690962D02*
X169071429Y-101071914D01*
X169071429Y-101071914D02*
X169119048Y-101167152D01*
X169119048Y-101167152D02*
X169166667Y-101214772D01*
X169166667Y-101214772D02*
X169261905Y-101262391D01*
X169261905Y-101262391D02*
X169452381Y-101262391D01*
X169452381Y-101262391D02*
X169547619Y-101214772D01*
X169547619Y-101214772D02*
X169595238Y-101167152D01*
X169595238Y-101167152D02*
X169642857Y-101071914D01*
X169642857Y-101071914D02*
X169642857Y-100833819D01*
X169642857Y-100833819D02*
X169595238Y-100738581D01*
X169595238Y-100738581D02*
X169547619Y-100690962D01*
X169547619Y-100690962D02*
X169452381Y-100643343D01*
X169452381Y-100643343D02*
X169261905Y-100643343D01*
X169261905Y-100643343D02*
X169166667Y-100690962D01*
X169166667Y-100690962D02*
X169119048Y-100738581D01*
X169119048Y-100738581D02*
X169071429Y-100833819D01*
X170500000Y-100595724D02*
X170500000Y-101262391D01*
X170261905Y-100214772D02*
X170023810Y-100929057D01*
X170023810Y-100929057D02*
X170642857Y-100929057D01*
X154809524Y-95909800D02*
X154952381Y-95957419D01*
X154952381Y-95957419D02*
X155190476Y-95957419D01*
X155190476Y-95957419D02*
X155285714Y-95909800D01*
X155285714Y-95909800D02*
X155333333Y-95862180D01*
X155333333Y-95862180D02*
X155380952Y-95766942D01*
X155380952Y-95766942D02*
X155380952Y-95671704D01*
X155380952Y-95671704D02*
X155333333Y-95576466D01*
X155333333Y-95576466D02*
X155285714Y-95528847D01*
X155285714Y-95528847D02*
X155190476Y-95481228D01*
X155190476Y-95481228D02*
X155000000Y-95433609D01*
X155000000Y-95433609D02*
X154904762Y-95385990D01*
X154904762Y-95385990D02*
X154857143Y-95338371D01*
X154857143Y-95338371D02*
X154809524Y-95243133D01*
X154809524Y-95243133D02*
X154809524Y-95147895D01*
X154809524Y-95147895D02*
X154857143Y-95052657D01*
X154857143Y-95052657D02*
X154904762Y-95005038D01*
X154904762Y-95005038D02*
X155000000Y-94957419D01*
X155000000Y-94957419D02*
X155238095Y-94957419D01*
X155238095Y-94957419D02*
X155380952Y-95005038D01*
X156380952Y-95862180D02*
X156333333Y-95909800D01*
X156333333Y-95909800D02*
X156190476Y-95957419D01*
X156190476Y-95957419D02*
X156095238Y-95957419D01*
X156095238Y-95957419D02*
X155952381Y-95909800D01*
X155952381Y-95909800D02*
X155857143Y-95814561D01*
X155857143Y-95814561D02*
X155809524Y-95719323D01*
X155809524Y-95719323D02*
X155761905Y-95528847D01*
X155761905Y-95528847D02*
X155761905Y-95385990D01*
X155761905Y-95385990D02*
X155809524Y-95195514D01*
X155809524Y-95195514D02*
X155857143Y-95100276D01*
X155857143Y-95100276D02*
X155952381Y-95005038D01*
X155952381Y-95005038D02*
X156095238Y-94957419D01*
X156095238Y-94957419D02*
X156190476Y-94957419D01*
X156190476Y-94957419D02*
X156333333Y-95005038D01*
X156333333Y-95005038D02*
X156380952Y-95052657D01*
X157285714Y-95957419D02*
X156809524Y-95957419D01*
X156809524Y-95957419D02*
X156809524Y-94957419D01*
D12*
%TO.C,J1*%
X163120000Y-94380000D02*
X163120000Y-93000000D01*
X164500000Y-94380000D02*
X163120000Y-94380000D01*
X165770000Y-91620000D02*
X173500000Y-91620000D01*
X165770000Y-94380000D02*
X165770000Y-91620000D01*
X165770000Y-94380000D02*
X173500000Y-94380000D01*
X173500000Y-94380000D02*
X173500000Y-91620000D01*
D13*
%TO.C,REF\u002A\u002A*%
X183200322Y-122746917D02*
X183224035Y-122761687D01*
X183250686Y-122783267D01*
X183250686Y-123104813D01*
X183250601Y-123198870D01*
X183250237Y-123272972D01*
X183249432Y-123329744D01*
X183248021Y-123371808D01*
X183245841Y-123401788D01*
X183242729Y-123422307D01*
X183238522Y-123435989D01*
X183233056Y-123445456D01*
X183229180Y-123450122D01*
X183197742Y-123470615D01*
X183161941Y-123469779D01*
X183130581Y-123452304D01*
X183103930Y-123430724D01*
X183103930Y-122783267D01*
X183130581Y-122761687D01*
X183156302Y-122745989D01*
X183177308Y-122740107D01*
X183200322Y-122746917D01*
G36*
X183200322Y-122746917D02*
G01*
X183224035Y-122761687D01*
X183250686Y-122783267D01*
X183250686Y-123104813D01*
X183250601Y-123198870D01*
X183250237Y-123272972D01*
X183249432Y-123329744D01*
X183248021Y-123371808D01*
X183245841Y-123401788D01*
X183242729Y-123422307D01*
X183238522Y-123435989D01*
X183233056Y-123445456D01*
X183229180Y-123450122D01*
X183197742Y-123470615D01*
X183161941Y-123469779D01*
X183130581Y-123452304D01*
X183103930Y-123430724D01*
X183103930Y-122783267D01*
X183130581Y-122761687D01*
X183156302Y-122745989D01*
X183177308Y-122740107D01*
X183200322Y-122746917D01*
G37*
X176087886Y-122762685D02*
X176094466Y-122770258D01*
X176099629Y-122780027D01*
X176103544Y-122794611D01*
X176106384Y-122816625D01*
X176108321Y-122848688D01*
X176109525Y-122893415D01*
X176110169Y-122953425D01*
X176110424Y-123031334D01*
X176110463Y-123106996D01*
X176110394Y-123200842D01*
X176110070Y-123274729D01*
X176109322Y-123331272D01*
X176107976Y-123373089D01*
X176105862Y-123402797D01*
X176102808Y-123423013D01*
X176098642Y-123436354D01*
X176093192Y-123445438D01*
X176087886Y-123451307D01*
X176054882Y-123470987D01*
X176019717Y-123469221D01*
X175988253Y-123447757D01*
X175981024Y-123439377D01*
X175975374Y-123429654D01*
X175971109Y-123415901D01*
X175968035Y-123395429D01*
X175965956Y-123365552D01*
X175964678Y-123323581D01*
X175964007Y-123266829D01*
X175963749Y-123192607D01*
X175963708Y-123108577D01*
X175963708Y-122795525D01*
X175991417Y-122767816D01*
X176025571Y-122744503D01*
X176058702Y-122743663D01*
X176087886Y-122762685D01*
G36*
X176087886Y-122762685D02*
G01*
X176094466Y-122770258D01*
X176099629Y-122780027D01*
X176103544Y-122794611D01*
X176106384Y-122816625D01*
X176108321Y-122848688D01*
X176109525Y-122893415D01*
X176110169Y-122953425D01*
X176110424Y-123031334D01*
X176110463Y-123106996D01*
X176110394Y-123200842D01*
X176110070Y-123274729D01*
X176109322Y-123331272D01*
X176107976Y-123373089D01*
X176105862Y-123402797D01*
X176102808Y-123423013D01*
X176098642Y-123436354D01*
X176093192Y-123445438D01*
X176087886Y-123451307D01*
X176054882Y-123470987D01*
X176019717Y-123469221D01*
X175988253Y-123447757D01*
X175981024Y-123439377D01*
X175975374Y-123429654D01*
X175971109Y-123415901D01*
X175968035Y-123395429D01*
X175965956Y-123365552D01*
X175964678Y-123323581D01*
X175964007Y-123266829D01*
X175963749Y-123192607D01*
X175963708Y-123108577D01*
X175963708Y-122795525D01*
X175991417Y-122767816D01*
X176025571Y-122744503D01*
X176058702Y-122743663D01*
X176087886Y-122762685D01*
G37*
X176273921Y-116141338D02*
X176377027Y-116177086D01*
X176473022Y-116233355D01*
X176558753Y-116310136D01*
X176631070Y-116407421D01*
X176663555Y-116468740D01*
X176691668Y-116554508D01*
X176705295Y-116653525D01*
X176703786Y-116755319D01*
X176687031Y-116847562D01*
X176641237Y-116960280D01*
X176574832Y-117058055D01*
X176491191Y-117138963D01*
X176393688Y-117201080D01*
X176285700Y-117242482D01*
X176170601Y-117261245D01*
X176051766Y-117255446D01*
X175993189Y-117243054D01*
X175879028Y-117198645D01*
X175777635Y-117130881D01*
X175691455Y-117041849D01*
X175622934Y-116933639D01*
X175617136Y-116921821D01*
X175597096Y-116877476D01*
X175584513Y-116840128D01*
X175577681Y-116800728D01*
X175574895Y-116750229D01*
X175574432Y-116695281D01*
X175575197Y-116629263D01*
X175578648Y-116581537D01*
X175586523Y-116542951D01*
X175600557Y-116504354D01*
X175617880Y-116466274D01*
X175682495Y-116358176D01*
X175762066Y-116270651D01*
X175853440Y-116203689D01*
X175953464Y-116157284D01*
X176058988Y-116131429D01*
X176166858Y-116126116D01*
X176273921Y-116141338D01*
G36*
X176273921Y-116141338D02*
G01*
X176377027Y-116177086D01*
X176473022Y-116233355D01*
X176558753Y-116310136D01*
X176631070Y-116407421D01*
X176663555Y-116468740D01*
X176691668Y-116554508D01*
X176705295Y-116653525D01*
X176703786Y-116755319D01*
X176687031Y-116847562D01*
X176641237Y-116960280D01*
X176574832Y-117058055D01*
X176491191Y-117138963D01*
X176393688Y-117201080D01*
X176285700Y-117242482D01*
X176170601Y-117261245D01*
X176051766Y-117255446D01*
X175993189Y-117243054D01*
X175879028Y-117198645D01*
X175777635Y-117130881D01*
X175691455Y-117041849D01*
X175622934Y-116933639D01*
X175617136Y-116921821D01*
X175597096Y-116877476D01*
X175584513Y-116840128D01*
X175577681Y-116800728D01*
X175574895Y-116750229D01*
X175574432Y-116695281D01*
X175575197Y-116629263D01*
X175578648Y-116581537D01*
X175586523Y-116542951D01*
X175600557Y-116504354D01*
X175617880Y-116466274D01*
X175682495Y-116358176D01*
X175762066Y-116270651D01*
X175853440Y-116203689D01*
X175953464Y-116157284D01*
X176058988Y-116131429D01*
X176166858Y-116126116D01*
X176273921Y-116141338D01*
G37*
X183974773Y-122740203D02*
X184053480Y-122740582D01*
X184114571Y-122741373D01*
X184160525Y-122742710D01*
X184193822Y-122744723D01*
X184216944Y-122747546D01*
X184232370Y-122751309D01*
X184242579Y-122756145D01*
X184247521Y-122759862D01*
X184273165Y-122792398D01*
X184276267Y-122826178D01*
X184260419Y-122856866D01*
X184250056Y-122869129D01*
X184238904Y-122877490D01*
X184222743Y-122882697D01*
X184197350Y-122885497D01*
X184158506Y-122886636D01*
X184101988Y-122886861D01*
X184090888Y-122886862D01*
X183944952Y-122886862D01*
X183944952Y-123157796D01*
X183944856Y-123243194D01*
X183944419Y-123308904D01*
X183943420Y-123357814D01*
X183941636Y-123392813D01*
X183938845Y-123416789D01*
X183934825Y-123432633D01*
X183929353Y-123443231D01*
X183922374Y-123451307D01*
X183889442Y-123471152D01*
X183855062Y-123469588D01*
X183823884Y-123446946D01*
X183821594Y-123444140D01*
X183814137Y-123433532D01*
X183808455Y-123421121D01*
X183804309Y-123403890D01*
X183801458Y-123378824D01*
X183799662Y-123342907D01*
X183798680Y-123293123D01*
X183798272Y-123226457D01*
X183798197Y-123150629D01*
X183798197Y-122886862D01*
X183658835Y-122886862D01*
X183599030Y-122886458D01*
X183557626Y-122884880D01*
X183530456Y-122881587D01*
X183513354Y-122876032D01*
X183502151Y-122867671D01*
X183500791Y-122866218D01*
X183484433Y-122832979D01*
X183485880Y-122795402D01*
X183504686Y-122762685D01*
X183511958Y-122756338D01*
X183521335Y-122751306D01*
X183535317Y-122747436D01*
X183556404Y-122744577D01*
X183587097Y-122742575D01*
X183629897Y-122741279D01*
X183687303Y-122740538D01*
X183761818Y-122740198D01*
X183855941Y-122740108D01*
X183875968Y-122740107D01*
X183974773Y-122740203D01*
G36*
X183974773Y-122740203D02*
G01*
X184053480Y-122740582D01*
X184114571Y-122741373D01*
X184160525Y-122742710D01*
X184193822Y-122744723D01*
X184216944Y-122747546D01*
X184232370Y-122751309D01*
X184242579Y-122756145D01*
X184247521Y-122759862D01*
X184273165Y-122792398D01*
X184276267Y-122826178D01*
X184260419Y-122856866D01*
X184250056Y-122869129D01*
X184238904Y-122877490D01*
X184222743Y-122882697D01*
X184197350Y-122885497D01*
X184158506Y-122886636D01*
X184101988Y-122886861D01*
X184090888Y-122886862D01*
X183944952Y-122886862D01*
X183944952Y-123157796D01*
X183944856Y-123243194D01*
X183944419Y-123308904D01*
X183943420Y-123357814D01*
X183941636Y-123392813D01*
X183938845Y-123416789D01*
X183934825Y-123432633D01*
X183929353Y-123443231D01*
X183922374Y-123451307D01*
X183889442Y-123471152D01*
X183855062Y-123469588D01*
X183823884Y-123446946D01*
X183821594Y-123444140D01*
X183814137Y-123433532D01*
X183808455Y-123421121D01*
X183804309Y-123403890D01*
X183801458Y-123378824D01*
X183799662Y-123342907D01*
X183798680Y-123293123D01*
X183798272Y-123226457D01*
X183798197Y-123150629D01*
X183798197Y-122886862D01*
X183658835Y-122886862D01*
X183599030Y-122886458D01*
X183557626Y-122884880D01*
X183530456Y-122881587D01*
X183513354Y-122876032D01*
X183502151Y-122867671D01*
X183500791Y-122866218D01*
X183484433Y-122832979D01*
X183485880Y-122795402D01*
X183504686Y-122762685D01*
X183511958Y-122756338D01*
X183521335Y-122751306D01*
X183535317Y-122747436D01*
X183556404Y-122744577D01*
X183587097Y-122742575D01*
X183629897Y-122741279D01*
X183687303Y-122740538D01*
X183761818Y-122740198D01*
X183855941Y-122740108D01*
X183875968Y-122740107D01*
X183974773Y-122740203D01*
G37*
X185240531Y-122745573D02*
X185271910Y-122767816D01*
X185299619Y-122795525D01*
X185299619Y-123104960D01*
X185299546Y-123196839D01*
X185299203Y-123268880D01*
X185298400Y-123323820D01*
X185296949Y-123364400D01*
X185294660Y-123393357D01*
X185291344Y-123413431D01*
X185286813Y-123427361D01*
X185280877Y-123437885D01*
X185276222Y-123444140D01*
X185245491Y-123468713D01*
X185210204Y-123471381D01*
X185177953Y-123456311D01*
X185167296Y-123447414D01*
X185160172Y-123435597D01*
X185155875Y-123416566D01*
X185153699Y-123386032D01*
X185152936Y-123339702D01*
X185152863Y-123303911D01*
X185152863Y-123169085D01*
X184656152Y-123169085D01*
X184656152Y-123291740D01*
X184655639Y-123347827D01*
X184653584Y-123386373D01*
X184649216Y-123412401D01*
X184641764Y-123430937D01*
X184632755Y-123444140D01*
X184601852Y-123468644D01*
X184566904Y-123471546D01*
X184533446Y-123454129D01*
X184524312Y-123444999D01*
X184517860Y-123432895D01*
X184513605Y-123414041D01*
X184511060Y-123384660D01*
X184509737Y-123340977D01*
X184509151Y-123279215D01*
X184509083Y-123265040D01*
X184508599Y-123148671D01*
X184508349Y-123052767D01*
X184508431Y-122975217D01*
X184508939Y-122913909D01*
X184509970Y-122866730D01*
X184511621Y-122831570D01*
X184513987Y-122806316D01*
X184517165Y-122788857D01*
X184521252Y-122777081D01*
X184526342Y-122768875D01*
X184531974Y-122762685D01*
X184563836Y-122742884D01*
X184597065Y-122745573D01*
X184628443Y-122767816D01*
X184641141Y-122782166D01*
X184649234Y-122798018D01*
X184653750Y-122820594D01*
X184655714Y-122855118D01*
X184656152Y-122906816D01*
X184656152Y-123022329D01*
X185152863Y-123022329D01*
X185152863Y-122903796D01*
X185153370Y-122849188D01*
X185155406Y-122812315D01*
X185159743Y-122788347D01*
X185167155Y-122772455D01*
X185175441Y-122762685D01*
X185207302Y-122742884D01*
X185240531Y-122745573D01*
G36*
X185240531Y-122745573D02*
G01*
X185271910Y-122767816D01*
X185299619Y-122795525D01*
X185299619Y-123104960D01*
X185299546Y-123196839D01*
X185299203Y-123268880D01*
X185298400Y-123323820D01*
X185296949Y-123364400D01*
X185294660Y-123393357D01*
X185291344Y-123413431D01*
X185286813Y-123427361D01*
X185280877Y-123437885D01*
X185276222Y-123444140D01*
X185245491Y-123468713D01*
X185210204Y-123471381D01*
X185177953Y-123456311D01*
X185167296Y-123447414D01*
X185160172Y-123435597D01*
X185155875Y-123416566D01*
X185153699Y-123386032D01*
X185152936Y-123339702D01*
X185152863Y-123303911D01*
X185152863Y-123169085D01*
X184656152Y-123169085D01*
X184656152Y-123291740D01*
X184655639Y-123347827D01*
X184653584Y-123386373D01*
X184649216Y-123412401D01*
X184641764Y-123430937D01*
X184632755Y-123444140D01*
X184601852Y-123468644D01*
X184566904Y-123471546D01*
X184533446Y-123454129D01*
X184524312Y-123444999D01*
X184517860Y-123432895D01*
X184513605Y-123414041D01*
X184511060Y-123384660D01*
X184509737Y-123340977D01*
X184509151Y-123279215D01*
X184509083Y-123265040D01*
X184508599Y-123148671D01*
X184508349Y-123052767D01*
X184508431Y-122975217D01*
X184508939Y-122913909D01*
X184509970Y-122866730D01*
X184511621Y-122831570D01*
X184513987Y-122806316D01*
X184517165Y-122788857D01*
X184521252Y-122777081D01*
X184526342Y-122768875D01*
X184531974Y-122762685D01*
X184563836Y-122742884D01*
X184597065Y-122745573D01*
X184628443Y-122767816D01*
X184641141Y-122782166D01*
X184649234Y-122798018D01*
X184653750Y-122820594D01*
X184655714Y-122855118D01*
X184656152Y-122906816D01*
X184656152Y-123022329D01*
X185152863Y-123022329D01*
X185152863Y-122903796D01*
X185153370Y-122849188D01*
X185155406Y-122812315D01*
X185159743Y-122788347D01*
X185167155Y-122772455D01*
X185175441Y-122762685D01*
X185207302Y-122742884D01*
X185240531Y-122745573D01*
G37*
X180030017Y-122740315D02*
X180158996Y-122744676D01*
X180268699Y-122757901D01*
X180360934Y-122780781D01*
X180437510Y-122814110D01*
X180500235Y-122858678D01*
X180550920Y-122915276D01*
X180591371Y-122984698D01*
X180592167Y-122986391D01*
X180616309Y-123048523D01*
X180624911Y-123103549D01*
X180617939Y-123158927D01*
X180595362Y-123222113D01*
X180591080Y-123231729D01*
X180561880Y-123288006D01*
X180529064Y-123331491D01*
X180486710Y-123368457D01*
X180428898Y-123405175D01*
X180425539Y-123407092D01*
X180375212Y-123431267D01*
X180318329Y-123449322D01*
X180251235Y-123461879D01*
X180170273Y-123469562D01*
X180071790Y-123472993D01*
X180036994Y-123473291D01*
X179871302Y-123473885D01*
X179847905Y-123444140D01*
X179840965Y-123434359D01*
X179835550Y-123422937D01*
X179831473Y-123407135D01*
X179828545Y-123384215D01*
X179826575Y-123351436D01*
X179825933Y-123327129D01*
X179825376Y-123306061D01*
X179824758Y-123245351D01*
X179824533Y-123166566D01*
X179824508Y-123104960D01*
X179824508Y-122886862D01*
X179982552Y-122886862D01*
X179982552Y-123327129D01*
X180076434Y-123327129D01*
X180131372Y-123325523D01*
X180187768Y-123321295D01*
X180234053Y-123315332D01*
X180236847Y-123314830D01*
X180319056Y-123292776D01*
X180382822Y-123259640D01*
X180430160Y-123213887D01*
X180463090Y-123153979D01*
X180468816Y-123138101D01*
X180474429Y-123113373D01*
X180471999Y-123088942D01*
X180460175Y-123056440D01*
X180453048Y-123040474D01*
X180429708Y-122998046D01*
X180401588Y-122968280D01*
X180370648Y-122947551D01*
X180308674Y-122920577D01*
X180229359Y-122901038D01*
X180136961Y-122889786D01*
X180070041Y-122887310D01*
X179982552Y-122886862D01*
X179824508Y-122886862D01*
X179824508Y-122795525D01*
X179852217Y-122767816D01*
X179864514Y-122756584D01*
X179877811Y-122748893D01*
X179896380Y-122744080D01*
X179924494Y-122741486D01*
X179966425Y-122740450D01*
X180026445Y-122740310D01*
X180030017Y-122740315D01*
G36*
X180030017Y-122740315D02*
G01*
X180158996Y-122744676D01*
X180268699Y-122757901D01*
X180360934Y-122780781D01*
X180437510Y-122814110D01*
X180500235Y-122858678D01*
X180550920Y-122915276D01*
X180591371Y-122984698D01*
X180592167Y-122986391D01*
X180616309Y-123048523D01*
X180624911Y-123103549D01*
X180617939Y-123158927D01*
X180595362Y-123222113D01*
X180591080Y-123231729D01*
X180561880Y-123288006D01*
X180529064Y-123331491D01*
X180486710Y-123368457D01*
X180428898Y-123405175D01*
X180425539Y-123407092D01*
X180375212Y-123431267D01*
X180318329Y-123449322D01*
X180251235Y-123461879D01*
X180170273Y-123469562D01*
X180071790Y-123472993D01*
X180036994Y-123473291D01*
X179871302Y-123473885D01*
X179847905Y-123444140D01*
X179840965Y-123434359D01*
X179835550Y-123422937D01*
X179831473Y-123407135D01*
X179828545Y-123384215D01*
X179826575Y-123351436D01*
X179825933Y-123327129D01*
X179825376Y-123306061D01*
X179824758Y-123245351D01*
X179824533Y-123166566D01*
X179824508Y-123104960D01*
X179824508Y-122886862D01*
X179982552Y-122886862D01*
X179982552Y-123327129D01*
X180076434Y-123327129D01*
X180131372Y-123325523D01*
X180187768Y-123321295D01*
X180234053Y-123315332D01*
X180236847Y-123314830D01*
X180319056Y-123292776D01*
X180382822Y-123259640D01*
X180430160Y-123213887D01*
X180463090Y-123153979D01*
X180468816Y-123138101D01*
X180474429Y-123113373D01*
X180471999Y-123088942D01*
X180460175Y-123056440D01*
X180453048Y-123040474D01*
X180429708Y-122998046D01*
X180401588Y-122968280D01*
X180370648Y-122947551D01*
X180308674Y-122920577D01*
X180229359Y-122901038D01*
X180136961Y-122889786D01*
X180070041Y-122887310D01*
X179982552Y-122886862D01*
X179824508Y-122886862D01*
X179824508Y-122795525D01*
X179852217Y-122767816D01*
X179864514Y-122756584D01*
X179877811Y-122748893D01*
X179896380Y-122744080D01*
X179924494Y-122741486D01*
X179966425Y-122740450D01*
X180026445Y-122740310D01*
X180030017Y-122740315D01*
G37*
X172890337Y-122740106D02*
X172929819Y-122740507D01*
X173045508Y-122743299D01*
X173142397Y-122751590D01*
X173223789Y-122766272D01*
X173292985Y-122788233D01*
X173353288Y-122818362D01*
X173408000Y-122857550D01*
X173427541Y-122874572D01*
X173459958Y-122914403D01*
X173489188Y-122968453D01*
X173511717Y-123028363D01*
X173524029Y-123085779D01*
X173525308Y-123106996D01*
X173517291Y-123165809D01*
X173495809Y-123230053D01*
X173464709Y-123290861D01*
X173427842Y-123339370D01*
X173421854Y-123345222D01*
X173371129Y-123386361D01*
X173315583Y-123418475D01*
X173252012Y-123442405D01*
X173177214Y-123458993D01*
X173087986Y-123469081D01*
X172981126Y-123473509D01*
X172932180Y-123473885D01*
X172869946Y-123473585D01*
X172826180Y-123472332D01*
X172796777Y-123469594D01*
X172777629Y-123464841D01*
X172764631Y-123457541D01*
X172757663Y-123451307D01*
X172751082Y-123443734D01*
X172745920Y-123433964D01*
X172742005Y-123419380D01*
X172739165Y-123397366D01*
X172737228Y-123365304D01*
X172736200Y-123327129D01*
X172881841Y-123327129D01*
X172974974Y-123327044D01*
X173031015Y-123325436D01*
X173089709Y-123321296D01*
X173138680Y-123315504D01*
X173140170Y-123315266D01*
X173219316Y-123296130D01*
X173280706Y-123266327D01*
X173327403Y-123223918D01*
X173357073Y-123178001D01*
X173375355Y-123127066D01*
X173373937Y-123079240D01*
X173352720Y-123027973D01*
X173311219Y-122974939D01*
X173253710Y-122935640D01*
X173178958Y-122909371D01*
X173129000Y-122900075D01*
X173072292Y-122893547D01*
X173012189Y-122888822D01*
X172961069Y-122886857D01*
X172958041Y-122886848D01*
X172881841Y-122886862D01*
X172881841Y-123327129D01*
X172736200Y-123327129D01*
X172736024Y-123320576D01*
X172735380Y-123260566D01*
X172735125Y-123182657D01*
X172735086Y-123106996D01*
X172734838Y-123006081D01*
X172734891Y-122925467D01*
X172735851Y-122886862D01*
X172736448Y-122862891D01*
X172740710Y-122816095D01*
X172748878Y-122782818D01*
X172762152Y-122760799D01*
X172781734Y-122747779D01*
X172808825Y-122741497D01*
X172844626Y-122739693D01*
X172890337Y-122740106D01*
G36*
X172890337Y-122740106D02*
G01*
X172929819Y-122740507D01*
X173045508Y-122743299D01*
X173142397Y-122751590D01*
X173223789Y-122766272D01*
X173292985Y-122788233D01*
X173353288Y-122818362D01*
X173408000Y-122857550D01*
X173427541Y-122874572D01*
X173459958Y-122914403D01*
X173489188Y-122968453D01*
X173511717Y-123028363D01*
X173524029Y-123085779D01*
X173525308Y-123106996D01*
X173517291Y-123165809D01*
X173495809Y-123230053D01*
X173464709Y-123290861D01*
X173427842Y-123339370D01*
X173421854Y-123345222D01*
X173371129Y-123386361D01*
X173315583Y-123418475D01*
X173252012Y-123442405D01*
X173177214Y-123458993D01*
X173087986Y-123469081D01*
X172981126Y-123473509D01*
X172932180Y-123473885D01*
X172869946Y-123473585D01*
X172826180Y-123472332D01*
X172796777Y-123469594D01*
X172777629Y-123464841D01*
X172764631Y-123457541D01*
X172757663Y-123451307D01*
X172751082Y-123443734D01*
X172745920Y-123433964D01*
X172742005Y-123419380D01*
X172739165Y-123397366D01*
X172737228Y-123365304D01*
X172736200Y-123327129D01*
X172881841Y-123327129D01*
X172974974Y-123327044D01*
X173031015Y-123325436D01*
X173089709Y-123321296D01*
X173138680Y-123315504D01*
X173140170Y-123315266D01*
X173219316Y-123296130D01*
X173280706Y-123266327D01*
X173327403Y-123223918D01*
X173357073Y-123178001D01*
X173375355Y-123127066D01*
X173373937Y-123079240D01*
X173352720Y-123027973D01*
X173311219Y-122974939D01*
X173253710Y-122935640D01*
X173178958Y-122909371D01*
X173129000Y-122900075D01*
X173072292Y-122893547D01*
X173012189Y-122888822D01*
X172961069Y-122886857D01*
X172958041Y-122886848D01*
X172881841Y-122886862D01*
X172881841Y-123327129D01*
X172736200Y-123327129D01*
X172736024Y-123320576D01*
X172735380Y-123260566D01*
X172735125Y-123182657D01*
X172735086Y-123106996D01*
X172734838Y-123006081D01*
X172734891Y-122925467D01*
X172735851Y-122886862D01*
X172736448Y-122862891D01*
X172740710Y-122816095D01*
X172748878Y-122782818D01*
X172762152Y-122760799D01*
X172781734Y-122747779D01*
X172808825Y-122741497D01*
X172844626Y-122739693D01*
X172890337Y-122740106D01*
G37*
X177711594Y-122744488D02*
X177735160Y-122758313D01*
X177765973Y-122780921D01*
X177805630Y-122813378D01*
X177855728Y-122856748D01*
X177917865Y-122912098D01*
X177993636Y-122980491D01*
X178080374Y-123059124D01*
X178260997Y-123222918D01*
X178266641Y-123003069D01*
X178268679Y-122927391D01*
X178270645Y-122871034D01*
X178272974Y-122830746D01*
X178276102Y-122803275D01*
X178280463Y-122785369D01*
X178286492Y-122773777D01*
X178294624Y-122765248D01*
X178298936Y-122761663D01*
X178333467Y-122742710D01*
X178366325Y-122745481D01*
X178392390Y-122761673D01*
X178419041Y-122783239D01*
X178422356Y-123098191D01*
X178423273Y-123190819D01*
X178423740Y-123263584D01*
X178423595Y-123319201D01*
X178422676Y-123360382D01*
X178420821Y-123389843D01*
X178417869Y-123410295D01*
X178413658Y-123424453D01*
X178408026Y-123435031D01*
X178401781Y-123443514D01*
X178388269Y-123459247D01*
X178374825Y-123469676D01*
X178359584Y-123473679D01*
X178340682Y-123470134D01*
X178316253Y-123457919D01*
X178284435Y-123435911D01*
X178243360Y-123402989D01*
X178191166Y-123358031D01*
X178125986Y-123299915D01*
X178052152Y-123233139D01*
X177786863Y-122992498D01*
X177781219Y-123211629D01*
X177779177Y-123287168D01*
X177777206Y-123343394D01*
X177774869Y-123383564D01*
X177771727Y-123410936D01*
X177767344Y-123428768D01*
X177761284Y-123440319D01*
X177753108Y-123448847D01*
X177748924Y-123452322D01*
X177711943Y-123471412D01*
X177677000Y-123468533D01*
X177646572Y-123444140D01*
X177639611Y-123434326D01*
X177634185Y-123422866D01*
X177630105Y-123407008D01*
X177627179Y-123384003D01*
X177625216Y-123351102D01*
X177624025Y-123305556D01*
X177623416Y-123244613D01*
X177623197Y-123165526D01*
X177623174Y-123106996D01*
X177623248Y-123015447D01*
X177623595Y-122943727D01*
X177624407Y-122889085D01*
X177625875Y-122848772D01*
X177628189Y-122820038D01*
X177631541Y-122800133D01*
X177636120Y-122786308D01*
X177642119Y-122775812D01*
X177646572Y-122769851D01*
X177657858Y-122755731D01*
X177668407Y-122745069D01*
X177679815Y-122738932D01*
X177693678Y-122738383D01*
X177711594Y-122744488D01*
G36*
X177711594Y-122744488D02*
G01*
X177735160Y-122758313D01*
X177765973Y-122780921D01*
X177805630Y-122813378D01*
X177855728Y-122856748D01*
X177917865Y-122912098D01*
X177993636Y-122980491D01*
X178080374Y-123059124D01*
X178260997Y-123222918D01*
X178266641Y-123003069D01*
X178268679Y-122927391D01*
X178270645Y-122871034D01*
X178272974Y-122830746D01*
X178276102Y-122803275D01*
X178280463Y-122785369D01*
X178286492Y-122773777D01*
X178294624Y-122765248D01*
X178298936Y-122761663D01*
X178333467Y-122742710D01*
X178366325Y-122745481D01*
X178392390Y-122761673D01*
X178419041Y-122783239D01*
X178422356Y-123098191D01*
X178423273Y-123190819D01*
X178423740Y-123263584D01*
X178423595Y-123319201D01*
X178422676Y-123360382D01*
X178420821Y-123389843D01*
X178417869Y-123410295D01*
X178413658Y-123424453D01*
X178408026Y-123435031D01*
X178401781Y-123443514D01*
X178388269Y-123459247D01*
X178374825Y-123469676D01*
X178359584Y-123473679D01*
X178340682Y-123470134D01*
X178316253Y-123457919D01*
X178284435Y-123435911D01*
X178243360Y-123402989D01*
X178191166Y-123358031D01*
X178125986Y-123299915D01*
X178052152Y-123233139D01*
X177786863Y-122992498D01*
X177781219Y-123211629D01*
X177779177Y-123287168D01*
X177777206Y-123343394D01*
X177774869Y-123383564D01*
X177771727Y-123410936D01*
X177767344Y-123428768D01*
X177761284Y-123440319D01*
X177753108Y-123448847D01*
X177748924Y-123452322D01*
X177711943Y-123471412D01*
X177677000Y-123468533D01*
X177646572Y-123444140D01*
X177639611Y-123434326D01*
X177634185Y-123422866D01*
X177630105Y-123407008D01*
X177627179Y-123384003D01*
X177625216Y-123351102D01*
X177624025Y-123305556D01*
X177623416Y-123244613D01*
X177623197Y-123165526D01*
X177623174Y-123106996D01*
X177623248Y-123015447D01*
X177623595Y-122943727D01*
X177624407Y-122889085D01*
X177625875Y-122848772D01*
X177628189Y-122820038D01*
X177631541Y-122800133D01*
X177636120Y-122786308D01*
X177642119Y-122775812D01*
X177646572Y-122769851D01*
X177657858Y-122755731D01*
X177668407Y-122745069D01*
X177679815Y-122738932D01*
X177693678Y-122738383D01*
X177711594Y-122744488D01*
G37*
X177061627Y-122745639D02*
X177130143Y-122757135D01*
X177182765Y-122775007D01*
X177217000Y-122798539D01*
X177226329Y-122811964D01*
X177235815Y-122843188D01*
X177229431Y-122871435D01*
X177209278Y-122898222D01*
X177177963Y-122910753D01*
X177132525Y-122909736D01*
X177097382Y-122902946D01*
X177019289Y-122890011D01*
X176939482Y-122888782D01*
X176850153Y-122899281D01*
X176825479Y-122903730D01*
X176742417Y-122927148D01*
X176677435Y-122961985D01*
X176631247Y-123007644D01*
X176604563Y-123063534D01*
X176599045Y-123092428D01*
X176602657Y-123151052D01*
X176625979Y-123202919D01*
X176666884Y-123247018D01*
X176723249Y-123282339D01*
X176792948Y-123307869D01*
X176873856Y-123322599D01*
X176963848Y-123325518D01*
X177060798Y-123315615D01*
X177066272Y-123314681D01*
X177104833Y-123307499D01*
X177126214Y-123300561D01*
X177135481Y-123290267D01*
X177137702Y-123273016D01*
X177137752Y-123263881D01*
X177137752Y-123225529D01*
X177069277Y-123225529D01*
X177008808Y-123221387D01*
X176967543Y-123208187D01*
X176943533Y-123184770D01*
X176934831Y-123149976D01*
X176934725Y-123145434D01*
X176939816Y-123115694D01*
X176957275Y-123094459D01*
X176989769Y-123080406D01*
X177039965Y-123072213D01*
X177088585Y-123069201D01*
X177159252Y-123067473D01*
X177210510Y-123070110D01*
X177245469Y-123079840D01*
X177267238Y-123099393D01*
X177278928Y-123131496D01*
X177283648Y-123178878D01*
X177284508Y-123241111D01*
X177283099Y-123310575D01*
X177278860Y-123357826D01*
X177271772Y-123383052D01*
X177270397Y-123385028D01*
X177231480Y-123416548D01*
X177174422Y-123441510D01*
X177102839Y-123459380D01*
X177020350Y-123469626D01*
X176930569Y-123471713D01*
X176837116Y-123465108D01*
X176782152Y-123456996D01*
X176695942Y-123432594D01*
X176615816Y-123392702D01*
X176548731Y-123340927D01*
X176538535Y-123330579D01*
X176505406Y-123287075D01*
X176475514Y-123233158D01*
X176452351Y-123176632D01*
X176439410Y-123125299D01*
X176437850Y-123105584D01*
X176444490Y-123064459D01*
X176462140Y-123013292D01*
X176487411Y-122959434D01*
X176516919Y-122910235D01*
X176542989Y-122877374D01*
X176603943Y-122828492D01*
X176682739Y-122789585D01*
X176776551Y-122761534D01*
X176882558Y-122745219D01*
X176979708Y-122741232D01*
X177061627Y-122745639D01*
G36*
X177061627Y-122745639D02*
G01*
X177130143Y-122757135D01*
X177182765Y-122775007D01*
X177217000Y-122798539D01*
X177226329Y-122811964D01*
X177235815Y-122843188D01*
X177229431Y-122871435D01*
X177209278Y-122898222D01*
X177177963Y-122910753D01*
X177132525Y-122909736D01*
X177097382Y-122902946D01*
X177019289Y-122890011D01*
X176939482Y-122888782D01*
X176850153Y-122899281D01*
X176825479Y-122903730D01*
X176742417Y-122927148D01*
X176677435Y-122961985D01*
X176631247Y-123007644D01*
X176604563Y-123063534D01*
X176599045Y-123092428D01*
X176602657Y-123151052D01*
X176625979Y-123202919D01*
X176666884Y-123247018D01*
X176723249Y-123282339D01*
X176792948Y-123307869D01*
X176873856Y-123322599D01*
X176963848Y-123325518D01*
X177060798Y-123315615D01*
X177066272Y-123314681D01*
X177104833Y-123307499D01*
X177126214Y-123300561D01*
X177135481Y-123290267D01*
X177137702Y-123273016D01*
X177137752Y-123263881D01*
X177137752Y-123225529D01*
X177069277Y-123225529D01*
X177008808Y-123221387D01*
X176967543Y-123208187D01*
X176943533Y-123184770D01*
X176934831Y-123149976D01*
X176934725Y-123145434D01*
X176939816Y-123115694D01*
X176957275Y-123094459D01*
X176989769Y-123080406D01*
X177039965Y-123072213D01*
X177088585Y-123069201D01*
X177159252Y-123067473D01*
X177210510Y-123070110D01*
X177245469Y-123079840D01*
X177267238Y-123099393D01*
X177278928Y-123131496D01*
X177283648Y-123178878D01*
X177284508Y-123241111D01*
X177283099Y-123310575D01*
X177278860Y-123357826D01*
X177271772Y-123383052D01*
X177270397Y-123385028D01*
X177231480Y-123416548D01*
X177174422Y-123441510D01*
X177102839Y-123459380D01*
X177020350Y-123469626D01*
X176930569Y-123471713D01*
X176837116Y-123465108D01*
X176782152Y-123456996D01*
X176695942Y-123432594D01*
X176615816Y-123392702D01*
X176548731Y-123340927D01*
X176538535Y-123330579D01*
X176505406Y-123287075D01*
X176475514Y-123233158D01*
X176452351Y-123176632D01*
X176439410Y-123125299D01*
X176437850Y-123105584D01*
X176444490Y-123064459D01*
X176462140Y-123013292D01*
X176487411Y-122959434D01*
X176516919Y-122910235D01*
X176542989Y-122877374D01*
X176603943Y-122828492D01*
X176682739Y-122789585D01*
X176776551Y-122761534D01*
X176882558Y-122745219D01*
X176979708Y-122741232D01*
X177061627Y-122745639D01*
G37*
X179242051Y-122740300D02*
X179318409Y-122741214D01*
X179376925Y-122743351D01*
X179419963Y-122747215D01*
X179449891Y-122753307D01*
X179469076Y-122762130D01*
X179479884Y-122774186D01*
X179484681Y-122789979D01*
X179485835Y-122810010D01*
X179485841Y-122812375D01*
X179484839Y-122835032D01*
X179480104Y-122852543D01*
X179469041Y-122865614D01*
X179449056Y-122874953D01*
X179417554Y-122881267D01*
X179371940Y-122885262D01*
X179309621Y-122887646D01*
X179228001Y-122889126D01*
X179202985Y-122889454D01*
X178960908Y-122892507D01*
X178957522Y-122957418D01*
X178954137Y-123022329D01*
X179122284Y-123022329D01*
X179187974Y-123022571D01*
X179234880Y-123023596D01*
X179266791Y-123025851D01*
X179287499Y-123029782D01*
X179300792Y-123035838D01*
X179310463Y-123044464D01*
X179310525Y-123044533D01*
X179328064Y-123078152D01*
X179327430Y-123114488D01*
X179309022Y-123145463D01*
X179305379Y-123148647D01*
X179292449Y-123156852D01*
X179274732Y-123162561D01*
X179248278Y-123166202D01*
X179209140Y-123168207D01*
X179153370Y-123169004D01*
X179117702Y-123169085D01*
X178955263Y-123169085D01*
X178955263Y-123327129D01*
X179201869Y-123327129D01*
X179283288Y-123327271D01*
X179345118Y-123327854D01*
X179390345Y-123329108D01*
X179421956Y-123331267D01*
X179442939Y-123334563D01*
X179456281Y-123339229D01*
X179464969Y-123345497D01*
X179467158Y-123347773D01*
X179483322Y-123379320D01*
X179484505Y-123415208D01*
X179471244Y-123446325D01*
X179460751Y-123456311D01*
X179449837Y-123461809D01*
X179432925Y-123466062D01*
X179407341Y-123469220D01*
X179370409Y-123471432D01*
X179319454Y-123472846D01*
X179251802Y-123473612D01*
X179164777Y-123473878D01*
X179145102Y-123473885D01*
X179056619Y-123473827D01*
X178987935Y-123473507D01*
X178936272Y-123472707D01*
X178898853Y-123471207D01*
X178872898Y-123468789D01*
X178855630Y-123465234D01*
X178844270Y-123460322D01*
X178836040Y-123453835D01*
X178831525Y-123449178D01*
X178824729Y-123440929D01*
X178819420Y-123430709D01*
X178815414Y-123415840D01*
X178812529Y-123393642D01*
X178810582Y-123361433D01*
X178809389Y-123316536D01*
X178808769Y-123256268D01*
X178808537Y-123177951D01*
X178808508Y-123112034D01*
X178808579Y-123019668D01*
X178808916Y-122947157D01*
X178809706Y-122891777D01*
X178811134Y-122850805D01*
X178813387Y-122821518D01*
X178816651Y-122801193D01*
X178821112Y-122787106D01*
X178826956Y-122776535D01*
X178831905Y-122769851D01*
X178855302Y-122740107D01*
X179145482Y-122740107D01*
X179242051Y-122740300D01*
G36*
X179242051Y-122740300D02*
G01*
X179318409Y-122741214D01*
X179376925Y-122743351D01*
X179419963Y-122747215D01*
X179449891Y-122753307D01*
X179469076Y-122762130D01*
X179479884Y-122774186D01*
X179484681Y-122789979D01*
X179485835Y-122810010D01*
X179485841Y-122812375D01*
X179484839Y-122835032D01*
X179480104Y-122852543D01*
X179469041Y-122865614D01*
X179449056Y-122874953D01*
X179417554Y-122881267D01*
X179371940Y-122885262D01*
X179309621Y-122887646D01*
X179228001Y-122889126D01*
X179202985Y-122889454D01*
X178960908Y-122892507D01*
X178957522Y-122957418D01*
X178954137Y-123022329D01*
X179122284Y-123022329D01*
X179187974Y-123022571D01*
X179234880Y-123023596D01*
X179266791Y-123025851D01*
X179287499Y-123029782D01*
X179300792Y-123035838D01*
X179310463Y-123044464D01*
X179310525Y-123044533D01*
X179328064Y-123078152D01*
X179327430Y-123114488D01*
X179309022Y-123145463D01*
X179305379Y-123148647D01*
X179292449Y-123156852D01*
X179274732Y-123162561D01*
X179248278Y-123166202D01*
X179209140Y-123168207D01*
X179153370Y-123169004D01*
X179117702Y-123169085D01*
X178955263Y-123169085D01*
X178955263Y-123327129D01*
X179201869Y-123327129D01*
X179283288Y-123327271D01*
X179345118Y-123327854D01*
X179390345Y-123329108D01*
X179421956Y-123331267D01*
X179442939Y-123334563D01*
X179456281Y-123339229D01*
X179464969Y-123345497D01*
X179467158Y-123347773D01*
X179483322Y-123379320D01*
X179484505Y-123415208D01*
X179471244Y-123446325D01*
X179460751Y-123456311D01*
X179449837Y-123461809D01*
X179432925Y-123466062D01*
X179407341Y-123469220D01*
X179370409Y-123471432D01*
X179319454Y-123472846D01*
X179251802Y-123473612D01*
X179164777Y-123473878D01*
X179145102Y-123473885D01*
X179056619Y-123473827D01*
X178987935Y-123473507D01*
X178936272Y-123472707D01*
X178898853Y-123471207D01*
X178872898Y-123468789D01*
X178855630Y-123465234D01*
X178844270Y-123460322D01*
X178836040Y-123453835D01*
X178831525Y-123449178D01*
X178824729Y-123440929D01*
X178819420Y-123430709D01*
X178815414Y-123415840D01*
X178812529Y-123393642D01*
X178810582Y-123361433D01*
X178809389Y-123316536D01*
X178808769Y-123256268D01*
X178808537Y-123177951D01*
X178808508Y-123112034D01*
X178808579Y-123019668D01*
X178808916Y-122947157D01*
X178809706Y-122891777D01*
X178811134Y-122850805D01*
X178813387Y-122821518D01*
X178816651Y-122801193D01*
X178821112Y-122787106D01*
X178826956Y-122776535D01*
X178831905Y-122769851D01*
X178855302Y-122740107D01*
X179145482Y-122740107D01*
X179242051Y-122740300D01*
G37*
X174298914Y-122740186D02*
X174368322Y-122740558D01*
X174420711Y-122741425D01*
X174458861Y-122742986D01*
X174485549Y-122745443D01*
X174503555Y-122748997D01*
X174515659Y-122753850D01*
X174524639Y-122760201D01*
X174527890Y-122763124D01*
X174547665Y-122794182D01*
X174551226Y-122829868D01*
X174538217Y-122861550D01*
X174532202Y-122867953D01*
X174522473Y-122874161D01*
X174506807Y-122878950D01*
X174482300Y-122882554D01*
X174446047Y-122885204D01*
X174395143Y-122887135D01*
X174326682Y-122888579D01*
X174264091Y-122889458D01*
X174016374Y-122892507D01*
X174012989Y-122957418D01*
X174009603Y-123022329D01*
X174177750Y-123022329D01*
X174250749Y-123022959D01*
X174304191Y-123025593D01*
X174341080Y-123031349D01*
X174364420Y-123041344D01*
X174377214Y-123056696D01*
X174382466Y-123078522D01*
X174383263Y-123098778D01*
X174380785Y-123123632D01*
X174371431Y-123141946D01*
X174352325Y-123154677D01*
X174320590Y-123162781D01*
X174273349Y-123167216D01*
X174207725Y-123168939D01*
X174171907Y-123169085D01*
X174010730Y-123169085D01*
X174010730Y-123327129D01*
X174259086Y-123327129D01*
X174340495Y-123327242D01*
X174402366Y-123327752D01*
X174447740Y-123328910D01*
X174479654Y-123330970D01*
X174501149Y-123334186D01*
X174515265Y-123338812D01*
X174525040Y-123345099D01*
X174530019Y-123349707D01*
X174547098Y-123376600D01*
X174552597Y-123400507D01*
X174544745Y-123429707D01*
X174530019Y-123451307D01*
X174522162Y-123458106D01*
X174512020Y-123463386D01*
X174496864Y-123467338D01*
X174473967Y-123470153D01*
X174440599Y-123472022D01*
X174394033Y-123473138D01*
X174331541Y-123473691D01*
X174250394Y-123473873D01*
X174208286Y-123473885D01*
X174118110Y-123473805D01*
X174047784Y-123473438D01*
X173994579Y-123472592D01*
X173955768Y-123471076D01*
X173928621Y-123468699D01*
X173910410Y-123465269D01*
X173898408Y-123460594D01*
X173889886Y-123454484D01*
X173886552Y-123451307D01*
X173879953Y-123443710D01*
X173874781Y-123433910D01*
X173870862Y-123419279D01*
X173868024Y-123397192D01*
X173866093Y-123365022D01*
X173864896Y-123320143D01*
X173864260Y-123259929D01*
X173864011Y-123181753D01*
X173863974Y-123108963D01*
X173864008Y-123015747D01*
X173864243Y-122942471D01*
X173864878Y-122886498D01*
X173866114Y-122845191D01*
X173868152Y-122815912D01*
X173871191Y-122796024D01*
X173875431Y-122782890D01*
X173881073Y-122773872D01*
X173888317Y-122766333D01*
X173890102Y-122764652D01*
X173898763Y-122757212D01*
X173908826Y-122751449D01*
X173923083Y-122747152D01*
X173944325Y-122744104D01*
X173975344Y-122742091D01*
X174018931Y-122740900D01*
X174077877Y-122740315D01*
X174154974Y-122740123D01*
X174209707Y-122740107D01*
X174298914Y-122740186D01*
G36*
X174298914Y-122740186D02*
G01*
X174368322Y-122740558D01*
X174420711Y-122741425D01*
X174458861Y-122742986D01*
X174485549Y-122745443D01*
X174503555Y-122748997D01*
X174515659Y-122753850D01*
X174524639Y-122760201D01*
X174527890Y-122763124D01*
X174547665Y-122794182D01*
X174551226Y-122829868D01*
X174538217Y-122861550D01*
X174532202Y-122867953D01*
X174522473Y-122874161D01*
X174506807Y-122878950D01*
X174482300Y-122882554D01*
X174446047Y-122885204D01*
X174395143Y-122887135D01*
X174326682Y-122888579D01*
X174264091Y-122889458D01*
X174016374Y-122892507D01*
X174012989Y-122957418D01*
X174009603Y-123022329D01*
X174177750Y-123022329D01*
X174250749Y-123022959D01*
X174304191Y-123025593D01*
X174341080Y-123031349D01*
X174364420Y-123041344D01*
X174377214Y-123056696D01*
X174382466Y-123078522D01*
X174383263Y-123098778D01*
X174380785Y-123123632D01*
X174371431Y-123141946D01*
X174352325Y-123154677D01*
X174320590Y-123162781D01*
X174273349Y-123167216D01*
X174207725Y-123168939D01*
X174171907Y-123169085D01*
X174010730Y-123169085D01*
X174010730Y-123327129D01*
X174259086Y-123327129D01*
X174340495Y-123327242D01*
X174402366Y-123327752D01*
X174447740Y-123328910D01*
X174479654Y-123330970D01*
X174501149Y-123334186D01*
X174515265Y-123338812D01*
X174525040Y-123345099D01*
X174530019Y-123349707D01*
X174547098Y-123376600D01*
X174552597Y-123400507D01*
X174544745Y-123429707D01*
X174530019Y-123451307D01*
X174522162Y-123458106D01*
X174512020Y-123463386D01*
X174496864Y-123467338D01*
X174473967Y-123470153D01*
X174440599Y-123472022D01*
X174394033Y-123473138D01*
X174331541Y-123473691D01*
X174250394Y-123473873D01*
X174208286Y-123473885D01*
X174118110Y-123473805D01*
X174047784Y-123473438D01*
X173994579Y-123472592D01*
X173955768Y-123471076D01*
X173928621Y-123468699D01*
X173910410Y-123465269D01*
X173898408Y-123460594D01*
X173889886Y-123454484D01*
X173886552Y-123451307D01*
X173879953Y-123443710D01*
X173874781Y-123433910D01*
X173870862Y-123419279D01*
X173868024Y-123397192D01*
X173866093Y-123365022D01*
X173864896Y-123320143D01*
X173864260Y-123259929D01*
X173864011Y-123181753D01*
X173863974Y-123108963D01*
X173864008Y-123015747D01*
X173864243Y-122942471D01*
X173864878Y-122886498D01*
X173866114Y-122845191D01*
X173868152Y-122815912D01*
X173871191Y-122796024D01*
X173875431Y-122782890D01*
X173881073Y-122773872D01*
X173888317Y-122766333D01*
X173890102Y-122764652D01*
X173898763Y-122757212D01*
X173908826Y-122751449D01*
X173923083Y-122747152D01*
X173944325Y-122744104D01*
X173975344Y-122742091D01*
X174018931Y-122740900D01*
X174077877Y-122740315D01*
X174154974Y-122740123D01*
X174209707Y-122740107D01*
X174298914Y-122740186D01*
G37*
X182756373Y-122742074D02*
X182775963Y-122749075D01*
X182776718Y-122749417D01*
X182803321Y-122769718D01*
X182817978Y-122790601D01*
X182820846Y-122800392D01*
X182820704Y-122813401D01*
X182816669Y-122831935D01*
X182807854Y-122858297D01*
X182793377Y-122894792D01*
X182772353Y-122943727D01*
X182743896Y-123007405D01*
X182707123Y-123088133D01*
X182686883Y-123132256D01*
X182650333Y-123211025D01*
X182616023Y-123283463D01*
X182585260Y-123346920D01*
X182559356Y-123398748D01*
X182539618Y-123436299D01*
X182527358Y-123456924D01*
X182524932Y-123459773D01*
X182493891Y-123472342D01*
X182458829Y-123470659D01*
X182430708Y-123455372D01*
X182429562Y-123454129D01*
X182418376Y-123437194D01*
X182399612Y-123404210D01*
X182375583Y-123359420D01*
X182348605Y-123307072D01*
X182338909Y-123287782D01*
X182265722Y-123141190D01*
X182185948Y-123300433D01*
X182157475Y-123355455D01*
X182131058Y-123403172D01*
X182108856Y-123439933D01*
X182093027Y-123462084D01*
X182087662Y-123466781D01*
X182045965Y-123473142D01*
X182011557Y-123459773D01*
X182001436Y-123445486D01*
X181983922Y-123413732D01*
X181960443Y-123367637D01*
X181932428Y-123310325D01*
X181901307Y-123244920D01*
X181868507Y-123174547D01*
X181835458Y-123102331D01*
X181803589Y-123031395D01*
X181774327Y-122964865D01*
X181749103Y-122905866D01*
X181729344Y-122857521D01*
X181716480Y-122822955D01*
X181711939Y-122805293D01*
X181711985Y-122804653D01*
X181723034Y-122782428D01*
X181745118Y-122759793D01*
X181746418Y-122758808D01*
X181773561Y-122743465D01*
X181798666Y-122743614D01*
X181808076Y-122746506D01*
X181819542Y-122752758D01*
X181831718Y-122765054D01*
X181846065Y-122785948D01*
X181864044Y-122817989D01*
X181887115Y-122863728D01*
X181916738Y-122925717D01*
X181943453Y-122982938D01*
X181974188Y-123049266D01*
X182001729Y-123108914D01*
X182024646Y-123158765D01*
X182041506Y-123195704D01*
X182050881Y-123216613D01*
X182052248Y-123219885D01*
X182058397Y-123214537D01*
X182072530Y-123192149D01*
X182092765Y-123155986D01*
X182117223Y-123109317D01*
X182126956Y-123090062D01*
X182159925Y-123025044D01*
X182185351Y-122977694D01*
X182205320Y-122945259D01*
X182221918Y-122924986D01*
X182237232Y-122914122D01*
X182253348Y-122909915D01*
X182263851Y-122909440D01*
X182282378Y-122911082D01*
X182298612Y-122917871D01*
X182314743Y-122932606D01*
X182332959Y-122958084D01*
X182355447Y-122997101D01*
X182384397Y-123052454D01*
X182400370Y-123083943D01*
X182426278Y-123134127D01*
X182448875Y-123175744D01*
X182466166Y-123205282D01*
X182476158Y-123219229D01*
X182477517Y-123219810D01*
X182483969Y-123208833D01*
X182498416Y-123180330D01*
X182519411Y-123137284D01*
X182545505Y-123082678D01*
X182575254Y-123019494D01*
X182589888Y-122988111D01*
X182627958Y-122907118D01*
X182658613Y-122844796D01*
X182683445Y-122799111D01*
X182704045Y-122768029D01*
X182722006Y-122749518D01*
X182738918Y-122741544D01*
X182756373Y-122742074D01*
G36*
X182756373Y-122742074D02*
G01*
X182775963Y-122749075D01*
X182776718Y-122749417D01*
X182803321Y-122769718D01*
X182817978Y-122790601D01*
X182820846Y-122800392D01*
X182820704Y-122813401D01*
X182816669Y-122831935D01*
X182807854Y-122858297D01*
X182793377Y-122894792D01*
X182772353Y-122943727D01*
X182743896Y-123007405D01*
X182707123Y-123088133D01*
X182686883Y-123132256D01*
X182650333Y-123211025D01*
X182616023Y-123283463D01*
X182585260Y-123346920D01*
X182559356Y-123398748D01*
X182539618Y-123436299D01*
X182527358Y-123456924D01*
X182524932Y-123459773D01*
X182493891Y-123472342D01*
X182458829Y-123470659D01*
X182430708Y-123455372D01*
X182429562Y-123454129D01*
X182418376Y-123437194D01*
X182399612Y-123404210D01*
X182375583Y-123359420D01*
X182348605Y-123307072D01*
X182338909Y-123287782D01*
X182265722Y-123141190D01*
X182185948Y-123300433D01*
X182157475Y-123355455D01*
X182131058Y-123403172D01*
X182108856Y-123439933D01*
X182093027Y-123462084D01*
X182087662Y-123466781D01*
X182045965Y-123473142D01*
X182011557Y-123459773D01*
X182001436Y-123445486D01*
X181983922Y-123413732D01*
X181960443Y-123367637D01*
X181932428Y-123310325D01*
X181901307Y-123244920D01*
X181868507Y-123174547D01*
X181835458Y-123102331D01*
X181803589Y-123031395D01*
X181774327Y-122964865D01*
X181749103Y-122905866D01*
X181729344Y-122857521D01*
X181716480Y-122822955D01*
X181711939Y-122805293D01*
X181711985Y-122804653D01*
X181723034Y-122782428D01*
X181745118Y-122759793D01*
X181746418Y-122758808D01*
X181773561Y-122743465D01*
X181798666Y-122743614D01*
X181808076Y-122746506D01*
X181819542Y-122752758D01*
X181831718Y-122765054D01*
X181846065Y-122785948D01*
X181864044Y-122817989D01*
X181887115Y-122863728D01*
X181916738Y-122925717D01*
X181943453Y-122982938D01*
X181974188Y-123049266D01*
X182001729Y-123108914D01*
X182024646Y-123158765D01*
X182041506Y-123195704D01*
X182050881Y-123216613D01*
X182052248Y-123219885D01*
X182058397Y-123214537D01*
X182072530Y-123192149D01*
X182092765Y-123155986D01*
X182117223Y-123109317D01*
X182126956Y-123090062D01*
X182159925Y-123025044D01*
X182185351Y-122977694D01*
X182205320Y-122945259D01*
X182221918Y-122924986D01*
X182237232Y-122914122D01*
X182253348Y-122909915D01*
X182263851Y-122909440D01*
X182282378Y-122911082D01*
X182298612Y-122917871D01*
X182314743Y-122932606D01*
X182332959Y-122958084D01*
X182355447Y-122997101D01*
X182384397Y-123052454D01*
X182400370Y-123083943D01*
X182426278Y-123134127D01*
X182448875Y-123175744D01*
X182466166Y-123205282D01*
X182476158Y-123219229D01*
X182477517Y-123219810D01*
X182483969Y-123208833D01*
X182498416Y-123180330D01*
X182519411Y-123137284D01*
X182545505Y-123082678D01*
X182575254Y-123019494D01*
X182589888Y-122988111D01*
X182627958Y-122907118D01*
X182658613Y-122844796D01*
X182683445Y-122799111D01*
X182704045Y-122768029D01*
X182722006Y-122749518D01*
X182738918Y-122741544D01*
X182756373Y-122742074D01*
G37*
X175320005Y-122741391D02*
X175394820Y-122746621D01*
X175464402Y-122754790D01*
X175524706Y-122765590D01*
X175571688Y-122778713D01*
X175601302Y-122793853D01*
X175605848Y-122798309D01*
X175621654Y-122832890D01*
X175616861Y-122868391D01*
X175592344Y-122898765D01*
X175591174Y-122899636D01*
X175576754Y-122908994D01*
X175561700Y-122913916D01*
X175540703Y-122914513D01*
X175508451Y-122910901D01*
X175459635Y-122903194D01*
X175455708Y-122902545D01*
X175382969Y-122893609D01*
X175304491Y-122889201D01*
X175225781Y-122889159D01*
X175152347Y-122893319D01*
X175089697Y-122901519D01*
X175043338Y-122913597D01*
X175040292Y-122914811D01*
X175006660Y-122933655D01*
X174994844Y-122952725D01*
X175004094Y-122971479D01*
X175033661Y-122989377D01*
X175082797Y-123005877D01*
X175150751Y-123020436D01*
X175196063Y-123027446D01*
X175290252Y-123040929D01*
X175365164Y-123053254D01*
X175423991Y-123065489D01*
X175469923Y-123078701D01*
X175506153Y-123093957D01*
X175535870Y-123112325D01*
X175562266Y-123134871D01*
X175583478Y-123157011D01*
X175608643Y-123187859D01*
X175621027Y-123214385D01*
X175624900Y-123247066D01*
X175625041Y-123259035D01*
X175622132Y-123298752D01*
X175610506Y-123328299D01*
X175590385Y-123354526D01*
X175549492Y-123394616D01*
X175503891Y-123425189D01*
X175450195Y-123447243D01*
X175385016Y-123461775D01*
X175304964Y-123469781D01*
X175206651Y-123472258D01*
X175190419Y-123472217D01*
X175124859Y-123470858D01*
X175059842Y-123467770D01*
X175002456Y-123463396D01*
X174959786Y-123458180D01*
X174956336Y-123457581D01*
X174913912Y-123447531D01*
X174877928Y-123434836D01*
X174857558Y-123423230D01*
X174838601Y-123392612D01*
X174837281Y-123356958D01*
X174853623Y-123325184D01*
X174857279Y-123321591D01*
X174872393Y-123310916D01*
X174891293Y-123306316D01*
X174920546Y-123307099D01*
X174956057Y-123311167D01*
X174995738Y-123314802D01*
X175051363Y-123317868D01*
X175116302Y-123320093D01*
X175183923Y-123321204D01*
X175201708Y-123321277D01*
X175269580Y-123321004D01*
X175319254Y-123319686D01*
X175355098Y-123316867D01*
X175381484Y-123312090D01*
X175402782Y-123304897D01*
X175415582Y-123298907D01*
X175443708Y-123282273D01*
X175461640Y-123267208D01*
X175464261Y-123262937D01*
X175458732Y-123245303D01*
X175432448Y-123228232D01*
X175387230Y-123212498D01*
X175324900Y-123198878D01*
X175306537Y-123195844D01*
X175210618Y-123180778D01*
X175134067Y-123168186D01*
X175073928Y-123157151D01*
X175027248Y-123146760D01*
X174991071Y-123136096D01*
X174962443Y-123124245D01*
X174938410Y-123110291D01*
X174916016Y-123093321D01*
X174892306Y-123072418D01*
X174884328Y-123065089D01*
X174856355Y-123037739D01*
X174841548Y-123016069D01*
X174835756Y-122991272D01*
X174834819Y-122960023D01*
X174845133Y-122898745D01*
X174875956Y-122846680D01*
X174927113Y-122803998D01*
X174998425Y-122770865D01*
X175049308Y-122756004D01*
X175104608Y-122746406D01*
X175170855Y-122740976D01*
X175244002Y-122739407D01*
X175320005Y-122741391D01*
G36*
X175320005Y-122741391D02*
G01*
X175394820Y-122746621D01*
X175464402Y-122754790D01*
X175524706Y-122765590D01*
X175571688Y-122778713D01*
X175601302Y-122793853D01*
X175605848Y-122798309D01*
X175621654Y-122832890D01*
X175616861Y-122868391D01*
X175592344Y-122898765D01*
X175591174Y-122899636D01*
X175576754Y-122908994D01*
X175561700Y-122913916D01*
X175540703Y-122914513D01*
X175508451Y-122910901D01*
X175459635Y-122903194D01*
X175455708Y-122902545D01*
X175382969Y-122893609D01*
X175304491Y-122889201D01*
X175225781Y-122889159D01*
X175152347Y-122893319D01*
X175089697Y-122901519D01*
X175043338Y-122913597D01*
X175040292Y-122914811D01*
X175006660Y-122933655D01*
X174994844Y-122952725D01*
X175004094Y-122971479D01*
X175033661Y-122989377D01*
X175082797Y-123005877D01*
X175150751Y-123020436D01*
X175196063Y-123027446D01*
X175290252Y-123040929D01*
X175365164Y-123053254D01*
X175423991Y-123065489D01*
X175469923Y-123078701D01*
X175506153Y-123093957D01*
X175535870Y-123112325D01*
X175562266Y-123134871D01*
X175583478Y-123157011D01*
X175608643Y-123187859D01*
X175621027Y-123214385D01*
X175624900Y-123247066D01*
X175625041Y-123259035D01*
X175622132Y-123298752D01*
X175610506Y-123328299D01*
X175590385Y-123354526D01*
X175549492Y-123394616D01*
X175503891Y-123425189D01*
X175450195Y-123447243D01*
X175385016Y-123461775D01*
X175304964Y-123469781D01*
X175206651Y-123472258D01*
X175190419Y-123472217D01*
X175124859Y-123470858D01*
X175059842Y-123467770D01*
X175002456Y-123463396D01*
X174959786Y-123458180D01*
X174956336Y-123457581D01*
X174913912Y-123447531D01*
X174877928Y-123434836D01*
X174857558Y-123423230D01*
X174838601Y-123392612D01*
X174837281Y-123356958D01*
X174853623Y-123325184D01*
X174857279Y-123321591D01*
X174872393Y-123310916D01*
X174891293Y-123306316D01*
X174920546Y-123307099D01*
X174956057Y-123311167D01*
X174995738Y-123314802D01*
X175051363Y-123317868D01*
X175116302Y-123320093D01*
X175183923Y-123321204D01*
X175201708Y-123321277D01*
X175269580Y-123321004D01*
X175319254Y-123319686D01*
X175355098Y-123316867D01*
X175381484Y-123312090D01*
X175402782Y-123304897D01*
X175415582Y-123298907D01*
X175443708Y-123282273D01*
X175461640Y-123267208D01*
X175464261Y-123262937D01*
X175458732Y-123245303D01*
X175432448Y-123228232D01*
X175387230Y-123212498D01*
X175324900Y-123198878D01*
X175306537Y-123195844D01*
X175210618Y-123180778D01*
X175134067Y-123168186D01*
X175073928Y-123157151D01*
X175027248Y-123146760D01*
X174991071Y-123136096D01*
X174962443Y-123124245D01*
X174938410Y-123110291D01*
X174916016Y-123093321D01*
X174892306Y-123072418D01*
X174884328Y-123065089D01*
X174856355Y-123037739D01*
X174841548Y-123016069D01*
X174835756Y-122991272D01*
X174834819Y-122960023D01*
X174845133Y-122898745D01*
X174875956Y-122846680D01*
X174927113Y-122803998D01*
X174998425Y-122770865D01*
X175049308Y-122756004D01*
X175104608Y-122746406D01*
X175170855Y-122740976D01*
X175244002Y-122739407D01*
X175320005Y-122741391D01*
G37*
X179439962Y-117265347D02*
X179588014Y-117281555D01*
X179731452Y-117310566D01*
X179876110Y-117353893D01*
X180027824Y-117413049D01*
X180192428Y-117489548D01*
X180222071Y-117504365D01*
X180290098Y-117537879D01*
X180354256Y-117568056D01*
X180408215Y-117592014D01*
X180445640Y-117606872D01*
X180451389Y-117608743D01*
X180506486Y-117625250D01*
X180259851Y-117984049D01*
X180199552Y-118071741D01*
X180144422Y-118151860D01*
X180096336Y-118221684D01*
X180057168Y-118278495D01*
X180028794Y-118319571D01*
X180013087Y-118342194D01*
X180010536Y-118345776D01*
X180000171Y-118338286D01*
X179974660Y-118315766D01*
X179938563Y-118282309D01*
X179918642Y-118263398D01*
X179805773Y-118173626D01*
X179679014Y-118105409D01*
X179569783Y-118068043D01*
X179504214Y-118056308D01*
X179422116Y-118049156D01*
X179333144Y-118046722D01*
X179246956Y-118049136D01*
X179173205Y-118056531D01*
X179143776Y-118062195D01*
X179011133Y-118107830D01*
X178891606Y-118177511D01*
X178785283Y-118271108D01*
X178692253Y-118388497D01*
X178612605Y-118529548D01*
X178546426Y-118694134D01*
X178493806Y-118882128D01*
X178462533Y-119043065D01*
X178454374Y-119114111D01*
X178448815Y-119205894D01*
X178445802Y-119311816D01*
X178445281Y-119425282D01*
X178447200Y-119539697D01*
X178451503Y-119648465D01*
X178458137Y-119744991D01*
X178467049Y-119822679D01*
X178468979Y-119834665D01*
X178511499Y-120027740D01*
X178569433Y-120198621D01*
X178643133Y-120348072D01*
X178732951Y-120476859D01*
X178796707Y-120546487D01*
X178911286Y-120641021D01*
X179036942Y-120711094D01*
X179171557Y-120756325D01*
X179313011Y-120776332D01*
X179459183Y-120770733D01*
X179607955Y-120739148D01*
X179695911Y-120708242D01*
X179817629Y-120646354D01*
X179943080Y-120557577D01*
X180013353Y-120497542D01*
X180052811Y-120462795D01*
X180083812Y-120437302D01*
X180101458Y-120425018D01*
X180103648Y-120424643D01*
X180111524Y-120437195D01*
X180131932Y-120470364D01*
X180163132Y-120521306D01*
X180203386Y-120587179D01*
X180250957Y-120665137D01*
X180304104Y-120752338D01*
X180333687Y-120800915D01*
X180559648Y-121172063D01*
X180277527Y-121311487D01*
X180175522Y-121361567D01*
X180092889Y-121401058D01*
X180024578Y-121431921D01*
X179965537Y-121456116D01*
X179910714Y-121475606D01*
X179855060Y-121492351D01*
X179793523Y-121508313D01*
X179734540Y-121522330D01*
X179682115Y-121533177D01*
X179627288Y-121541374D01*
X179564572Y-121547376D01*
X179488477Y-121551638D01*
X179393516Y-121554615D01*
X179329513Y-121555900D01*
X179238192Y-121556778D01*
X179150627Y-121556335D01*
X179072612Y-121554700D01*
X179009942Y-121551997D01*
X178968413Y-121548353D01*
X178965952Y-121547990D01*
X178750303Y-121501335D01*
X178547793Y-121430577D01*
X178358495Y-121335762D01*
X178182479Y-121216937D01*
X178019816Y-121074148D01*
X177870578Y-120907442D01*
X177762496Y-120759281D01*
X177647434Y-120565350D01*
X177554423Y-120360547D01*
X177483013Y-120143231D01*
X177432756Y-119911760D01*
X177403201Y-119664491D01*
X177393889Y-119413407D01*
X177401548Y-119170518D01*
X177425613Y-118946418D01*
X177466852Y-118737325D01*
X177526027Y-118539461D01*
X177603904Y-118349044D01*
X177613203Y-118329316D01*
X177715648Y-118144907D01*
X177841472Y-117969424D01*
X177987112Y-117806498D01*
X178149001Y-117659762D01*
X178323576Y-117532849D01*
X178486244Y-117439753D01*
X178650573Y-117366839D01*
X178815251Y-117314022D01*
X178986652Y-117279863D01*
X179171153Y-117262926D01*
X179281459Y-117260428D01*
X179439962Y-117265347D01*
G36*
X179439962Y-117265347D02*
G01*
X179588014Y-117281555D01*
X179731452Y-117310566D01*
X179876110Y-117353893D01*
X180027824Y-117413049D01*
X180192428Y-117489548D01*
X180222071Y-117504365D01*
X180290098Y-117537879D01*
X180354256Y-117568056D01*
X180408215Y-117592014D01*
X180445640Y-117606872D01*
X180451389Y-117608743D01*
X180506486Y-117625250D01*
X180259851Y-117984049D01*
X180199552Y-118071741D01*
X180144422Y-118151860D01*
X180096336Y-118221684D01*
X180057168Y-118278495D01*
X180028794Y-118319571D01*
X180013087Y-118342194D01*
X180010536Y-118345776D01*
X180000171Y-118338286D01*
X179974660Y-118315766D01*
X179938563Y-118282309D01*
X179918642Y-118263398D01*
X179805773Y-118173626D01*
X179679014Y-118105409D01*
X179569783Y-118068043D01*
X179504214Y-118056308D01*
X179422116Y-118049156D01*
X179333144Y-118046722D01*
X179246956Y-118049136D01*
X179173205Y-118056531D01*
X179143776Y-118062195D01*
X179011133Y-118107830D01*
X178891606Y-118177511D01*
X178785283Y-118271108D01*
X178692253Y-118388497D01*
X178612605Y-118529548D01*
X178546426Y-118694134D01*
X178493806Y-118882128D01*
X178462533Y-119043065D01*
X178454374Y-119114111D01*
X178448815Y-119205894D01*
X178445802Y-119311816D01*
X178445281Y-119425282D01*
X178447200Y-119539697D01*
X178451503Y-119648465D01*
X178458137Y-119744991D01*
X178467049Y-119822679D01*
X178468979Y-119834665D01*
X178511499Y-120027740D01*
X178569433Y-120198621D01*
X178643133Y-120348072D01*
X178732951Y-120476859D01*
X178796707Y-120546487D01*
X178911286Y-120641021D01*
X179036942Y-120711094D01*
X179171557Y-120756325D01*
X179313011Y-120776332D01*
X179459183Y-120770733D01*
X179607955Y-120739148D01*
X179695911Y-120708242D01*
X179817629Y-120646354D01*
X179943080Y-120557577D01*
X180013353Y-120497542D01*
X180052811Y-120462795D01*
X180083812Y-120437302D01*
X180101458Y-120425018D01*
X180103648Y-120424643D01*
X180111524Y-120437195D01*
X180131932Y-120470364D01*
X180163132Y-120521306D01*
X180203386Y-120587179D01*
X180250957Y-120665137D01*
X180304104Y-120752338D01*
X180333687Y-120800915D01*
X180559648Y-121172063D01*
X180277527Y-121311487D01*
X180175522Y-121361567D01*
X180092889Y-121401058D01*
X180024578Y-121431921D01*
X179965537Y-121456116D01*
X179910714Y-121475606D01*
X179855060Y-121492351D01*
X179793523Y-121508313D01*
X179734540Y-121522330D01*
X179682115Y-121533177D01*
X179627288Y-121541374D01*
X179564572Y-121547376D01*
X179488477Y-121551638D01*
X179393516Y-121554615D01*
X179329513Y-121555900D01*
X179238192Y-121556778D01*
X179150627Y-121556335D01*
X179072612Y-121554700D01*
X179009942Y-121551997D01*
X178968413Y-121548353D01*
X178965952Y-121547990D01*
X178750303Y-121501335D01*
X178547793Y-121430577D01*
X178358495Y-121335762D01*
X178182479Y-121216937D01*
X178019816Y-121074148D01*
X177870578Y-120907442D01*
X177762496Y-120759281D01*
X177647434Y-120565350D01*
X177554423Y-120360547D01*
X177483013Y-120143231D01*
X177432756Y-119911760D01*
X177403201Y-119664491D01*
X177393889Y-119413407D01*
X177401548Y-119170518D01*
X177425613Y-118946418D01*
X177466852Y-118737325D01*
X177526027Y-118539461D01*
X177603904Y-118349044D01*
X177613203Y-118329316D01*
X177715648Y-118144907D01*
X177841472Y-117969424D01*
X177987112Y-117806498D01*
X178149001Y-117659762D01*
X178323576Y-117532849D01*
X178486244Y-117439753D01*
X178650573Y-117366839D01*
X178815251Y-117314022D01*
X178986652Y-117279863D01*
X179171153Y-117262926D01*
X179281459Y-117260428D01*
X179439962Y-117265347D01*
G37*
X185842270Y-117061673D02*
X185959041Y-117062152D01*
X185998729Y-117062393D01*
X186544486Y-117065983D01*
X186551351Y-119159767D01*
X186552258Y-119443690D01*
X186553062Y-119701488D01*
X186553815Y-119934494D01*
X186554569Y-120144042D01*
X186555375Y-120331466D01*
X186556285Y-120498098D01*
X186557351Y-120645273D01*
X186558624Y-120774325D01*
X186560156Y-120886587D01*
X186561998Y-120983392D01*
X186564203Y-121066074D01*
X186566822Y-121135967D01*
X186569906Y-121194405D01*
X186573508Y-121242720D01*
X186577678Y-121282248D01*
X186582469Y-121314321D01*
X186587931Y-121340272D01*
X186594118Y-121361437D01*
X186601080Y-121379147D01*
X186608869Y-121394737D01*
X186617537Y-121409541D01*
X186627135Y-121424892D01*
X186637715Y-121442124D01*
X186639884Y-121445794D01*
X186676268Y-121507879D01*
X186150431Y-121504282D01*
X185624594Y-121500686D01*
X185617729Y-121385179D01*
X185613992Y-121329747D01*
X185610097Y-121297699D01*
X185604811Y-121284983D01*
X185596903Y-121287544D01*
X185590270Y-121294872D01*
X185561374Y-121321562D01*
X185514279Y-121355869D01*
X185455620Y-121393694D01*
X185392031Y-121430938D01*
X185330149Y-121463501D01*
X185282634Y-121484925D01*
X185171316Y-121520131D01*
X185043596Y-121545070D01*
X184908901Y-121558789D01*
X184776663Y-121560334D01*
X184656308Y-121548754D01*
X184654326Y-121548422D01*
X184489641Y-121507098D01*
X184335479Y-121441260D01*
X184193328Y-121352322D01*
X184064675Y-121241700D01*
X183951007Y-121110809D01*
X183853810Y-120961064D01*
X183774572Y-120793881D01*
X183731430Y-120670038D01*
X183702979Y-120566429D01*
X183681880Y-120466100D01*
X183667488Y-120362957D01*
X183659158Y-120250905D01*
X183656245Y-120123849D01*
X183657535Y-120020100D01*
X184670650Y-120020100D01*
X184675444Y-120194070D01*
X184690568Y-120343743D01*
X184716485Y-120470445D01*
X184753663Y-120575506D01*
X184802565Y-120660254D01*
X184863658Y-120726017D01*
X184934177Y-120772507D01*
X184970871Y-120789862D01*
X185002696Y-120800267D01*
X185038177Y-120805027D01*
X185085841Y-120805449D01*
X185137189Y-120803596D01*
X185238169Y-120794689D01*
X185318035Y-120777246D01*
X185343135Y-120768509D01*
X185400448Y-120742705D01*
X185460897Y-120710301D01*
X185487297Y-120694081D01*
X185555946Y-120649053D01*
X185555946Y-119221830D01*
X185480432Y-119176566D01*
X185375121Y-119125420D01*
X185267525Y-119095172D01*
X185161581Y-119085643D01*
X185061224Y-119096655D01*
X184970387Y-119128029D01*
X184893007Y-119179588D01*
X184868039Y-119204336D01*
X184807856Y-119285425D01*
X184759145Y-119383582D01*
X184721499Y-119500491D01*
X184694512Y-119637833D01*
X184677775Y-119797292D01*
X184670883Y-119980548D01*
X184670650Y-120020100D01*
X183657535Y-120020100D01*
X183658073Y-119976915D01*
X183669647Y-119750901D01*
X183692920Y-119547040D01*
X183728504Y-119362361D01*
X183777013Y-119193896D01*
X183839060Y-119038674D01*
X183861201Y-118992656D01*
X183950385Y-118842587D01*
X184058159Y-118709225D01*
X184181990Y-118594725D01*
X184319342Y-118501237D01*
X184467683Y-118430916D01*
X184556604Y-118401908D01*
X184643933Y-118384688D01*
X184749011Y-118374442D01*
X184863029Y-118371166D01*
X184977177Y-118374857D01*
X185082648Y-118385508D01*
X185167334Y-118402218D01*
X185268128Y-118434988D01*
X185365822Y-118477127D01*
X185451296Y-118524367D01*
X185496789Y-118556429D01*
X185528169Y-118580270D01*
X185550142Y-118594787D01*
X185555141Y-118596848D01*
X185556690Y-118583566D01*
X185558135Y-118545511D01*
X185559443Y-118485367D01*
X185560583Y-118405821D01*
X185561521Y-118309559D01*
X185562226Y-118199267D01*
X185562667Y-118077629D01*
X185562811Y-117953733D01*
X185562730Y-117795044D01*
X185562335Y-117661256D01*
X185561395Y-117549808D01*
X185559680Y-117458143D01*
X185556957Y-117383701D01*
X185552997Y-117323923D01*
X185547569Y-117276250D01*
X185540441Y-117238122D01*
X185531384Y-117206982D01*
X185520167Y-117180269D01*
X185506558Y-117155425D01*
X185490328Y-117129891D01*
X185488240Y-117126729D01*
X185467306Y-117093658D01*
X185454667Y-117070917D01*
X185452973Y-117066120D01*
X185466216Y-117064607D01*
X185504002Y-117063376D01*
X185563416Y-117062447D01*
X185641542Y-117061840D01*
X185735465Y-117061575D01*
X185842270Y-117061673D01*
G36*
X185842270Y-117061673D02*
G01*
X185959041Y-117062152D01*
X185998729Y-117062393D01*
X186544486Y-117065983D01*
X186551351Y-119159767D01*
X186552258Y-119443690D01*
X186553062Y-119701488D01*
X186553815Y-119934494D01*
X186554569Y-120144042D01*
X186555375Y-120331466D01*
X186556285Y-120498098D01*
X186557351Y-120645273D01*
X186558624Y-120774325D01*
X186560156Y-120886587D01*
X186561998Y-120983392D01*
X186564203Y-121066074D01*
X186566822Y-121135967D01*
X186569906Y-121194405D01*
X186573508Y-121242720D01*
X186577678Y-121282248D01*
X186582469Y-121314321D01*
X186587931Y-121340272D01*
X186594118Y-121361437D01*
X186601080Y-121379147D01*
X186608869Y-121394737D01*
X186617537Y-121409541D01*
X186627135Y-121424892D01*
X186637715Y-121442124D01*
X186639884Y-121445794D01*
X186676268Y-121507879D01*
X186150431Y-121504282D01*
X185624594Y-121500686D01*
X185617729Y-121385179D01*
X185613992Y-121329747D01*
X185610097Y-121297699D01*
X185604811Y-121284983D01*
X185596903Y-121287544D01*
X185590270Y-121294872D01*
X185561374Y-121321562D01*
X185514279Y-121355869D01*
X185455620Y-121393694D01*
X185392031Y-121430938D01*
X185330149Y-121463501D01*
X185282634Y-121484925D01*
X185171316Y-121520131D01*
X185043596Y-121545070D01*
X184908901Y-121558789D01*
X184776663Y-121560334D01*
X184656308Y-121548754D01*
X184654326Y-121548422D01*
X184489641Y-121507098D01*
X184335479Y-121441260D01*
X184193328Y-121352322D01*
X184064675Y-121241700D01*
X183951007Y-121110809D01*
X183853810Y-120961064D01*
X183774572Y-120793881D01*
X183731430Y-120670038D01*
X183702979Y-120566429D01*
X183681880Y-120466100D01*
X183667488Y-120362957D01*
X183659158Y-120250905D01*
X183656245Y-120123849D01*
X183657535Y-120020100D01*
X184670650Y-120020100D01*
X184675444Y-120194070D01*
X184690568Y-120343743D01*
X184716485Y-120470445D01*
X184753663Y-120575506D01*
X184802565Y-120660254D01*
X184863658Y-120726017D01*
X184934177Y-120772507D01*
X184970871Y-120789862D01*
X185002696Y-120800267D01*
X185038177Y-120805027D01*
X185085841Y-120805449D01*
X185137189Y-120803596D01*
X185238169Y-120794689D01*
X185318035Y-120777246D01*
X185343135Y-120768509D01*
X185400448Y-120742705D01*
X185460897Y-120710301D01*
X185487297Y-120694081D01*
X185555946Y-120649053D01*
X185555946Y-119221830D01*
X185480432Y-119176566D01*
X185375121Y-119125420D01*
X185267525Y-119095172D01*
X185161581Y-119085643D01*
X185061224Y-119096655D01*
X184970387Y-119128029D01*
X184893007Y-119179588D01*
X184868039Y-119204336D01*
X184807856Y-119285425D01*
X184759145Y-119383582D01*
X184721499Y-119500491D01*
X184694512Y-119637833D01*
X184677775Y-119797292D01*
X184670883Y-119980548D01*
X184670650Y-120020100D01*
X183657535Y-120020100D01*
X183658073Y-119976915D01*
X183669647Y-119750901D01*
X183692920Y-119547040D01*
X183728504Y-119362361D01*
X183777013Y-119193896D01*
X183839060Y-119038674D01*
X183861201Y-118992656D01*
X183950385Y-118842587D01*
X184058159Y-118709225D01*
X184181990Y-118594725D01*
X184319342Y-118501237D01*
X184467683Y-118430916D01*
X184556604Y-118401908D01*
X184643933Y-118384688D01*
X184749011Y-118374442D01*
X184863029Y-118371166D01*
X184977177Y-118374857D01*
X185082648Y-118385508D01*
X185167334Y-118402218D01*
X185268128Y-118434988D01*
X185365822Y-118477127D01*
X185451296Y-118524367D01*
X185496789Y-118556429D01*
X185528169Y-118580270D01*
X185550142Y-118594787D01*
X185555141Y-118596848D01*
X185556690Y-118583566D01*
X185558135Y-118545511D01*
X185559443Y-118485367D01*
X185560583Y-118405821D01*
X185561521Y-118309559D01*
X185562226Y-118199267D01*
X185562667Y-118077629D01*
X185562811Y-117953733D01*
X185562730Y-117795044D01*
X185562335Y-117661256D01*
X185561395Y-117549808D01*
X185559680Y-117458143D01*
X185556957Y-117383701D01*
X185552997Y-117323923D01*
X185547569Y-117276250D01*
X185540441Y-117238122D01*
X185531384Y-117206982D01*
X185520167Y-117180269D01*
X185506558Y-117155425D01*
X185490328Y-117129891D01*
X185488240Y-117126729D01*
X185467306Y-117093658D01*
X185454667Y-117070917D01*
X185452973Y-117066120D01*
X185466216Y-117064607D01*
X185504002Y-117063376D01*
X185563416Y-117062447D01*
X185641542Y-117061840D01*
X185735465Y-117061575D01*
X185842270Y-117061673D01*
G37*
X182167505Y-118369077D02*
X182235531Y-118374226D01*
X182430163Y-118400121D01*
X182602529Y-118441423D01*
X182753470Y-118498701D01*
X182883825Y-118572522D01*
X182994434Y-118663456D01*
X183086135Y-118772070D01*
X183159770Y-118898933D01*
X183213539Y-119036200D01*
X183227187Y-119079985D01*
X183239073Y-119120989D01*
X183249334Y-119161417D01*
X183258113Y-119203478D01*
X183265548Y-119249379D01*
X183271780Y-119301328D01*
X183276950Y-119361533D01*
X183281196Y-119432200D01*
X183284660Y-119515537D01*
X183287481Y-119613753D01*
X183289800Y-119729053D01*
X183291757Y-119863647D01*
X183293491Y-120019741D01*
X183295143Y-120199543D01*
X183296324Y-120340524D01*
X183304270Y-121308470D01*
X183355756Y-121401618D01*
X183380137Y-121446493D01*
X183398280Y-121481349D01*
X183406935Y-121499902D01*
X183407243Y-121501159D01*
X183394014Y-121502597D01*
X183356326Y-121503922D01*
X183297183Y-121505097D01*
X183219586Y-121506085D01*
X183126536Y-121506847D01*
X183021035Y-121507348D01*
X182906084Y-121507549D01*
X182892378Y-121507551D01*
X182377513Y-121507551D01*
X182377513Y-121390848D01*
X182376635Y-121338108D01*
X182374292Y-121297774D01*
X182370921Y-121276148D01*
X182369431Y-121274146D01*
X182355804Y-121282531D01*
X182327757Y-121304540D01*
X182291303Y-121335449D01*
X182290485Y-121336164D01*
X182223962Y-121385691D01*
X182139948Y-121435423D01*
X182047937Y-121480474D01*
X181957421Y-121515958D01*
X181917567Y-121528084D01*
X181838255Y-121543485D01*
X181740935Y-121553313D01*
X181634516Y-121557428D01*
X181527907Y-121555689D01*
X181430017Y-121547956D01*
X181361513Y-121536829D01*
X181193520Y-121487496D01*
X181042281Y-121417190D01*
X180908782Y-121326781D01*
X180794006Y-121217143D01*
X180698937Y-121089147D01*
X180624560Y-120943666D01*
X180592474Y-120855389D01*
X180572365Y-120769587D01*
X180559038Y-120666584D01*
X180552872Y-120555882D01*
X180553074Y-120539773D01*
X181481648Y-120539773D01*
X181489348Y-120622032D01*
X181514989Y-120690394D01*
X181562378Y-120753818D01*
X181580579Y-120772415D01*
X181645282Y-120822694D01*
X181720066Y-120854904D01*
X181809662Y-120870496D01*
X181904012Y-120871644D01*
X181993501Y-120864064D01*
X182062018Y-120849237D01*
X182091775Y-120838101D01*
X182145408Y-120807752D01*
X182202235Y-120765069D01*
X182254082Y-120717165D01*
X182292778Y-120671149D01*
X182303054Y-120654269D01*
X182311042Y-120630630D01*
X182316721Y-120593016D01*
X182320356Y-120537833D01*
X182322211Y-120461488D01*
X182322594Y-120388829D01*
X182322335Y-120304118D01*
X182321287Y-120242866D01*
X182319045Y-120201075D01*
X182315206Y-120174747D01*
X182309365Y-120159883D01*
X182301118Y-120152487D01*
X182298567Y-120151309D01*
X182276400Y-120147681D01*
X182232680Y-120144714D01*
X182173311Y-120142675D01*
X182104196Y-120141831D01*
X182089189Y-120141830D01*
X181996805Y-120143305D01*
X181925432Y-120147690D01*
X181868719Y-120155586D01*
X181821872Y-120167118D01*
X181705669Y-120211063D01*
X181614543Y-120265091D01*
X181547705Y-120330067D01*
X181504365Y-120406853D01*
X181483734Y-120496315D01*
X181481648Y-120539773D01*
X180553074Y-120539773D01*
X180554244Y-120446981D01*
X180563532Y-120349384D01*
X180570777Y-120309953D01*
X180617039Y-120163549D01*
X180687384Y-120028843D01*
X180780484Y-119907128D01*
X180895012Y-119799695D01*
X181029640Y-119707836D01*
X181183040Y-119632844D01*
X181313459Y-119587306D01*
X181400623Y-119563381D01*
X181483996Y-119544791D01*
X181568976Y-119530932D01*
X181660965Y-119521199D01*
X181765362Y-119514989D01*
X181887568Y-119511699D01*
X181998055Y-119510772D01*
X182325677Y-119509875D01*
X182319401Y-119411395D01*
X182301579Y-119304543D01*
X182263667Y-119212700D01*
X182207280Y-119138158D01*
X182134031Y-119083212D01*
X182069535Y-119056400D01*
X181977123Y-119039502D01*
X181867111Y-119037075D01*
X181744656Y-119048226D01*
X181614914Y-119072058D01*
X181483042Y-119107678D01*
X181354198Y-119154191D01*
X181260566Y-119196731D01*
X181215517Y-119218576D01*
X181181156Y-119233832D01*
X181163681Y-119239785D01*
X181162733Y-119239594D01*
X181156703Y-119226260D01*
X181141645Y-119190916D01*
X181118977Y-119136949D01*
X181090115Y-119067744D01*
X181056477Y-118986688D01*
X181022284Y-118903966D01*
X180885586Y-118572651D01*
X180982820Y-118556681D01*
X181024964Y-118548668D01*
X181088319Y-118535209D01*
X181167457Y-118517527D01*
X181256951Y-118496844D01*
X181351373Y-118474380D01*
X181388973Y-118465251D01*
X181551637Y-118427522D01*
X181694050Y-118399236D01*
X181821527Y-118379820D01*
X181939384Y-118368702D01*
X182052938Y-118365312D01*
X182167505Y-118369077D01*
G36*
X182167505Y-118369077D02*
G01*
X182235531Y-118374226D01*
X182430163Y-118400121D01*
X182602529Y-118441423D01*
X182753470Y-118498701D01*
X182883825Y-118572522D01*
X182994434Y-118663456D01*
X183086135Y-118772070D01*
X183159770Y-118898933D01*
X183213539Y-119036200D01*
X183227187Y-119079985D01*
X183239073Y-119120989D01*
X183249334Y-119161417D01*
X183258113Y-119203478D01*
X183265548Y-119249379D01*
X183271780Y-119301328D01*
X183276950Y-119361533D01*
X183281196Y-119432200D01*
X183284660Y-119515537D01*
X183287481Y-119613753D01*
X183289800Y-119729053D01*
X183291757Y-119863647D01*
X183293491Y-120019741D01*
X183295143Y-120199543D01*
X183296324Y-120340524D01*
X183304270Y-121308470D01*
X183355756Y-121401618D01*
X183380137Y-121446493D01*
X183398280Y-121481349D01*
X183406935Y-121499902D01*
X183407243Y-121501159D01*
X183394014Y-121502597D01*
X183356326Y-121503922D01*
X183297183Y-121505097D01*
X183219586Y-121506085D01*
X183126536Y-121506847D01*
X183021035Y-121507348D01*
X182906084Y-121507549D01*
X182892378Y-121507551D01*
X182377513Y-121507551D01*
X182377513Y-121390848D01*
X182376635Y-121338108D01*
X182374292Y-121297774D01*
X182370921Y-121276148D01*
X182369431Y-121274146D01*
X182355804Y-121282531D01*
X182327757Y-121304540D01*
X182291303Y-121335449D01*
X182290485Y-121336164D01*
X182223962Y-121385691D01*
X182139948Y-121435423D01*
X182047937Y-121480474D01*
X181957421Y-121515958D01*
X181917567Y-121528084D01*
X181838255Y-121543485D01*
X181740935Y-121553313D01*
X181634516Y-121557428D01*
X181527907Y-121555689D01*
X181430017Y-121547956D01*
X181361513Y-121536829D01*
X181193520Y-121487496D01*
X181042281Y-121417190D01*
X180908782Y-121326781D01*
X180794006Y-121217143D01*
X180698937Y-121089147D01*
X180624560Y-120943666D01*
X180592474Y-120855389D01*
X180572365Y-120769587D01*
X180559038Y-120666584D01*
X180552872Y-120555882D01*
X180553074Y-120539773D01*
X181481648Y-120539773D01*
X181489348Y-120622032D01*
X181514989Y-120690394D01*
X181562378Y-120753818D01*
X181580579Y-120772415D01*
X181645282Y-120822694D01*
X181720066Y-120854904D01*
X181809662Y-120870496D01*
X181904012Y-120871644D01*
X181993501Y-120864064D01*
X182062018Y-120849237D01*
X182091775Y-120838101D01*
X182145408Y-120807752D01*
X182202235Y-120765069D01*
X182254082Y-120717165D01*
X182292778Y-120671149D01*
X182303054Y-120654269D01*
X182311042Y-120630630D01*
X182316721Y-120593016D01*
X182320356Y-120537833D01*
X182322211Y-120461488D01*
X182322594Y-120388829D01*
X182322335Y-120304118D01*
X182321287Y-120242866D01*
X182319045Y-120201075D01*
X182315206Y-120174747D01*
X182309365Y-120159883D01*
X182301118Y-120152487D01*
X182298567Y-120151309D01*
X182276400Y-120147681D01*
X182232680Y-120144714D01*
X182173311Y-120142675D01*
X182104196Y-120141831D01*
X182089189Y-120141830D01*
X181996805Y-120143305D01*
X181925432Y-120147690D01*
X181868719Y-120155586D01*
X181821872Y-120167118D01*
X181705669Y-120211063D01*
X181614543Y-120265091D01*
X181547705Y-120330067D01*
X181504365Y-120406853D01*
X181483734Y-120496315D01*
X181481648Y-120539773D01*
X180553074Y-120539773D01*
X180554244Y-120446981D01*
X180563532Y-120349384D01*
X180570777Y-120309953D01*
X180617039Y-120163549D01*
X180687384Y-120028843D01*
X180780484Y-119907128D01*
X180895012Y-119799695D01*
X181029640Y-119707836D01*
X181183040Y-119632844D01*
X181313459Y-119587306D01*
X181400623Y-119563381D01*
X181483996Y-119544791D01*
X181568976Y-119530932D01*
X181660965Y-119521199D01*
X181765362Y-119514989D01*
X181887568Y-119511699D01*
X181998055Y-119510772D01*
X182325677Y-119509875D01*
X182319401Y-119411395D01*
X182301579Y-119304543D01*
X182263667Y-119212700D01*
X182207280Y-119138158D01*
X182134031Y-119083212D01*
X182069535Y-119056400D01*
X181977123Y-119039502D01*
X181867111Y-119037075D01*
X181744656Y-119048226D01*
X181614914Y-119072058D01*
X181483042Y-119107678D01*
X181354198Y-119154191D01*
X181260566Y-119196731D01*
X181215517Y-119218576D01*
X181181156Y-119233832D01*
X181163681Y-119239785D01*
X181162733Y-119239594D01*
X181156703Y-119226260D01*
X181141645Y-119190916D01*
X181118977Y-119136949D01*
X181090115Y-119067744D01*
X181056477Y-118986688D01*
X181022284Y-118903966D01*
X180885586Y-118572651D01*
X180982820Y-118556681D01*
X181024964Y-118548668D01*
X181088319Y-118535209D01*
X181167457Y-118517527D01*
X181256951Y-118496844D01*
X181351373Y-118474380D01*
X181388973Y-118465251D01*
X181551637Y-118427522D01*
X181694050Y-118399236D01*
X181821527Y-118379820D01*
X181939384Y-118368702D01*
X182052938Y-118365312D01*
X182167505Y-118369077D01*
G37*
X173044257Y-116578537D02*
X173308780Y-116578573D01*
X173431912Y-116578578D01*
X175402811Y-116578578D01*
X175402811Y-116694758D01*
X175415211Y-116836139D01*
X175452636Y-116966532D01*
X175515423Y-117086710D01*
X175603906Y-117197450D01*
X175633843Y-117227359D01*
X175741534Y-117312196D01*
X175860275Y-117374069D01*
X175986540Y-117413007D01*
X176116803Y-117429038D01*
X176247535Y-117422190D01*
X176375212Y-117392491D01*
X176496305Y-117339968D01*
X176607288Y-117264651D01*
X176657132Y-117219211D01*
X176750017Y-117107800D01*
X176818127Y-116985283D01*
X176860871Y-116853063D01*
X176877653Y-116712540D01*
X176877876Y-116698715D01*
X176878756Y-116578582D01*
X176931557Y-116578580D01*
X176978396Y-116584937D01*
X177021183Y-116600404D01*
X177024011Y-116602002D01*
X177033675Y-116607016D01*
X177042549Y-116610921D01*
X177050665Y-116614855D01*
X177058057Y-116619954D01*
X177064755Y-116627356D01*
X177070792Y-116638199D01*
X177076199Y-116653620D01*
X177081010Y-116674757D01*
X177085255Y-116702747D01*
X177088968Y-116738727D01*
X177092179Y-116783835D01*
X177094922Y-116839208D01*
X177097228Y-116905985D01*
X177099129Y-116985301D01*
X177100658Y-117078295D01*
X177101846Y-117186105D01*
X177102726Y-117309867D01*
X177103330Y-117450719D01*
X177103689Y-117609798D01*
X177103835Y-117788243D01*
X177103802Y-117987190D01*
X177103620Y-118207777D01*
X177103323Y-118451141D01*
X177102941Y-118718420D01*
X177102508Y-119010751D01*
X177102055Y-119329272D01*
X177102002Y-119368078D01*
X177101596Y-119688630D01*
X177101251Y-119982860D01*
X177100931Y-120251904D01*
X177100600Y-120496900D01*
X177100221Y-120718985D01*
X177099757Y-120919295D01*
X177099172Y-121098967D01*
X177098430Y-121259138D01*
X177097494Y-121400946D01*
X177096327Y-121525527D01*
X177094893Y-121634018D01*
X177093156Y-121727555D01*
X177091078Y-121807277D01*
X177088624Y-121874320D01*
X177085756Y-121929821D01*
X177082439Y-121974916D01*
X177078636Y-122010743D01*
X177074310Y-122038439D01*
X177069425Y-122059141D01*
X177063945Y-122073985D01*
X177057832Y-122084108D01*
X177051050Y-122090648D01*
X177043563Y-122094741D01*
X177035334Y-122097524D01*
X177026327Y-122100135D01*
X177016505Y-122103710D01*
X177014106Y-122104798D01*
X177006565Y-122107244D01*
X176993944Y-122109490D01*
X176975141Y-122111546D01*
X176949053Y-122113420D01*
X176914578Y-122115119D01*
X176870615Y-122116651D01*
X176816061Y-122118025D01*
X176749815Y-122119248D01*
X176670774Y-122120329D01*
X176577837Y-122121275D01*
X176469901Y-122122095D01*
X176345864Y-122122795D01*
X176204624Y-122123386D01*
X176045079Y-122123873D01*
X175866128Y-122124267D01*
X175666668Y-122124573D01*
X175445596Y-122124801D01*
X175201812Y-122124958D01*
X174934213Y-122125053D01*
X174641697Y-122125093D01*
X174323161Y-122125086D01*
X174219979Y-122125076D01*
X173894377Y-122125024D01*
X173595119Y-122124939D01*
X173321091Y-122124811D01*
X173071176Y-122124633D01*
X172844260Y-122124396D01*
X172639227Y-122124090D01*
X172454962Y-122123708D01*
X172290350Y-122123240D01*
X172144275Y-122122678D01*
X172015624Y-122122013D01*
X171903279Y-122121236D01*
X171806126Y-122120339D01*
X171723050Y-122119313D01*
X171652936Y-122118149D01*
X171594668Y-122116839D01*
X171547131Y-122115373D01*
X171509210Y-122113744D01*
X171479790Y-122111941D01*
X171457755Y-122109958D01*
X171441990Y-122107784D01*
X171431380Y-122105411D01*
X171425596Y-122103239D01*
X171415316Y-122098904D01*
X171405878Y-122095707D01*
X171397245Y-122092513D01*
X171389381Y-122088186D01*
X171382252Y-122081592D01*
X171375821Y-122071595D01*
X171370053Y-122057060D01*
X171364911Y-122036851D01*
X171360360Y-122009833D01*
X171356365Y-121974871D01*
X171352889Y-121930829D01*
X171349898Y-121876572D01*
X171347354Y-121810965D01*
X171345223Y-121732872D01*
X171343468Y-121641158D01*
X171342055Y-121534688D01*
X171341685Y-121493821D01*
X171708116Y-121493821D01*
X173003266Y-121493821D01*
X172978345Y-121456065D01*
X172953553Y-121417265D01*
X172932560Y-121380317D01*
X172915065Y-121342636D01*
X172900770Y-121301636D01*
X172889377Y-121254731D01*
X172880587Y-121199335D01*
X172874102Y-121132864D01*
X172869623Y-121052731D01*
X172866850Y-120956350D01*
X172865487Y-120841137D01*
X172865233Y-120704505D01*
X172865791Y-120543868D01*
X172866107Y-120484230D01*
X172869675Y-119844889D01*
X173274702Y-120396297D01*
X173389446Y-120552724D01*
X173488857Y-120688936D01*
X173574010Y-120806738D01*
X173645978Y-120907932D01*
X173705834Y-120994325D01*
X173754652Y-121067722D01*
X173793505Y-121129925D01*
X173823466Y-121182741D01*
X173845609Y-121227973D01*
X173861007Y-121267426D01*
X173870734Y-121302906D01*
X173875863Y-121336216D01*
X173877468Y-121369161D01*
X173876621Y-121403545D01*
X173876405Y-121407867D01*
X173871946Y-121493879D01*
X175291308Y-121493821D01*
X175540627Y-121493821D01*
X176146604Y-121493821D01*
X176291266Y-121493779D01*
X176410756Y-121493589D01*
X176507358Y-121493156D01*
X176583358Y-121492384D01*
X176641043Y-121491178D01*
X176682699Y-121489442D01*
X176710611Y-121487080D01*
X176727065Y-121483998D01*
X176734348Y-121480099D01*
X176734745Y-121475288D01*
X176730542Y-121469470D01*
X176730499Y-121469422D01*
X176713187Y-121444380D01*
X176690264Y-121403663D01*
X176670019Y-121363016D01*
X176631621Y-121281010D01*
X176623789Y-118432092D01*
X175540627Y-118432092D01*
X175591854Y-118524767D01*
X175643081Y-118617443D01*
X175643081Y-121308470D01*
X175591854Y-121401146D01*
X175540627Y-121493821D01*
X175291308Y-121493821D01*
X175185735Y-121387370D01*
X175157087Y-121358254D01*
X175129910Y-121329924D01*
X175103011Y-121300816D01*
X175075197Y-121269368D01*
X175045275Y-121234017D01*
X175012054Y-121193202D01*
X174974339Y-121145359D01*
X174930940Y-121088927D01*
X174880662Y-121022342D01*
X174822312Y-120944043D01*
X174754700Y-120852467D01*
X174676631Y-120746052D01*
X174586912Y-120623235D01*
X174484352Y-120482453D01*
X174367758Y-120322145D01*
X174272191Y-120190646D01*
X174152251Y-120025444D01*
X174047620Y-119881000D01*
X173957352Y-119755942D01*
X173880497Y-119648900D01*
X173816109Y-119558502D01*
X173763239Y-119483377D01*
X173720940Y-119422152D01*
X173688264Y-119373458D01*
X173664262Y-119335922D01*
X173647987Y-119308173D01*
X173638492Y-119288840D01*
X173634827Y-119276551D01*
X173635929Y-119270090D01*
X173649276Y-119252896D01*
X173678134Y-119216503D01*
X173720760Y-119163072D01*
X173775415Y-119094767D01*
X173840356Y-119013751D01*
X173913842Y-118922188D01*
X173994132Y-118822240D01*
X174079485Y-118716072D01*
X174168160Y-118605845D01*
X174258414Y-118493724D01*
X174308056Y-118432092D01*
X174348507Y-118381872D01*
X174436698Y-118272452D01*
X174521246Y-118167626D01*
X174600408Y-118069559D01*
X174672444Y-117980414D01*
X174735613Y-117902353D01*
X174788173Y-117837540D01*
X174828383Y-117788138D01*
X174852000Y-117759335D01*
X174943710Y-117651626D01*
X175031940Y-117554428D01*
X175113597Y-117470924D01*
X175185590Y-117404296D01*
X175236681Y-117363447D01*
X175297093Y-117319983D01*
X173907702Y-117319983D01*
X173908092Y-117401514D01*
X173904209Y-117461454D01*
X173889610Y-117517025D01*
X173867012Y-117569703D01*
X173852322Y-117599463D01*
X173836528Y-117628951D01*
X173818186Y-117660124D01*
X173795855Y-117694941D01*
X173768091Y-117735358D01*
X173733451Y-117783334D01*
X173690493Y-117840826D01*
X173637773Y-117909791D01*
X173573849Y-117992187D01*
X173497279Y-118089972D01*
X173406619Y-118205103D01*
X173300426Y-118339538D01*
X173288432Y-118354707D01*
X172869675Y-118884260D01*
X172865622Y-118297770D01*
X172864805Y-118122099D01*
X172864979Y-117973380D01*
X172866151Y-117851123D01*
X172868331Y-117754837D01*
X172871526Y-117684031D01*
X172875744Y-117638217D01*
X172877162Y-117629527D01*
X172899409Y-117537983D01*
X172928557Y-117455456D01*
X172961818Y-117389101D01*
X172981800Y-117360958D01*
X173016278Y-117319983D01*
X172362086Y-117319983D01*
X172206031Y-117320117D01*
X172075533Y-117320551D01*
X171968690Y-117321337D01*
X171883602Y-117322524D01*
X171818365Y-117324165D01*
X171771079Y-117326309D01*
X171739843Y-117329007D01*
X171722754Y-117332310D01*
X171717912Y-117336269D01*
X171718247Y-117337146D01*
X171732115Y-117358079D01*
X171755268Y-117391260D01*
X171767246Y-117408041D01*
X171779631Y-117424788D01*
X171790763Y-117439763D01*
X171800712Y-117454442D01*
X171809549Y-117470297D01*
X171817343Y-117488803D01*
X171824165Y-117511433D01*
X171830084Y-117539661D01*
X171835171Y-117574961D01*
X171839496Y-117618806D01*
X171843129Y-117672670D01*
X171846140Y-117738028D01*
X171848599Y-117816352D01*
X171850577Y-117909116D01*
X171852142Y-118017795D01*
X171853366Y-118143861D01*
X171854319Y-118288790D01*
X171855070Y-118454054D01*
X171855689Y-118641127D01*
X171856248Y-118851483D01*
X171856815Y-119086596D01*
X171857345Y-119302589D01*
X171857845Y-119543383D01*
X171858105Y-119773122D01*
X171858132Y-119990341D01*
X171857933Y-120193570D01*
X171857514Y-120381344D01*
X171856882Y-120552193D01*
X171856044Y-120704651D01*
X171855008Y-120837251D01*
X171853780Y-120948524D01*
X171852367Y-121037004D01*
X171850775Y-121101223D01*
X171849013Y-121139713D01*
X171848679Y-121143781D01*
X171836534Y-121237096D01*
X171817573Y-121312038D01*
X171788698Y-121377442D01*
X171746810Y-121442141D01*
X171741571Y-121449200D01*
X171708116Y-121493821D01*
X171341685Y-121493821D01*
X171340946Y-121412327D01*
X171340107Y-121272938D01*
X171339502Y-121115387D01*
X171339095Y-120938539D01*
X171338850Y-120741258D01*
X171338733Y-120522408D01*
X171338705Y-120280855D01*
X171338733Y-120015463D01*
X171338780Y-119725097D01*
X171338810Y-119408621D01*
X171338811Y-119345794D01*
X171338828Y-119025985D01*
X171338888Y-118732509D01*
X171338998Y-118464238D01*
X171339167Y-118220046D01*
X171339403Y-117998805D01*
X171339716Y-117799388D01*
X171340115Y-117620668D01*
X171340607Y-117461519D01*
X171341203Y-117320814D01*
X171341910Y-117197424D01*
X171342737Y-117090224D01*
X171343693Y-116998086D01*
X171344787Y-116919883D01*
X171346027Y-116854489D01*
X171347422Y-116800776D01*
X171348982Y-116757617D01*
X171350714Y-116723885D01*
X171352628Y-116698453D01*
X171354732Y-116680195D01*
X171357034Y-116667982D01*
X171359545Y-116660689D01*
X171359637Y-116660507D01*
X171364808Y-116649366D01*
X171369115Y-116639279D01*
X171373879Y-116630194D01*
X171380422Y-116622060D01*
X171390065Y-116614824D01*
X171404129Y-116608434D01*
X171423937Y-116602837D01*
X171450809Y-116597981D01*
X171486067Y-116593814D01*
X171531032Y-116590284D01*
X171587026Y-116587339D01*
X171655371Y-116584925D01*
X171737386Y-116582992D01*
X171834395Y-116581486D01*
X171947718Y-116580356D01*
X172078677Y-116579550D01*
X172228593Y-116579014D01*
X172398787Y-116578697D01*
X172590582Y-116578547D01*
X172805298Y-116578511D01*
X173044257Y-116578537D01*
G36*
X173044257Y-116578537D02*
G01*
X173308780Y-116578573D01*
X173431912Y-116578578D01*
X175402811Y-116578578D01*
X175402811Y-116694758D01*
X175415211Y-116836139D01*
X175452636Y-116966532D01*
X175515423Y-117086710D01*
X175603906Y-117197450D01*
X175633843Y-117227359D01*
X175741534Y-117312196D01*
X175860275Y-117374069D01*
X175986540Y-117413007D01*
X176116803Y-117429038D01*
X176247535Y-117422190D01*
X176375212Y-117392491D01*
X176496305Y-117339968D01*
X176607288Y-117264651D01*
X176657132Y-117219211D01*
X176750017Y-117107800D01*
X176818127Y-116985283D01*
X176860871Y-116853063D01*
X176877653Y-116712540D01*
X176877876Y-116698715D01*
X176878756Y-116578582D01*
X176931557Y-116578580D01*
X176978396Y-116584937D01*
X177021183Y-116600404D01*
X177024011Y-116602002D01*
X177033675Y-116607016D01*
X177042549Y-116610921D01*
X177050665Y-116614855D01*
X177058057Y-116619954D01*
X177064755Y-116627356D01*
X177070792Y-116638199D01*
X177076199Y-116653620D01*
X177081010Y-116674757D01*
X177085255Y-116702747D01*
X177088968Y-116738727D01*
X177092179Y-116783835D01*
X177094922Y-116839208D01*
X177097228Y-116905985D01*
X177099129Y-116985301D01*
X177100658Y-117078295D01*
X177101846Y-117186105D01*
X177102726Y-117309867D01*
X177103330Y-117450719D01*
X177103689Y-117609798D01*
X177103835Y-117788243D01*
X177103802Y-117987190D01*
X177103620Y-118207777D01*
X177103323Y-118451141D01*
X177102941Y-118718420D01*
X177102508Y-119010751D01*
X177102055Y-119329272D01*
X177102002Y-119368078D01*
X177101596Y-119688630D01*
X177101251Y-119982860D01*
X177100931Y-120251904D01*
X177100600Y-120496900D01*
X177100221Y-120718985D01*
X177099757Y-120919295D01*
X177099172Y-121098967D01*
X177098430Y-121259138D01*
X177097494Y-121400946D01*
X177096327Y-121525527D01*
X177094893Y-121634018D01*
X177093156Y-121727555D01*
X177091078Y-121807277D01*
X177088624Y-121874320D01*
X177085756Y-121929821D01*
X177082439Y-121974916D01*
X177078636Y-122010743D01*
X177074310Y-122038439D01*
X177069425Y-122059141D01*
X177063945Y-122073985D01*
X177057832Y-122084108D01*
X177051050Y-122090648D01*
X177043563Y-122094741D01*
X177035334Y-122097524D01*
X177026327Y-122100135D01*
X177016505Y-122103710D01*
X177014106Y-122104798D01*
X177006565Y-122107244D01*
X176993944Y-122109490D01*
X176975141Y-122111546D01*
X176949053Y-122113420D01*
X176914578Y-122115119D01*
X176870615Y-122116651D01*
X176816061Y-122118025D01*
X176749815Y-122119248D01*
X176670774Y-122120329D01*
X176577837Y-122121275D01*
X176469901Y-122122095D01*
X176345864Y-122122795D01*
X176204624Y-122123386D01*
X176045079Y-122123873D01*
X175866128Y-122124267D01*
X175666668Y-122124573D01*
X175445596Y-122124801D01*
X175201812Y-122124958D01*
X174934213Y-122125053D01*
X174641697Y-122125093D01*
X174323161Y-122125086D01*
X174219979Y-122125076D01*
X173894377Y-122125024D01*
X173595119Y-122124939D01*
X173321091Y-122124811D01*
X173071176Y-122124633D01*
X172844260Y-122124396D01*
X172639227Y-122124090D01*
X172454962Y-122123708D01*
X172290350Y-122123240D01*
X172144275Y-122122678D01*
X172015624Y-122122013D01*
X171903279Y-122121236D01*
X171806126Y-122120339D01*
X171723050Y-122119313D01*
X171652936Y-122118149D01*
X171594668Y-122116839D01*
X171547131Y-122115373D01*
X171509210Y-122113744D01*
X171479790Y-122111941D01*
X171457755Y-122109958D01*
X171441990Y-122107784D01*
X171431380Y-122105411D01*
X171425596Y-122103239D01*
X171415316Y-122098904D01*
X171405878Y-122095707D01*
X171397245Y-122092513D01*
X171389381Y-122088186D01*
X171382252Y-122081592D01*
X171375821Y-122071595D01*
X171370053Y-122057060D01*
X171364911Y-122036851D01*
X171360360Y-122009833D01*
X171356365Y-121974871D01*
X171352889Y-121930829D01*
X171349898Y-121876572D01*
X171347354Y-121810965D01*
X171345223Y-121732872D01*
X171343468Y-121641158D01*
X171342055Y-121534688D01*
X171341685Y-121493821D01*
X171708116Y-121493821D01*
X173003266Y-121493821D01*
X172978345Y-121456065D01*
X172953553Y-121417265D01*
X172932560Y-121380317D01*
X172915065Y-121342636D01*
X172900770Y-121301636D01*
X172889377Y-121254731D01*
X172880587Y-121199335D01*
X172874102Y-121132864D01*
X172869623Y-121052731D01*
X172866850Y-120956350D01*
X172865487Y-120841137D01*
X172865233Y-120704505D01*
X172865791Y-120543868D01*
X172866107Y-120484230D01*
X172869675Y-119844889D01*
X173274702Y-120396297D01*
X173389446Y-120552724D01*
X173488857Y-120688936D01*
X173574010Y-120806738D01*
X173645978Y-120907932D01*
X173705834Y-120994325D01*
X173754652Y-121067722D01*
X173793505Y-121129925D01*
X173823466Y-121182741D01*
X173845609Y-121227973D01*
X173861007Y-121267426D01*
X173870734Y-121302906D01*
X173875863Y-121336216D01*
X173877468Y-121369161D01*
X173876621Y-121403545D01*
X173876405Y-121407867D01*
X173871946Y-121493879D01*
X175291308Y-121493821D01*
X175540627Y-121493821D01*
X176146604Y-121493821D01*
X176291266Y-121493779D01*
X176410756Y-121493589D01*
X176507358Y-121493156D01*
X176583358Y-121492384D01*
X176641043Y-121491178D01*
X176682699Y-121489442D01*
X176710611Y-121487080D01*
X176727065Y-121483998D01*
X176734348Y-121480099D01*
X176734745Y-121475288D01*
X176730542Y-121469470D01*
X176730499Y-121469422D01*
X176713187Y-121444380D01*
X176690264Y-121403663D01*
X176670019Y-121363016D01*
X176631621Y-121281010D01*
X176623789Y-118432092D01*
X175540627Y-118432092D01*
X175591854Y-118524767D01*
X175643081Y-118617443D01*
X175643081Y-121308470D01*
X175591854Y-121401146D01*
X175540627Y-121493821D01*
X175291308Y-121493821D01*
X175185735Y-121387370D01*
X175157087Y-121358254D01*
X175129910Y-121329924D01*
X175103011Y-121300816D01*
X175075197Y-121269368D01*
X175045275Y-121234017D01*
X175012054Y-121193202D01*
X174974339Y-121145359D01*
X174930940Y-121088927D01*
X174880662Y-121022342D01*
X174822312Y-120944043D01*
X174754700Y-120852467D01*
X174676631Y-120746052D01*
X174586912Y-120623235D01*
X174484352Y-120482453D01*
X174367758Y-120322145D01*
X174272191Y-120190646D01*
X174152251Y-120025444D01*
X174047620Y-119881000D01*
X173957352Y-119755942D01*
X173880497Y-119648900D01*
X173816109Y-119558502D01*
X173763239Y-119483377D01*
X173720940Y-119422152D01*
X173688264Y-119373458D01*
X173664262Y-119335922D01*
X173647987Y-119308173D01*
X173638492Y-119288840D01*
X173634827Y-119276551D01*
X173635929Y-119270090D01*
X173649276Y-119252896D01*
X173678134Y-119216503D01*
X173720760Y-119163072D01*
X173775415Y-119094767D01*
X173840356Y-119013751D01*
X173913842Y-118922188D01*
X173994132Y-118822240D01*
X174079485Y-118716072D01*
X174168160Y-118605845D01*
X174258414Y-118493724D01*
X174308056Y-118432092D01*
X174348507Y-118381872D01*
X174436698Y-118272452D01*
X174521246Y-118167626D01*
X174600408Y-118069559D01*
X174672444Y-117980414D01*
X174735613Y-117902353D01*
X174788173Y-117837540D01*
X174828383Y-117788138D01*
X174852000Y-117759335D01*
X174943710Y-117651626D01*
X175031940Y-117554428D01*
X175113597Y-117470924D01*
X175185590Y-117404296D01*
X175236681Y-117363447D01*
X175297093Y-117319983D01*
X173907702Y-117319983D01*
X173908092Y-117401514D01*
X173904209Y-117461454D01*
X173889610Y-117517025D01*
X173867012Y-117569703D01*
X173852322Y-117599463D01*
X173836528Y-117628951D01*
X173818186Y-117660124D01*
X173795855Y-117694941D01*
X173768091Y-117735358D01*
X173733451Y-117783334D01*
X173690493Y-117840826D01*
X173637773Y-117909791D01*
X173573849Y-117992187D01*
X173497279Y-118089972D01*
X173406619Y-118205103D01*
X173300426Y-118339538D01*
X173288432Y-118354707D01*
X172869675Y-118884260D01*
X172865622Y-118297770D01*
X172864805Y-118122099D01*
X172864979Y-117973380D01*
X172866151Y-117851123D01*
X172868331Y-117754837D01*
X172871526Y-117684031D01*
X172875744Y-117638217D01*
X172877162Y-117629527D01*
X172899409Y-117537983D01*
X172928557Y-117455456D01*
X172961818Y-117389101D01*
X172981800Y-117360958D01*
X173016278Y-117319983D01*
X172362086Y-117319983D01*
X172206031Y-117320117D01*
X172075533Y-117320551D01*
X171968690Y-117321337D01*
X171883602Y-117322524D01*
X171818365Y-117324165D01*
X171771079Y-117326309D01*
X171739843Y-117329007D01*
X171722754Y-117332310D01*
X171717912Y-117336269D01*
X171718247Y-117337146D01*
X171732115Y-117358079D01*
X171755268Y-117391260D01*
X171767246Y-117408041D01*
X171779631Y-117424788D01*
X171790763Y-117439763D01*
X171800712Y-117454442D01*
X171809549Y-117470297D01*
X171817343Y-117488803D01*
X171824165Y-117511433D01*
X171830084Y-117539661D01*
X171835171Y-117574961D01*
X171839496Y-117618806D01*
X171843129Y-117672670D01*
X171846140Y-117738028D01*
X171848599Y-117816352D01*
X171850577Y-117909116D01*
X171852142Y-118017795D01*
X171853366Y-118143861D01*
X171854319Y-118288790D01*
X171855070Y-118454054D01*
X171855689Y-118641127D01*
X171856248Y-118851483D01*
X171856815Y-119086596D01*
X171857345Y-119302589D01*
X171857845Y-119543383D01*
X171858105Y-119773122D01*
X171858132Y-119990341D01*
X171857933Y-120193570D01*
X171857514Y-120381344D01*
X171856882Y-120552193D01*
X171856044Y-120704651D01*
X171855008Y-120837251D01*
X171853780Y-120948524D01*
X171852367Y-121037004D01*
X171850775Y-121101223D01*
X171849013Y-121139713D01*
X171848679Y-121143781D01*
X171836534Y-121237096D01*
X171817573Y-121312038D01*
X171788698Y-121377442D01*
X171746810Y-121442141D01*
X171741571Y-121449200D01*
X171708116Y-121493821D01*
X171341685Y-121493821D01*
X171340946Y-121412327D01*
X171340107Y-121272938D01*
X171339502Y-121115387D01*
X171339095Y-120938539D01*
X171338850Y-120741258D01*
X171338733Y-120522408D01*
X171338705Y-120280855D01*
X171338733Y-120015463D01*
X171338780Y-119725097D01*
X171338810Y-119408621D01*
X171338811Y-119345794D01*
X171338828Y-119025985D01*
X171338888Y-118732509D01*
X171338998Y-118464238D01*
X171339167Y-118220046D01*
X171339403Y-117998805D01*
X171339716Y-117799388D01*
X171340115Y-117620668D01*
X171340607Y-117461519D01*
X171341203Y-117320814D01*
X171341910Y-117197424D01*
X171342737Y-117090224D01*
X171343693Y-116998086D01*
X171344787Y-116919883D01*
X171346027Y-116854489D01*
X171347422Y-116800776D01*
X171348982Y-116757617D01*
X171350714Y-116723885D01*
X171352628Y-116698453D01*
X171354732Y-116680195D01*
X171357034Y-116667982D01*
X171359545Y-116660689D01*
X171359637Y-116660507D01*
X171364808Y-116649366D01*
X171369115Y-116639279D01*
X171373879Y-116630194D01*
X171380422Y-116622060D01*
X171390065Y-116614824D01*
X171404129Y-116608434D01*
X171423937Y-116602837D01*
X171450809Y-116597981D01*
X171486067Y-116593814D01*
X171531032Y-116590284D01*
X171587026Y-116587339D01*
X171655371Y-116584925D01*
X171737386Y-116582992D01*
X171834395Y-116581486D01*
X171947718Y-116580356D01*
X172078677Y-116579550D01*
X172228593Y-116579014D01*
X172398787Y-116578697D01*
X172590582Y-116578547D01*
X172805298Y-116578511D01*
X173044257Y-116578537D01*
G37*
D14*
X172770353Y-113849620D02*
X172770353Y-114299200D01*
X172770353Y-114299200D02*
X172920213Y-114700520D01*
X172920213Y-114700520D02*
X173219933Y-114850380D01*
X172971013Y-113450840D02*
X172770353Y-113849620D01*
X173219933Y-114850380D02*
X173621253Y-114850380D01*
X173420593Y-113300980D02*
X172971013Y-113450840D01*
X173621253Y-113400040D02*
X173420593Y-113300980D01*
X173621253Y-114850380D02*
X173672053Y-114299200D01*
X173672053Y-114299200D02*
X173420593Y-114200140D01*
X174370553Y-113349240D02*
X175221453Y-114850380D01*
X174370553Y-114901180D02*
X174370553Y-113349240D01*
X174421353Y-106349000D02*
X174721073Y-107250700D01*
X174472153Y-106199140D02*
X175770093Y-105851160D01*
X174520413Y-105650500D02*
X174421353Y-106349000D01*
X174571213Y-106651260D02*
X174472153Y-106199140D01*
X174622013Y-105599700D02*
X175871693Y-105200920D01*
X174721073Y-107250700D02*
X175272253Y-107751080D01*
X174921733Y-107298960D02*
X175620233Y-106001020D01*
X174969993Y-104850400D02*
X174520413Y-105650500D01*
X175221453Y-114850380D02*
X175221453Y-113349240D01*
X175272253Y-107751080D02*
X175919953Y-108000000D01*
X175371313Y-104700540D02*
X176420333Y-104949460D01*
X175422113Y-107649480D02*
X175871693Y-106498860D01*
X175571973Y-104449080D02*
X174969993Y-104850400D01*
X175620233Y-106001020D02*
X174571213Y-106651260D01*
X175671033Y-109099820D02*
X177070573Y-108551180D01*
X175721833Y-106049280D02*
X175820893Y-105399040D01*
X175770093Y-105851160D02*
X174622013Y-105599700D01*
X175820893Y-105399040D02*
X176120613Y-105150120D01*
X175871693Y-105200920D02*
X175371313Y-104700540D01*
X175871693Y-106498860D02*
X174921733Y-107298960D01*
X175919953Y-104299220D02*
X175571973Y-104449080D01*
X175919953Y-106549660D02*
X175721833Y-106049280D01*
X175919953Y-108000000D02*
X176671793Y-106801120D01*
X175919953Y-113349240D02*
X175919953Y-114499860D01*
X175919953Y-114499860D02*
X176072353Y-114748780D01*
X176072353Y-114748780D02*
X176420333Y-114901180D01*
X176120613Y-105150120D02*
X176570193Y-105000260D01*
X176171413Y-107751080D02*
X176171413Y-108350520D01*
X176171413Y-108350520D02*
X175671033Y-109099820D01*
X176321273Y-104250960D02*
X175919953Y-104299220D01*
X176372073Y-104299220D02*
X177471893Y-104799600D01*
X176372073Y-106699520D02*
X175919953Y-106549660D01*
X176420333Y-104949460D02*
X176372073Y-104299220D01*
X176420333Y-106849380D02*
X175422113Y-107649480D01*
X176420333Y-109348740D02*
X176420333Y-108850900D01*
X176420333Y-109849120D02*
X176420333Y-109348740D01*
X176420333Y-114901180D02*
X176720053Y-114748780D01*
X176471133Y-110250440D02*
X176420333Y-109849120D01*
X176521933Y-110649220D02*
X176471133Y-110250440D01*
X176570193Y-105000260D02*
X177220433Y-104850400D01*
X176620993Y-111050540D02*
X176521933Y-110649220D01*
X176671793Y-106801120D02*
X177370293Y-106150880D01*
X176671793Y-111350260D02*
X176620993Y-111050540D01*
X176720053Y-106300740D02*
X176372073Y-106699520D01*
X176720053Y-114748780D02*
X176821653Y-114449060D01*
X176821653Y-114449060D02*
X176821653Y-113349240D01*
X176920713Y-111599180D02*
X176671793Y-111350260D01*
X176971513Y-108850900D02*
X177271233Y-109300480D01*
X177070573Y-108551180D02*
X177570953Y-108200660D01*
X177070573Y-111799840D02*
X176920713Y-111599180D01*
X177121373Y-106450600D02*
X177621753Y-106150880D01*
X177172173Y-105851160D02*
X176720053Y-106300740D01*
X177172173Y-109750060D02*
X177621753Y-110049780D01*
X177220433Y-104850400D02*
X177570953Y-104901200D01*
X177271233Y-104400820D02*
X176321273Y-104250960D01*
X177271233Y-109300480D02*
X177172173Y-109750060D01*
X177322033Y-112000500D02*
X177070573Y-111799840D01*
X177370293Y-106150880D02*
X177972273Y-105698760D01*
X177421093Y-110700020D02*
X177972273Y-111098800D01*
X177421093Y-112000500D02*
X177621753Y-111949700D01*
X177570953Y-104901200D02*
X178122133Y-104649740D01*
X177570953Y-108200660D02*
X177720813Y-107250700D01*
X177621753Y-106150880D02*
X178371053Y-105800360D01*
X177621753Y-110049780D02*
X177421093Y-110700020D01*
X177720813Y-107250700D02*
X178320253Y-106699520D01*
X177771613Y-105449840D02*
X177172173Y-105851160D01*
X177771613Y-111799840D02*
X178320253Y-112249420D01*
X177921473Y-104449080D02*
X177271233Y-104400820D01*
X177972273Y-105698760D02*
X178520913Y-105650500D01*
X177972273Y-111098800D02*
X177771613Y-111799840D01*
X178122133Y-104649740D02*
X178320253Y-104299220D01*
X178170393Y-107550420D02*
X178371053Y-107799340D01*
X178170393Y-113151120D02*
X178520913Y-113499100D01*
X178271993Y-105399040D02*
X177771613Y-105449840D01*
X178271993Y-112351020D02*
X178470113Y-112749800D01*
X178320253Y-104299220D02*
X177921473Y-104449080D01*
X178320253Y-109099820D02*
X178020533Y-109049020D01*
X178371053Y-105800360D02*
X178721573Y-105800360D01*
X178371053Y-107799340D02*
X178772373Y-107799340D01*
X178421853Y-107298960D02*
X178170393Y-107550420D01*
X178470113Y-109348740D02*
X178320253Y-109099820D01*
X178470113Y-112749800D02*
X178571713Y-113049520D01*
X178470113Y-113798820D02*
X178520913Y-113951220D01*
X178520913Y-105650500D02*
X178970493Y-105851160D01*
X178520913Y-113499100D02*
X178470113Y-113798820D01*
X178571713Y-113049520D02*
X178170393Y-113151120D01*
X178571713Y-113999480D02*
X178520913Y-114101080D01*
X178619973Y-109849120D02*
X178470113Y-109348740D01*
X178772373Y-105500640D02*
X178271993Y-105399040D01*
X178772373Y-107799340D02*
X179171153Y-107601220D01*
X178820633Y-110199640D02*
X178619973Y-109849120D01*
X178871433Y-107400560D02*
X178421853Y-107298960D01*
X178871433Y-112099560D02*
X178970493Y-112300220D01*
X178970493Y-105851160D02*
X179371813Y-105950220D01*
X178970493Y-110400300D02*
X178820633Y-110199640D01*
X178970493Y-112300220D02*
X179221953Y-112500880D01*
X179021293Y-111700780D02*
X178871433Y-112099560D01*
X179072093Y-105650500D02*
X178772373Y-105500640D01*
X179072093Y-108398780D02*
X178871433Y-108449580D01*
X179171153Y-106450600D02*
X179569933Y-106300740D01*
X179221953Y-107550420D02*
X178871433Y-107400560D01*
X179221953Y-108949960D02*
X179270213Y-109348740D01*
X179221953Y-112500880D02*
X179371813Y-112699000D01*
X179270213Y-105698760D02*
X179072093Y-105650500D01*
X179270213Y-108299720D02*
X179072093Y-108398780D01*
X179270213Y-109348740D02*
X179521673Y-109501140D01*
X179270213Y-113199380D02*
X179321013Y-113750560D01*
X179321013Y-113001260D02*
X179270213Y-113199380D01*
X179321013Y-113750560D02*
X179521673Y-113951220D01*
X179371813Y-105950220D02*
X179821393Y-105800360D01*
X179371813Y-112699000D02*
X179321013Y-113001260D01*
X179420073Y-108299720D02*
X179270213Y-108299720D01*
X179420073Y-110550160D02*
X178970493Y-110400300D01*
X179420073Y-111749040D02*
X179722333Y-112048760D01*
X179521673Y-109501140D02*
X179821393Y-109501140D01*
X179569933Y-106300740D02*
X179821393Y-105950220D01*
X179620733Y-108800100D02*
X179221953Y-108949960D01*
X179620733Y-111299460D02*
X179420073Y-111749040D01*
X179722333Y-108299720D02*
X179420073Y-108299720D01*
X179722333Y-112048760D02*
X180121113Y-112249420D01*
X179770593Y-105449840D02*
X179270213Y-105698760D01*
X179770593Y-110649220D02*
X180171913Y-110900680D01*
X179821393Y-105800360D02*
X180270973Y-105899420D01*
X179821393Y-107448820D02*
X179872193Y-107900940D01*
X179821393Y-109501140D02*
X179920453Y-109399540D01*
X179872193Y-107900940D02*
X180022053Y-108299720D01*
X179920453Y-106001020D02*
X180570693Y-106199140D01*
X179920453Y-109399540D02*
X180070313Y-109150620D01*
X179920453Y-110600960D02*
X179420073Y-110550160D01*
X179920453Y-113100320D02*
X180070313Y-113349240D01*
X180022053Y-105698760D02*
X180270973Y-105749560D01*
X180022053Y-108299720D02*
X180121113Y-108449580D01*
X180022053Y-108449580D02*
X179722333Y-108299720D01*
X180070313Y-109150620D02*
X179620733Y-108800100D01*
X180070313Y-112699000D02*
X179920453Y-113100320D01*
X180121113Y-111350260D02*
X180171913Y-111550920D01*
X180121113Y-112249420D02*
X180070313Y-112699000D01*
X180171913Y-105449840D02*
X179770593Y-105449840D01*
X180171913Y-108500380D02*
X180270973Y-108650240D01*
X180171913Y-110900680D02*
X180420833Y-110900680D01*
X180171913Y-111200400D02*
X180121113Y-111350260D01*
X180171913Y-111550920D02*
X180370033Y-111749040D01*
X180270973Y-104499880D02*
X180720553Y-105099320D01*
X180270973Y-105899420D02*
X180870413Y-106199140D01*
X180270973Y-108650240D02*
X180420833Y-108800100D01*
X180321773Y-104400820D02*
X180921213Y-104649740D01*
X180370033Y-107400560D02*
X180519893Y-107050040D01*
X180370033Y-110649220D02*
X179920453Y-110600960D01*
X180370033Y-111749040D02*
X180621493Y-111949700D01*
X180420833Y-108800100D02*
X180570693Y-108800100D01*
X180420833Y-109950720D02*
X180570693Y-110301240D01*
X180420833Y-110948940D02*
X180672293Y-111050540D01*
X180471633Y-105599700D02*
X180171913Y-105449840D01*
X180471633Y-112899660D02*
X180519893Y-112899660D01*
X180519893Y-107050040D02*
X180921213Y-107149100D01*
X180570693Y-106199140D02*
X180972013Y-106399800D01*
X180570693Y-108800100D02*
X180771353Y-108701040D01*
X180570693Y-110301240D02*
X180921213Y-110499360D01*
X180621493Y-111949700D02*
X180720553Y-112300220D01*
X180621493Y-112599940D02*
X180471633Y-112899660D01*
X180672293Y-111050540D02*
X180921213Y-111050540D01*
X180720553Y-105099320D02*
X181071073Y-105200920D01*
X180720553Y-105800360D02*
X180471633Y-105599700D01*
X180720553Y-111098800D02*
X180171913Y-111200400D01*
X180720553Y-112300220D02*
X180621493Y-112599940D01*
X180771353Y-108701040D02*
X180972013Y-108701040D01*
X180822153Y-109849120D02*
X180420833Y-109950720D01*
X180870413Y-106199140D02*
X181071073Y-106450600D01*
X180921213Y-104649740D02*
X181370793Y-104550680D01*
X180921213Y-107149100D02*
X181020273Y-107349760D01*
X180921213Y-107601220D02*
X180471633Y-107499620D01*
X180921213Y-108000000D02*
X180870413Y-108650240D01*
X180921213Y-108701040D02*
X181319993Y-108701040D01*
X180921213Y-109249680D02*
X180822153Y-109399540D01*
X180921213Y-111050540D02*
X180720553Y-111098800D01*
X180972013Y-106399800D02*
X182269953Y-107250700D01*
X180972013Y-109849120D02*
X180822153Y-109849120D01*
X180972013Y-110550160D02*
X180370033Y-110649220D01*
X181020273Y-107349760D02*
X180921213Y-107601220D01*
X181071073Y-105200920D02*
X181520653Y-105200920D01*
X181071073Y-106450600D02*
X181772113Y-107550420D01*
X181170133Y-106100080D02*
X180720553Y-105800360D01*
X181220933Y-114200140D02*
X181370793Y-114649720D01*
X181271733Y-113699760D02*
X181220933Y-114200140D01*
X181319993Y-108701040D02*
X181472393Y-108850900D01*
X181370793Y-104550680D02*
X181871173Y-104299220D01*
X181370793Y-114649720D02*
X181721313Y-114799580D01*
X181472393Y-105051060D02*
X181970233Y-104350020D01*
X181472393Y-108299720D02*
X181020273Y-107900940D01*
X181472393Y-108850900D02*
X180972013Y-109849120D01*
X181520653Y-105200920D02*
X181871173Y-105249180D01*
X181520653Y-106249940D02*
X181170133Y-106100080D01*
X181571453Y-113349240D02*
X181271733Y-113699760D01*
X181721313Y-114799580D02*
X182170893Y-114700520D01*
X181772113Y-107550420D02*
X182071833Y-108200660D01*
X181820373Y-106199140D02*
X181520653Y-106249940D01*
X181871173Y-104299220D02*
X182320753Y-104250960D01*
X181871173Y-105249180D02*
X182071833Y-105650500D01*
X181871173Y-113300980D02*
X181571453Y-113349240D01*
X181970233Y-104350020D02*
X180822153Y-105051060D01*
X182021033Y-106150880D02*
X182770333Y-106849380D01*
X182071833Y-105299980D02*
X183219913Y-104850400D01*
X182071833Y-105650500D02*
X182120093Y-105950220D01*
X182071833Y-108200660D02*
X181472393Y-108299720D01*
X182120093Y-105950220D02*
X181820373Y-106199140D01*
X182120093Y-113400040D02*
X181871173Y-113300980D01*
X182170893Y-114200140D02*
X181871173Y-114200140D01*
X182170893Y-114700520D02*
X182170893Y-114200140D01*
X182269953Y-107250700D02*
X182021033Y-106150880D01*
X182320753Y-104250960D02*
X182770333Y-104499880D01*
X182320753Y-105749560D02*
X183321513Y-106001020D01*
X182620473Y-107149100D02*
X182071833Y-107550420D01*
X182770333Y-104499880D02*
X183219913Y-104799600D01*
X182770333Y-106849380D02*
X182320753Y-105749560D01*
X182821133Y-113349240D02*
X183372313Y-113300980D01*
X182821133Y-114799580D02*
X182821133Y-113349240D01*
X183070053Y-106750320D02*
X182620473Y-107149100D01*
X183219913Y-104799600D02*
X183420573Y-105350780D01*
X183219913Y-104850400D02*
X181472393Y-105051060D01*
X183321513Y-106001020D02*
X182071833Y-105299980D01*
X183321513Y-106199140D02*
X183070053Y-106750320D01*
X183372313Y-113300980D02*
X183621233Y-113499100D01*
X183420573Y-105350780D02*
X183420573Y-105800360D01*
X183420573Y-105800360D02*
X183321513Y-106199140D01*
X183420573Y-114050280D02*
X182920193Y-113999480D01*
X183621233Y-113499100D02*
X183720293Y-113900420D01*
X183720293Y-113900420D02*
X183420573Y-114050280D01*
X184370533Y-113250180D02*
X184370533Y-114850380D01*
X184370533Y-114850380D02*
X185071573Y-114850380D01*
%TD*%
%LPC*%
D15*
%TO.C,J1*%
X164500000Y-93000000D03*
D16*
X167040000Y-93000000D03*
X169580000Y-93000000D03*
X172120000Y-93000000D03*
%TD*%
D15*
%TO.C,J2*%
X159500000Y-100540000D03*
D16*
X159500000Y-98000000D03*
X159500000Y-95460000D03*
X159500000Y-92920000D03*
%TD*%
D17*
%TO.C,R1*%
X179690000Y-102000000D03*
X187310000Y-102000000D03*
%TD*%
D18*
%TO.C,J3*%
X177500000Y-100000000D03*
D19*
X177500000Y-97500000D03*
%TD*%
D20*
%TO.C,Q1*%
X182500000Y-96000000D03*
D21*
X182500000Y-97270000D03*
X182500000Y-98540000D03*
%TD*%
%LPD*%
M02*
